<svg width="131" height="21" viewBox="0 0 131 21" fill="none" xmlns="http://www.w3.org/2000/svg">
<g opacity="0.5">
<path d="M10.3207 20.3043H1.68749C1.57984 20.3081 1.47254 20.2896 1.37233 20.2498C1.27212 20.2101 1.18113 20.1501 1.10497 20.0734C1.02881 19.9968 0.969097 19.9052 0.929613 19.8044C0.890128 19.7036 0.871736 19.5957 0.875474 19.4874V2.05915C0.872052 1.95094 0.89067 1.84315 0.930267 1.74248C0.969863 1.64181 1.0296 1.55039 1.10569 1.47384C1.18179 1.39728 1.27266 1.33722 1.37272 1.29738C1.47279 1.25754 1.57992 1.23878 1.68749 1.24222H10.1311C10.2387 1.23878 10.3458 1.25754 10.4459 1.29738C10.5459 1.33722 10.6368 1.39728 10.7129 1.47384C10.789 1.55039 10.8487 1.64181 10.8883 1.74248C10.9279 1.84315 10.9465 1.95094 10.9431 2.05915V3.61111C10.9467 3.71936 10.9282 3.8272 10.8887 3.92794C10.8491 4.02869 10.7894 4.1202 10.7133 4.19679C10.6372 4.27338 10.5462 4.3334 10.4461 4.37318C10.3459 4.41296 10.2387 4.43164 10.1311 4.42804H4.09566V8.78429H9.53553C9.64313 8.78069 9.75035 8.79937 9.85049 8.83915C9.95062 8.87893 10.0415 8.93898 10.1176 9.01557C10.1938 9.09216 10.2535 9.18364 10.293 9.28438C10.3326 9.38513 10.3511 9.49296 10.3475 9.60122V11.1262C10.3511 11.2345 10.3326 11.3423 10.293 11.4431C10.2535 11.5438 10.1938 11.6353 10.1176 11.7119C10.0415 11.7885 9.95062 11.8486 9.85049 11.8883C9.75035 11.9281 9.64313 11.9468 9.53553 11.9432H4.09566V17.1164H10.3207C10.4283 17.1128 10.5356 17.1314 10.6357 17.1712C10.7358 17.211 10.8268 17.271 10.9029 17.3476C10.979 17.4242 11.0387 17.5157 11.0783 17.6165C11.1178 17.7172 11.1363 17.8251 11.1327 17.9333V19.4853C11.1363 19.5935 11.1178 19.7014 11.0783 19.8021C11.0387 19.9028 10.979 19.9944 10.9029 20.0709C10.8268 20.1475 10.7358 20.2076 10.6357 20.2473C10.5356 20.2871 10.4283 20.3058 10.3207 20.3022V20.3043Z" fill="#0093C8"/>
<path d="M19.6848 4.07487C19.417 4.07119 19.1511 4.12091 18.9025 4.22117C18.6539 4.32142 18.4276 4.47024 18.2365 4.659C18.0446 4.83227 17.8912 5.04431 17.7864 5.28128C17.6815 5.51824 17.6276 5.77481 17.628 6.0342C17.6396 6.32979 17.7172 6.61893 17.8552 6.88016C17.9931 7.14139 18.1879 7.36796 18.4249 7.54303C19.0139 8.03866 19.6444 8.4822 20.3093 8.86866L22.5408 10.1921C23.3373 10.6789 23.9979 11.3612 24.4605 12.1752C24.9925 13.1052 25.2604 14.1643 25.235 15.237C25.2404 15.9426 25.0987 16.6414 24.8192 17.2885C24.5397 17.9356 24.1284 18.5166 23.6121 18.994C22.5539 20.0079 21.1487 20.5734 19.6875 20.5734C18.2263 20.5734 16.821 20.0079 15.7629 18.994C15.2424 18.5081 14.8289 17.9179 14.5491 17.2613C14.2694 16.6047 14.1296 15.8964 14.1389 15.1821C14.1354 15.0739 14.1541 14.9661 14.1936 14.8654C14.2332 14.7647 14.293 14.6733 14.3691 14.5968C14.4452 14.5202 14.536 14.4601 14.6361 14.4203C14.7362 14.3805 14.8433 14.3617 14.9509 14.3651H16.5202C16.6278 14.3617 16.7349 14.3804 16.8349 14.4203C16.9349 14.4601 17.0256 14.5202 17.1017 14.5968C17.1777 14.6734 17.2373 14.7648 17.2768 14.8655C17.3162 14.9661 17.3347 15.0739 17.3312 15.1821C17.3136 15.5 17.3691 15.8178 17.4934 16.1107C17.6177 16.4036 17.8075 16.6637 18.0479 16.8709C18.5044 17.2624 19.0859 17.4751 19.6858 17.4701C19.9763 17.479 20.2656 17.4279 20.5357 17.32C20.8058 17.2122 21.051 17.0498 21.2564 16.8428C21.4504 16.6618 21.6056 16.4428 21.7126 16.1993C21.8196 15.9558 21.8761 15.6929 21.8787 15.4267C21.8809 15.0817 21.8138 14.7398 21.6812 14.4216C21.5487 14.1034 21.3535 13.8155 21.1074 13.5752C20.5572 13.0198 19.9296 12.5478 19.2445 12.1741L17.0248 10.9358C16.2531 10.4979 15.6007 9.87526 15.1255 9.123C14.5078 8.08626 14.2498 6.87257 14.392 5.67237C14.5341 4.47217 15.0683 3.35339 15.9107 2.49164C16.4062 1.99588 16.9958 1.60549 17.6443 1.34368C18.2929 1.08188 18.9871 0.954047 19.6858 0.967749C20.401 0.930449 21.1155 1.05539 21.7762 1.33336C22.4369 1.61132 23.027 2.03518 23.5029 2.57357C24.3377 3.43889 24.8288 4.58167 24.8837 5.7863C24.8919 6.00251 24.815 6.21325 24.6695 6.3726C24.5964 6.44954 24.5078 6.50991 24.4097 6.54968C24.3117 6.58945 24.2063 6.6077 24.1006 6.60323H22.4776C22.0263 6.60323 21.7373 6.33092 21.6109 5.7863C21.4903 5.34689 21.2628 4.94464 20.9489 4.61588C20.7895 4.43928 20.594 4.29949 20.3757 4.2061C20.1575 4.11271 19.9218 4.06796 19.6848 4.07487Z" fill="#0093C8"/>
<path d="M35.1922 4.42824V19.4855C35.1958 19.5937 35.1773 19.7015 35.1377 19.8023C35.0982 19.903 35.0385 19.9945 34.9624 20.0711C34.8862 20.1477 34.7953 20.2077 34.6952 20.2475C34.5951 20.2873 34.4879 20.306 34.3803 20.3024H32.7027C32.595 20.3061 32.4877 20.2876 32.3875 20.2479C32.2873 20.2081 32.1964 20.1481 32.1202 20.0715C32.0441 19.9948 31.9844 19.9033 31.9449 19.8025C31.9054 19.7016 31.8869 19.5938 31.8906 19.4855V4.42824H28.6426C28.535 4.43185 28.4278 4.41316 28.3277 4.37338C28.2275 4.3336 28.1367 4.27358 28.0605 4.19699C27.9844 4.1204 27.9247 4.02889 27.8852 3.92815C27.8456 3.8274 27.8271 3.71957 27.8306 3.61132V2.05936C27.8274 1.95119 27.846 1.84349 27.8857 1.74289C27.9253 1.64229 27.9851 1.5509 28.0612 1.47437C28.1372 1.39785 28.2281 1.33781 28.3281 1.29792C28.4281 1.25802 28.5351 1.23915 28.6426 1.24243H38.4681C38.5757 1.23915 38.6828 1.25802 38.7828 1.29792C38.8828 1.33781 38.9736 1.39785 39.0497 1.47437C39.1257 1.5509 39.1854 1.64229 39.225 1.74289C39.2647 1.84349 39.2835 1.95119 39.2802 2.05936V3.61132C39.2838 3.71957 39.2652 3.8274 39.2257 3.92815C39.1861 4.02889 39.1264 4.1204 39.0503 4.19699C38.9742 4.27358 38.8833 4.3336 38.7832 4.37338C38.683 4.41316 38.5757 4.43185 38.4681 4.42824H35.1922Z" fill="#0093C8"/>
<path d="M53.0821 2.05936V15.239C53.0913 15.9458 52.9531 16.6467 52.6763 17.2965C52.3995 17.9462 51.9903 18.5303 51.4752 19.011C50.3849 20.0215 48.956 20.5814 47.4736 20.579C45.9912 20.5766 44.5642 20.0121 43.4771 18.9981C42.9586 18.5164 42.5461 17.9307 42.2663 17.2788C41.9866 16.6268 41.8459 15.9231 41.8531 15.2131V2.06476C41.85 1.95663 41.8689 1.84898 41.9086 1.74845C41.9483 1.64793 42.008 1.55663 42.0841 1.48014C42.1601 1.40365 42.2508 1.3436 42.3507 1.30365C42.4506 1.2637 42.5576 1.24471 42.6651 1.24784H44.2624C44.3699 1.24471 44.4769 1.2637 44.5768 1.30365C44.6767 1.3436 44.7674 1.40365 44.8434 1.48014C44.9195 1.55663 44.9792 1.64793 45.0189 1.74845C45.0586 1.84898 45.0775 1.95663 45.0744 2.06476V15.3791C45.078 15.6645 45.1442 15.9456 45.2683 16.2023C45.3924 16.459 45.5713 16.685 45.7922 16.8642C46.2582 17.2739 46.8554 17.5008 47.4743 17.5032C48.0932 17.5056 48.6922 17.2833 49.1613 16.8771C49.3794 16.6997 49.5555 16.4758 49.6772 16.2216C49.7989 15.9674 49.8631 15.6892 49.8651 15.4071V2.06476C49.8619 1.95659 49.8807 1.84889 49.9203 1.74829C49.96 1.64769 50.0196 1.5563 50.0957 1.47978C50.1717 1.40325 50.2626 1.34321 50.3626 1.30332C50.4626 1.26343 50.5696 1.24455 50.6771 1.24784H52.2744C52.382 1.24439 52.489 1.26316 52.5891 1.30299C52.6891 1.34283 52.7801 1.40289 52.8562 1.47945C52.9323 1.556 52.992 1.64742 53.0316 1.74809C53.0712 1.84876 53.0898 1.95654 53.0864 2.06476L53.0821 2.05936Z" fill="#0093C8"/>
<path d="M61.4725 20.3047H56.8982C56.7906 20.3081 56.6835 20.2893 56.5834 20.2495C56.4833 20.2097 56.3925 20.1496 56.3164 20.073C56.2403 19.9965 56.1806 19.9051 56.141 19.8044C56.1014 19.7037 56.0827 19.5959 56.0861 19.4877V2.05933C56.083 1.9512 56.1018 1.84355 56.1415 1.74302C56.1812 1.64249 56.241 1.5512 56.317 1.4747C56.3931 1.39821 56.4839 1.33816 56.5838 1.29821C56.6837 1.25826 56.7907 1.23927 56.8982 1.2424H61.4725C62.166 1.24112 62.8528 1.37759 63.4938 1.64399C64.1347 1.9104 64.7171 2.30149 65.2075 2.79483C65.6979 3.28817 66.0866 3.87406 66.3514 4.51888C66.6162 5.16371 66.7519 5.85481 66.7506 6.5525V14.9935C66.7519 15.6911 66.6162 16.3821 66.3514 17.0269C66.0865 17.6717 65.6978 18.2575 65.2074 18.7508C64.717 19.244 64.1346 19.635 63.4937 19.9013C62.8527 20.1676 62.1659 20.3039 61.4725 20.3025V20.3047ZM63.3943 15.1314V6.44581C63.3963 6.18058 63.3458 5.91758 63.2458 5.67216C63.1459 5.42673 62.9984 5.20377 62.812 5.01622C62.6255 4.82867 62.4039 4.6803 62.1599 4.57973C61.916 4.47916 61.6546 4.4284 61.391 4.43041H59.3341V17.1188H61.391C61.6538 17.1243 61.915 17.0766 62.159 16.9784C62.4031 16.8803 62.625 16.7338 62.8116 16.5476C63.0011 16.3652 63.1507 16.1451 63.2511 15.9012C63.3514 15.6574 63.4001 15.3953 63.3943 15.1314Z" fill="#0093C8"/>
<path d="M80.7155 17.7976V19.6492C80.7155 20.0839 80.4809 20.3016 80.0117 20.3023H70.5395C70.4539 20.3033 70.369 20.2871 70.2898 20.2547C70.2105 20.2222 70.1385 20.1742 70.0779 20.1133C70.0173 20.0525 69.9695 19.9801 69.9371 19.9004C69.9047 19.8207 69.8883 19.7353 69.8892 19.6492V17.7976C69.8889 17.7116 69.9055 17.6264 69.9381 17.5469C69.9707 17.4674 70.0186 17.3952 70.0791 17.3344C70.1395 17.2736 70.2113 17.2254 70.2903 17.1926C70.3693 17.1599 70.454 17.1432 70.5395 17.1434H73.6516V4.40123H70.5395C70.4539 4.40224 70.369 4.38603 70.2898 4.35357C70.2105 4.32112 70.1385 4.27308 70.0779 4.21225C70.0173 4.15141 69.9695 4.07902 69.9371 3.99931C69.9047 3.91961 69.8883 3.8342 69.8892 3.7481V1.89654C69.8882 1.81035 69.9044 1.72482 69.9367 1.645C69.969 1.56517 70.0169 1.49265 70.0775 1.4317C70.1381 1.37075 70.2101 1.3226 70.2895 1.29008C70.3688 1.25756 70.4538 1.24134 70.5395 1.24235H80.0117C80.4809 1.24235 80.7155 1.46041 80.7155 1.89654V3.7481C80.7155 4.18351 80.4809 4.40123 80.0117 4.40123H76.9264V17.1445H80.0117C80.4809 17.1445 80.7155 17.3622 80.7155 17.7976Z" fill="#0093C8"/>
<path d="M94.8154 6.3067V15.2381C94.8246 15.945 94.6864 16.6459 94.4096 17.2956C94.1328 17.9454 93.7236 18.5295 93.2085 19.0103C92.1182 20.0208 90.6895 20.5806 89.2071 20.5782C87.7247 20.5758 86.2976 20.0113 85.2105 18.9973C84.6919 18.5157 84.2794 17.93 83.9996 17.278C83.7199 16.6261 83.5791 15.9223 83.5865 15.2122V6.30778C83.5782 5.59946 83.7186 4.89733 83.9985 4.24732C84.2783 3.5973 84.6913 3.01404 85.2105 2.53562C86.3019 1.5287 87.7288 0.970093 89.2096 0.970093C90.6903 0.970093 92.1172 1.5287 93.2085 2.53562C93.7234 3.0163 94.1326 3.60024 94.4093 4.24978C94.6861 4.89933 94.8244 5.60004 94.8154 6.3067ZM91.5941 15.4019V6.14395C91.5923 5.86179 91.5282 5.58357 91.4065 5.32935C91.2848 5.07513 91.1085 4.85127 90.8903 4.67391C90.4238 4.26971 89.8284 4.04737 89.2127 4.04737C88.597 4.04737 88.0018 4.26971 87.5352 4.67391C87.3171 4.85133 87.1409 5.07518 87.0192 5.32938C86.8975 5.58359 86.8334 5.8618 86.8314 6.14395V15.3739C86.8341 15.6581 86.8983 15.9383 87.0199 16.1948C87.1414 16.4514 87.3174 16.6781 87.5352 16.8591C87.9922 17.2807 88.5927 17.5095 89.2127 17.4982C89.8304 17.5099 90.4297 17.2862 90.8903 16.872C91.1084 16.6946 91.2847 16.4707 91.4064 16.2165C91.5281 15.9623 91.5922 15.6841 91.5941 15.4019Z" fill="#0093C8"/>
<path d="M108.348 5.89842V6.98805C108.37 7.60352 108.269 8.21724 108.051 8.79256C107.832 9.36789 107.501 9.89303 107.076 10.3366C107.577 10.8045 107.974 11.3742 108.24 12.008C108.506 12.6418 108.635 13.3251 108.619 14.0129V15.3471C108.628 16.043 108.491 16.733 108.216 17.3714C107.94 18.0098 107.533 18.5821 107.022 19.0503C105.95 20.0315 104.553 20.5753 103.104 20.5753C101.656 20.5753 100.259 20.0315 99.1874 19.0503C98.6773 18.5758 98.2725 17.9982 97.9996 17.3554C97.7267 16.7126 97.592 16.0191 97.604 15.3202V14.014C97.592 13.3242 97.7257 12.6398 97.9965 12.006C98.2672 11.3722 98.6688 10.8036 99.1746 10.3377C98.3261 9.42253 97.8607 8.2136 97.8751 6.96217V5.8995C97.8676 5.24376 97.9989 4.59395 98.2602 3.99319C98.5216 3.39243 98.907 2.85448 99.3909 2.4151C100.41 1.48607 101.737 0.971558 103.112 0.971558C104.488 0.971558 105.814 1.48607 106.834 2.4151C107.317 2.8546 107.702 3.39245 107.963 3.99299C108.224 4.59353 108.355 5.24303 108.348 5.89842ZM105.208 15.4291V14.0409C105.209 13.7741 105.154 13.51 105.047 13.266C104.94 13.0219 104.782 12.8034 104.585 12.6247C104.393 12.4325 104.165 12.2806 103.915 12.1777C103.664 12.0748 103.395 12.0231 103.124 12.0255C102.573 12.0219 102.043 12.2373 101.649 12.6247C101.449 12.8014 101.289 13.0193 101.179 13.2636C101.069 13.5078 101.013 13.7729 101.014 14.0409V15.4301C101.009 15.6985 101.064 15.9646 101.174 16.2092C101.284 16.4539 101.446 16.6711 101.649 16.8453C102.068 17.2248 102.614 17.4294 103.178 17.4175C103.443 17.4224 103.706 17.3742 103.952 17.276C104.198 17.1778 104.423 17.0314 104.612 16.8453C104.805 16.6649 104.958 16.4454 105.061 16.2013C105.163 15.9572 105.214 15.6941 105.208 15.4291ZM104.994 7.12382V5.98031C104.998 5.73142 104.952 5.48426 104.856 5.25455C104.761 5.02483 104.619 4.81762 104.44 4.64607C104.264 4.47062 104.055 4.3325 103.825 4.23994C103.595 4.14737 103.348 4.10223 103.101 4.10719C102.855 4.10445 102.611 4.15114 102.383 4.24457C102.155 4.33801 101.948 4.47628 101.774 4.65127C101.6 4.82625 101.463 5.03444 101.37 5.26359C101.277 5.49275 101.231 5.73825 101.234 5.98571V7.12922C101.23 7.36338 101.275 7.59574 101.365 7.8114C101.456 8.02706 101.591 8.22129 101.761 8.3816C101.938 8.5538 102.148 8.68833 102.378 8.7772C102.609 8.86608 102.854 8.90745 103.101 8.8989C103.6 8.91481 104.085 8.73426 104.454 8.39561C104.629 8.23526 104.768 8.03854 104.861 7.819C104.954 7.59946 104.998 7.3623 104.991 7.12382H104.994Z" fill="#0093C8"/>
<path d="M118.931 5.4629C118.833 5.08851 118.619 4.75498 118.321 4.51018C117.956 4.22136 117.499 4.07616 117.036 4.10172C116.765 4.09203 116.495 4.13904 116.244 4.23979C115.992 4.34053 115.764 4.49281 115.574 4.68693C115.378 4.90498 115.226 5.1602 115.129 5.43774C115.031 5.71528 114.989 6.00959 115.006 6.30353V8.18309C115.716 7.58589 116.626 7.2837 117.55 7.33815C118.21 7.33044 118.864 7.46221 119.47 7.72491C120.076 7.9876 120.62 8.37539 121.068 8.86316C121.543 9.34697 121.917 9.92141 122.168 10.5527C122.419 11.184 122.542 11.8595 122.53 12.5393V15.3167C122.542 16.0155 122.407 16.709 122.134 17.3517C121.861 17.9945 121.457 18.5721 120.947 19.0467C120.419 19.552 119.797 19.947 119.117 20.2088C118.436 20.4706 117.711 20.5939 116.983 20.5717C116.274 20.5954 115.568 20.4738 114.907 20.2145C114.247 19.9551 113.645 19.5633 113.139 19.0629C112.646 18.5814 112.257 18.0028 111.997 17.3632C111.736 16.7237 111.609 16.0369 111.624 15.3457V6.22486C111.613 5.53327 111.743 4.84676 112.006 4.20765C112.269 3.56855 112.659 2.99041 113.152 2.50882C113.653 2.00299 114.25 1.60557 114.909 1.34107C115.568 1.07656 116.273 0.950587 116.982 0.97089C118.354 0.9248 119.692 1.41227 120.716 2.33207C121.175 2.71397 121.547 3.19181 121.804 3.73246C122.061 4.27311 122.198 4.8636 122.205 5.4629C122.214 5.67913 122.137 5.88991 121.991 6.0492C121.918 6.12599 121.83 6.18628 121.732 6.22604C121.634 6.26581 121.529 6.28414 121.423 6.27982H119.799C119.382 6.27982 119.092 6.00752 118.931 5.4629ZM117.09 10.4205C116.818 10.4168 116.547 10.4676 116.295 10.5699C116.042 10.6722 115.812 10.824 115.618 11.0166C115.424 11.2091 115.27 11.4384 115.165 11.6913C115.06 11.9442 115.006 12.2156 115.006 12.4897V15.4578C115.001 15.7246 115.051 15.9894 115.154 16.2354C115.256 16.4814 115.409 16.7033 115.601 16.8869C115.797 17.0803 116.031 17.2319 116.286 17.3326C116.542 17.4334 116.816 17.4812 117.09 17.4732C117.357 17.4819 117.622 17.4359 117.871 17.338C118.119 17.2401 118.345 17.0924 118.535 16.9039C118.725 16.7154 118.874 16.4899 118.975 16.2413C119.075 15.9927 119.124 15.7261 119.119 15.4578V12.4897C119.123 12.2204 119.073 11.953 118.973 11.7031C118.873 11.4532 118.725 11.2257 118.538 11.0337C118.353 10.8344 118.129 10.6765 117.879 10.5704C117.63 10.4644 117.361 10.4125 117.09 10.4183V10.4205Z" fill="#0093C8"/>
<path d="M130.25 3.63581V5.22116C130.255 5.56392 130.19 5.9041 130.057 6.2197C129.924 6.5353 129.726 6.81927 129.477 7.05329C128.971 7.536 128.3 7.80505 127.602 7.80505C126.905 7.80505 126.234 7.536 125.728 7.05329C125.479 6.81919 125.281 6.53518 125.148 6.2196C125.015 5.90402 124.95 5.5639 124.955 5.22116V3.63581C124.95 3.29307 125.016 2.95294 125.149 2.63737C125.282 2.3218 125.479 2.03779 125.728 1.80364C126.234 1.32094 126.905 1.05188 127.602 1.05188C128.3 1.05188 128.971 1.32094 129.477 1.80364C129.726 2.0377 129.923 2.32171 130.057 2.6373C130.19 2.95289 130.255 3.29305 130.25 3.63581ZM129.415 5.28474V3.56036C129.416 3.33241 129.369 3.10683 129.277 2.89868C129.184 2.69053 129.049 2.5046 128.879 2.3533C128.538 2.02264 128.08 1.84166 127.606 1.84998C127.128 1.84168 126.666 2.02244 126.32 2.3533C126.15 2.50415 126.014 2.69 125.922 2.89825C125.83 3.1065 125.783 3.3323 125.785 3.56036V5.28474C125.783 5.51278 125.83 5.73857 125.922 5.94681C126.014 6.15505 126.15 6.3409 126.32 6.4918C126.666 6.82265 127.128 7.00341 127.606 6.99511C128.08 7.00344 128.538 6.82245 128.879 6.4918C129.049 6.34053 129.185 6.1545 129.278 5.94615C129.371 5.7378 129.418 5.51194 129.417 5.28365L129.415 5.28474ZM128.383 4.85365L128.936 5.84084C128.957 5.8764 128.971 5.9155 128.977 5.95615C128.977 6.04021 128.911 6.08225 128.779 6.08225H128.372C128.315 6.08144 128.261 6.06406 128.214 6.03226C128.168 6.00046 128.132 5.95565 128.11 5.90336L127.61 4.99051H127.266V5.90336C127.266 6.02191 127.189 6.08225 127.036 6.08225H126.692C126.636 6.0852 126.582 6.06628 126.54 6.02946C126.522 6.01384 126.507 5.99447 126.498 5.97269C126.488 5.95092 126.483 5.92726 126.483 5.90336V2.90078C126.482 2.83896 126.504 2.77909 126.545 2.73265C126.566 2.70846 126.591 2.6893 126.62 2.67661C126.649 2.66391 126.681 2.65801 126.712 2.65937H127.871C128.122 2.65725 128.363 2.75308 128.544 2.92663C128.634 3.00556 128.707 3.10312 128.756 3.21264C128.806 3.32217 128.831 3.44111 128.831 3.56144V4.02269C128.828 4.18714 128.784 4.34811 128.702 4.49045C128.626 4.63459 128.518 4.75869 128.386 4.85257L128.383 4.85365ZM128.037 4.10893V3.56253C128.037 3.52776 128.03 3.49339 128.015 3.46178C128.001 3.43018 127.98 3.40207 127.954 3.3793C127.901 3.32779 127.829 3.29951 127.756 3.30062H127.234V4.36112H127.756C127.828 4.36227 127.899 4.33613 127.954 4.28781C127.981 4.26624 128.002 4.23886 128.017 4.20769C128.032 4.17653 128.04 4.1424 128.04 4.10784L128.037 4.10893Z" fill="#0093C8"/>
</g>
</svg>
