<svg width="58" height="58" viewBox="0 0 58 58" fill="none" xmlns="http://www.w3.org/2000/svg">
<path d="M0 29C0 45.0163 12.9837 58 29 58C45.0163 58 58 45.0163 58 29C58 12.9837 45.0163 0 29 0C12.9837 0 0 12.9837 0 29Z" fill="#36A9E1"/>
<path d="M26.5051 19.816C26.4492 19.8718 26.4048 19.938 26.3745 20.011C26.3442 20.0839 26.3286 20.1621 26.3286 20.241C26.3286 20.32 26.3442 20.3982 26.3745 20.4711C26.4048 20.5441 26.4492 20.6103 26.5051 20.666L33.9971 28.144L26.5051 35.637C26.3924 35.7498 26.329 35.9026 26.329 36.062C26.329 36.2215 26.3924 36.3743 26.5051 36.487C26.6178 36.5998 26.7707 36.6631 26.9301 36.6631C27.0895 36.6631 27.2424 36.5998 27.3551 36.487L35.2551 28.587C35.3115 28.5317 35.3562 28.4655 35.3865 28.3925C35.4167 28.3195 35.4319 28.2411 35.4311 28.162C35.4299 28.0029 35.3668 27.8504 35.2551 27.737L27.3551 19.837C27.3015 19.7784 27.2367 19.7311 27.1644 19.6982C27.0922 19.6652 27.014 19.6472 26.9346 19.6453C26.8552 19.6433 26.7762 19.6574 26.7024 19.6868C26.6286 19.7161 26.5615 19.7601 26.5051 19.816Z" fill="white"/>
</svg>
