<?xml version="1.0" encoding="utf-8"?>
<!-- Generator: Adobe Illustrator 24.1.2, SVG Export Plug-In . SVG Version: 6.00 Build 0)  -->
<svg version="1.1" id="Capa_1" xmlns="http://www.w3.org/2000/svg" xmlns:xlink="http://www.w3.org/1999/xlink" x="0px" y="0px"
	 viewBox="0 0 512 512" style="enable-background:new 0 0 512 512;" xml:space="preserve">
<g>
	<path d="M341.3,288.6V85.3C341.3,38.2,303.1,0,256,0s-85.3,38.2-85.3,85.3v203.3C144.5,312,128,346.1,128,384
		c0,70.7,57.3,128,128,128s128-57.3,128-128C384,346.1,367.5,312,341.3,288.6z M256,469.3c-47.1,0-85.3-38.2-85.3-85.3
		c0-24.6,10.4-47.5,28.5-63.6l14.2-12.7V85.3c0-23.6,19.1-42.7,42.7-42.7c23.6,0,42.7,19.1,42.7,42.7v222.3l14.2,12.7
		c18,16.1,28.5,39,28.5,63.6C341.3,431.1,303.1,469.3,256,469.3z"/>
	<path d="M277.3,323.7v-153c0,0-6.6-10.8-21.3-10.8s-21.3,10.8-21.3,10.8v153c-24.9,8.8-42.7,32.5-42.7,60.3c0,35.3,28.7,64,64,64
		c35.3,0,64-28.7,64-64C320,356.1,302.2,332.4,277.3,323.7z"/>
</g>
</svg>
