<svg width="56" height="56" viewBox="0 0 56 56" fill="none" xmlns="http://www.w3.org/2000/svg">
<rect x="1" y="1" width="54" height="54" rx="3" stroke="white" stroke-width="2"/>
<path d="M31.2338 27.9997C31.2338 28.9091 30.8931 29.7811 30.2866 30.4241C29.6801 31.0671 28.8576 31.4283 27.9999 31.4283C27.1423 31.4283 26.3197 31.0671 25.7133 30.4241C25.1068 29.7811 24.7661 28.9091 24.7661 27.9997C24.7661 27.0904 25.1068 26.2184 25.7133 25.5754C26.3197 24.9324 27.1423 24.5712 27.9999 24.5712C28.8576 24.5712 29.6801 24.9324 30.2866 25.5754C30.8931 26.2184 31.2338 27.0904 31.2338 27.9997V27.9997Z" stroke="white" stroke-width="2" stroke-linecap="round" stroke-linejoin="round"/>
<path d="M17.7144 28C19.0877 23.3634 23.1741 20 28.0001 20C32.8271 20 36.9125 23.3634 38.2858 28C36.9125 32.6366 32.8271 36 28.0001 36C23.1741 36 19.0877 32.6366 17.7144 28V28Z" stroke="white" stroke-width="2" stroke-linecap="round" stroke-linejoin="round"/>
</svg>
