<svg width="105" height="21" viewBox="0 0 105 21" fill="none" xmlns="http://www.w3.org/2000/svg">
<g opacity="0.5">
<path d="M20.15 18.7807C20.0008 19.1316 19.7932 19.4426 19.5297 19.7137C19.2663 19.9836 18.9575 20.1962 18.6058 20.349C18.2542 20.5019 17.8843 20.579 17.4977 20.579H3.7246C2.94991 20.579 2.28163 20.2906 1.71976 19.7137C1.15659 19.1356 0.875 18.4418 0.875 17.6311V3.52422C0.875 3.12816 0.950263 2.74937 1.09949 2.38919C1.24872 2.02901 1.45115 1.71401 1.70678 1.44288C1.96112 1.17308 2.26087 0.961755 2.60344 0.807581C2.94602 0.656066 3.31974 0.578979 3.7246 0.578979C4.11129 0.578979 4.48112 0.656066 4.83277 0.80891C5.18443 0.961755 5.49197 1.17308 5.75669 1.44421C6.02011 1.71401 6.22643 2.03034 6.37696 2.39052C6.52618 2.7507 6.60145 3.12948 6.60145 3.52555V14.6872H17.499C17.8856 14.6872 18.2555 14.7643 18.6071 14.9171C18.9588 15.0699 19.2663 15.2826 19.531 15.5524C19.7958 15.8222 20.0008 16.1385 20.1513 16.4987C20.3005 16.8589 20.3758 17.2377 20.3758 17.6337C20.3732 18.0458 20.2992 18.4285 20.15 18.7807Z" fill="#0093C8"/>
<path d="M36.8453 0.592163C37.2502 0.592163 37.6239 0.66925 37.9665 0.822094C38.3091 0.974938 38.6127 1.18759 38.8774 1.45739C39.1408 1.7272 39.3485 2.04352 39.4977 2.4037C39.6469 2.76388 39.7222 3.14267 39.7222 3.53873C39.7222 4.3322 39.4406 5.01667 38.8774 5.59216C38.3143 6.16898 37.6369 6.45739 36.8453 6.45739H29.9588C28.8688 6.45739 27.9267 6.86276 27.1352 7.6735C26.3436 8.48424 25.9478 9.45713 25.9478 10.5922C25.9478 11.7272 26.3436 12.7001 27.1352 13.5108C27.9098 14.3043 28.8506 14.7004 29.9588 14.7004H36.8453C37.2502 14.7004 37.6278 14.7774 37.9795 14.9303C38.3311 15.0831 38.6348 15.2905 38.8891 15.5523C39.1447 15.8141 39.3472 16.1251 39.4964 16.4853C39.6456 16.8455 39.7209 17.2336 39.7209 17.6469C39.7209 18.4404 39.4393 19.1249 38.8761 19.7003C38.313 20.2772 37.6356 20.5656 36.844 20.5656H29.9575C27.2662 20.5656 24.9707 19.5927 23.071 17.6469C21.1544 15.6839 20.1954 13.3327 20.1954 10.5935C20.1954 7.83698 21.1544 5.48584 23.071 3.54006C24.972 1.57435 27.2675 0.592163 29.9588 0.592163H36.8453ZM31.08 7.87552C31.4225 8.02837 31.7262 8.24102 31.9909 8.51082C32.2556 8.78063 32.4619 9.09695 32.6112 9.45713C32.7604 9.81731 32.8357 10.1961 32.8357 10.5922C32.8357 11.3856 32.5541 12.0701 31.9909 12.6456C31.4277 13.2224 30.7504 13.5108 29.9588 13.5108C29.5721 13.5108 29.2023 13.4337 28.8506 13.2809C28.499 13.128 28.1914 12.9207 27.9267 12.6589C27.6633 12.3984 27.457 12.0914 27.3065 11.7405C27.1572 11.3896 27.082 11.0068 27.082 10.5922C27.082 10.1961 27.1572 9.81731 27.3065 9.45713C27.4557 9.09695 27.6633 8.78196 27.9267 8.51082C28.1901 8.23969 28.499 8.0297 28.8506 7.87552C29.2023 7.72268 29.5721 7.64559 29.9588 7.64559C30.3637 7.64559 30.7374 7.72268 31.08 7.87552Z" fill="#0093C8"/>
<path d="M43.7565 20.5644C43.3516 20.5644 42.9779 20.4873 42.6353 20.3344C42.2928 20.1816 41.9891 19.9689 41.7244 19.6991C41.461 19.4293 41.2534 19.113 41.1041 18.7528C40.9549 18.3926 40.8796 18.0139 40.8796 17.6178C40.8796 16.8243 41.1612 16.1399 41.7244 15.5644C42.2876 14.9875 42.9649 14.6991 43.7565 14.6991H50.643C51.733 14.6991 52.6751 14.2938 53.4667 13.483C54.2582 12.6723 54.654 11.6994 54.654 10.5644C54.654 9.42933 54.2582 8.45644 53.4667 7.6457C52.692 6.85224 51.7512 6.45617 50.643 6.45617H43.7565C43.3516 6.45617 42.974 6.37909 42.6224 6.22624C42.2707 6.0734 41.9671 5.86606 41.7127 5.60423C41.4571 5.3424 41.2547 5.0314 41.1054 4.67122C40.9562 4.31104 40.8809 3.92295 40.8809 3.5096C40.8809 2.71614 41.1625 2.03167 41.7257 1.45617C42.2889 0.879353 42.9662 0.590942 43.7578 0.590942H50.6443C53.3356 0.590942 55.6311 1.56383 57.5308 3.5096C59.4474 5.47265 60.4064 7.8238 60.4064 10.563C60.4064 13.3195 59.4474 15.6707 57.5308 17.6165C55.6311 19.5795 53.3356 20.5617 50.6443 20.5617H43.7565V20.5644ZM49.5219 13.281C49.1793 13.1282 48.8756 12.9155 48.6109 12.6457C48.3462 12.3759 48.1399 12.0596 47.9907 11.6994C47.8414 11.3392 47.7662 10.9604 47.7662 10.5644C47.7662 9.7709 48.0478 9.08642 48.6109 8.51093C49.1741 7.93411 49.8515 7.6457 50.643 7.6457C51.0297 7.6457 51.3995 7.72279 51.7512 7.87563C52.1028 8.02848 52.4104 8.23581 52.6751 8.49764C52.9385 8.75814 53.1448 9.06516 53.2954 9.41604C53.4446 9.76691 53.5199 10.1497 53.5199 10.5644C53.5199 10.9604 53.4446 11.3392 53.2954 11.6994C53.1461 12.0596 52.9385 12.3746 52.6751 12.6457C52.4117 12.9168 52.1028 13.1268 51.7512 13.281C51.3995 13.4338 51.0297 13.5109 50.643 13.5109C50.2394 13.5109 49.8657 13.4338 49.5219 13.281Z" fill="#0093C8"/>
<path d="M82.0639 17.6311C82.0639 18.0458 81.9887 18.4285 81.8394 18.7794C81.6902 19.1303 81.4826 19.4413 81.2192 19.7124C80.9557 19.9822 80.6469 20.1949 80.2953 20.3477C79.9436 20.5006 79.5738 20.5777 79.1871 20.5777H72.3006C69.6093 20.5777 67.3138 19.6048 65.414 17.659C63.5143 15.7132 62.5645 13.3528 62.5645 10.579C62.5645 7.82247 63.5143 5.47132 65.414 3.52555C67.3319 1.56117 69.6274 0.578979 72.3006 0.578979H79.1871C79.5738 0.578979 79.9436 0.656066 80.2953 0.80891C80.6469 0.961755 80.9544 1.17308 81.2192 1.44421C81.4826 1.71401 81.6889 2.03034 81.8394 2.39052C81.9887 2.7507 82.0639 3.12948 82.0639 3.52555C82.0639 3.94022 81.9887 4.323 81.8394 4.67388C81.6902 5.02475 81.4826 5.33576 81.2192 5.60689C80.9557 5.87802 80.6469 6.08935 80.2953 6.24219C79.9436 6.39503 79.5738 6.47212 79.1871 6.47212H72.3006C71.1924 6.47212 70.2425 6.87749 69.451 7.68823C68.6763 8.48169 68.2896 9.44527 68.2896 10.5803C68.2896 11.6981 68.6763 12.671 69.451 13.499C70.2594 14.2924 71.2093 14.6885 72.3006 14.6885H76.3375V13.5242H72.3006C71.5259 13.5242 70.8576 13.2358 70.2957 12.659C69.7326 12.0822 69.451 11.3884 69.451 10.5777C69.451 10.1816 69.5262 9.8028 69.6755 9.44262C69.8247 9.08244 70.0271 8.76744 70.2828 8.49631C70.5371 8.22651 70.8368 8.01518 71.1794 7.86101C71.522 7.70817 71.8957 7.63108 72.3006 7.63108H79.1871C79.5738 7.63108 79.9436 7.70817 80.2953 7.86101C80.6469 8.01385 80.9544 8.22651 81.2192 8.49631C81.4839 8.76611 81.6889 9.08244 81.8394 9.44262C81.9887 9.8028 82.0639 10.1816 82.0639 10.5777V17.6311Z" fill="#0093C8"/>
<path d="M104.201 17.6311C104.201 18.0458 104.126 18.4285 103.977 18.7794C103.828 19.1303 103.62 19.4413 103.357 19.7124C103.093 19.9822 102.784 20.1949 102.433 20.3477C102.081 20.5006 101.711 20.5777 101.325 20.5777C100.55 20.5777 99.8816 20.2892 99.3197 19.7124C98.7565 19.1356 98.475 18.4418 98.475 17.6311V10.5777C98.475 9.46122 98.0792 8.49631 97.2876 7.68557C96.4961 6.87483 95.5462 6.46946 94.438 6.46946C93.3299 6.46946 92.38 6.87483 91.5884 7.68557C90.8137 8.47903 90.4271 9.44262 90.4271 10.5777C90.4271 11.6954 90.8137 12.6683 91.5884 13.4963C92.3969 14.2898 93.3467 14.6858 94.438 14.6858C94.8247 14.6858 95.1946 14.7629 95.5462 14.9158C95.8979 15.0686 96.2054 15.2813 96.4701 15.5511C96.7348 15.8209 96.9399 16.1372 97.0904 16.4974C97.2396 16.8576 97.3149 17.2363 97.3149 17.6324C97.3149 18.0471 97.2396 18.4299 97.0904 18.7807C96.9412 19.1316 96.7335 19.4426 96.4701 19.7137C96.2067 19.9836 95.8979 20.1962 95.5462 20.349C95.1946 20.5019 94.8247 20.579 94.438 20.579C91.7467 20.579 89.4512 19.6061 87.5515 17.6603C85.6518 15.7145 84.7019 13.3528 84.7019 10.5777C84.7019 7.82114 85.6518 5.47 87.5515 3.52422C89.4681 1.56117 91.7636 0.578979 94.438 0.578979C97.1293 0.578979 99.4248 1.56117 101.325 3.52422C103.241 5.47 104.2 7.82114 104.2 10.5777V17.6311H104.201Z" fill="#0093C8"/>
</g>
</svg>
