<svg width="58" height="58" viewBox="0 0 58 58" fill="none" xmlns="http://www.w3.org/2000/svg">
<path d="M58 29C58 12.9837 45.0163 0 29 0C12.9837 0 0 12.9837 0 29C0 45.0163 12.9837 58 29 58C45.0163 58 58 45.0163 58 29Z" fill="#36A9E1"/>
<path d="M31.4949 37.098C31.5508 37.0423 31.5952 36.976 31.6255 36.9031C31.6558 36.8302 31.6714 36.752 31.6714 36.673C31.6714 36.594 31.6558 36.5159 31.6255 36.4429C31.5952 36.37 31.5508 36.3038 31.4949 36.248L24.0029 28.77L31.4949 21.277C31.6076 21.1643 31.671 21.0114 31.671 20.852C31.671 20.6926 31.6076 20.5397 31.4949 20.427C31.3822 20.3143 31.2293 20.251 31.0699 20.251C30.9105 20.251 30.7576 20.3143 30.6449 20.427L22.7449 28.327C22.6885 28.3824 22.6438 28.4485 22.6135 28.5216C22.5833 28.5946 22.5681 28.673 22.5689 28.752C22.5701 28.9112 22.6332 29.0636 22.7449 29.177L30.6449 37.077C30.6985 37.1357 30.7633 37.1829 30.8356 37.2159C30.9078 37.2488 30.986 37.2668 31.0654 37.2688C31.1448 37.2708 31.2238 37.2566 31.2976 37.2273C31.3714 37.1979 31.4385 37.154 31.4949 37.098Z" fill="white"/>
</svg>
