<svg xmlns="http://www.w3.org/2000/svg" viewBox="0 0 156.5 227.7"><defs><style>.cls-1{fill:#ef4136;}.cls-2{fill:#fff;}.cls-3{fill:#f9c1cf;}.cls-4{fill:#007aa8;}.cls-5{fill:#abe1fa;}.cls-6{fill:#eee809;}.cls-7{fill:#fcaf17;}.cls-8{fill:#b14c24;}.cls-9{fill:#f58220;}.cls-10{fill:#000104;}</style></defs><title>Asset 1</title><g id="Layer_2" data-name="Layer 2"><g id="Layer_1-2" data-name="Layer 1"><path class="cls-1" d="M142.3,0H14.2S0,0,0,14.2V129.5l156.5-28.8V14.2S156.5,0,142.3,0ZM11,34.9c0-3.4,1.7-6.3,4-8.7,2-2.2,3.5-4.4,3.5-6.3,0-.7,0-1.9-1.4-1.9-1,0-1.4.9-1.4,2.8,0,.6-.2.8-.8.8H11.8c-.6,0-.8-.4-.8-1,0-4.2,1.9-7,6.1-7a5.72,5.72,0,0,1,6.1,6.1c0,3.4-2.1,6.4-4.4,8.8-2,2.2-3.1,4.5-3.1,6.4v.9h0c0,.8,0,.8.8.8h5.9c.6,0,.8.2.8.8v2.9c0,.6-.2.8-.8.8H11.8c-.6,0-.8-.2-.8-.8Zm65,75.2c-3.3,0-8-2.6-8-2.6a2,2,0,0,0-2,.2,30.51,30.51,0,0,1-5.6,3.9,22.86,22.86,0,0,1-5.6,1.8c-1.1.2-2.3.3-2.3.3H50.9a20.7,20.7,0,0,1-9.9-2.4,36,36,0,0,1-5.2-3.9,2,2,0,0,0-2-.2s-5,2.9-8.5,2.9A14.77,14.77,0,0,1,10.5,95.3c0-3.6,3.1-8.8,3.1-8.8a2.87,2.87,0,0,0,.3-2.2,17.31,17.31,0,0,1-.7-4.2,14.44,14.44,0,0,1,3.1-9,19.74,19.74,0,0,1,3.3-3A4.29,4.29,0,0,0,21,66.2a5.67,5.67,0,0,1,1.5-2.3,6,6,0,0,1,1.8-.8,18.32,18.32,0,0,1,2.1-.2c.5,0,.9-.5.9-1.2V58.9a20.08,20.08,0,0,1,.1-2.4,33.74,33.74,0,0,1,2-7.7,20.63,20.63,0,0,1,3.1-4.6,19.54,19.54,0,0,1,7.1-5A27.24,27.24,0,0,1,46,37.8c.6,0,1.7-.1,2.4-.1h4.7a21.16,21.16,0,0,1,2.4.2s5.4.7,8.2,2.2a20.24,20.24,0,0,1,8.1,8.3c1.4,2.8,2.1,8.1,2.1,8.1a17.91,17.91,0,0,1,.2,2.4v2.8a1.16,1.16,0,0,0,1.2,1.2h.5a19.67,19.67,0,0,1,2.4.3,5.14,5.14,0,0,1,2.2,1.2,4.6,4.6,0,0,1,1.4,3.4v.1a2.48,2.48,0,0,0,.9,1.1,20.16,20.16,0,0,1,3,3.4,15,15,0,0,1,2.2,7.8,18.49,18.49,0,0,1-.7,4.2,3.41,3.41,0,0,0,.3,2.2s3.1,5.1,3.3,8.7A14.77,14.77,0,0,1,76,110.1Zm64.8-42.9a11,11,0,0,1-.2,1.8,8.1,8.1,0,0,1-1.8,3.2,9.46,9.46,0,0,1-2.6,1.3,1.16,1.16,0,0,0-.9,1V76c0,.4-.1,1.1-.1,1.6a25.76,25.76,0,0,1-1,5.1,16.7,16.7,0,0,1-8.7,9.2,23.64,23.64,0,0,1-6,1.4,10.87,10.87,0,0,1-1.8.1h-1.3a10.87,10.87,0,0,1-1.8-.1s-5.3-.8-7.9-2.4a16.89,16.89,0,0,1-6.7-8,22.29,22.29,0,0,1-1.1-5.2,8.64,8.64,0,0,1-.1-1.5c0-.3,0-.6-.1-.6s-.1-.4-.1-.9a1.27,1.27,0,0,0-.9-1.1,8,8,0,0,1-2.3-1.1,7.35,7.35,0,0,1-2-3.4,11,11,0,0,1-.2-1.8v-.9a11,11,0,0,1,.2-1.8,6.81,6.81,0,0,1,1.4-2.9,8.52,8.52,0,0,1,2.9-1.6,1.4,1.4,0,0,0,.9-1.2V57.4a11,11,0,0,0-.2-1.8,9.77,9.77,0,0,0-.9-2.7A15,15,0,0,0,95,50l-.1-.1a6.17,6.17,0,0,1-1.6-3.8,5.73,5.73,0,0,1,1.5-4.2,5.64,5.64,0,0,1,4-1.9h.1a.1.1,0,0,0,.1-.1v-.1a5.73,5.73,0,0,1,1.5-4.2,5.64,5.64,0,0,1,4-1.9,5.82,5.82,0,0,1,2.5.5,1.24,1.24,0,0,0,1.4-.3,6.14,6.14,0,0,1,1.6-1.4,5.14,5.14,0,0,1,3-.7,6.5,6.5,0,0,1,3,1.1,1.36,1.36,0,0,0,1.5,0,7.24,7.24,0,0,1,3.7-1.3,5.93,5.93,0,0,1,2.9,1,5.87,5.87,0,0,1,1.2,1.2,1.24,1.24,0,0,0,1.4.4,5.65,5.65,0,0,1,2.3-.4,5.88,5.88,0,0,1,5.5,6.1V40a.1.1,0,0,0,.1.1h.1a5.88,5.88,0,0,1,5.5,6.1,6.58,6.58,0,0,1-1.3,3.3,7.28,7.28,0,0,1-.6.7,5.17,5.17,0,0,0-.7.6,11.64,11.64,0,0,0-1.8,2.5,7.84,7.84,0,0,0-.7,2.2c0,.5-.1,1.3-.1,1.8V59a1.17,1.17,0,0,0,.9,1.1,18,18,0,0,1,2.5.8c.1.1.3.2.4.3a7.64,7.64,0,0,1,1.8,3.3,11,11,0,0,1,.2,1.8Z"/><polygon class="cls-1" points="100.9 62.5 100.9 64.5 100.9 64.5 100.9 62.5"/><path class="cls-1" d="M100.8,55.4a10.55,10.55,0,0,0-.5-1.9A6.66,6.66,0,0,1,100.8,55.4Z"/><path class="cls-1" d="M65,177.3h71.2a2,2,0,0,1,2,2v38.2a2,2,0,0,1-2,2H23.7a2,2,0,0,1-2-2V183L0,187v26.5s0,14.2,14.2,14.2H142.3s14.2,0,14.2-14.2h0V158.2L62,175.6A4,4,0,0,0,65,177.3Z"/><path class="cls-2" d="M0,187l21.7-4v-3.7a2,2,0,0,1,2-2H41.6a3.87,3.87,0,0,0,3-1.8l7.2-13.6c.5-1,1.4-1,2,0L62,175.6h0l94.5-17.4V100.7L0,129.5Zm94.1-46.7c0-.5.2-.6.6-.6h2.4c.5,0,.6.2.6.6v.3a3,3,0,0,1,2.2-.9h.3c.5,0,.6.2.6.6v2.6q0,.75-.6.6c-.5,0-.7-.1-1-.1-1.5,0-1.5,1.6-1.5,3.1v7.7c0,.6-.3.6-.6.6H94.7c-.3,0-.6,0-.6-.6ZM83,145.5c0-4.2,2-5.8,4.7-5.8s4.7,1.6,4.7,5.8v1.7c0,.5-.2.6-.6.6H87.2c-.6,0-.6,0-.6.6v.4c0,1.5,0,2.8,1.1,2.8s1.1-1.3,1.1-2c0-.5.2-.6.6-.6h2.2c.5,0,.6.2.6.6,0,3.4-1.4,5.3-4.5,5.3-2.7,0-4.7-1.5-4.7-5.8Zm-11.1.4c0-4.5,2.1-6,5.1-6h.6v-5.4c0-.6.3-.6.6-.6h2.4c.3,0,.6,0,.6.6v19.8a.53.53,0,0,1-.6.6H77c-3,0-5.1-1.5-5.1-6Zm-11.3-5.5c0-.5.2-.6.6-.6h2c.5,0,.6.2.6.6v1.4a3.19,3.19,0,0,1,3-2c.5,0,3.1,0,3.1,4.3v10.2c0,.5-.2.6-.6.6H67a.53.53,0,0,1-.6-.6v-8.4c0-1.5,0-2.8-1.1-2.8s-1.1,1.3-1.1,2.8v8.4c0,.5-.2.6-.6.6H61.2c-.5,0-.6-.2-.6-.6Zm-11,5.1c0-4.2,2-5.8,4.7-5.8s4.7,1.6,4.7,5.8v1.7c0,.5-.2.6-.6.6H53.8c-.6,0-.6,0-.6.6v.4c0,1.5,0,2.8,1.1,2.8s1.1-1.3,1.1-2c0-.5.2-.6.6-.6h2.2c.5,0,.6.2.6.6,0,3.4-1.4,5.3-4.5,5.3-2.7,0-4.7-1.5-4.7-5.8ZM38.5,133.8h2.4c.4,0,.6,0,.7.5l1.6,8.9c0,.2.2.2.2,0l1.6-8.9c.1-.5.3-.5.7-.5H48c.3,0,.6,0,.5.5l-3.6,20c-.1.5-.2.5-.7.5H42.3c-.5,0-.6-.1-.7-.5l-3.6-20C37.9,133.8,38.2,133.8,38.5,133.8Z"/><path class="cls-2" d="M53.8,145.2h.9c.6,0,.6,0,.6-.6,0-.2,0-1.5-1.1-1.5s-1,1.2-1,1.5C53.2,145.2,53.2,145.2,53.8,145.2Z"/><path class="cls-2" d="M77,151.6c.6,0,.6,0,.6-.6v-7.3c0-.6,0-.6-.6-.6-1.5,0-1.5,1.5-1.5,3.1v2.3C75.5,150,75.5,151.6,77,151.6Z"/><path class="cls-2" d="M87.2,145.2h.9c.6,0,.6,0,.6-.6,0-.2,0-1.5-1.1-1.5s-1,1.2-1,1.5C86.6,145.2,86.6,145.2,87.2,145.2Z"/><path class="cls-2" d="M11.8,41.1H22.4c.6,0,.8-.2.8-.8V37.4c0-.6-.2-.8-.8-.8H16.5c-.8,0-.8,0-.8-.8h0v-.9c0-1.9,1.1-4.2,3.1-6.4,2.3-2.4,4.4-5.4,4.4-8.8a5.72,5.72,0,0,0-6.1-6.1c-4.2,0-6.1,2.8-6.1,7,0,.6.2,1,.8,1h3.1c.6,0,.8-.2.8-.8,0-1.9.4-2.8,1.4-2.8,1.4,0,1.4,1.2,1.4,1.9,0,1.9-1.5,4.1-3.5,6.3-2.3,2.4-4,5.3-4,8.7v5.4C11,40.9,11.2,41.1,11.8,41.1Z"/><path class="cls-3" d="M26.2,77.2a5.34,5.34,0,0,0-1.1,1.4,6.74,6.74,0,0,0-.4,1.2,19.88,19.88,0,0,0-.2,2.2,19.88,19.88,0,0,0,.2,2.2,4.27,4.27,0,0,0,.6,1.4,2.75,2.75,0,0,0,.9,1.1c.6.4,1,.2,1-.5V77.7C27.2,77,26.7,76.8,26.2,77.2Z"/><path class="cls-4" d="M25.2,69H76.6a5.64,5.64,0,0,1,.7-.1l.2-.1a1.23,1.23,0,0,0-.2-2.1l-.1-.1H25.1l-.3.1c-.1,0-.2.1-.3.2a1.21,1.21,0,0,0,0,1.8A.91.91,0,0,0,25.2,69Z"/><path class="cls-5" d="M32,62.9H68.9a1.16,1.16,0,0,0,1.2-1.2V58.9a20.08,20.08,0,0,0-.1-2.4,22.84,22.84,0,0,0-1.4-5.8,16.14,16.14,0,0,0-3.4-4.8,17.19,17.19,0,0,0-5.1-3.3,19.63,19.63,0,0,0-4.8-1.1c-.6,0-1.7-.1-2.4-.1H48.2a21.16,21.16,0,0,0-2.4.2s-4.5.6-6.9,2a16.32,16.32,0,0,0-7,8.1,24.45,24.45,0,0,0-1,4.8c0,.6-.1,1.7-.1,2.4v2.8A1.16,1.16,0,0,0,32,62.9ZM42.7,47.6a1,1,0,0,1,1.1-1.1h1.8a2,2,0,0,1,.8.1c.2.1.4.1.6.3a1,1,0,0,1,.4.5,4.88,4.88,0,0,1,.3.7l2.9,8,3-8a4.88,4.88,0,0,1,.3-.7,1,1,0,0,1,.4-.5,2.19,2.19,0,0,1,.5-.3,1.48,1.48,0,0,1,.7-.1h1.8a.9.9,0,0,1,.5.1c.1,0,.2.1.3.2s.2.2.2.3a4.33,4.33,0,0,1,.1.5v12h0c0,.1,0,.1-.1.2s-.1.1-.2.1-.2.1-.4.1H56.5c-.2,0-.3,0-.4-.1a.35.35,0,0,1-.2-.1c0-.1-.1-.1-.1-.2v-11l-3.9,11a.35.35,0,0,1-.1.2c-.1.1-.1.1-.3.1s-.2.1-.4.1H49.9c-.2,0-.3,0-.4-.1s-.2-.1-.3-.1-.1-.1-.1-.2l-3.8-11v11c0,.1,0,.1-.1.2s-.1.1-.2.1-.2.1-.4.1H43.4c-.2,0-.3,0-.4-.1a.35.35,0,0,1-.2-.1c0-.1-.1-.1-.1-.2v-12Z"/><path class="cls-6" d="M29.6,98.2a45.7,45.7,0,0,1-1.5-5.4,3.33,3.33,0,0,0-1.4-1.7s-3-1.5-4.2-3.3a11.92,11.92,0,0,1-1.3-3.6A19.88,19.88,0,0,1,21,82a18,18,0,0,1,.2-2.2,11.86,11.86,0,0,1,1.7-4.4,9.76,9.76,0,0,1,1.8-1.7,9.41,9.41,0,0,1,.8-.5c.6-.3.8-.5.5-.5s-1-.1-1.6-.1l-.5-.1a3.51,3.51,0,0,1-1.3-.7,1.51,1.51,0,0,0-1.9-.1l-1,1A8.07,8.07,0,0,0,18,75.1a11.25,11.25,0,0,0-1.2,5.1,13,13,0,0,0,.8,3.8,5.5,5.5,0,0,1,.2,2.2,5.58,5.58,0,0,1-.9,2.1s-2.8,4-2.8,7.1a11.14,11.14,0,0,0,11.1,11.1c2.7,0,6.2-2.1,6.4-2a1.28,1.28,0,0,0,.4-1.7A30.73,30.73,0,0,1,29.6,98.2Z"/><path class="cls-3" d="M70.4,86.5V73.9a1.16,1.16,0,0,0-1.2-1.2H32a1.16,1.16,0,0,0-1.2,1.2V85.7a21.16,21.16,0,0,0,.2,2.4s.8,6.3,2.1,9.4a21.71,21.71,0,0,0,8.7,10.3,20,20,0,0,0,4.8,1.9,24.31,24.31,0,0,0,3.1.4,10.33,10.33,0,0,0,1.4.1,13.8,13.8,0,0,1,1.4-.1,12.58,12.58,0,0,1,1.6-.1,19.56,19.56,0,0,0,4.1-1.3,19,19,0,0,0,6-4.3,22.5,22.5,0,0,0,4.8-8,43.41,43.41,0,0,0,1.3-8.6A10.3,10.3,0,0,0,70.4,86.5ZM35.1,81a5.4,5.4,0,1,1,5.4,5.4A5.38,5.38,0,0,1,35.1,81ZM62.3,96.2l-.5.8a14.29,14.29,0,0,1-1.4,2,22.76,22.76,0,0,1-4.8,4.2,11.25,11.25,0,0,1-5.1,1.2,10.58,10.58,0,0,1-6-1.8A14.34,14.34,0,0,1,40.7,99l-.2-.3c-.2-.4-.7-1.1-1.1-1.7l-.6-.8c-.3-.5-.1-1,.6-1H61.7C62.4,95.2,62.7,95.6,62.3,96.2Zm-1.1-9.8A5.4,5.4,0,1,1,66.6,81,5.38,5.38,0,0,1,61.2,86.4Z"/><path class="cls-3" d="M74.2,77.4v9.8c0,.2.4.1,1-.3a4.81,4.81,0,0,0,1.3-1.2,4.28,4.28,0,0,0,.6-1.5,19.88,19.88,0,0,0,.2-2.2,19.88,19.88,0,0,0-.2-2.2,6.15,6.15,0,0,0-.7-1.7,5.53,5.53,0,0,0-1.2-1.2C74.7,76.5,74.2,76.7,74.2,77.4Z"/><path class="cls-6" d="M84.2,88.2a5.38,5.38,0,0,1-1-2,5.5,5.5,0,0,1,.2-2.2,13,13,0,0,0,.8-3.8,11,11,0,0,0-2.3-6.8c-.6-.7-1-1.1-1-1.1a1.51,1.51,0,0,0-1.9-.2,4.81,4.81,0,0,1-1.8.5H76c-.5,0-.4.2.2.5a5.86,5.86,0,0,1,1,.7,6.36,6.36,0,0,1,2,2,12,12,0,0,1,1.4,3.9,19.88,19.88,0,0,1,.2,2.2,17.73,17.73,0,0,1-.1,2.2,8.14,8.14,0,0,1-.5,1.9,9.88,9.88,0,0,1-2.1,3.2A12.71,12.71,0,0,1,75,91.1a2.5,2.5,0,0,0-1.3,1.7s-.3,1.5-.6,2.8a26.4,26.4,0,0,1-1.7,4.7,21.41,21.41,0,0,1-1.6,2.9,1.28,1.28,0,0,0,.4,1.7,10.57,10.57,0,0,0,2,1,11.48,11.48,0,0,0,3.7.6,11,11,0,0,0,11-11.1,10.67,10.67,0,0,0-1.3-5.3A14.59,14.59,0,0,0,84.2,88.2Z"/><path class="cls-2" d="M54.5,98.9H46.8c-.6,0-.7.3-.2.7a5.81,5.81,0,0,0,1.1.6,7.17,7.17,0,0,0,2.9.6,6.9,6.9,0,0,0,2.5-.4,6.75,6.75,0,0,0,1.6-.8C55.3,99.2,55.2,98.9,54.5,98.9Z"/><path class="cls-4" d="M42.2,81a1.7,1.7,0,0,0-3.4,0,1.75,1.75,0,0,0,1.7,1.7A1.69,1.69,0,0,0,42.2,81Z"/><path class="cls-4" d="M61.2,79.3a1.7,1.7,0,1,0,0,3.4A1.63,1.63,0,0,0,62.9,81,1.69,1.69,0,0,0,61.2,79.3Z"/><path d="M87.2,84.4a18.49,18.49,0,0,0,.7-4.2,15,15,0,0,0-2.2-7.8,20.16,20.16,0,0,0-3-3.4,2.48,2.48,0,0,1-.9-1.1v-.1a4.6,4.6,0,0,0-1.4-3.4,5.14,5.14,0,0,0-2.2-1.2,19.67,19.67,0,0,0-2.4-.3h-.5a1.16,1.16,0,0,1-1.2-1.2V58.9a17.91,17.91,0,0,0-.2-2.4s-.7-5.3-2.1-8.1a20.24,20.24,0,0,0-8.1-8.3c-2.8-1.5-8.2-2.2-8.2-2.2a21.16,21.16,0,0,0-2.4-.2H48.4c-.7,0-1.8.1-2.4.1a27.24,27.24,0,0,0-6.4,1.4,19.54,19.54,0,0,0-7.1,5,20.63,20.63,0,0,0-3.1,4.6,33.74,33.74,0,0,0-2,7.7,20.08,20.08,0,0,0-.1,2.4v2.8c0,.7-.4,1.2-.9,1.2a18.32,18.32,0,0,0-2.1.2,6,6,0,0,0-1.8.8A5.67,5.67,0,0,0,21,66.2a4.29,4.29,0,0,1-1.4,1.9,19.74,19.74,0,0,0-3.3,3,14.44,14.44,0,0,0-3.1,9,17.31,17.31,0,0,0,.7,4.2,2.87,2.87,0,0,1-.3,2.2s-3.1,5.2-3.1,8.8a14.77,14.77,0,0,0,14.8,14.8c3.5,0,8.5-2.9,8.5-2.9a2,2,0,0,1,2,.2,36,36,0,0,0,5.2,3.9,20.7,20.7,0,0,0,9.9,2.4h1.6s1.2-.1,2.3-.3a22.86,22.86,0,0,0,5.6-1.8,30.51,30.51,0,0,0,5.6-3.9,2,2,0,0,1,2-.2s4.7,2.6,8,2.6A14.77,14.77,0,0,0,90.8,95.3c-.2-3.6-3.3-8.7-3.3-8.7A3.41,3.41,0,0,1,87.2,84.4ZM30.8,58.9c0-.7.1-1.8.1-2.4a24.45,24.45,0,0,1,1-4.8,16.32,16.32,0,0,1,7-8.1c2.4-1.4,6.9-2,6.9-2a21.16,21.16,0,0,1,2.4-.2h4.7c.7,0,1.8.1,2.4.1a19.63,19.63,0,0,1,4.8,1.1,17.19,17.19,0,0,1,5.1,3.3,16.14,16.14,0,0,1,3.4,4.8A22.84,22.84,0,0,1,70,56.5a20.08,20.08,0,0,1,.1,2.4v2.8a1.16,1.16,0,0,1-1.2,1.2H32a1.16,1.16,0,0,1-1.2-1.2V58.9Zm-6.3,8c.1-.1.2-.2.3-.2l.3-.1H77.2l.1.1a1.23,1.23,0,0,1,.2,2.1l-.2.1a5.64,5.64,0,0,0-.7.1H25.2a.91.91,0,0,1-.7-.3,1.21,1.21,0,0,1,0-1.8ZM76.4,78.1a6.15,6.15,0,0,1,.7,1.7,19.88,19.88,0,0,1,.2,2.2,19.88,19.88,0,0,1-.2,2.2,4.28,4.28,0,0,1-.6,1.5,4.81,4.81,0,0,1-1.3,1.2c-.6.4-1,.5-1,.3V77.4c0-.7.5-.9,1-.5A5.53,5.53,0,0,1,76.4,78.1Zm-49.2-.4v8.5c0,.7-.4.9-1,.5a2.75,2.75,0,0,1-.9-1.1,4.27,4.27,0,0,1-.6-1.4,19.88,19.88,0,0,1-.2-2.2,19.88,19.88,0,0,1,.2-2.2,6.74,6.74,0,0,1,.4-1.2,5.34,5.34,0,0,1,1.1-1.4C26.7,76.8,27.2,77,27.2,77.7Zm4.4,26.8c-.2-.1-3.7,2-6.4,2A11.14,11.14,0,0,1,14.1,95.4c0-3.1,2.8-7.1,2.8-7.1a5.58,5.58,0,0,0,.9-2.1,5.5,5.5,0,0,0-.2-2.2,13,13,0,0,1-.8-3.8A11.25,11.25,0,0,1,18,75.1a8.07,8.07,0,0,1,1.7-2.4l1-1a1.51,1.51,0,0,1,1.9.1,3.51,3.51,0,0,0,1.3.7l.5.1c.6,0,1.3.1,1.6.1s.1.2-.5.5a9.41,9.41,0,0,0-.8.5,9.76,9.76,0,0,0-1.8,1.7,11.86,11.86,0,0,0-1.7,4.4A18,18,0,0,0,21,82a19.88,19.88,0,0,0,.2,2.2,11.92,11.92,0,0,0,1.3,3.6c1.2,1.8,4.2,3.3,4.2,3.3a3.33,3.33,0,0,1,1.4,1.7,45.7,45.7,0,0,0,1.5,5.4,30.73,30.73,0,0,0,2.4,4.6A1.28,1.28,0,0,1,31.6,104.5Zm32.6-.1a19,19,0,0,1-6,4.3,19.56,19.56,0,0,1-4.1,1.3,12.58,12.58,0,0,0-1.6.1,13.8,13.8,0,0,0-1.4.1,10.33,10.33,0,0,1-1.4-.1,24.31,24.31,0,0,1-3.1-.4,20,20,0,0,1-4.8-1.9,21.71,21.71,0,0,1-8.7-10.3c-1.3-3.1-2.1-9.4-2.1-9.4a21.16,21.16,0,0,1-.2-2.4V73.9A1.16,1.16,0,0,1,32,72.7H69.2a1.16,1.16,0,0,1,1.2,1.2V86.5a10.3,10.3,0,0,1-.1,1.3A43.41,43.41,0,0,1,69,96.4,22.5,22.5,0,0,1,64.2,104.4Zm11.7,2.1a11.48,11.48,0,0,1-3.7-.6,10.57,10.57,0,0,1-2-1,1.28,1.28,0,0,1-.4-1.7,21.41,21.41,0,0,0,1.6-2.9,26.4,26.4,0,0,0,1.7-4.7c.3-1.3.6-2.8.6-2.8A2.5,2.5,0,0,1,75,91.1a12.71,12.71,0,0,0,3.1-1.9A9.88,9.88,0,0,0,80.2,86a8.14,8.14,0,0,0,.5-1.9,17.73,17.73,0,0,0,.1-2.2,19.88,19.88,0,0,0-.2-2.2,12,12,0,0,0-1.4-3.9,6.36,6.36,0,0,0-2-2,5.86,5.86,0,0,0-1-.7c-.6-.3-.7-.5-.2-.5h1.2a4.81,4.81,0,0,0,1.8-.5,1.51,1.51,0,0,1,1.9.2s.4.4,1,1.1a11,11,0,0,1,2.3,6.8,13,13,0,0,1-.8,3.8,5.5,5.5,0,0,0-.2,2.2,5.38,5.38,0,0,0,1,2,14.59,14.59,0,0,1,1.4,1.9,10.67,10.67,0,0,1,1.3,5.3A11,11,0,0,1,75.9,106.5Z"/><path d="M61.7,95.2H39.4c-.7,0-.9.5-.6,1l.6.8c.4.6.9,1.3,1.1,1.7l.2.3a14.34,14.34,0,0,0,3.8,3.6,10.58,10.58,0,0,0,6,1.8,11.25,11.25,0,0,0,5.1-1.2A22.76,22.76,0,0,0,60.4,99a14.29,14.29,0,0,0,1.4-2l.5-.8C62.7,95.6,62.4,95.2,61.7,95.2Zm-7,4.4a6.75,6.75,0,0,1-1.6.8,6.9,6.9,0,0,1-2.5.4,7.17,7.17,0,0,1-2.9-.6,5.81,5.81,0,0,1-1.1-.6c-.5-.4-.4-.7.2-.7h7.7C55.2,98.9,55.3,99.2,54.7,99.6Z"/><path d="M45.9,81a5.4,5.4,0,1,0-5.4,5.4A5.38,5.38,0,0,0,45.9,81Zm-7.1,0a1.7,1.7,0,1,1,1.7,1.7A1.75,1.75,0,0,1,38.8,81Z"/><path d="M61.2,75.6A5.4,5.4,0,1,0,66.6,81,5.38,5.38,0,0,0,61.2,75.6Zm0,7.1A1.7,1.7,0,1,1,62.9,81,1.63,1.63,0,0,1,61.2,82.7Z"/><path d="M43,59.9c.1.1.2.1.4.1h1.2c.2,0,.3-.1.4-.1s.2,0,.2-.1.1-.1.1-.2v-11l3.8,11c0,.1,0,.1.1.2s.2.1.3.1.2.1.4.1h1.2c.2,0,.3-.1.4-.1s.2,0,.3-.1a.35.35,0,0,0,.1-.2l3.9-11v11c0,.1.1.1.1.2a.35.35,0,0,0,.2.1c.1.1.2.1.4.1h1.2c.2,0,.3-.1.4-.1s.2,0,.2-.1.1-.1.1-.2h0v-12a4.33,4.33,0,0,0-.1-.5c0-.1-.1-.2-.2-.3s-.2-.2-.3-.2a.9.9,0,0,0-.5-.1H55.5a1.48,1.48,0,0,0-.7.1,2.19,2.19,0,0,0-.5.3,1,1,0,0,0-.4.5,4.88,4.88,0,0,0-.3.7l-3,8-2.9-8a4.88,4.88,0,0,0-.3-.7,1,1,0,0,0-.4-.5c-.2-.2-.4-.2-.6-.3a2,2,0,0,0-.8-.1H43.8a1,1,0,0,0-1.1,1.1v12c0,.1.1.1.1.2A.35.35,0,0,0,43,59.9Z"/><path class="cls-7" d="M97.5,63a3,3,0,0,0-.8.5,3.43,3.43,0,0,0-.8,1.2,11,11,0,0,0-.2,1.8v.9a11,11,0,0,0,.2,1.8,2.15,2.15,0,0,0,.9,1.1,3.45,3.45,0,0,0,.8.6c.4.2.8-.1.8-.6V63.6A.61.61,0,0,0,97.5,63Z"/><path class="cls-7" d="M131.4,61.4a5.68,5.68,0,0,1-2.5-1.2c-1.8-1.5-2.7-4-2.7-7.4a8.69,8.69,0,0,0-.9-3.6,1.09,1.09,0,0,0-1.3-.4s-4.4,1.9-7.5,1.9-7.4-1.9-7.4-1.9a1.05,1.05,0,0,0-1.3.4,8.69,8.69,0,0,0-.9,3.6c0,3.4-.9,5.9-2.7,7.4a6.59,6.59,0,0,1-2.4,1.2,1.17,1.17,0,0,0-.9,1.1v2a4.13,4.13,0,0,0,.1.9c.1,0,.1.4.1.9V76c0,.5.1,1.3.1,1.8a15.21,15.21,0,0,0,.5,3,13.68,13.68,0,0,0,2.3,4.5,14,14,0,0,0,7.2,4.9,14.19,14.19,0,0,0,3,.5,10.87,10.87,0,0,0,1.8.1h1.4a10.87,10.87,0,0,0,1.8-.1,22.48,22.48,0,0,0,6.1-1.8,14.41,14.41,0,0,0,6-6.9,22.39,22.39,0,0,0,.9-4.2,10.87,10.87,0,0,0,.1-1.8V62.5A1.17,1.17,0,0,0,131.4,61.4Zm-15.6,2,.2-.1a1.45,1.45,0,0,1,.7-.2,1.85,1.85,0,0,1,.7.2l.2.1c.1.2.5.8.7,1.2l4,7.4c.2.5.5,1.1.6,1.4l-.1.3c-.1.2-.1.4-.2.5a1.34,1.34,0,0,1-.7.6l-.2.1h-9.1a6.62,6.62,0,0,1-1.5-.1l-.2-.2c-.1-.1-.2-.3-.3-.4a.59.59,0,0,1-.1-.7v-.2a13.92,13.92,0,0,1,.6-1.3l4-7.4A6.35,6.35,0,0,1,115.8,63.4Zm-12.1,1.4a4.27,4.27,0,0,1,4.3-4.3,4.33,4.33,0,0,1,4.3,4.3,4.21,4.21,0,0,1-4.3,4.3A4.27,4.27,0,0,1,103.7,64.8Zm22.5,13.6s-.7,3.5-2.2,5.2a9.87,9.87,0,0,1-7.4,3.5,10,10,0,0,1-8.1-4.3,13,13,0,0,1-1.6-4.4,10,10,0,0,1-.2-1.6c0-.4.4-.7,1-.7h17.8a.81.81,0,0,1,.9.7A10,10,0,0,1,126.2,78.4Zm-.9-9.3a4.3,4.3,0,0,1,0-8.6,4.21,4.21,0,0,1,4.3,4.3A4.27,4.27,0,0,1,125.3,69.1Z"/><path class="cls-7" d="M136.9,63.6a3.34,3.34,0,0,0-1-.7.61.61,0,0,0-.9.6v6.8c0,.5.3.7.8.5a4.91,4.91,0,0,0,1.4-1.2l.3-.4a11,11,0,0,0,.2-1.8h.1v-.9a11,11,0,0,0-.2-1.8A3.15,3.15,0,0,0,136.9,63.6Z"/><path class="cls-8" d="M136.2,48.5a8.06,8.06,0,0,0,1.2-1.4,1.94,1.94,0,0,0,.3-1.1,3,3,0,0,0-2.9-3.2,4,4,0,0,0-1.5.3,1.25,1.25,0,0,1-1.6-.3,1.23,1.23,0,0,1-.2-1.6,3.26,3.26,0,0,0,.4-1.4,3,3,0,0,0-2.9-3.2,3,3,0,0,0-2.6,1.2,1.47,1.47,0,0,1-1.4.5,1.41,1.41,0,0,1-1-1.1,3.1,3.1,0,0,0-2.9-2.6,3.28,3.28,0,0,0-3,2,1.42,1.42,0,0,1-1.3.9,1.34,1.34,0,0,1-1.3-.8,3.21,3.21,0,0,0-2.7-1.9,3.15,3.15,0,0,0-3.2,2.7,1.19,1.19,0,0,1-1,1.2,1.43,1.43,0,0,1-1.5-.6,3.19,3.19,0,0,0-2.7-1.4,2.81,2.81,0,0,0-2.1,1,3,3,0,0,0-.8,2.2,2.3,2.3,0,0,0,.4,1.4,1.37,1.37,0,0,1-1.8,1.9,4,4,0,0,0-1.5-.3,3.08,3.08,0,0,0-2.9,3.2,1.94,1.94,0,0,0,.3,1.1,5.53,5.53,0,0,0,1.2,1.4,11.47,11.47,0,0,1,2.7,3.6c.2.4.3.8.5,1.3a10.55,10.55,0,0,1,.5,1.9.44.44,0,0,0,.1.3c0,.5.1,1.3.1,1.8V58c0,.5.4.7.9.6,0,0,.1-.1.6-.5,1.1-1,1.7-2.8,1.7-5.3a8.51,8.51,0,0,1,3.2-7.2,1.35,1.35,0,0,1,1.7,0,12.18,12.18,0,0,0,7.5,2.3c3,0,5.8-.8,7.5-2.3a1.35,1.35,0,0,1,1.7,0c2.1,1.5,3.2,4,3.2,7.2,0,2.5.6,4.4,1.7,5.3a9.41,9.41,0,0,0,.8.5.7.7,0,0,0,.9-.7v-.7a10.87,10.87,0,0,1,.1-1.8,16.12,16.12,0,0,1,1-3.3A13.9,13.9,0,0,1,136.2,48.5Z"/><path class="cls-5" d="M109.6,64.8a1.6,1.6,0,1,0-1.6,1.6A1.58,1.58,0,0,0,109.6,64.8Z"/><path class="cls-5" d="M125.3,63.2a1.6,1.6,0,1,0,1.6,1.6A1.58,1.58,0,0,0,125.3,63.2Z"/><path class="cls-2" d="M112.9,82.5c-.5,0-.6.3-.2.6a6.15,6.15,0,0,0,3.8,1.3,6,6,0,0,0,2.7-.6,5.75,5.75,0,0,0,1.2-.7c.4-.3.3-.6-.2-.6Z"/><path class="cls-2" d="M123,78.9V79H110c-.1,0-.1.1-.1.3l.1.2v.1a.54.54,0,0,0,.4.3h12.4q.15,0,.3-.3l.1-.2v-.2C123.2,79,123.2,78.9,123,78.9Z"/><path class="cls-9" d="M115,72.1h3.2a.52.52,0,0,0,.5-.8L117,68.2c-.3-.4-.7-.4-.9,0l-1.6,3.1A.52.52,0,0,0,115,72.1Z"/><path d="M112.3,64.8a4.33,4.33,0,0,0-4.3-4.3,4.3,4.3,0,1,0,0,8.6A4.21,4.21,0,0,0,112.3,64.8Zm-5.9,0a1.6,1.6,0,1,1,1.6,1.6A1.58,1.58,0,0,1,106.4,64.8Z"/><path d="M125.3,60.5a4.3,4.3,0,0,0,0,8.6,4.27,4.27,0,0,0,4.3-4.3A4.21,4.21,0,0,0,125.3,60.5Zm0,5.9a1.6,1.6,0,1,1,1.6-1.6A1.58,1.58,0,0,1,125.3,66.4Z"/><path d="M138.8,61.2c-.1-.1-.3-.2-.4-.3a18,18,0,0,0-2.5-.8A1.17,1.17,0,0,1,135,59V57.3c0-.5.1-1.3.1-1.8a7.84,7.84,0,0,1,.7-2.2,11.64,11.64,0,0,1,1.8-2.5,5.17,5.17,0,0,1,.7-.6,7.28,7.28,0,0,0,.6-.7,6.58,6.58,0,0,0,1.3-3.3,5.88,5.88,0,0,0-5.5-6.1h-.1a.1.1,0,0,1-.1-.1v-.1a5.88,5.88,0,0,0-5.5-6.1,5.65,5.65,0,0,0-2.3.4,1.24,1.24,0,0,1-1.4-.4,5.87,5.87,0,0,0-1.2-1.2,5.93,5.93,0,0,0-2.9-1,7.24,7.24,0,0,0-3.7,1.3,1.36,1.36,0,0,1-1.5,0,6.5,6.5,0,0,0-3-1.1,5.14,5.14,0,0,0-3,.7,6.14,6.14,0,0,0-1.6,1.4,1.24,1.24,0,0,1-1.4.3,5.82,5.82,0,0,0-2.5-.5,5.64,5.64,0,0,0-4,1.9A5.73,5.73,0,0,0,99,39.8v.1a.1.1,0,0,1-.1.1h-.1a5.64,5.64,0,0,0-4,1.9,5.73,5.73,0,0,0-1.5,4.2,6.17,6.17,0,0,0,1.6,3.8l.1.1a15,15,0,0,1,2.5,2.9,9.77,9.77,0,0,1,.9,2.7,11,11,0,0,1,.2,1.8v1.5a1.4,1.4,0,0,1-.9,1.2,8.52,8.52,0,0,0-2.9,1.6,6.81,6.81,0,0,0-1.4,2.9,11,11,0,0,0-.2,1.8v.9a11,11,0,0,0,.2,1.8,7.35,7.35,0,0,0,2,3.4,8,8,0,0,0,2.3,1.1,1.27,1.27,0,0,1,.9,1.1c0,.5,0,.9.1.9s.1.3.1.6a8.64,8.64,0,0,0,.1,1.5,22.29,22.29,0,0,0,1.1,5.2,16.89,16.89,0,0,0,6.7,8c2.6,1.6,7.9,2.4,7.9,2.4a10.87,10.87,0,0,0,1.8.1h1.3a10.87,10.87,0,0,0,1.8-.1,23.64,23.64,0,0,0,6-1.4,16.7,16.7,0,0,0,8.7-9.2,25.76,25.76,0,0,0,1-5.1c0-.5.1-1.2.1-1.6V74.5a1.16,1.16,0,0,1,.9-1,9.46,9.46,0,0,0,2.6-1.3,8.1,8.1,0,0,0,1.8-3.2,11,11,0,0,0,.2-1.8v-.9a11,11,0,0,0-.2-1.8A7.64,7.64,0,0,0,138.8,61.2ZM98.4,70.3c0,.5-.4.8-.8.6a3.45,3.45,0,0,1-.8-.6,2.15,2.15,0,0,1-.9-1.1,11,11,0,0,1-.2-1.8v-.9a11,11,0,0,1,.2-1.8,3.43,3.43,0,0,1,.8-1.2,3,3,0,0,1,.8-.5.61.61,0,0,1,.9.6ZM132.3,76a10.87,10.87,0,0,1-.1,1.8,22.39,22.39,0,0,1-.9,4.2,14.41,14.41,0,0,1-6,6.9,22.48,22.48,0,0,1-6.1,1.8,10.87,10.87,0,0,1-1.8.1H116a10.87,10.87,0,0,1-1.8-.1,14.19,14.19,0,0,1-3-.5,14,14,0,0,1-7.2-4.9,13.68,13.68,0,0,1-2.3-4.5,15.21,15.21,0,0,1-.5-3c0-.5-.1-1.3-.1-1.8V66.3c0-.5,0-.9-.1-.9a4.13,4.13,0,0,1-.1-.9h0v-2h0a1.17,1.17,0,0,1,.9-1.1,6.59,6.59,0,0,0,2.4-1.2c1.8-1.5,2.7-4,2.7-7.4a8.69,8.69,0,0,1,.9-3.6,1.05,1.05,0,0,1,1.3-.4s4.3,1.9,7.4,1.9,7.5-1.9,7.5-1.9a1.09,1.09,0,0,1,1.3.4,8.69,8.69,0,0,1,.9,3.6c0,3.4.9,5.9,2.7,7.4a5.68,5.68,0,0,0,2.5,1.2,1.17,1.17,0,0,1,.9,1.1V76Zm1.2-23.9a16.12,16.12,0,0,0-1,3.3,10.87,10.87,0,0,0-.1,1.8v.7a.7.7,0,0,1-.9.7,9.41,9.41,0,0,1-.8-.5c-1.1-.9-1.7-2.8-1.7-5.3,0-3.2-1.1-5.7-3.2-7.2a1.35,1.35,0,0,0-1.7,0c-1.7,1.5-4.5,2.3-7.5,2.3a12.18,12.18,0,0,1-7.5-2.3,1.35,1.35,0,0,0-1.7,0,8.51,8.51,0,0,0-3.2,7.2c0,2.5-.6,4.3-1.7,5.3-.5.4-.6.5-.6.5-.5.1-.9-.1-.9-.6v-.5c0-.5-.1-1.3-.1-1.8a.77.77,0,0,0-.1-.3,13.67,13.67,0,0,0-.5-1.9,5,5,0,0,0-.5-1.3,11.47,11.47,0,0,0-2.7-3.6,5.53,5.53,0,0,1-1.2-1.4,1.94,1.94,0,0,1-.3-1.1,3.08,3.08,0,0,1,2.9-3.2,4,4,0,0,1,1.5.3,1.37,1.37,0,0,0,1.8-1.9,2.3,2.3,0,0,1-.4-1.4,3,3,0,0,1,.8-2.2,2.81,2.81,0,0,1,2.1-1,3.19,3.19,0,0,1,2.7,1.4,1.43,1.43,0,0,0,1.5.6,1.19,1.19,0,0,0,1-1.2,3.15,3.15,0,0,1,3.2-2.7,3.21,3.21,0,0,1,2.7,1.9,1.34,1.34,0,0,0,1.3.8,1.42,1.42,0,0,0,1.3-.9,3.28,3.28,0,0,1,3-2,3.1,3.1,0,0,1,2.9,2.6,1.41,1.41,0,0,0,1,1.1,1.47,1.47,0,0,0,1.4-.5,3,3,0,0,1,2.6-1.2,3,3,0,0,1,2.9,3.2,3.26,3.26,0,0,1-.4,1.4,1.23,1.23,0,0,0,.2,1.6,1.25,1.25,0,0,0,1.6.3,4,4,0,0,1,1.5-.3,3,3,0,0,1,2.9,3.2,1.94,1.94,0,0,1-.3,1.1,8.06,8.06,0,0,1-1.2,1.4A23,23,0,0,0,133.5,52.1Zm4.3,15.3h-.1a11,11,0,0,1-.2,1.8l-.3.4a4.91,4.91,0,0,1-1.4,1.2c-.5.2-.8,0-.8-.5V63.5a.61.61,0,0,1,.9-.6,3.34,3.34,0,0,1,1,.7,3.15,3.15,0,0,1,.7,1.1,11,11,0,0,1,.2,1.8Z"/><path d="M125.5,76.1H107.7c-.6,0-1,.3-1,.7a10,10,0,0,0,.2,1.6,13,13,0,0,0,1.6,4.4,10,10,0,0,0,8.1,4.3,9.87,9.87,0,0,0,7.4-3.5c1.5-1.7,2.2-5.2,2.2-5.2a10,10,0,0,0,.2-1.6A.81.81,0,0,0,125.5,76.1Zm-5.1,7a5.75,5.75,0,0,1-1.2.7,6,6,0,0,1-2.7.6,6.15,6.15,0,0,1-3.8-1.3c-.4-.3-.3-.6.2-.6h7.3C120.7,82.5,120.8,82.8,120.4,83.1Zm2.8-3.7-.1.2q-.15.3-.3.3H110.4a.54.54,0,0,1-.4-.3v-.1l-.1-.2c0-.2,0-.3.1-.3h13v-.1c.2,0,.2.1.2.3Z"/><path d="M110.5,73.3v.2a.59.59,0,0,0,.1.7c.1.1.2.3.3.4l.2.2a6.62,6.62,0,0,0,1.5.1h9.1l.2-.1a1.34,1.34,0,0,0,.7-.6c.1-.1.1-.3.2-.5l.1-.3c-.1-.3-.4-.9-.6-1.4l-4-7.4c-.2-.4-.6-1-.7-1.2l-.2-.1a1.85,1.85,0,0,0-.7-.2,1.45,1.45,0,0,0-.7.2l-.2.1a6.35,6.35,0,0,0-.7,1.2l-4,7.4A13.92,13.92,0,0,0,110.5,73.3Zm4-2,1.6-3.1c.2-.4.6-.4.9,0l1.7,3.1a.52.52,0,0,1-.5.8H115A.52.52,0,0,1,114.5,71.3Z"/><path class="cls-10" d="M41.6,154.3c.1.4.2.5.7.5h1.9c.5,0,.6,0,.7-.5l3.6-20c.1-.5-.2-.5-.5-.5H45.7c-.4,0-.6,0-.7.5l-1.6,8.9c0,.2-.2.2-.2,0l-1.6-8.9c-.1-.5-.3-.5-.7-.5H38.5c-.3,0-.6,0-.5.5Z"/><path class="cls-10" d="M54.3,154.9c3.1,0,4.5-1.9,4.5-5.3,0-.4-.1-.6-.6-.6H56c-.4,0-.6.1-.6.6,0,.7,0,2-1.1,2s-1.1-1.3-1.1-2.8v-.4c0-.6,0-.6.6-.6h4.6c.4,0,.6-.1.6-.6v-1.7c0-4.2-2-5.8-4.7-5.8s-4.7,1.6-4.7,5.8v3.6C49.6,153.4,51.6,154.9,54.3,154.9Zm-.1-11.8c1.1,0,1.1,1.3,1.1,1.5,0,.6,0,.6-.6.6h-.9c-.6,0-.6,0-.6-.6C53.2,144.3,53.1,143.1,54.2,143.1Z"/><path class="cls-10" d="M61.2,154.9h2.4c.4,0,.6-.1.6-.6v-8.4c0-1.5,0-2.8,1.1-2.8s1.1,1.3,1.1,2.8v8.4a.53.53,0,0,0,.6.6h2.3c.4,0,.6-.1.6-.6V144.1c0-4.3-2.6-4.3-3.1-4.3a3.19,3.19,0,0,0-3,2v-1.4c0-.4-.1-.6-.6-.6h-2c-.4,0-.6.1-.6.6v13.9C60.6,154.7,60.7,154.9,61.2,154.9Z"/><path class="cls-10" d="M77,154.9h3.6a.53.53,0,0,0,.6-.6V134.5c0-.6-.3-.6-.6-.6H78.2c-.3,0-.6,0-.6.6v5.4H77c-3,0-5.1,1.5-5.1,6v3C71.9,153.4,74,154.9,77,154.9Zm-1.5-8.7c0-1.6,0-3.1,1.5-3.1.6,0,.6,0,.6.6V151c0,.6,0,.6-.6.6-1.5,0-1.5-1.6-1.5-3.1Z"/><path class="cls-10" d="M87.7,154.9c3.1,0,4.5-1.9,4.5-5.3,0-.4-.1-.6-.6-.6H89.4c-.4,0-.6.1-.6.6,0,.7,0,2-1.1,2s-1.1-1.3-1.1-2.8v-.4c0-.6,0-.6.6-.6h4.6c.4,0,.6-.1.6-.6v-1.7c0-4.2-2-5.8-4.7-5.8s-4.7,1.6-4.7,5.8v3.6C83,153.4,85,154.9,87.7,154.9Zm-.1-11.8c1.1,0,1.1,1.3,1.1,1.5,0,.6,0,.6-.6.6h-.9c-.6,0-.6,0-.6-.6C86.6,144.3,86.5,143.1,87.6,143.1Z"/><path class="cls-10" d="M94.7,154.8h2.4c.3,0,.6,0,.6-.6v-7.7c0-1.5,0-3.1,1.5-3.1.3,0,.5.1,1,.1s.6-.1.6-.6v-2.6c0-.4-.1-.6-.6-.6h-.3a3,3,0,0,0-2.2.9v-.3c0-.4-.1-.6-.6-.6H94.7c-.4,0-.6.1-.6.6v13.9C94.1,154.8,94.4,154.8,94.7,154.8Z"/><path d="M97.2,190.3H98c.3,0,.3,0,.3-.3,0-.6-.1-1.2-.7-1.2s-.7.6-.7,1.2C96.9,190.3,96.9,190.3,97.2,190.3Z"/><path d="M88.1,194.2c.7-.1.8-.7.8-1.4v-1.3c-.9.4-1.6.6-1.6,1.4v.2C87.3,193.3,87.3,194.2,88.1,194.2Z"/><path d="M92.9,206.4h.8c.3,0,.3,0,.3-.3,0-.6-.1-1.2-.7-1.2s-.6.6-.7,1.2C92.6,206.4,92.6,206.4,92.9,206.4Z"/><path d="M71.6,204.9c-.5,0-.6.6-.7,1.2,0,.3,0,.3.3.3H72c.3,0,.3,0,.3-.3C72.3,205.5,72.2,204.9,71.6,204.9Z"/><path d="M83.7,209v.2c0,.2,0,1.1.8,1.1.6-.1.7-.7.8-1.4v-1.3C84.4,208,83.7,208.2,83.7,209Z"/><path d="M54.2,206.4H55c.3,0,.3,0,.3-.3,0-.6-.1-1.2-.7-1.2s-.7.6-.7,1.2C53.9,206.4,53.9,206.4,54.2,206.4Z"/><path d="M72.8,190.3h.8c.3,0,.3,0,.3-.3,0-.6-.1-1.2-.7-1.2s-.7.6-.7,1.2C72.5,190.3,72.5,190.3,72.8,190.3Z"/><path d="M66,210.1h.5c.3,0,.3,0,.3-.3v-4.6c0-.2-.1-.2-.3-.2H66c-.8,0-.8.8-.8,1.6v1.9C65.2,209.3,65.2,210.1,66,210.1Z"/><path d="M100.8,209v.2c0,.2,0,1.1.8,1.1s.8-.7.8-1.4v-1.3C101.5,208,100.8,208.2,100.8,209Z"/><path d="M27.7,215.5H132.1a2,2,0,0,0,2-2V183.4a2,2,0,0,0-2-2H62.7a3.88,3.88,0,0,1-3-1.7L54,170.1c-.6-.9-1.5-.9-2,0l-5,9.5a3.58,3.58,0,0,1-3,1.8H27.7a2,2,0,0,0-2,2v30.1A2,2,0,0,0,27.7,215.5Zm46.2-8.1a.27.27,0,0,1-.3.3H71.3v.2c-.3,0-.3,0-.3.3v.4c0,.8,0,1.6.7,1.6s.7-.9.7-1.4c0-.2.1-.4.3-.4h.9c.2,0,.3.2.3.4,0,1.8-.7,2.8-2.3,2.8-1.4,0-2.3-.8-2.3-3.1v-2.1c0-2.3.9-3.1,2.3-3.1s2.3.8,2.3,3.1Zm13,3.9c0,.3-.2.3-.3.3h-.8c-.2,0-.3,0-.3-.3v-.2a2,2,0,0,1-1.4.5,1.83,1.83,0,0,1-2-2.1v-.7c0-2.6,3.2-1.8,3.2-3.1a.67.67,0,0,0-.7-.7c-.7,0-.8.7-.8,1.1a.27.27,0,0,1-.3.3h-.9a.27.27,0,0,1-.3-.3,2.21,2.21,0,0,1,2.3-2.5c1.4,0,2.3.8,2.3,3.1v4.6Zm11.4,0c0,.3-.2.3-.3.3H97c-.2,0-.3,0-.3-.3V200.7a.27.27,0,0,1,.3-.3h1a.27.27,0,0,1,.3.3Zm8.8-7.7a2.13,2.13,0,0,1,2.2,2.1.27.27,0,0,1-.3.3h-.9a.27.27,0,0,1-.3-.3.7.7,0,1,0-1.4.1c.1,1.2,3.2,1.4,3.1,3.8a2.37,2.37,0,0,1-4.7-.1.27.27,0,0,1,.3-.3h.9a.27.27,0,0,1,.3.3.75.75,0,1,0,1.5-.1c-.1-1.3-3.2-1.4-3.1-3.8A2.24,2.24,0,0,1,107.1,203.6Zm-5.3-18.2a.9.9,0,1,1-.9.9A.9.9,0,0,1,101.8,185.4Zm.8,2.4v7.4c0,.3-.2.3-.3.3h-1c-.2,0-.3,0-.3-.3v-7.4a.27.27,0,0,1,.3-.3h1A.27.27,0,0,1,102.6,187.8Zm-.9,15.8c1.4,0,2.3.8,2.3,3.1v4.6c0,.3-.2.3-.3.3h-.8c-.2,0-.3,0-.3-.3v-.2a2,2,0,0,1-1.4.5,1.83,1.83,0,0,1-2-2.1v-.7c0-2.6,3.2-1.8,3.2-3.1a.67.67,0,0,0-.7-.7c-.7,0-.8.7-.8,1.1a.27.27,0,0,1-.3.3h-.9a.27.27,0,0,1-.3-.3A2.21,2.21,0,0,1,101.7,203.6Zm-6.5-13.3c0-2.3.9-3.1,2.3-3.1s2.3.8,2.3,3.1v1a.27.27,0,0,1-.3.3H97.2v.2c-.3,0-.3,0-.3.3v.4c0,.8,0,1.6.7,1.6s.7-.9.7-1.4c0-.2.1-.4.3-.4h.9c.2,0,.3.2.3.4,0,1.8-.7,2.8-2.3,2.8-1.4,0-2.3-.8-2.3-3.1Zm-3.7-2.6a.27.27,0,0,1,.3-.3h1a.27.27,0,0,1,.3.3v.2a1.58,1.58,0,0,1,1.2-.5h.2a.27.27,0,0,1,.3.3v.9c0,.2-.1.4-.3.3a1.06,1.06,0,0,1-.6,0c-.8,0-.8.8-.8,1.6v4.6c0,.3-.2.3-.3.3h-1c-.2,0-.3,0-.3-.3ZM91,206.4c0-2.3.9-3.1,2.3-3.1s2.3.8,2.3,3.1v1a.27.27,0,0,1-.3.3H93v.2c-.3,0-.3,0-.3.3v.4c0,.8,0,1.6.7,1.6s.7-.9.7-1.4c0-.2.1-.4.3-.4h.9c.2,0,.3.2.3.4,0,1.8-.7,2.8-2.3,2.8-1.4,0-2.3-.8-2.3-3.1Zm-5.3-13.7c0-2.6,3.2-1.8,3.2-3.1a.67.67,0,0,0-.7-.7c-.7,0-.8.7-.8,1.1a.27.27,0,0,1-.3.3h-.9a.27.27,0,0,1-.3-.3,2.21,2.21,0,0,1,2.3-2.5c1.4,0,2.3.8,2.3,3.1v4.6c0,.3-.2.3-.3.3h-.8c-.2,0-.3,0-.3-.3V195a2,2,0,0,1-1.4.5,1.83,1.83,0,0,1-2-2.1v-.7Zm-3.8-4.9c0-.1,0-.3.3-.3h.2v-1.4a.27.27,0,0,1,.3-.3h1a.27.27,0,0,1,.3.3v1.4h.5a.27.27,0,0,1,.3.3v.9a.27.27,0,0,1-.3.3H84v3.3c0,1,0,1.7.9,1.7a.27.27,0,0,1,.3.3v.9a.27.27,0,0,1-.3.3c-1.8,0-2.5-.8-2.5-3.2V189h-.2c-.3,0-.3-.2-.3-.3Zm-5.4,0a.27.27,0,0,1,.3-.3h.8a.27.27,0,0,1,.3.3v.7a1.62,1.62,0,0,1,1.6-1c.2,0,1.6,0,1.6,2.3v5.4a.27.27,0,0,1-.3.3h-1a.27.27,0,0,1-.3-.3v-4.7c0-.7,0-1.6-.7-1.6s-.7,1-.7,1.6v4.7a.27.27,0,0,1-.3.3h-1a.27.27,0,0,1-.3-.3Zm.1,16v.2a1.58,1.58,0,0,1,1.2-.5H78a.27.27,0,0,1,.3.3v.9c0,.2-.1.4-.3.3h-.6c-.8,0-.8.8-.8,1.6v4.6c0,.3-.2.3-.3.3h-1c-.2,0-.3,0-.3-.3v-7.4a.27.27,0,0,1,.3-.3h1A.27.27,0,0,1,76.6,203.8Zm-5.8-13.5c0-2.3.9-3.1,2.3-3.1s2.3.8,2.3,3.1v1a.27.27,0,0,1-.3.3H72.8v.2c-.3,0-.3,0-.3.3v.4c0,.8,0,1.6.7,1.6s.7-.9.7-1.4c0-.2.1-.4.3-.4h.9c.2,0,.3.2.3.4,0,1.8-.7,2.8-2.3,2.8-1.4,0-2.3-.8-2.3-3.1Zm-3.9-2.5c0-.1,0-.3.4-.3h.2v-1.4a.27.27,0,0,1,.3-.3h1a.27.27,0,0,1,.3.3v1.4h.5a.27.27,0,0,1,.3.3v.9a.27.27,0,0,1-.3.3H69v3.3c0,1,0,1.7.9,1.7a.27.27,0,0,1,.3.3v.9a.27.27,0,0,1-.3.3c-1.8,0-2.5-.8-2.5-3.2V189h-.2c-.3,0-.3-.2-.3-.3Zm-3.4,19c0-2.4.8-3.2,2.4-3.2h.8v-2.9c0-.3.2-.3.3-.3h1c.2,0,.3,0,.3.3v10.6q.15.3-.3.3H65.9c-1.6,0-2.4-.8-2.4-3.2Zm-5.2-19a.27.27,0,0,1,.3-.3h1a.27.27,0,0,1,.3.3v4.7c0,.7,0,1.6.7,1.6s.7-1,.7-1.6v-4.7a.27.27,0,0,1,.3-.3h1a.27.27,0,0,1,.3.3v7.4a.27.27,0,0,1-.3.3h-.8a.27.27,0,0,1-.3-.3v-.7a1.62,1.62,0,0,1-1.6,1c-.2,0-1.6,0-1.6-2.3ZM58,203.9a.27.27,0,0,1,.3-.3h.8a.27.27,0,0,1,.3.3v.7a1.62,1.62,0,0,1,1.6-1c.2,0,1.6,0,1.6,2.3v5.4a.27.27,0,0,1-.3.3h-1c-.3,0-.3-.1-.3-.3v-4.7c0-.7,0-1.6-.7-1.6s-.7,1-.7,1.6v4.7a.27.27,0,0,1-.3.3h-1a.27.27,0,0,1-.3-.3Zm-4.6-19.3a.27.27,0,0,1,.3-.3h3.4a.27.27,0,0,1,.3.3v.9a.27.27,0,0,1-.3.3H55.3c-.3,0-.3,0-.3.3v2.4c0,.3,0,.3.3.3h1.8a.27.27,0,0,1,.3.3v.9a.27.27,0,0,1-.3.3H55.3c-.3,0-.3,0-.3.3v3c0,.3,0,.3.3.3h1.8a.27.27,0,0,1,.3.3v.9a.27.27,0,0,1-.3.3H53.7c-.2.1-.3.1-.3-.2Zm-1.2,21.8c0-2.3.9-3.1,2.3-3.1s2.3.8,2.3,3.1v1a.27.27,0,0,1-.3.3H54.2v.2c-.3,0-.3,0-.3.3v.4c0,.8,0,1.6.7,1.6s.7-.9.7-1.4c0-.2.1-.4.3-.4h.9c.2,0,.3.2.3.4,0,1.8-.7,2.8-2.3,2.8-1.4,0-2.3-.8-2.3-3.1Zm-4.8-2.8h1c.2,0,.3,0,.4.2l.6,3.6c0,.1.1.1.1,0l.6-3.6c0-.2.1-.2.4-.2h1c.2,0,.3,0,.3.3l-1.5,7.5c0,.2-.1.3-.4.3H49c-.3,0-.3,0-.4-.3l-1.5-7.5C47.1,203.6,47.2,203.6,47.4,203.6Z"/><path d="M136.2,177.3H65a4,4,0,0,1-3-1.7h0l-8.2-13.7c-.6-1-1.5-1-2,0l-7.2,13.6a3.87,3.87,0,0,1-3,1.8H23.7a2,2,0,0,0-2,2v38.2a2,2,0,0,0,2,2H136.2a2,2,0,0,0,2-2V179.3A2,2,0,0,0,136.2,177.3Z"/><path class="cls-2" d="M53.7,195.4h3.4a.27.27,0,0,0,.3-.3v-.9a.27.27,0,0,0-.3-.3H55.3c-.3,0-.3,0-.3-.3v-3c0-.3,0-.3.3-.3h1.8a.27.27,0,0,0,.3-.3v-.9a.27.27,0,0,0-.3-.3H55.3c-.3,0-.3,0-.3-.3v-2.4c0-.3,0-.3.3-.3h1.8a.27.27,0,0,0,.3-.3v-.9a.27.27,0,0,0-.3-.3H53.7a.27.27,0,0,0-.3.3v10.6C53.4,195.5,53.5,195.5,53.7,195.4Z"/><path class="cls-2" d="M59.9,195.5a1.62,1.62,0,0,0,1.6-1v.7a.27.27,0,0,0,.3.3h.8a.27.27,0,0,0,.3-.3v-7.4a.27.27,0,0,0-.3-.3h-1a.27.27,0,0,0-.3.3v4.7c0,.6,0,1.6-.7,1.6s-.7-.9-.7-1.6v-4.7a.27.27,0,0,0-.3-.3h-1a.27.27,0,0,0-.3.3v5.4C58.3,195.5,59.7,195.5,59.9,195.5Z"/><path class="cls-2" d="M67.2,189h.2v3.3c0,2.4.7,3.2,2.5,3.2a.27.27,0,0,0,.3-.3v-.9a.27.27,0,0,0-.3-.3c-.9,0-.9-.7-.9-1.7V189h.6a.27.27,0,0,0,.3-.3v-.9a.27.27,0,0,0-.3-.3h-.5v-1.4a.27.27,0,0,0-.3-.3h-1a.27.27,0,0,0-.3.3v1.4h-.2c-.4,0-.4.2-.4.3v.9C66.9,188.8,66.9,189,67.2,189Z"/><path class="cls-2" d="M73.1,195.5c1.6,0,2.3-1,2.3-2.8,0-.2-.1-.4-.3-.4h-.9c-.2,0-.3.2-.3.4,0,.5,0,1.4-.7,1.4s-.7-.8-.7-1.6v-.4c0-.3,0-.3.3-.3v-.2h2.3a.27.27,0,0,0,.3-.3v-1c0-2.3-.9-3.1-2.3-3.1s-2.3.8-2.3,3.1v2.1C70.8,194.7,71.7,195.5,73.1,195.5Zm.1-6.7c.6,0,.7.6.7,1.2,0,.3,0,.3-.3.3h-.8c-.3,0-.3,0-.3-.3C72.5,189.4,72.6,188.8,73.2,188.8Z"/><path class="cls-2" d="M76.8,195.5h1a.27.27,0,0,0,.3-.3v-4.7c0-.6,0-1.6.7-1.6s.7.9.7,1.6v4.7a.27.27,0,0,0,.3.3h1a.27.27,0,0,0,.3-.3v-5.4c0-2.3-1.4-2.3-1.6-2.3a1.62,1.62,0,0,0-1.6,1v-.7a.27.27,0,0,0-.3-.3h-.8a.27.27,0,0,0-.3.3v7.4A.27.27,0,0,0,76.8,195.5Z"/><path class="cls-2" d="M82.2,189h.2v3.3c0,2.4.7,3.2,2.5,3.2a.27.27,0,0,0,.3-.3v-.9a.27.27,0,0,0-.3-.3c-.9,0-.9-.7-.9-1.7V189h.5a.27.27,0,0,0,.3-.3v-.9a.27.27,0,0,0-.3-.3H84v-1.4a.27.27,0,0,0-.3-.3h-1a.27.27,0,0,0-.3.3v1.4h-.2c-.3,0-.3.2-.3.3v.9C81.9,188.8,81.9,189,82.2,189Z"/><path class="cls-2" d="M87.7,195.5a2,2,0,0,0,1.4-.5v.2c0,.3.1.3.3.3h.8c.1,0,.3,0,.3-.3v-4.6c0-2.3-.9-3.1-2.3-3.1a2.21,2.21,0,0,0-2.3,2.5.27.27,0,0,0,.3.3h.9a.27.27,0,0,0,.3-.3c0-.4.1-1.1.8-1.1a.67.67,0,0,1,.7.7c0,1.3-3.2.5-3.2,3.1v.7A1.83,1.83,0,0,0,87.7,195.5Zm-.4-2.6c0-.8.7-1,1.6-1.4v1.3c0,.7-.1,1.3-.8,1.4s-.8-.9-.8-1.1Z"/><path class="cls-2" d="M91.8,195.4h1c.1,0,.3,0,.3-.3v-4.6c0-.8,0-1.6.8-1.6a1.06,1.06,0,0,0,.6,0c.2.1.3-.1.3-.3v-.9a.27.27,0,0,0-.3-.3h-.2a1.58,1.58,0,0,0-1.2.5v-.2a.27.27,0,0,0-.3-.3h-1a.27.27,0,0,0-.3.3v7.4C91.5,195.4,91.6,195.4,91.8,195.4Z"/><path class="cls-2" d="M97.5,195.5c1.6,0,2.3-1,2.3-2.8,0-.2-.1-.4-.3-.4h-.9c-.2,0-.3.2-.3.4,0,.5,0,1.4-.7,1.4s-.7-.8-.7-1.6v-.4c0-.3,0-.3.3-.3v-.2h2.3a.27.27,0,0,0,.3-.3v-1c0-2.3-.9-3.1-2.3-3.1s-2.3.8-2.3,3.1v2.1C95.2,194.7,96.1,195.5,97.5,195.5Zm.1-6.7c.6,0,.7.6.7,1.2,0,.3,0,.3-.3.3h-.8c-.3,0-.3,0-.3-.3C96.9,189.4,97,188.8,97.6,188.8Z"/><path class="cls-2" d="M101.8,187.2a.9.9,0,1,0-.9-.9A.9.9,0,0,0,101.8,187.2Z"/><path class="cls-2" d="M101.3,187.5a.27.27,0,0,0-.3.3v7.4c0,.3.1.3.3.3h1c.1,0,.3,0,.3-.3v-7.4a.27.27,0,0,0-.3-.3Z"/><path class="cls-2" d="M49,211.7h.9c.3,0,.4-.1.4-.3l1.5-7.5c0-.3-.1-.3-.3-.3h-1c-.3,0-.4,0-.4.2l-.6,3.6c0,.1-.1.1-.1,0l-.6-3.6c-.1-.2-.2-.2-.4-.2h-1c-.2,0-.3,0-.3.3l1.5,7.5C48.7,211.7,48.7,211.7,49,211.7Z"/><path class="cls-2" d="M54.5,211.6c1.6,0,2.3-1,2.3-2.8,0-.2-.1-.4-.3-.4h-.9c-.2,0-.3.2-.3.4,0,.5,0,1.4-.7,1.4s-.7-.8-.7-1.6v-.4c0-.3,0-.3.3-.3v-.2h2.3a.27.27,0,0,0,.3-.3v-1c0-2.3-.9-3.1-2.3-3.1s-2.3.8-2.3,3.1v2.1C52.2,210.8,53.1,211.6,54.5,211.6Zm.1-6.7c.6,0,.7.6.7,1.2,0,.3,0,.3-.3.3h-.8c-.3,0-.3,0-.3-.3C53.9,205.5,54.1,204.9,54.6,204.9Z"/><path class="cls-2" d="M58.3,211.6h1a.27.27,0,0,0,.3-.3v-4.7c0-.6,0-1.6.7-1.6s.7.9.7,1.6v4.7c0,.2,0,.3.3.3h1a.27.27,0,0,0,.3-.3v-5.4c0-2.3-1.4-2.3-1.6-2.3a1.62,1.62,0,0,0-1.6,1v-.7a.27.27,0,0,0-.3-.3h-.8a.27.27,0,0,0-.3.3v7.4A.27.27,0,0,0,58.3,211.6Z"/><path class="cls-2" d="M65.9,211.6H68q.45,0,.3-.3V200.7c0-.3-.1-.3-.3-.3H67c-.1,0-.3,0-.3.3v2.9h-.8c-1.6,0-2.4.8-2.4,3.2v1.6C63.5,210.8,64.3,211.6,65.9,211.6Zm-.7-5c0-.8,0-1.6.8-1.6h.5c.2,0,.3,0,.3.2v4.6c0,.3,0,.3-.3.3H66c-.8,0-.8-.8-.8-1.6Z"/><path class="cls-2" d="M71.6,203.3c-1.4,0-2.3.8-2.3,3.1v2.1c0,2.3.9,3.1,2.3,3.1,1.6,0,2.3-1,2.3-2.8,0-.2-.1-.4-.3-.4h-.9c-.2,0-.3.2-.3.4,0,.5,0,1.4-.7,1.4s-.7-.8-.7-1.6v-.4c0-.3,0-.3.3-.3v-.2h2.3a.27.27,0,0,0,.3-.3v-1C73.9,204.1,73,203.3,71.6,203.3Zm.4,3.1h-.8c-.3,0-.3,0-.3-.3.1-.6.2-1.2.7-1.2s.7.6.7,1.2C72.3,206.4,72.3,206.4,72,206.4Z"/><path class="cls-2" d="M75,203.8v7.4c0,.3.1.3.3.3h1c.1,0,.3,0,.3-.3v-4.6c0-.8,0-1.6.8-1.6H78c.2.1.3-.1.3-.3v-.9a.27.27,0,0,0-.3-.3h-.2a1.58,1.58,0,0,0-1.2.5v-.2a.27.27,0,0,0-.3-.3h-1A.27.27,0,0,0,75,203.8Z"/><path class="cls-2" d="M84.6,203.6a2.21,2.21,0,0,0-2.3,2.5.27.27,0,0,0,.3.3h.9a.27.27,0,0,0,.3-.3c0-.4.1-1.1.8-1.1a.67.67,0,0,1,.7.7c0,1.3-3.2.5-3.2,3.1v.7a1.83,1.83,0,0,0,2,2.1,2,2,0,0,0,1.4-.5v.2c0,.3.1.3.3.3h.8c.1,0,.3,0,.3-.3v-4.6C86.9,204.4,86,203.6,84.6,203.6Zm.7,5.3c-.1.7-.2,1.3-.8,1.4-.8,0-.8-.9-.8-1.1V209c0-.8.7-1,1.6-1.4Z"/><path class="cls-2" d="M93.3,211.6c1.6,0,2.3-1,2.3-2.8,0-.2-.1-.4-.3-.4h-.9c-.2,0-.3.2-.3.4,0,.5,0,1.4-.7,1.4s-.7-.8-.7-1.6v-.4c0-.3,0-.3.3-.3v-.2h2.3a.27.27,0,0,0,.3-.3v-1c0-2.3-.9-3.1-2.3-3.1s-2.3.8-2.3,3.1v2.1C91,210.8,91.9,211.6,93.3,211.6Zm0-6.7c.6,0,.7.6.7,1.2,0,.3,0,.3-.3.3h-.8c-.3,0-.3,0-.3-.3C92.7,205.5,92.8,204.9,93.3,204.9Z"/><path class="cls-2" d="M98,200.4H97a.27.27,0,0,0-.3.3v10.6c0,.3.1.3.3.3h1c.1,0,.3,0,.3-.3V200.7A.27.27,0,0,0,98,200.4Z"/><path class="cls-2" d="M99.7,206.4h.9a.27.27,0,0,0,.3-.3c0-.4.1-1.1.8-1.1a.67.67,0,0,1,.7.7c0,1.3-3.2.5-3.2,3.1v.7a1.83,1.83,0,0,0,2,2.1,2,2,0,0,0,1.4-.5v.2c0,.3.1.3.3.3h.8c.1,0,.3,0,.3-.3v-4.6c0-2.3-.9-3.1-2.3-3.1a2.21,2.21,0,0,0-2.3,2.5A.27.27,0,0,0,99.7,206.4Zm2.7,2.5c0,.7-.1,1.3-.8,1.4s-.8-.9-.8-1.1V209c0-.8.7-1,1.6-1.4Z"/><path class="cls-2" d="M107.8,209.4a.75.75,0,1,1-1.5.1.27.27,0,0,0-.3-.3h-.9a.27.27,0,0,0-.3.3,2.37,2.37,0,0,0,4.7.1c.1-2.4-3-2.6-3.1-3.8a.7.7,0,1,1,1.4-.1.27.27,0,0,0,.3.3h.9a.27.27,0,0,0,.3-.3,2.13,2.13,0,0,0-2.2-2.1,2.24,2.24,0,0,0-2.4,2C104.6,208,107.7,208.1,107.8,209.4Z"/></g></g></svg>