<svg xmlns="http://www.w3.org/2000/svg" viewBox="0 0 156.5 227.6"><defs><style>.cls-1{fill:#f27da9;}.cls-2{fill:#fff;}.cls-3{fill:#000104;}.cls-4{fill:#f9c1cf;}.cls-5{fill:#007aa8;}.cls-6{fill:#abe1fa;}.cls-7{fill:#eee809;}.cls-8{fill:none;}</style></defs><title>Asset 2</title><g id="Layer_2" data-name="Layer 2"><g id="Layer_1-2" data-name="Layer 1"><path class="cls-1" d="M156.5,14.2S156.5,0,142.3,0H14.2S0,0,0,14.2V137.1L156.5,92.9ZM20.2,40.7c0,.8-.4.8-.8.8H16.3c-.4,0-.8,0-.8-.8V21.9H12.6c-.3,0-.7-.2-.4-.8l3.4-6.7c.1-.2.3-.3.7-.3h3.1c.6,0,.8.2.8.8V40.7Zm87.7,58.9c-4,0-9.7-3.1-9.7-3.1a2.57,2.57,0,0,0-2.4.3,39.46,39.46,0,0,1-6.7,4.7,28.41,28.41,0,0,1-6.8,2.2c-1.4.2-2.8.3-2.8.3a16,16,0,0,1-1.7.1h-.3a25.23,25.23,0,0,1-11.9-2.9,38.5,38.5,0,0,1-6.3-4.7,2.13,2.13,0,0,0-2.4-.3s-6,3.5-10.2,3.5A18,18,0,0,1,28.8,81.8c0-4.3,3.8-10.6,3.8-10.6a3.64,3.64,0,0,0,.4-2.7,22.29,22.29,0,0,1-.8-5.1,17.72,17.72,0,0,1,3.7-10.9,24.22,24.22,0,0,1,4-3.7,5.33,5.33,0,0,0,1.6-2.3,5.93,5.93,0,0,1,1.8-2.7,5.25,5.25,0,0,1,2.1-1,12.07,12.07,0,0,1,2.5-.3c.6,0,1.1-.7,1.1-1.5V37.6a28.25,28.25,0,0,1,.2-2.9s.8-6.1,2.4-9.3A24.45,24.45,0,0,1,63.9,13.9a35.18,35.18,0,0,1,7.8-1.7c.8,0,2.1-.1,2.9-.1h5.6a28.25,28.25,0,0,1,2.9.2s6.5.9,9.9,2.7a24.21,24.21,0,0,1,9.8,10c1.8,3.4,2.6,9.8,2.6,9.8a28.25,28.25,0,0,1,.2,2.9v3.4a1.54,1.54,0,0,0,1.5,1.5h.6a14.28,14.28,0,0,1,2.9.3,5.8,5.8,0,0,1,2.7,1.4,6.35,6.35,0,0,1,1.7,4.2v.2a3.45,3.45,0,0,0,1.1,1.3,21.48,21.48,0,0,1,3.6,4.1,17.17,17.17,0,0,1,2.7,9.4,23.54,23.54,0,0,1-.8,5.1,4.2,4.2,0,0,0,.4,2.7s3.8,6.2,3.8,10.4A18,18,0,0,1,107.9,99.6Z"/><path class="cls-1" d="M64.9,177.6h71.5a2,2,0,0,1,2,2v38.3a2,2,0,0,1-2,2H23.9a2,2,0,0,1-2-2V189.7L0,195.9v17.5s0,14.2,14.2,14.2H142.3s14.2,0,14.2-14.2V151.6Z"/><path class="cls-2" d="M79.2,145.5h.9c.6,0,.6,0,.6-.6,0-.2,0-1.5-1.1-1.5s-1,1.3-1,1.5C78.6,145.5,78.6,145.5,79.2,145.5Z"/><path class="cls-2" d="M53.6,151.9c1.5,0,1.5-1.5,1.5-3.1v-8.4c0-1.5,0-3.1-1.5-3.1-.6.1-.6.1-.6.7v13.3C53,151.9,53,151.9,53.6,151.9Z"/><path class="cls-2" d="M21.9,179.7a2,2,0,0,1,2-2H41.8a3.87,3.87,0,0,0,3-1.8L52,162.3c.5-1,1.4-1,2-.1l8.2,13.7a4.11,4.11,0,0,0,2.7,1.7l91.6-25.9V93L0,137.1v58.8l21.9-6.2Zm64.2-39c0-.5.2-.6.6-.6h2.4c.5,0,.6.2.6.6v.3a3,3,0,0,1,2.2-.9h.3c.5,0,.6.2.6.6v2.6q0,.75-.6.6a4.14,4.14,0,0,0-1-.1c-1.5,0-1.5,1.6-1.5,3.1v7.7c0,.6-.3.6-.6.6H86.7c-.3,0-.6,0-.6-.6ZM75,145.9c0-4.2,2-5.8,4.7-5.8s4.7,1.6,4.7,5.8v1.7c0,.5-.2.6-.6.6H79.2c-.6,0-.6,0-.6.6v.4c0,1.5,0,2.8,1.1,2.8s1.1-1.3,1.1-2c0-.5.2-.6.6-.6h2.2c.5,0,.6.2.6.6,0,3.4-1.4,5.3-4.5,5.3-2.7,0-4.7-1.5-4.7-5.8v-3.6Zm-9-5.2c0-.5.2-.6.6-.6h6.3c.5,0,.6.2.6.6v1.8a1.7,1.7,0,0,1-.1.7l-3.5,8.5c-.1.2,0,.2.2.2h2.8c.5,0,.6.2.6.6v2.1c0,.5-.2.6-.6.6H66.6c-.5,0-.6-.2-.6-.6v-1.8a1.7,1.7,0,0,1,.1-.7l3.4-8.4c.1-.2,0-.3-.1-.3H66.6c-.5,0-.6-.2-.6-.6Zm-3.7-4.8a1.8,1.8,0,1,1,0,3.6,1.8,1.8,0,1,1,0-3.6Zm-1.8,4.8c0-.5.2-.6.6-.6h2.4c.5,0,.6.2.6.6v13.9c0,.6-.3.6-.6.6H61.1c-.3,0-.6,0-.6-.6Zm-11.2-6c0-.5.2-.6.6-.6h4.2c3,0,4.5,1.5,4.5,6v9c0,4.5-1.5,6-4.5,6H49.9c-.5,0-.6-.2-.6-.6Z"/><path class="cls-2" d="M19.4,14.1H16.3c-.4,0-.6.1-.7.3l-3.4,6.7c-.3.6.1.8.4.8h2.9V40.7c0,.8.4.8.8.8h3.1c.4,0,.8,0,.8-.8V14.9C20.2,14.3,20,14.1,19.4,14.1Z"/><path class="cls-3" d="M49.9,155.1h4.2c3,0,4.5-1.5,4.5-6v-9c0-4.5-1.5-6-4.5-6H49.9c-.4,0-.6.1-.6.6v19.8C49.3,154.9,49.4,155.1,49.9,155.1ZM53,138c0-.6,0-.6.6-.7,1.5,0,1.5,1.6,1.5,3.1v8.4c0,1.6,0,3.1-1.5,3.1-.6,0-.6,0-.6-.6Z"/><circle class="cls-3" cx="62.3" cy="137.7" r="1.8"/><path class="cls-3" d="M61.1,155.2h2.4c.3,0,.6,0,.6-.6V140.7c0-.4-.1-.6-.6-.6H61.1c-.4,0-.6.1-.6.6v13.9C60.5,155.2,60.8,155.2,61.1,155.2Z"/><path class="cls-3" d="M66.6,143.4h2.8c.1,0,.2.1.1.3l-3.4,8.4a1.7,1.7,0,0,0-.1.7v1.8c0,.4.1.6.6.6h6.3c.4,0,.6-.1.6-.6v-2.1c0-.4-.1-.6-.6-.6H70.1c-.2,0-.3,0-.2-.2l3.5-8.5a1.7,1.7,0,0,0,.1-.7v-1.8c0-.4-.1-.6-.6-.6H66.6c-.4,0-.6.1-.6.6v2.1C66,143.2,66.1,143.4,66.6,143.4Z"/><path class="cls-3" d="M79.7,155.3c3.1,0,4.5-1.9,4.5-5.3,0-.4-.1-.6-.6-.6H81.4c-.4,0-.6.1-.6.6,0,.7,0,2-1.1,2s-1.1-1.3-1.1-2.8v-.4c0-.6,0-.6.6-.6h4.6c.4,0,.6-.1.6-.6v-1.7c0-4.2-2-5.8-4.7-5.8s-4.7,1.6-4.7,5.8v3.6C75,153.8,77,155.3,79.7,155.3Zm-.1-11.9c1.1,0,1.1,1.3,1.1,1.5,0,.6,0,.6-.6.6h-.9c-.6,0-.6,0-.6-.6C78.6,144.7,78.5,143.4,79.6,143.4Z"/><path class="cls-3" d="M86.7,155.2h2.4c.3,0,.6,0,.6-.6v-7.7c0-1.5,0-3.1,1.5-3.1a4.14,4.14,0,0,1,1,.1q.6.15.6-.6v-2.6c0-.4-.1-.6-.6-.6h-.3a3,3,0,0,0-2.2.9v-.3c0-.4-.1-.6-.6-.6H86.7c-.4,0-.6.1-.6.6v13.9C86.1,155.2,86.4,155.2,86.7,155.2Z"/><path class="cls-4" d="M46.2,68.4a4.37,4.37,0,0,0,.7,1.7A6.12,6.12,0,0,0,48,71.4c.7.5,1.2.2,1.2-.6l.1-10.4c0-.8-.6-1.1-1.2-.6a5.71,5.71,0,0,0-1.4,1.7,6.91,6.91,0,0,0-.5,1.5,26.45,26.45,0,0,0-.2,2.7A26.45,26.45,0,0,0,46.2,68.4Z"/><path class="cls-5" d="M46.7,50H109a2.81,2.81,0,0,0,.8-.1l.2-.2a1.44,1.44,0,0,0-.3-2.5l-.2-.1H46.6l-.3.1a.76.76,0,0,0-.4.2,1.29,1.29,0,0,0-.5,1.1,1.43,1.43,0,0,0,.5,1.1A1.23,1.23,0,0,0,46.7,50Z"/><path class="cls-6" d="M54.7,42.7H99.5a1.54,1.54,0,0,0,1.5-1.5V37.8a28.25,28.25,0,0,0-.2-2.9,28.75,28.75,0,0,0-1.7-7A18.49,18.49,0,0,0,95,22.1a18,18,0,0,0-6.1-4,27.16,27.16,0,0,0-5.8-1.3c-.8,0-2.1-.1-2.9-.1H74.6a28.25,28.25,0,0,0-2.9.2s-5.5.7-8.4,2.4a19.37,19.37,0,0,0-8.5,9.8,25.57,25.57,0,0,0-1.2,5.8c0,.8-.1,2.1-.1,2.9h-.3v3.4A1.54,1.54,0,0,0,54.7,42.7ZM67.3,24.2a1.49,1.49,0,0,1,.3-1,1.22,1.22,0,0,1,.9-.3h2.2a3.08,3.08,0,0,1,1,.1,4.88,4.88,0,0,1,.7.3,1,1,0,0,1,.5.6,3.92,3.92,0,0,1,.4.9l3.5,9.7h.1l3.7-9.7a1.88,1.88,0,0,1,.4-.9,2.65,2.65,0,0,1,.5-.6.86.86,0,0,1,.6-.3,2,2,0,0,1,.8-.1h2.2a1.27,1.27,0,0,1,.6.1c.2.1.3.1.4.3a.76.76,0,0,1,.2.4c0,.1.1.4.1.6V38.7h.4c0,.1,0,.2-.1.2s-.1.1-.3.2a4.33,4.33,0,0,1-.5.1H84.3a4.33,4.33,0,0,1-.5-.1c-.1,0-.2-.1-.3-.2s-.1-.1-.1-.2V25.5L78.7,38.7c0,.1-.1.2-.2.3s-.2.1-.3.2a4.33,4.33,0,0,1-.5.1H76.3a4.33,4.33,0,0,1-.5-.1c-.1,0-.2-.1-.3-.2l-.2-.2L70.7,25.6V38.7c0,.1,0,.2-.1.2s-.1.1-.3.2a4.33,4.33,0,0,1-.5.1H68.2a4.33,4.33,0,0,1-.5-.1c-.1,0-.2-.1-.3-.2s-.1-.1-.1-.2V24.2Z"/><path class="cls-7" d="M52,85.3a54,54,0,0,1-1.9-6.5,3.36,3.36,0,0,0-1.6-2.1s-3.6-1.8-5.1-4a11.89,11.89,0,0,1-1.6-4.3,26.45,26.45,0,0,1-.2-2.7c0-.6.2-1.8.3-2.6,0,0,.6-3.5,2.1-5.3a14.46,14.46,0,0,1,2.2-2.1,4.62,4.62,0,0,1,1-.6c.7-.3,1-.6.6-.6a14.16,14.16,0,0,1-1.9-.1l-.6-.2a3.79,3.79,0,0,1-1.6-.8,1.81,1.81,0,0,0-2.3-.1,10.61,10.61,0,0,0-1.2,1.2,13.67,13.67,0,0,0-2,2.9,12.53,12.53,0,0,0-1.5,6.1,16.28,16.28,0,0,0,.9,4.6,6.43,6.43,0,0,1,.3,2.7,6.85,6.85,0,0,1-1.1,2.5s-3.4,4.9-3.4,8.6A13.4,13.4,0,0,0,46.8,95.3c3.2,0,7.4-2.5,7.5-2.4a1.46,1.46,0,0,0,.5-2A52.45,52.45,0,0,1,52,85.3Z"/><path class="cls-4" d="M99.8,83.1c1.3-3.7,1.6-10.4,1.6-10.4a13.58,13.58,0,0,0,.1-1.5V56a1.54,1.54,0,0,0-1.5-1.5H55.1A1.54,1.54,0,0,0,53.6,56V70.2a28.25,28.25,0,0,0,.2,2.9s1,7.5,2.6,11.3A25.66,25.66,0,0,0,66.9,96.9a20.56,20.56,0,0,0,9.5,2.8c.8,0,1.5.1,1.6.1s.8-.1,1.6-.1l2.1-.2a29.11,29.11,0,0,0,5-1.6A21.75,21.75,0,0,0,94,92.7,26.87,26.87,0,0,0,99.8,83.1ZM90.2,58a6.5,6.5,0,1,1-6.5,6.5A6.49,6.49,0,0,1,90.2,58ZM58.7,64.5A6.5,6.5,0,1,1,65.2,71,6.49,6.49,0,0,1,58.7,64.5ZM91.5,83l-.6.9a20.71,20.71,0,0,1-1.7,2.4s-3.2,3.8-5.8,5.1a12.81,12.81,0,0,1-6.1,1.5,13.15,13.15,0,0,1-7.2-2.1,19.05,19.05,0,0,1-4.6-4.4l-.3-.4c-.3-.5-.9-1.4-1.3-2.1l-.8-.9c-.4-.6-.1-1.2.7-1.2h27C91.6,81.8,91.9,82.3,91.5,83Z"/><path class="cls-4" d="M107.1,71.7a7.72,7.72,0,0,0,1.5-1.6,5.12,5.12,0,0,0,.7-1.8,26.45,26.45,0,0,0,.2-2.7,26.45,26.45,0,0,0-.2-2.7,4.68,4.68,0,0,0-.8-2,4.82,4.82,0,0,0-1.4-1.5c-.6-.4-1.2-.1-1.2.7V72C105.9,72.3,106.4,72.2,107.1,71.7Z"/><path class="cls-7" d="M119.7,75.5a15.79,15.79,0,0,0-1.7-2.3,6,6,0,0,1-1.2-2.4,6.43,6.43,0,0,1,.3-2.7,16.28,16.28,0,0,0,.9-4.6,13.33,13.33,0,0,0-2.8-8.2c-.7-.8-1.2-1.3-1.2-1.3a2.13,2.13,0,0,0-2.3-.2,5.87,5.87,0,0,1-2.2.6h-1.4c-.6,0-.4.3.3.6a9.15,9.15,0,0,1,1.2.8,14.21,14.21,0,0,1,2.4,2.5,14.65,14.65,0,0,1,1.7,4.7,26.45,26.45,0,0,1,.2,2.7,25.28,25.28,0,0,1-.1,2.7,8.58,8.58,0,0,1-.6,2.2,10.48,10.48,0,0,1-2.5,3.8,15.61,15.61,0,0,1-3.7,2.3,2.71,2.71,0,0,0-1.6,2s-.3,1.8-.7,3.4a27.76,27.76,0,0,1-2.1,5.7,32,32,0,0,1-2,3.5,1.37,1.37,0,0,0,.4,2,15.24,15.24,0,0,0,2.4,1.2,14.23,14.23,0,0,0,4.5.8,13.4,13.4,0,0,0,13.4-13.4A12.68,12.68,0,0,0,119.7,75.5Z"/><path class="cls-2" d="M82.1,86.1h0L72.9,86c-.8,0-1,.4-.3.9a14.22,14.22,0,0,0,1.4.7,8.42,8.42,0,0,0,3.5.7,10.47,10.47,0,0,0,3-.5,6.24,6.24,0,0,0,1.9-.9C83,86.5,82.9,86.1,82.1,86.1Z"/><path class="cls-5" d="M67.3,64.5a2.1,2.1,0,1,0-4.2,0,2.1,2.1,0,1,0,4.2,0Z"/><path class="cls-5" d="M90.2,66.6a2.1,2.1,0,1,0-2.1-2.1A2.05,2.05,0,0,0,90.2,66.6Z"/><path d="M121.6,68.6a23.54,23.54,0,0,0,.8-5.1,17.17,17.17,0,0,0-2.7-9.4,21.48,21.48,0,0,0-3.6-4.1,3.45,3.45,0,0,1-1.1-1.3v-.2a6.35,6.35,0,0,0-1.7-4.2,5.8,5.8,0,0,0-2.7-1.4,14.28,14.28,0,0,0-2.9-.3h-.6a1.54,1.54,0,0,1-1.5-1.5V37.7a28.25,28.25,0,0,0-.2-2.9s-.8-6.4-2.6-9.8A24.21,24.21,0,0,0,93,15c-3.4-1.8-9.9-2.7-9.9-2.7a28.25,28.25,0,0,0-2.9-.2H74.6c-.8,0-2.1.1-2.9.1a35.18,35.18,0,0,0-7.8,1.7A24.45,24.45,0,0,0,51.6,25.4c-1.6,3.2-2.4,9.3-2.4,9.3a28.25,28.25,0,0,0-.2,2.9V41c0,.8-.5,1.5-1.1,1.5a12.07,12.07,0,0,0-2.5.3,5.25,5.25,0,0,0-2.1,1,5.93,5.93,0,0,0-1.8,2.7,5.33,5.33,0,0,1-1.6,2.3,24.22,24.22,0,0,0-4,3.7,17.72,17.72,0,0,0-3.7,10.9,22.29,22.29,0,0,0,.8,5.1,3.64,3.64,0,0,1-.4,2.7s-3.8,6.3-3.8,10.6A18,18,0,0,0,46.7,99.7c4.2,0,10.2-3.5,10.2-3.5a2.13,2.13,0,0,1,2.4.3,38.5,38.5,0,0,0,6.3,4.7,25.23,25.23,0,0,0,11.9,2.9h.3a16,16,0,0,0,1.7-.1s1.4-.1,2.8-.3a28.41,28.41,0,0,0,6.8-2.2,39.46,39.46,0,0,0,6.7-4.7,2.57,2.57,0,0,1,2.4-.3s5.7,3.1,9.7,3.1a18,18,0,0,0,17.9-17.9c0-4.2-3.8-10.4-3.8-10.4A4.2,4.2,0,0,1,121.6,68.6ZM107.9,95.3a14.23,14.23,0,0,1-4.5-.8,15.24,15.24,0,0,1-2.4-1.2,1.37,1.37,0,0,1-.4-2,32,32,0,0,0,2-3.5,27.76,27.76,0,0,0,2.1-5.7c.4-1.6.7-3.4.7-3.4a2.71,2.71,0,0,1,1.6-2,15.61,15.61,0,0,0,3.7-2.3,10.48,10.48,0,0,0,2.5-3.8,8.58,8.58,0,0,0,.6-2.2,25.28,25.28,0,0,0,.1-2.7,26.45,26.45,0,0,0-.2-2.7,14.65,14.65,0,0,0-1.7-4.7,14.21,14.21,0,0,0-2.4-2.5,9.15,9.15,0,0,0-1.2-.8c-.7-.3-.9-.6-.3-.6h1.4a5.87,5.87,0,0,0,2.2-.6,2.13,2.13,0,0,1,2.3.2s.5.5,1.2,1.3a13.33,13.33,0,0,1,2.8,8.2,16.28,16.28,0,0,1-.9,4.6,6.43,6.43,0,0,0-.3,2.7,6,6,0,0,0,1.2,2.4,15.79,15.79,0,0,1,1.7,2.3,12.68,12.68,0,0,1,1.6,6.4A13.4,13.4,0,0,1,107.9,95.3ZM81.7,99.5l-2.1.2c-.8,0-1.5.1-1.6.1s-.8-.1-1.6-.1a20.56,20.56,0,0,1-9.5-2.8A25.66,25.66,0,0,1,56.4,84.4c-1.6-3.8-2.6-11.3-2.6-11.3a28.25,28.25,0,0,1-.2-2.9V56a1.54,1.54,0,0,1,1.5-1.5H100a1.54,1.54,0,0,1,1.5,1.5V71.2a13.58,13.58,0,0,1-.1,1.5s-.3,6.7-1.6,10.4A26.87,26.87,0,0,1,94,92.7a21.75,21.75,0,0,1-7.3,5.2A29.11,29.11,0,0,1,81.7,99.5ZM54.3,92.9c-.1-.1-4.3,2.4-7.5,2.4A13.4,13.4,0,0,1,33.4,81.9c0-3.7,3.4-8.6,3.4-8.6a6.85,6.85,0,0,0,1.1-2.5,6.43,6.43,0,0,0-.3-2.7,16.28,16.28,0,0,1-.9-4.6,12.53,12.53,0,0,1,1.5-6.1,13.67,13.67,0,0,1,2-2.9,10.61,10.61,0,0,1,1.2-1.2,1.81,1.81,0,0,1,2.3.1,3.79,3.79,0,0,0,1.6.8l.6.2a14.16,14.16,0,0,0,1.9.1c.4,0,.1.3-.6.6a4.62,4.62,0,0,0-1,.6A14.46,14.46,0,0,0,44,57.8c-1.5,1.8-2.1,5.3-2.1,5.3-.1.8-.3,2-.3,2.6a26.45,26.45,0,0,0,.2,2.7,11.89,11.89,0,0,0,1.6,4.3c1.5,2.2,5.1,4,5.1,4a3.36,3.36,0,0,1,1.6,2.1A54,54,0,0,0,52,85.3a52.45,52.45,0,0,0,2.8,5.6A1.46,1.46,0,0,1,54.3,92.9ZM45.9,47.4a.76.76,0,0,1,.4-.2l.3-.1h62.9l.2.1a1.44,1.44,0,0,1,.3,2.5l-.2.2a2.81,2.81,0,0,1-.8.1H46.7a1.23,1.23,0,0,1-.8-.4,1.43,1.43,0,0,1-.5-1.1A1.29,1.29,0,0,1,45.9,47.4Zm7.3-9.6h.3c0-.8.1-2.1.1-2.9a25.57,25.57,0,0,1,1.2-5.8,19.37,19.37,0,0,1,8.5-9.8c2.9-1.7,8.4-2.4,8.4-2.4a28.25,28.25,0,0,1,2.9-.2h5.6c.8,0,2.1.1,2.9.1a27.16,27.16,0,0,1,5.8,1.3,18,18,0,0,1,6.1,4,18.49,18.49,0,0,1,4.1,5.8,28.75,28.75,0,0,1,1.7,7,28.25,28.25,0,0,1,.2,2.9v3.4a1.54,1.54,0,0,1-1.5,1.5H54.7a1.54,1.54,0,0,1-1.5-1.5Zm52.7,22.3c0-.8.6-1.1,1.2-.7a4.82,4.82,0,0,1,1.4,1.5,4.68,4.68,0,0,1,.8,2,26.45,26.45,0,0,1,.2,2.7,26.45,26.45,0,0,1-.2,2.7,5.12,5.12,0,0,1-.7,1.8,7.72,7.72,0,0,1-1.5,1.6c-.7.5-1.2.6-1.2.3V60.1ZM46.7,61.5a5.71,5.71,0,0,1,1.4-1.7c.6-.5,1.2-.2,1.2.6l-.1,10.4c0,.8-.5,1.1-1.2.6a6.12,6.12,0,0,1-1.1-1.3,4.37,4.37,0,0,1-.7-1.7,26.45,26.45,0,0,1-.2-2.7,26.45,26.45,0,0,1,.2-2.7A6.91,6.91,0,0,1,46.7,61.5Z"/><path d="M90.8,81.8h-27c-.8,0-1.1.6-.7,1.2l.8.9c.4.7,1,1.6,1.3,2.1l.3.4a19.05,19.05,0,0,0,4.6,4.4,13.15,13.15,0,0,0,7.2,2.1,12.81,12.81,0,0,0,6.1-1.5c2.6-1.3,5.8-5.1,5.8-5.1a20.71,20.71,0,0,0,1.7-2.4l.6-.9C91.9,82.3,91.6,81.8,90.8,81.8Zm-8.4,5.1a6.24,6.24,0,0,1-1.9.9,10.47,10.47,0,0,1-3,.5,8.42,8.42,0,0,1-3.5-.7,14.22,14.22,0,0,1-1.4-.7c-.7-.5-.5-.9.3-.9h9.2v.1C82.9,86.1,83,86.5,82.4,86.9Z"/><path d="M71.7,64.5A6.5,6.5,0,1,0,65.2,71,6.49,6.49,0,0,0,71.7,64.5Zm-8.6,0a2.1,2.1,0,1,1,4.2,0,2.1,2.1,0,1,1-4.2,0Z"/><path d="M90.2,71a6.5,6.5,0,1,0-6.5-6.5A6.49,6.49,0,0,0,90.2,71Zm0-8.6a2.1,2.1,0,1,1-2.1,2.1A2.05,2.05,0,0,1,90.2,62.4Z"/><path d="M67.7,39.1a4.33,4.33,0,0,0,.5.1h1.6a4.33,4.33,0,0,0,.5-.1c.2-.1.3-.1.3-.2s.1-.1.1-.2V25.6l4.6,13.2.2.2c.1.1.2.2.3.2a4.33,4.33,0,0,0,.5.1h1.4a4.33,4.33,0,0,0,.5-.1c.1-.1.2-.1.3-.2s.2-.2.2-.3l4.7-13.2V38.7c0,.1,0,.1.1.2s.2.2.3.2a4.33,4.33,0,0,0,.5.1h1.6a4.33,4.33,0,0,0,.5-.1c.2-.1.3-.1.3-.2s.1-.1.1-.2h-.4V24.3c0-.2-.1-.5-.1-.6a.76.76,0,0,0-.2-.4c-.1-.2-.2-.2-.4-.3a1.27,1.27,0,0,0-.6-.1H82.9a2,2,0,0,0-.8.1.86.86,0,0,0-.6.3,2.65,2.65,0,0,0-.5.6,1.88,1.88,0,0,0-.4.9l-3.7,9.7h-.1l-3.5-9.7a3.92,3.92,0,0,0-.4-.9,1,1,0,0,0-.5-.6,4.88,4.88,0,0,0-.7-.3,3.08,3.08,0,0,0-1-.1H68.5a1.22,1.22,0,0,0-.9.3,1.49,1.49,0,0,0-.3,1V38.7c0,.1.1.1.1.2S67.6,39.1,67.7,39.1Z"/><path d="M67.3,210.4v.2c0,.2,0,1.1.8,1.1.7-.2.8-.8.8-1.4V209C68,209.4,67.3,209.6,67.3,210.4Z"/><path d="M76.6,207.8h.8c.3,0,.3,0,.3-.3,0-.6-.1-1.2-.7-1.2s-.6.6-.7,1.2C76.3,207.8,76.3,207.8,76.6,207.8Z"/><path d="M90.3,191.7h.8c.3,0,.3,0,.3-.3,0-.6-.1-1.2-.7-1.2s-.7.6-.7,1.2C90,191.7,90,191.7,90.3,191.7Z"/><path d="M84.5,210.4v.2c0,.2,0,1.1.8,1.1.6-.2.7-.8.8-1.4V209C85.2,209.4,84.5,209.6,84.5,210.4Z"/><path d="M78.4,195.4h.5c.3,0,.3,0,.3-.3v-4.6c0-.2-.1-.2-.3-.2h-.5c-.8,0-.8.8-.8,1.6v1.9C77.6,194.6,77.6,195.4,78.4,195.4Z"/><path class="cls-2" d="M62.5,196.8h3.4a.27.27,0,0,0,.3-.3v-.9a.27.27,0,0,0-.3-.3H64.1c-.3,0-.3,0-.3-.3v-3c0-.3,0-.3.3-.3h1.8a.27.27,0,0,0,.3-.3v-.9a.27.27,0,0,0-.3-.3H64.1c-.3,0-.3,0-.3-.3v-2.4c0-.3,0-.3.3-.3h1.8a.27.27,0,0,0,.3-.3V186a.27.27,0,0,0-.3-.3H62.5a.27.27,0,0,0-.3.3v10.6C62.2,196.9,62.3,196.9,62.5,196.8Z"/><path class="cls-2" d="M68.7,196.9a1.62,1.62,0,0,0,1.6-1v.7a.27.27,0,0,0,.3.3h.8a.27.27,0,0,0,.3-.3v-7.4a.27.27,0,0,0-.3-.3h-1a.27.27,0,0,0-.3.3v4.7c0,.6,0,1.6-.7,1.6s-.7-.9-.7-1.6v-4.7a.27.27,0,0,0-.3-.3h-1a.27.27,0,0,0-.3.3v5.4C67.1,196.9,68.5,196.9,68.7,196.9Z"/><path class="cls-2" d="M78.4,196.9h2.1a.27.27,0,0,0,.3-.3V186c0-.3-.1-.3-.3-.3h-1c-.1,0-.3,0-.3.3v2.9h-.8c-1.6,0-2.4.8-2.4,3.2v1.6C76,196.1,76.8,196.9,78.4,196.9Zm-.8-5c0-.8,0-1.6.8-1.6h.5c.2,0,.3,0,.3.2v4.6c0,.3,0,.3-.3.3h-.5c-.8,0-.8-.8-.8-1.6Z"/><path class="cls-2" d="M82.7,188.5a.9.9,0,1,0-.9-.9A.9.9,0,0,0,82.7,188.5Z"/><path class="cls-2" d="M83.5,196.6v-7.4a.27.27,0,0,0-.3-.3h-1a.27.27,0,0,0-.3.3v7.4c0,.3.1.3.3.3h1C83.3,196.9,83.5,196.9,83.5,196.6Z"/><path class="cls-2" d="M84.9,196.8h1c.1,0,.3,0,.3-.3v-4.6c0-.8,0-1.6.8-1.6h.6c.2.1.3-.1.3-.3v-.9a.27.27,0,0,0-.3-.3h-.2a1.58,1.58,0,0,0-1.2.5v-.2a.27.27,0,0,0-.3-.3h-1a.27.27,0,0,0-.3.3v7.4C84.6,196.8,84.7,196.8,84.9,196.8Z"/><path class="cls-2" d="M90.6,196.9c1.6,0,2.3-1,2.3-2.8,0-.2-.1-.4-.3-.4h-.9c-.2,0-.3.2-.3.4,0,.5,0,1.4-.7,1.4s-.7-.8-.7-1.6v-.4c0-.3,0-.3.3-.3V193h2.3a.27.27,0,0,0,.3-.3v-1c0-2.3-.9-3.1-2.3-3.1s-2.3.8-2.3,3.1v2.1C88.3,196.1,89.2,196.9,90.6,196.9Zm.1-6.7c.6,0,.7.6.7,1.2,0,.3,0,.3-.3.3h-.8c-.3,0-.3,0-.3-.3C90,190.8,90.1,190.2,90.7,190.2Z"/><path class="cls-2" d="M94.9,188.5a.9.9,0,1,0-.9-.9A.9.9,0,0,0,94.9,188.5Z"/><path class="cls-2" d="M95.4,188.9h-1a.27.27,0,0,0-.3.3v7.4c0,.3.1.3.3.3h1c.1,0,.3,0,.3-.3v-7.4A.27.27,0,0,0,95.4,188.9Z"/><path class="cls-2" d="M66.3,207.8h.9a.27.27,0,0,0,.3-.3c0-.4.1-1.1.8-1.1s.6.5.7.7c0,1.3-3.2.5-3.2,3.1v.7a1.83,1.83,0,0,0,2,2.1,2,2,0,0,0,1.4-.5v.2c0,.3.1.3.3.3h.8c.1,0,.3,0,.3-.3v-4.6c0-2.3-.9-3.1-2.3-3.1a2.21,2.21,0,0,0-2.3,2.5A.27.27,0,0,0,66.3,207.8Zm2.6,2.5c0,.6-.1,1.2-.8,1.4-.8,0-.8-.9-.8-1.1v-.2c0-.8.7-1,1.6-1.4v1.3Z"/><path class="cls-2" d="M77,212.9c1.6,0,2.3-1,2.3-2.8,0-.2-.1-.4-.3-.4h-.9c-.2,0-.3.2-.3.4,0,.5,0,1.4-.7,1.4s-.7-.8-.7-1.6v-.4c0-.3,0-.3.3-.3V209H79a.27.27,0,0,0,.3-.3v-1c0-2.3-.9-3.1-2.3-3.1s-2.3.8-2.3,3.1v2.1C74.7,212.1,75.6,212.9,77,212.9Zm0-6.6c.6,0,.7.6.7,1.2,0,.3,0,.3-.3.3h-.8c-.3,0-.3,0-.3-.3C76.4,206.9,76.5,206.3,77,206.3Z"/><path class="cls-2" d="M80.3,202v10.6c0,.4.2.4.3.3h1c.1,0,.3,0,.3-.3V202a.27.27,0,0,0-.3-.3h-1A.27.27,0,0,0,80.3,202Z"/><path class="cls-2" d="M83.4,207.8h.9a.27.27,0,0,0,.3-.3c0-.4.1-1.1.8-1.1a.67.67,0,0,1,.7.7c0,1.3-3.2.5-3.2,3.1v.7a1.83,1.83,0,0,0,2,2.1,2,2,0,0,0,1.4-.5v.2c0,.3.1.3.3.3h.8c.1,0,.3,0,.3-.3v-4.6c0-2.3-.9-3.1-2.3-3.1a2.21,2.21,0,0,0-2.3,2.5A.27.27,0,0,0,83.4,207.8Zm2.7,2.5c-.1.6-.2,1.2-.8,1.4-.8,0-.8-.9-.8-1.1v-.2c0-.8.7-1,1.6-1.4v1.3Z"/><path class="cls-2" d="M91.5,207a.27.27,0,0,0,.3.3h.9a.27.27,0,0,0,.3-.3,2.13,2.13,0,0,0-2.2-2.1,2.24,2.24,0,0,0-2.4,2c-.1,2.4,3,2.5,3.1,3.8a.75.75,0,1,1-1.5.1.27.27,0,0,0-.3-.3h-.9a.27.27,0,0,0-.3.3,2.37,2.37,0,0,0,4.7.1c.1-2.3-3-2.5-3.1-3.8A.7.7,0,1,1,91.5,207Z"/><path class="cls-8" d="M83.5,196.6v-7.4a.27.27,0,0,0-.3-.3h-1a.27.27,0,0,0-.3.3v7.4c0,.3.1.3.3.3h1C83.3,196.9,83.5,196.9,83.5,196.6Z"/><path class="cls-8" d="M83.1,207.5a.27.27,0,0,0,.3.3h.9a.27.27,0,0,0,.3-.3c0-.4.1-1.1.8-1.1a.67.67,0,0,1,.7.7c0,1.3-3.2.5-3.2,3.1v.7a1.83,1.83,0,0,0,2,2.1,2,2,0,0,0,1.4-.5v.2c0,.3.1.3.3.3h.8c.1,0,.3,0,.3-.3v-4.6c0-2.3-.9-3.1-2.3-3.1A2.21,2.21,0,0,0,83.1,207.5Z"/><path class="cls-8" d="M85.9,188.8h-1a.27.27,0,0,0-.3.3v7.4c0,.3.1.3.3.3h1c.1,0,.3,0,.3-.3v-4.6c0-.8,0-1.6.8-1.6h.6c.2.1.3-.1.3-.3v-.9a.27.27,0,0,0-.3-.3h-.2a1.58,1.58,0,0,0-1.2.5v-.2A.27.27,0,0,0,85.9,188.8Z"/><path class="cls-8" d="M82.7,186.7a.9.9,0,1,0,.9.9A.9.9,0,0,0,82.7,186.7Z"/><path class="cls-8" d="M62.5,196.8h3.4a.27.27,0,0,0,.3-.3v-.9a.27.27,0,0,0-.3-.3H64.1c-.3,0-.3,0-.3-.3v-3c0-.3,0-.3.3-.3h1.8a.27.27,0,0,0,.3-.3v-.9a.27.27,0,0,0-.3-.3H64.1c-.3,0-.3,0-.3-.3v-2.4c0-.3,0-.3.3-.3h1.8a.27.27,0,0,0,.3-.3V186a.27.27,0,0,0-.3-.3H62.5a.27.27,0,0,0-.3.3v10.6C62.2,196.9,62.3,196.9,62.5,196.8Z"/><path class="cls-8" d="M80.6,201.7a.27.27,0,0,0-.3.3v10.6c0,.4.2.4.3.3h1c.1,0,.3,0,.3-.3V202a.27.27,0,0,0-.3-.3Z"/><path class="cls-8" d="M66,207.5a.27.27,0,0,0,.3.3h.9a.27.27,0,0,0,.3-.3c0-.4.1-1.1.8-1.1s.6.5.7.7c0,1.3-3.2.5-3.2,3.1v.7a1.83,1.83,0,0,0,2,2.1,2,2,0,0,0,1.4-.5v.2c0,.3.1.3.3.3h.8c.1,0,.3,0,.3-.3v-4.6c0-2.3-.9-3.1-2.3-3.1A2.21,2.21,0,0,0,66,207.5Z"/><path class="cls-8" d="M67.4,188.9a.27.27,0,0,0-.3.3v5.4c0,2.3,1.4,2.3,1.6,2.3a1.62,1.62,0,0,0,1.6-1v.7a.27.27,0,0,0,.3.3h.8a.27.27,0,0,0,.3-.3v-7.4a.27.27,0,0,0-.3-.3h-1a.27.27,0,0,0-.3.3v4.7c0,.6,0,1.6-.7,1.6s-.7-.9-.7-1.6v-4.7a.27.27,0,0,0-.3-.3h-1Z"/><path class="cls-8" d="M80.5,185.7h-1c-.1,0-.3,0-.3.3v2.9h-.8c-1.6,0-2.4.8-2.4,3.2v1.6c0,2.4.8,3.2,2.4,3.2h2.1a.27.27,0,0,0,.3-.3V186C80.8,185.7,80.7,185.7,80.5,185.7Z"/><path class="cls-8" d="M94.9,186.7a.9.9,0,1,0,.9.9A.9.9,0,0,0,94.9,186.7Z"/><path class="cls-8" d="M95.4,196.9c.1,0,.3,0,.3-.3v-7.4a.27.27,0,0,0-.3-.3h-1a.27.27,0,0,0-.3.3v7.4c0,.3.1.3.3.3Z"/><path class="cls-8" d="M91.5,207a.27.27,0,0,0,.3.3h.9a.27.27,0,0,0,.3-.3,2.13,2.13,0,0,0-2.2-2.1,2.24,2.24,0,0,0-2.4,2c-.1,2.4,3,2.5,3.1,3.8a.75.75,0,1,1-1.5.1.27.27,0,0,0-.3-.3h-.9a.27.27,0,0,0-.3.3,2.37,2.37,0,0,0,4.7.1c.1-2.3-3-2.5-3.1-3.8A.7.7,0,1,1,91.5,207Z"/><path class="cls-8" d="M74.7,207.7v2.1c0,2.3.9,3.1,2.3,3.1,1.6,0,2.3-1,2.3-2.8,0-.2-.1-.4-.3-.4h-.9c-.2,0-.3.2-.3.4,0,.5,0,1.4-.7,1.4s-.7-.8-.7-1.6v-.4c0-.3,0-.3.3-.3V209H79a.27.27,0,0,0,.3-.3v-1c0-2.3-.9-3.1-2.3-3.1S74.7,205.4,74.7,207.7Z"/><path class="cls-8" d="M90.6,188.6c-1.4,0-2.3.8-2.3,3.1v2.1c0,2.3.9,3.1,2.3,3.1,1.6,0,2.3-1,2.3-2.8,0-.2-.1-.4-.3-.4h-.9c-.2,0-.3.2-.3.4,0,.5,0,1.4-.7,1.4s-.7-.8-.7-1.6v-.4c0-.3,0-.3.3-.3V193h2.3a.27.27,0,0,0,.3-.3v-1C92.9,189.4,92,188.6,90.6,188.6Z"/><path d="M136.4,177.6H64.9a4.11,4.11,0,0,1-2.7-1.7L54,162.2c-.6-.9-1.5-.9-2,.1l-7.2,13.6a3.87,3.87,0,0,1-3,1.8H23.9a2,2,0,0,0-2,2v38.2a2,2,0,0,0,2,2H136.4a2,2,0,0,0,2-2V179.6A2,2,0,0,0,136.4,177.6ZM62.2,186a.27.27,0,0,1,.3-.3h3.4a.27.27,0,0,1,.3.3v.9a.27.27,0,0,1-.3.3H64.1c-.3,0-.3,0-.3.3v2.4c0,.3,0,.3.3.3h1.8a.27.27,0,0,1,.3.3v.9a.27.27,0,0,1-.3.3H64.1c-.3,0-.3,0-.3.3v3c0,.3,0,.3.3.3h1.8a.27.27,0,0,1,.3.3v.9a.27.27,0,0,1-.3.3H62.5c-.2.1-.3.1-.3-.2Zm6.5,3.2v4.7c0,.7,0,1.6.7,1.6s.7-1,.7-1.6v-4.7a.27.27,0,0,1,.3-.3h1a.27.27,0,0,1,.3.3v7.4a.27.27,0,0,1-.3.3h-.8a.27.27,0,0,1-.3-.3v-.7a1.62,1.62,0,0,1-1.6,1c-.2,0-1.6,0-1.6-2.3v-5.4a.27.27,0,0,1,.3-.3h1A.27.27,0,0,1,68.7,189.2ZM68.3,205c1.4,0,2.3.8,2.3,3.1v4.6c0,.3-.2.3-.3.3h-.8c-.2,0-.3,0-.3-.3v-.2a2,2,0,0,1-1.4.5,1.83,1.83,0,0,1-2-2.1v-.7c0-2.6,3.2-1.8,3.2-3.1-.1-.2-.1-.7-.7-.7s-.8.7-.8,1.1a.27.27,0,0,1-.3.3h-.9a.27.27,0,0,1-.3-.3A2.21,2.21,0,0,1,68.3,205Zm19.1-16.2h.2a.27.27,0,0,1,.3.3v.9c0,.2-.1.4-.3.3H87c-.8,0-.8.8-.8,1.6v4.6c0,.3-.2.3-.3.3h-1c-.2,0-.3,0-.3-.3v-7.4a.27.27,0,0,1,.3-.3h1a.27.27,0,0,1,.3.3v.2A1.58,1.58,0,0,1,87.4,188.8Zm-2,16.2c1.4,0,2.3.8,2.3,3.1v4.6c0,.3-.2.3-.3.3h-.8c-.2,0-.3,0-.3-.3v-.2a2,2,0,0,1-1.4.5,1.83,1.83,0,0,1-2-2.1v-.7c0-2.6,3.2-1.8,3.2-3.1a.67.67,0,0,0-.7-.7c-.7,0-.8.7-.8,1.1a.27.27,0,0,1-.3.3h-.9a.27.27,0,0,1-.3-.3A2.21,2.21,0,0,1,85.4,205Zm-3.2-8.1c-.2,0-.3,0-.3-.3v-7.4a.27.27,0,0,1,.3-.3h1a.27.27,0,0,1,.3.3v7.4c0,.3-.2.3-.3.3Zm.5-8.4a.9.9,0,1,1,.9-.9A.9.9,0,0,1,82.7,188.5ZM81.9,202v10.6c0,.3-.2.3-.3.3h-1c-.1.1-.3.1-.3-.3V202a.27.27,0,0,1,.3-.3h1A.27.27,0,0,1,81.9,202Zm-1.1-5.4a.27.27,0,0,1-.3.3H78.4c-1.6,0-2.4-.8-2.4-3.2v-1.6c0-2.4.8-3.2,2.4-3.2h.8V186c0-.3.2-.3.3-.3h1c.2,0,.3,0,.3.3v10.6Zm-3.8,8c1.4,0,2.3.8,2.3,3.1v1a.27.27,0,0,1-.3.3H76.7v.2c-.3,0-.3,0-.3.3v.4c0,.8,0,1.6.7,1.6s.7-.9.7-1.4c0-.2.1-.4.3-.4H79c.2,0,.3.2.3.4,0,1.8-.7,2.8-2.3,2.8-1.4,0-2.3-.8-2.3-3.1v-2.1C74.7,205.4,75.6,204.6,77,204.6Zm16.2,6.3a2.37,2.37,0,0,1-4.7-.1.27.27,0,0,1,.3-.3h.9a.27.27,0,0,1,.3.3.75.75,0,1,0,1.5-.1c-.1-1.3-3.2-1.4-3.1-3.8a2.24,2.24,0,0,1,2.4-2A2.13,2.13,0,0,1,93,207a.27.27,0,0,1-.3.3h-.9a.27.27,0,0,1-.3-.3.7.7,0,1,0-1.4.1C90.2,208.4,93.3,208.6,93.2,210.9Zm-.3-18.2a.27.27,0,0,1-.3.3H90.3v.2c-.3,0-.3,0-.3.3v.4c0,.8,0,1.6.7,1.6s.7-.9.7-1.4c0-.2.1-.4.3-.4h.9c.2,0,.3.2.3.4,0,1.8-.7,2.8-2.3,2.8-1.4,0-2.3-.8-2.3-3.1v-2.1c0-2.3.9-3.1,2.3-3.1s2.3.8,2.3,3.1Zm1.2,3.9v-7.4a.27.27,0,0,1,.3-.3h1a.27.27,0,0,1,.3.3v7.4c0,.3-.2.3-.3.3h-1C94.2,196.9,94.1,196.9,94.1,196.6Zm.8-8.1a.9.9,0,1,1,.9-.9A.9.9,0,0,1,94.9,188.5Z"/></g></g></svg>