<svg xmlns="http://www.w3.org/2000/svg" viewBox="0 0 156.6 227.6"><defs><style>.cls-1{fill:#dcba29;}.cls-2{fill:#fff;}.cls-3{fill:#f9c1cf;}.cls-4{fill:#007aa8;}.cls-5{fill:#abe1fa;}.cls-6{fill:#eee809;}.cls-7{fill:#fcaf17;}.cls-8{fill:#b14c24;}.cls-9{fill:#f58220;}.cls-10{fill:#000104;}</style></defs><title>Asset 4</title><g id="Layer_2" data-name="Layer 2"><g id="Layer_1-2" data-name="Layer 1"><path class="cls-1" d="M62.4,175.5a4,4,0,0,0,3,1.7h71.2a2,2,0,0,1,2,2v38.2h0a2,2,0,0,1-2,2H24.1a2,2,0,0,1-2-2V179.2a2,2,0,0,1,2-2H42a3.87,3.87,0,0,0,3-1.8l1.7-3.3H0v41.3s0,14.2,14.2,14.2H142.4s14.2,0,14.2-14.2h-.1V172.1H60.4Z"/><path class="cls-1" d="M97.3,62.3a8.81,8.81,0,0,0-.6-3.3,14.61,14.61,0,0,1,.4,2,16.35,16.35,0,0,1,.2,2.2Z"/><path class="cls-1" d="M156.5,115.6V14.2S156.5,0,142.3,0H14.2S0,0,0,14.2V115.6ZM87.3,73.7a16.35,16.35,0,0,1,.2-2.2,8.52,8.52,0,0,1,1.7-3.6A10,10,0,0,1,92.7,66a1.5,1.5,0,0,0,1.1-1.4V62.8a16.35,16.35,0,0,0-.2-2.2,9.5,9.5,0,0,0-1.1-3.2,15.81,15.81,0,0,0-3-3.5c-.1,0-.1,0-.2-.1a7.34,7.34,0,0,1-1.9-4.5,6.75,6.75,0,0,1,1.8-5A7.09,7.09,0,0,1,94.1,42h.1a.22.22,0,0,0,.2-.2v-.1a6.75,6.75,0,0,1,1.8-5,7.09,7.09,0,0,1,4.9-2.3,7.73,7.73,0,0,1,3.1.6,1.42,1.42,0,0,0,1.7-.4,8,8,0,0,1,2-1.7,6.71,6.71,0,0,1,3.7-.8,8.69,8.69,0,0,1,3.6,1.4,1.91,1.91,0,0,0,1.8,0,9.1,9.1,0,0,1,4.5-1.5,7,7,0,0,1,3.5,1.2,6.83,6.83,0,0,1,1.5,1.4,1.57,1.57,0,0,0,1.7.5,6.92,6.92,0,0,1,9.5,6.8V42a.22.22,0,0,0,.2.2h.1a7,7,0,0,1,6.7,7.3,9.24,9.24,0,0,1-1.6,4c-.4.5-.7.9-.7.9l-.8.8a12.71,12.71,0,0,0-2.1,3,8.8,8.8,0,0,0-.8,2.6,16.35,16.35,0,0,0-.2,2.2v2a1.5,1.5,0,0,0,1.1,1.4,7.94,7.94,0,0,1,2.5,1.2c.2.1.3.3.5.4,1.5,1.2,2.2,4,2.2,4a8.33,8.33,0,0,1,.3,2.2v.6a8.33,8.33,0,0,1-.3,2.2,9.18,9.18,0,0,1-2.2,3.9,9.64,9.64,0,0,1-3.1,1.6,1.6,1.6,0,0,0-1.1,1.3v1.7a13.43,13.43,0,0,1-.1,1.9,30.09,30.09,0,0,1-1.3,6.2,20.38,20.38,0,0,1-10.5,11.1,29.92,29.92,0,0,1-7.3,1.7c-.6,0-1.6.1-2.2.1h-1.6a16.35,16.35,0,0,1-2.2-.2s-6.5-1-9.6-2.9a20.77,20.77,0,0,1-8.1-9.7,30.53,30.53,0,0,1-1.3-6.3,12.13,12.13,0,0,1-.1-1.8c0-.4,0-.7-.1-.7s-.1-.4-.1-1a1.6,1.6,0,0,0-1.1-1.4A9.36,9.36,0,0,1,90,81.1,9.59,9.59,0,0,1,87.6,77a8.33,8.33,0,0,1-.3-2.2V73.7Zm-64-10.6a5,5,0,0,1,1.6-.7,15.41,15.41,0,0,1,1.9-.2c.4,0,.8-.5.8-1.1V58.5a16.2,16.2,0,0,1,.1-2.2,30.18,30.18,0,0,1,1.8-7.1A24.15,24.15,0,0,1,32.4,45a17.54,17.54,0,0,1,6.5-4.6,28,28,0,0,1,6-1.3c.6,0,1.6-.1,2.2-.1h4.3a16.2,16.2,0,0,1,2.2.1s5,.7,7.6,2.1a19.16,19.16,0,0,1,7.5,7.7c1.4,2.6,2,7.5,2,7.5,0,.6.1,1.6.1,2.2v2.6a1.11,1.11,0,0,0,1.1,1.1h.5a16.35,16.35,0,0,1,2.2.2,5,5,0,0,1,2.1,1.1A4.63,4.63,0,0,1,78,66.8v.1a2.46,2.46,0,0,0,.8,1A15.67,15.67,0,0,1,81.6,71a13.94,13.94,0,0,1,2,7.2,18.09,18.09,0,0,1-.6,3.9,3.52,3.52,0,0,0,.3,2s2.9,4.8,2.9,8a13.72,13.72,0,0,1-13.7,13.7c-3,0-7.4-2.4-7.4-2.4a1.7,1.7,0,0,0-1.8.2,32.19,32.19,0,0,1-5.1,3.6,19.8,19.8,0,0,1-5.2,1.7l-2.1.2H49.4a19.73,19.73,0,0,1-9.1-2.2,29,29,0,0,1-4.8-3.6,1.7,1.7,0,0,0-1.8-.2s-4.6,2.6-7.8,2.6A13.72,13.72,0,0,1,12.2,92c0-3.3,2.9-8.1,2.9-8.1a2.36,2.36,0,0,0,.3-2,18.09,18.09,0,0,1-.6-3.9,13.84,13.84,0,0,1,2.8-8.3,15,15,0,0,1,3-2.8,3.71,3.71,0,0,0,1.3-1.7A4.34,4.34,0,0,1,23.3,63.1ZM9.2,29.2a.75.75,0,0,1,.1-.5s1-2,7.4-14.7a1,1,0,0,1,1-.4h2.9c.6,0,.8.2.8.8v14h.4c.6,0,.8.2.8.8v2.9c0,.6-.2.8-.8.8h-.4v7.4c0,.8-.4.8-.8.8H17.5c-.4,0-.8,0-.8-.8V32.9H10c-.6,0-.8-.2-.8-.8Z"/><polygon class="cls-1" points="16.7 23.1 14 28.4 16.7 28.4 16.7 23.1"/><path class="cls-2" d="M88.3,150.5c.6,0,.6,0,.6-.6v-7.3c0-.6,0-.6-.6-.6-1.5,0-1.5,1.5-1.5,3.1v2.3C86.8,148.9,86.8,150.5,88.3,150.5Z"/><path class="cls-2" d="M0,172.1H46.7l5.5-10.3c.5-1,1.4-1,2,0l6.2,10.3h96.1V115.6H0Zm105.3-32.9c0-.5.2-.6.6-.6h2.4c.5,0,.6.2.6.6v.3a3,3,0,0,1,2.2-.9h.3c.5,0,.6.2.6.6v2.6q0,.75-.6.6c-.5,0-.7-.1-1-.1-1.5,0-1.5,1.6-1.5,3.1v7.7c0,.6-.3.6-.6.6h-2.4c-.3,0-.6,0-.6-.6Zm-11.1,9.4c0-4,5.7-3.2,5.7-5.4-.1,0,0-1.2-1.1-1.2s-1.1,1.3-1.1,1.5c0,.5-.2.6-.6.6h-2c-.5,0-.6-.2-.6-.6,0-2.6,1.3-4.8,4.3-4.8,2.7,0,4.7,1.3,4.7,5.8v8.7c0,.6-.3.6-.6.6h-2c-.3,0-.6,0-.6-.6v-.4a2.77,2.77,0,0,1-2.5,1c-2.3,0-3.6-1.2-3.6-3.9v-1.3Zm-11-3.8c0-4.5,2.1-6,5.1-6h.6v-5.4c0-.6.3-.6.6-.6h2.4c.3,0,.6,0,.6.6v19.8c0,.4-.1.6-.6.6H88.3c-3,0-5.1-1.5-5.1-6Zm-7.9-5.6c0-.5.2-.6.6-.6h2.4c.5,0,.6.2.6.6v.3a3,3,0,0,1,2.2-.9h.3c.5,0,.6.2.6.6v2.6q0,.75-.6.6c-.5,0-.7-.1-1-.1-1.5,0-1.5,1.6-1.5,3.1v7.7c0,.6-.3.6-.6.6H75.9c-.3,0-.6,0-.6-.6Zm-11.2,5.6c0-4.5,1.7-6,4.7-6s4.7,1.5,4.7,6v3c0,4.4-1.7,6-4.7,6s-4.7-1.5-4.7-6Zm-10.8-.4c0-4.2,2-5.8,4.7-5.8,3,0,4.5,1.9,4.5,5.3,0,.5-.2.6-.6.6H59.6c-.5,0-.6-.2-.6-.6,0-.8,0-2-1.1-2s-1.1,1.3-1.1,2.8v3.1c0,1.5,0,2.7,1.1,2.7s1.1-1.3,1.1-2c0-.5.2-.6.6-.6h2.3c.5,0,.6.2.6.6,0,3.4-1.5,5.3-4.5,5.3-2.7,0-4.7-1.5-4.7-5.8Zm-11.4-5.1c0-.5.2-.6.6-.6h2c.5,0,.6.2.6.6v1.4a3.19,3.19,0,0,1,3-2c.5,0,3.1,0,3.1,4.3v10.2c0,.5-.2.6-.6.6H48.3a.53.53,0,0,1-.6-.6v-8.4c0-1.5,0-2.8-1.1-2.8s-1.1,1.3-1.1,2.8v8.4c0,.5-.2.6-.6.6H42.5c-.5,0-.6-.2-.6-.6Zm-11.1,5.5c0-4.5,1.7-6,4.7-6s4.7,1.5,4.7,6v3c0,4.4-1.6,6-4.7,6s-4.7-1.5-4.7-6Zm-6.4-12.3c3,0,4.7,1.5,4.7,6v.8c0,.5-.2.6-.6.6H26.1c-.5,0-.6-.2-.6-.6v-.9c0-1.5,0-2.5-1.1-2.5s-1.1,1-1.1,2.5V148c0,1.5,0,2.5,1.1,2.5s1.1-1,1.1-2.5v-.9c0-.5.2-.6.6-.6h2.4c.5,0,.6.2.6.6v.8c0,4.5-1.7,6-4.7,6s-4.7-1.5-4.7-6v-9.4C19.7,134,21.4,132.5,24.4,132.5Z"/><path class="cls-2" d="M68.8,150.5c1.1,0,1.1-1.3,1.1-2.8v-3c0-1.5,0-2.8-1.1-2.8s-1.1,1.3-1.1,2.8v3C67.7,149.2,67.7,150.5,68.8,150.5Z"/><path class="cls-2" d="M98.9,150.4c1,.1,1-1,1-1.7v-1.8c-1.6.7-2.1,1.1-2.1,2.1C97.8,149.4,97.8,150.4,98.9,150.4Z"/><path class="cls-2" d="M35.5,150.5c1.1,0,1.1-1.3,1.1-2.8v-3c0-1.5,0-2.8-1.1-2.8s-1.1,1.3-1.1,2.8v3C34.4,149.2,34.4,150.5,35.5,150.5Z"/><path class="cls-2" d="M10,32.9h6.7v7.4c0,.8.4.8.8.8h3.1c.4,0,.8,0,.8-.8V32.9h.4c.6,0,.8-.2.8-.8V29.2c0-.6-.2-.8-.8-.8h-.4v-14c0-.6-.2-.8-.8-.8H17.7a1,1,0,0,0-1,.4C10.3,26.7,9.3,28.7,9.3,28.7a.75.75,0,0,0-.1.5v2.9C9.2,32.7,9.4,32.9,10,32.9Zm6.7-9.8v5.3H14Z"/><path class="cls-3" d="M26.6,75.5a4.45,4.45,0,0,0-1,1.3,8.17,8.17,0,0,0-.4,1.1c0,.6-.1,1.5-.1,2a15,15,0,0,0,.2,2,4.36,4.36,0,0,0,.5,1.3,4.85,4.85,0,0,0,.9,1c.5.4.9.2.9-.4l-.1-7.9C27.5,75.3,27.1,75.1,26.6,75.5Z"/><path class="cls-4" d="M25.8,67.9H73.3a3.54,3.54,0,0,1,.6-.1l.2-.1a1.05,1.05,0,0,0,.5-.9,1.2,1.2,0,0,0-.7-1l-.1-.1H25.5c-.1.1-.2.1-.3.2a1.49,1.49,0,0,0-.4.9,1.23,1.23,0,0,0,.4.8A.86.86,0,0,0,25.8,67.9Z"/><path class="cls-5" d="M31.9,62.2H66.2a1.11,1.11,0,0,0,1.1-1.1V58.5a16.2,16.2,0,0,0-.1-2.2,23.22,23.22,0,0,0-1.3-5.4,17.1,17.1,0,0,0-3.2-4.4A13.76,13.76,0,0,0,58,43.4a21.92,21.92,0,0,0-4.5-1c-.6,0-1.6-.1-2.2-.1H47a16.35,16.35,0,0,0-2.2.2s-4.2.6-6.4,1.9a15.39,15.39,0,0,0-6.5,7.5,24.84,24.84,0,0,0-.9,4.4c0,.6-.1,1.6-.1,2.2h-.1v2.6A1.11,1.11,0,0,0,31.9,62.2Zm9.6-14.1a1.14,1.14,0,0,1,.3-.8.91.91,0,0,1,.7-.3h1.7a2.2,2.2,0,0,1,.8.1.76.76,0,0,1,.5.2c.2.1.3.3.4.4a4.88,4.88,0,0,1,.3.7l2.7,7.4,2.8-7.4a4.88,4.88,0,0,1,.3-.7c.1-.2.2-.3.3-.5a.76.76,0,0,1,.5-.2c.2,0,.4-.1.6-.1h1.7c.2,0,.3,0,.4.1s.2.1.3.2.1.2.2.3.1.3.1.4V59.2h.3c0,.1,0,.1-.1.2s-.1.1-.2.1-.2.1-.4.1H54.5c-.2,0-.3,0-.4-.1a.35.35,0,0,1-.2-.1c0-.1-.1-.1-.1-.2V49.1L50.2,59.2a.35.35,0,0,1-.1.2c-.1.1-.1.1-.2.1s-.2.1-.4.1H48.3c-.2,0-.3,0-.4-.1a.35.35,0,0,1-.2-.1c-.1-.1-.1-.1-.1-.2L44.1,49.1V59.2c0,.1,0,.1-.1.2s-.1.1-.2.1-.2.1-.4.1H42.2c-.2,0-.3,0-.4-.1a.35.35,0,0,1-.2-.1c0-.1-.1-.1-.1-.2V48.1Z"/><path class="cls-6" d="M21.5,70.4a6.05,6.05,0,0,0-.9.9,10.71,10.71,0,0,0-1.5,2.2A10.49,10.49,0,0,0,18,78.2a12.14,12.14,0,0,0,.7,3.5,4.27,4.27,0,0,1-.6,4s-2.6,3.7-2.6,6.6a10.29,10.29,0,0,0,10.3,10.3,11.79,11.79,0,0,0,5.5-2,1.13,1.13,0,0,0,.4-1.5,29,29,0,0,1-2.2-4.3,50.86,50.86,0,0,1-1.4-5,2.93,2.93,0,0,0-1.3-1.6,11.07,11.07,0,0,1-3.9-3,9.24,9.24,0,0,1-1.2-3.3,15,15,0,0,1-.2-2,15,15,0,0,1,.2-2,11.36,11.36,0,0,1,1.6-4A8.52,8.52,0,0,1,25,72.3a9.41,9.41,0,0,1,.8-.5c.6-.3.8-.5.5-.5s-1-.1-1.5-.1l-.4-.1a5.22,5.22,0,0,1-1.2-.6A1.24,1.24,0,0,0,21.5,70.4Z"/><path class="cls-3" d="M67.4,85.3a9.4,9.4,0,0,0,.1-1.2V72.4a1.11,1.11,0,0,0-1.1-1.1H32a1.11,1.11,0,0,0-1.1,1.1V83.3a16.2,16.2,0,0,0,.1,2.2,47.76,47.76,0,0,0,2,8.7,19.41,19.41,0,0,0,8,9.5,15.66,15.66,0,0,0,4.4,1.8,21.15,21.15,0,0,0,2.9.4,9.29,9.29,0,0,0,1.3.1c.1,0,.7-.1,1.3-.1a11.93,11.93,0,0,1,1.5-.1,17.37,17.37,0,0,0,9.4-5.2,22,22,0,0,0,4.4-7.4A41,41,0,0,0,67.4,85.3ZM34.9,79a5,5,0,0,1,10,0,5.08,5.08,0,0,1-5,5A5,5,0,0,1,34.9,79ZM60,93.2l-.5.7a20.28,20.28,0,0,1-1.3,1.8,18.54,18.54,0,0,1-4.4,3.9,10.82,10.82,0,0,1-4.7,1.1,10,10,0,0,1-5.5-1.6,14.08,14.08,0,0,1-3.5-3.4l-.2-.3c-.2-.4-.7-1.1-1-1.6l-.5-.6c-.4-.5-.1-.9.5-.9H59.5C60.1,92.3,60.3,92.7,60,93.2ZM59,84a5,5,0,1,1,5-5A5,5,0,0,1,59,84Z"/><path class="cls-3" d="M71.9,84.5A7.18,7.18,0,0,0,73,83.3a4.27,4.27,0,0,0,.6-1.4,15,15,0,0,0,.2-2,15,15,0,0,0-.2-2,4.51,4.51,0,0,0-1.7-2.7c-.5-.3-.9-.1-.9.5v9.1C71,85,71.4,84.8,71.9,84.5Z"/><path class="cls-6" d="M75.4,70.8a4.69,4.69,0,0,1-1.7.5H72.6c-.5,0-.4.2.2.5a3.36,3.36,0,0,1,.9.6,8.13,8.13,0,0,1,1.8,1.9,11.07,11.07,0,0,1,1.3,3.6,15,15,0,0,1,.2,2,14.08,14.08,0,0,1-.1,2,4.64,4.64,0,0,1-.4,1.7,8.12,8.12,0,0,1-1.9,2.9,9.82,9.82,0,0,1-2.9,1.8,2,2,0,0,0-1.2,1.5s-.2,1.4-.5,2.6a23.17,23.17,0,0,1-1.6,4.4,26.21,26.21,0,0,1-1.5,2.7,1.11,1.11,0,0,0,.3,1.6,18.89,18.89,0,0,0,1.9.9,9.74,9.74,0,0,0,3.4.6,10.36,10.36,0,0,0,9-15.2,7.9,7.9,0,0,0-1.3-1.8,4.37,4.37,0,0,1-.9-1.8,5,5,0,0,1,.2-2.1,12.14,12.14,0,0,0,.7-3.5A9.89,9.89,0,0,0,78.1,72c-.5-.6-.9-1-.9-1A1.52,1.52,0,0,0,75.4,70.8Z"/><path class="cls-2" d="M52.8,95.4h-7c-.6,0-.7.3-.2.7a3.4,3.4,0,0,0,1,.6,7.51,7.51,0,0,0,2.6.5,5.87,5.87,0,0,0,2.3-.4,6.9,6.9,0,0,0,1.5-.7c.5-.3.4-.6-.2-.6v-.1Z"/><path class="cls-4" d="M41.5,79a1.6,1.6,0,1,0-1.6,1.6A1.58,1.58,0,0,0,41.5,79Z"/><path class="cls-4" d="M59,77.4A1.6,1.6,0,1,0,60.6,79,1.58,1.58,0,0,0,59,77.4Z"/><path d="M20.6,66.9a15,15,0,0,0-3,2.8A13.84,13.84,0,0,0,14.8,78a18.09,18.09,0,0,0,.6,3.9,2.36,2.36,0,0,1-.3,2s-2.9,4.8-2.9,8.1a13.72,13.72,0,0,0,13.7,13.7c3.2,0,7.8-2.6,7.8-2.6a1.7,1.7,0,0,1,1.8.2,29,29,0,0,0,4.8,3.6,19.73,19.73,0,0,0,9.1,2.2h1.5l2.1-.2a19.8,19.8,0,0,0,5.2-1.7,32.19,32.19,0,0,0,5.1-3.6,1.7,1.7,0,0,1,1.8-.2s4.4,2.4,7.4,2.4A13.72,13.72,0,0,0,86.2,92.1c0-3.2-2.9-8-2.9-8a3.52,3.52,0,0,1-.3-2,18.09,18.09,0,0,0,.6-3.9,13.94,13.94,0,0,0-2-7.2,15.67,15.67,0,0,0-2.8-3.1,2.46,2.46,0,0,1-.8-1v-.1a4.63,4.63,0,0,0-1.3-3.2,5,5,0,0,0-2.1-1.1,16.35,16.35,0,0,0-2.2-.2h-.5a1.11,1.11,0,0,1-1.1-1.1V58.6c0-.6-.1-1.6-.1-2.2,0,0-.6-4.9-2-7.5a19.16,19.16,0,0,0-7.5-7.7c-2.6-1.4-7.6-2.1-7.6-2.1a16.2,16.2,0,0,0-2.2-.1H47.1c-.6,0-1.6.1-2.2.1a28,28,0,0,0-6,1.3A17.54,17.54,0,0,0,32.4,45a24.15,24.15,0,0,0-2.9,4.2,30.18,30.18,0,0,0-1.8,7.1,16.2,16.2,0,0,0-.1,2.2v2.6c0,.6-.4,1.1-.8,1.1a15.41,15.41,0,0,0-1.9.2,5,5,0,0,0-1.6.7,4.34,4.34,0,0,0-1.4,2.1A3.71,3.71,0,0,1,20.6,66.9Zm4.6-1c.1-.1.2-.1.3-.2H73.8l.1.1a1.2,1.2,0,0,1,.7,1,1.05,1.05,0,0,1-.5.9l-.2.1a3.54,3.54,0,0,0-.6.1H25.8a.86.86,0,0,1-.6-.3,1.23,1.23,0,0,1-.4-.8A1.49,1.49,0,0,1,25.2,65.9Zm5.6-7.4h0a16.35,16.35,0,0,0,.2-2.2,24.84,24.84,0,0,1,.9-4.4,15.39,15.39,0,0,1,6.5-7.5c2.2-1.3,6.4-1.9,6.4-1.9a16.35,16.35,0,0,1,2.2-.2h4.3c.6,0,1.6.1,2.2.1a21.92,21.92,0,0,1,4.5,1,13.76,13.76,0,0,1,4.7,3.1,17.1,17.1,0,0,1,3.2,4.4,23.22,23.22,0,0,1,1.3,5.4,16.2,16.2,0,0,1,.1,2.2v2.6a1.11,1.11,0,0,1-1.1,1.1H31.9a1.11,1.11,0,0,1-1.1-1.1V58.5ZM80.2,78.2a12.14,12.14,0,0,1-.7,3.5,5,5,0,0,0-.2,2.1,4.37,4.37,0,0,0,.9,1.8,7.9,7.9,0,0,1,1.3,1.8,10.36,10.36,0,0,1-9,15.2,9.74,9.74,0,0,1-3.4-.6,18.89,18.89,0,0,1-1.9-.9,1.11,1.11,0,0,1-.3-1.6,26.21,26.21,0,0,0,1.5-2.7A23.17,23.17,0,0,0,70,92.4c.3-1.2.5-2.6.5-2.6a2,2,0,0,1,1.2-1.5,9.82,9.82,0,0,0,2.9-1.8,8.12,8.12,0,0,0,1.9-2.9,4.64,4.64,0,0,0,.4-1.7,14.08,14.08,0,0,0,.1-2,15,15,0,0,0-.2-2,11.07,11.07,0,0,0-1.3-3.6,8.13,8.13,0,0,0-1.8-1.9,3.36,3.36,0,0,0-.9-.6c-.6-.3-.7-.5-.2-.5h1.1a4.69,4.69,0,0,0,1.7-.5,1.52,1.52,0,0,1,1.8.2s.4.4.9,1A9.89,9.89,0,0,1,80.2,78.2Zm-24,26.4a16.8,16.8,0,0,1-3.8,1.2,11.93,11.93,0,0,0-1.5.1c-.6,0-1.2.1-1.3.1a9.29,9.29,0,0,1-1.3-.1,21.15,21.15,0,0,1-2.9-.4,15.66,15.66,0,0,1-4.4-1.8,19.41,19.41,0,0,1-8-9.5,47.76,47.76,0,0,1-2-8.7,16.2,16.2,0,0,1-.1-2.2V72.4A1.11,1.11,0,0,1,32,71.3H66.4a1.11,1.11,0,0,1,1.1,1.1V84.1a9.4,9.4,0,0,1-.1,1.2,41,41,0,0,1-1.2,7.9,22,22,0,0,1-4.4,7.4A16.94,16.94,0,0,1,56.2,104.6ZM71,75.7c0-.6.4-.8.9-.5a4.51,4.51,0,0,1,1.7,2.7,15,15,0,0,1,.2,2,15,15,0,0,1-.2,2,4.27,4.27,0,0,1-.6,1.4,7.18,7.18,0,0,1-1.1,1.2c-.5.3-.9.5-.9.3V75.7ZM27.6,83.8c0,.6-.4.8-.9.4a4.85,4.85,0,0,1-.9-1,4.36,4.36,0,0,1-.5-1.3,15,15,0,0,1-.2-2c0-.5.1-1.4.1-2a8.17,8.17,0,0,1,.4-1.1,4.45,4.45,0,0,1,1-1.3c.5-.4.9-.2.9.4ZM24.4,71.1l.4.1c.5,0,1.2.1,1.5.1s.1.2-.5.5a9.41,9.41,0,0,0-.8.5,8.52,8.52,0,0,0-1.7,1.6,11.36,11.36,0,0,0-1.6,4,15,15,0,0,0-.2,2,15,15,0,0,0,.2,2,9.24,9.24,0,0,0,1.2,3.3,11.07,11.07,0,0,0,3.9,3,2.93,2.93,0,0,1,1.3,1.6,50.86,50.86,0,0,0,1.4,5,29,29,0,0,0,2.2,4.3,1.13,1.13,0,0,1-.4,1.5,11.79,11.79,0,0,1-5.5,2A10.29,10.29,0,0,1,15.5,92.3c0-2.9,2.6-6.6,2.6-6.6a4.27,4.27,0,0,0,.6-4,12.14,12.14,0,0,1-.7-3.5,10.49,10.49,0,0,1,1.1-4.7,10.71,10.71,0,0,1,1.5-2.2,6.05,6.05,0,0,1,.9-.9,1.24,1.24,0,0,1,1.7.1A5.22,5.22,0,0,0,24.4,71.1Z"/><path d="M59.5,92.3H38.9c-.6,0-.9.4-.5.9l.5.6c.3.5.8,1.2,1,1.6l.2.3a14.08,14.08,0,0,0,3.5,3.4,10,10,0,0,0,5.5,1.6,10.82,10.82,0,0,0,4.7-1.1,18.54,18.54,0,0,0,4.4-3.9,20.28,20.28,0,0,0,1.3-1.8l.5-.7C60.3,92.7,60.1,92.3,59.5,92.3ZM53,96.1a6.9,6.9,0,0,1-1.5.7,5.87,5.87,0,0,1-2.3.4,7.51,7.51,0,0,1-2.6-.5,3.4,3.4,0,0,1-1-.6c-.5-.4-.4-.7.2-.7h7v.1C53.4,95.5,53.5,95.8,53,96.1Z"/><path d="M44.9,79a5,5,0,1,0-5,5A5.08,5.08,0,0,0,44.9,79Zm-6.6,0a1.6,1.6,0,1,1,1.6,1.6A1.58,1.58,0,0,1,38.3,79Z"/><path d="M59,74a5,5,0,1,0,5,5A5,5,0,0,0,59,74Zm0,6.6A1.6,1.6,0,1,1,60.6,79,1.58,1.58,0,0,1,59,80.6Z"/><path d="M41.8,59.5c.1.1.2.1.4.1h1.2c.2,0,.3-.1.4-.1s.2,0,.2-.1.1-.1.1-.2V49.1l3.5,10.1c0,.1,0,.1.1.2a.35.35,0,0,0,.2.1c.1.1.2.1.4.1h1.2c.2,0,.3-.1.4-.1s.1,0,.2-.1a.35.35,0,0,0,.1-.2l3.6-10.1V59.2c0,.1.1.1.1.2a.35.35,0,0,0,.2.1c.1.1.2.1.4.1h1.2c.2,0,.3-.1.4-.1s.2,0,.2-.1.1-.1.1-.2h-.3V47.9c0-.1-.1-.3-.1-.4s-.1-.2-.2-.3-.2-.2-.3-.2-.2-.1-.4-.1H53.4c-.2,0-.4.1-.6.1a.76.76,0,0,0-.5.2c-.1.2-.2.3-.3.5a4.88,4.88,0,0,0-.3.7l-2.8,7.4-2.7-7.4a4.88,4.88,0,0,0-.3-.7c-.1-.1-.2-.3-.4-.4a.76.76,0,0,0-.5-.2,2.2,2.2,0,0,0-.8-.1H42.5a.91.91,0,0,0-.7.3,1.14,1.14,0,0,0-.3.8V59.2c0,.1.1.1.1.2A.35.35,0,0,0,41.8,59.5Z"/><path class="cls-7" d="M92.1,78.8a3.34,3.34,0,0,0,1,.7.7.7,0,0,0,1-.7V70.6a.68.68,0,0,0-1-.7,3.34,3.34,0,0,0-1,.7,3,3,0,0,0-.9,1.4,8.33,8.33,0,0,0-.3,2.2v1.1a8.33,8.33,0,0,0,.3,2.2A2.52,2.52,0,0,0,92.1,78.8Z"/><path class="cls-7" d="M134.9,87.9a16.2,16.2,0,0,0,.1-2.2V69.4a1.38,1.38,0,0,0-1.1-1.3,7.16,7.16,0,0,1-3-1.5c-2.1-1.8-3.2-4.8-3.2-8.9a10,10,0,0,0-1.1-4.3,1.24,1.24,0,0,0-1.5-.5s-5.2,2.3-9,2.3-9-2.3-9-2.3a1.17,1.17,0,0,0-1.5.5,10,10,0,0,0-1.1,4.3c0,4.1-1.1,7.1-3.2,8.9a7.09,7.09,0,0,1-2.9,1.5,1.38,1.38,0,0,0-1.1,1.3v2.4a6.27,6.27,0,0,0,.1,1.1c.1,0,.1.5.1,1.1V85.7c0,.6.1,1.6.1,2.2a27.41,27.41,0,0,0,.6,3.7A17.25,17.25,0,0,0,109.7,103a27,27,0,0,0,3.6.6,16.2,16.2,0,0,0,2.2.1h1.6a16.35,16.35,0,0,0,2.2-.2s4.9-.7,7.3-2.2a17.16,17.16,0,0,0,7.2-8.3A21.86,21.86,0,0,0,134.9,87.9ZM114.8,70.4l.3-.2a2.92,2.92,0,0,1,.9-.2,1.34,1.34,0,0,1,.9.2l.3.2c.2.3.6,1,.9,1.5l4.8,8.9a12.16,12.16,0,0,1,.8,1.7l-.1.4a1.42,1.42,0,0,1-.2.6,1.78,1.78,0,0,1-.8.7l-.2.1h-11a9.72,9.72,0,0,1-1.8-.1l-.3-.2a1.76,1.76,0,0,1-.4-.5,4.38,4.38,0,0,0-.5-.9v-.3a9.33,9.33,0,0,1,.7-1.5l4.8-8.9A14.62,14.62,0,0,1,114.8,70.4Zm-14.3,1.8a5.3,5.3,0,0,1,10.6,0,5.4,5.4,0,0,1-5.3,5.3A5.34,5.34,0,0,1,100.5,72.2Zm27.4,16.4s-.9,4.3-2.7,6.3a11.79,11.79,0,0,1-18.8-1,15.9,15.9,0,0,1-1.9-5.3,13.66,13.66,0,0,1-.2-1.9.89.89,0,0,1,1.1-.8H127c.6,0,1.1.4,1.1.8A15.41,15.41,0,0,1,127.9,88.6Zm-1.2-11.1a5.3,5.3,0,1,1,5.3-5.3A5.34,5.34,0,0,1,126.7,77.5Z"/><path class="cls-7" d="M138.5,78.8c0,.6.4.9,1,.6a4.57,4.57,0,0,0,1.8-1.4l.3-.5a16.35,16.35,0,0,0,.2-2.2V74.2a16.6,16.6,0,0,0-.3-2.2,3.35,3.35,0,0,0-.8-1.3,3.43,3.43,0,0,0-1.2-.8.7.7,0,0,0-1,.7Z"/><path class="cls-8" d="M97.3,63.2h0v.5a.8.8,0,0,0,1.1.8,5.5,5.5,0,0,0,.8-.6c1.3-1.2,2-3.4,2-6.4,0-3.8,1.3-6.8,3.8-8.7a1.8,1.8,0,0,1,2.1.1,14.94,14.94,0,0,0,9.1,2.8c3.6,0,7-1,9.1-2.8a1.66,1.66,0,0,1,2.1-.1c2.5,2,3.8,4.9,3.8,8.8,0,3,.7,5.3,2,6.4a9.08,9.08,0,0,0,.9.6.8.8,0,0,0,1.1-.8V63a16.35,16.35,0,0,1,.2-2.2,15.86,15.86,0,0,1,1.2-4,15.49,15.49,0,0,1,3.2-4.4,7.46,7.46,0,0,0,1.4-1.7,2.71,2.71,0,0,0,.3-1.3,3.7,3.7,0,0,0-3.5-3.9,3.92,3.92,0,0,0-1.8.4,1.84,1.84,0,0,1-2-.4,1.67,1.67,0,0,1-.2-2,3.37,3.37,0,0,0,.5-1.7,3.7,3.7,0,0,0-3.5-3.9,3.75,3.75,0,0,0-3.1,1.5,1.63,1.63,0,0,1-1.7.6,1.74,1.74,0,0,1-1.2-1.4,3.73,3.73,0,0,0-3.5-3.2,3.66,3.66,0,0,0-3.6,2.4,1.5,1.5,0,0,1-1.5,1.1,1.75,1.75,0,0,1-1.5-1,3.73,3.73,0,0,0-3.2-2.3,3.63,3.63,0,0,0-3.8,3.2,1.71,1.71,0,0,1-1.3,1.4,1.62,1.62,0,0,1-1.8-.7,3.64,3.64,0,0,0-3.2-1.6A3.73,3.73,0,0,0,99,39.1a3.94,3.94,0,0,0-1,2.7,3.37,3.37,0,0,0,.5,1.7,1.66,1.66,0,0,1-.2,2,1.68,1.68,0,0,1-2,.4,3.92,3.92,0,0,0-1.8-.4,3.73,3.73,0,0,0-2.6,1.2,3.94,3.94,0,0,0-1,2.7,3.73,3.73,0,0,0,.4,1.4,5.79,5.79,0,0,0,1.4,1.7,16.27,16.27,0,0,1,3.2,4.3,11.26,11.26,0,0,1,.8,2.2,9.19,9.19,0,0,1,.6,3.3v.9Z"/><path class="cls-5" d="M105.8,74.1a1.9,1.9,0,1,0-1.9-1.9A1.9,1.9,0,0,0,105.8,74.1Z"/><path class="cls-5" d="M126.7,70.3a1.9,1.9,0,0,0,0,3.8,1.84,1.84,0,0,0,1.9-1.9A1.9,1.9,0,0,0,126.7,70.3Z"/><path class="cls-2" d="M124,89.2h0l-1.4.1H108.3c-.2,0-.3.2-.2.4l.1.2.1.2a.45.45,0,0,0,.4.3h14.9c.1,0,.3-.2.4-.4l.1-.2.1-.2C124.3,89.4,124.2,89.2,124,89.2Z"/><path class="cls-2" d="M119.2,95a14.47,14.47,0,0,0,1.4-.8c.5-.4.4-.7-.2-.7h-8.8c-.6,0-.7.3-.2.7a8.32,8.32,0,0,0,2,1.1,8.57,8.57,0,0,0,2.7.5A5.94,5.94,0,0,0,119.2,95Z"/><path class="cls-9" d="M114.2,81.1h3.9a.63.63,0,0,0,.6-1l-2-3.8c-.2-.5-.7-.5-1,0l-2.1,3.8C113.3,80.7,113.6,81.1,114.2,81.1Z"/><path d="M111.1,72.2a5.3,5.3,0,1,0-5.3,5.3A5.4,5.4,0,0,0,111.1,72.2Zm-5.3-1.9a1.9,1.9,0,1,1-1.9,1.9A1.9,1.9,0,0,1,105.8,70.3Z"/><path d="M126.7,66.9a5.3,5.3,0,1,0,5.3,5.3A5.34,5.34,0,0,0,126.7,66.9Zm0,7.2a1.9,1.9,0,1,1,1.9-1.9A1.84,1.84,0,0,1,126.7,74.1Z"/><path d="M90,81.1a9.36,9.36,0,0,0,2.8,1.4,1.6,1.6,0,0,1,1.1,1.4c0,.6,0,1,.1,1s.1.3.1.7a12.13,12.13,0,0,0,.1,1.8,30.53,30.53,0,0,0,1.3,6.3,20.77,20.77,0,0,0,8.1,9.7c3.1,1.9,9.6,2.9,9.6,2.9a16.35,16.35,0,0,0,2.2.2H117c.6,0,1.6-.1,2.2-.1a29.92,29.92,0,0,0,7.3-1.7A20.38,20.38,0,0,0,137,93.6a30.09,30.09,0,0,0,1.3-6.2,13.43,13.43,0,0,0,.1-1.9V83.8a1.6,1.6,0,0,1,1.1-1.3,9.64,9.64,0,0,0,3.1-1.6,9.18,9.18,0,0,0,2.2-3.9,8.33,8.33,0,0,0,.3-2.2v-.6a8.33,8.33,0,0,0-.3-2.2s-.7-2.8-2.2-4c-.2-.1-.3-.3-.5-.4a7.94,7.94,0,0,0-2.5-1.2,1.5,1.5,0,0,1-1.1-1.4V63a16.35,16.35,0,0,1,.2-2.2,8.8,8.8,0,0,1,.8-2.6,12.71,12.71,0,0,1,2.1-3l.8-.8s.3-.4.7-.9a9.24,9.24,0,0,0,1.6-4,7,7,0,0,0-6.7-7.3h-.1a.22.22,0,0,1-.2-.2v-.1a6.92,6.92,0,0,0-9.5-6.8,1.57,1.57,0,0,1-1.7-.5,6.83,6.83,0,0,0-1.5-1.4,7,7,0,0,0-3.5-1.2,9.1,9.1,0,0,0-4.5,1.5,1.91,1.91,0,0,1-1.8,0,8.69,8.69,0,0,0-3.6-1.4,6.71,6.71,0,0,0-3.7.8,8,8,0,0,0-2,1.7,1.42,1.42,0,0,1-1.7.4,7.73,7.73,0,0,0-3.1-.6,7.09,7.09,0,0,0-4.9,2.3,6.75,6.75,0,0,0-1.8,5v.1a.22.22,0,0,1-.2.2h-.1a7.09,7.09,0,0,0-4.9,2.3,6.75,6.75,0,0,0-1.8,5,7.34,7.34,0,0,0,1.9,4.5c.1.1.1.1.2.1a15.81,15.81,0,0,1,3,3.5,9.5,9.5,0,0,1,1.1,3.2,16.35,16.35,0,0,1,.2,2.2v1.8A1.5,1.5,0,0,1,92.7,66a10,10,0,0,0-3.5,1.9,8.52,8.52,0,0,0-1.7,3.6,16.35,16.35,0,0,0-.2,2.2v1.1a8.33,8.33,0,0,0,.3,2.2A9.59,9.59,0,0,0,90,81.1Zm.9-6.9a8.33,8.33,0,0,1,.3-2.2,3,3,0,0,1,.9-1.4,3.34,3.34,0,0,1,1-.7.68.68,0,0,1,1,.7v8.2a.7.7,0,0,1-1,.7,3.34,3.34,0,0,1-1-.7,2.52,2.52,0,0,1-.9-1.3,8.33,8.33,0,0,1-.3-2.2ZM96.7,59a14.27,14.27,0,0,0-.8-2.2,16.27,16.27,0,0,0-3.2-4.3,5.79,5.79,0,0,1-1.4-1.7,3.73,3.73,0,0,1-.4-1.4,3.94,3.94,0,0,1,1-2.7,3.73,3.73,0,0,1,2.6-1.2,3.92,3.92,0,0,1,1.8.4,1.68,1.68,0,0,0,2-.4,1.66,1.66,0,0,0,.2-2,3.37,3.37,0,0,1-.5-1.7,3.94,3.94,0,0,1,1-2.7,3.73,3.73,0,0,1,2.6-1.2,3.64,3.64,0,0,1,3.2,1.6,1.62,1.62,0,0,0,1.8.7,1.71,1.71,0,0,0,1.3-1.4,3.63,3.63,0,0,1,3.8-3.2,3.73,3.73,0,0,1,3.2,2.3,1.75,1.75,0,0,0,1.5,1,1.5,1.5,0,0,0,1.5-1.1,3.66,3.66,0,0,1,3.6-2.4,3.73,3.73,0,0,1,3.5,3.2,1.74,1.74,0,0,0,1.2,1.4,1.63,1.63,0,0,0,1.7-.6,3.75,3.75,0,0,1,3.1-1.5,3.7,3.7,0,0,1,3.5,3.9,3.37,3.37,0,0,1-.5,1.7,1.67,1.67,0,0,0,.2,2,1.84,1.84,0,0,0,2,.4,3.92,3.92,0,0,1,1.8-.4,3.7,3.7,0,0,1,3.5,3.9,2.71,2.71,0,0,1-.3,1.3,7.46,7.46,0,0,1-1.4,1.7,15.49,15.49,0,0,0-3.2,4.4,15.86,15.86,0,0,0-1.2,4,16.35,16.35,0,0,0-.2,2.2v.8a.8.8,0,0,1-1.1.8,9.08,9.08,0,0,1-.9-.6c-1.3-1.1-2-3.4-2-6.4,0-3.9-1.3-6.8-3.8-8.8a1.66,1.66,0,0,0-2.1.1c-2.1,1.8-5.5,2.8-9.1,2.8a14.94,14.94,0,0,1-9.1-2.8,1.8,1.8,0,0,0-2.1-.1c-2.5,1.9-3.8,4.9-3.8,8.7,0,3-.7,5.2-2,6.4a5.5,5.5,0,0,1-.8.6.8.8,0,0,1-1.1-.8v-.5h0a16.35,16.35,0,0,0-.2-2.2S96.9,60.1,96.7,59Zm42.8,10.9a3.43,3.43,0,0,1,1.2.8,3.35,3.35,0,0,1,.8,1.3,16.6,16.6,0,0,1,.3,2.2v1.1a16.35,16.35,0,0,1-.2,2.2l-.3.5a4.57,4.57,0,0,1-1.8,1.4c-.6.3-1,0-1-.6V70.6A.7.7,0,0,1,139.5,69.9Zm-12.9,31.4c-2.4,1.5-7.3,2.2-7.3,2.2a16.35,16.35,0,0,1-2.2.2h-1.6a16.2,16.2,0,0,1-2.2-.1,27,27,0,0,1-3.6-.6A17.25,17.25,0,0,1,98.2,91.6a27.41,27.41,0,0,1-.6-3.7c0-.6-.1-1.6-.1-2.2V74c0-.6,0-1.1-.1-1.1a6.27,6.27,0,0,1-.1-1.1V69.4a1.38,1.38,0,0,1,1.1-1.3,7.09,7.09,0,0,0,2.9-1.5c2.1-1.8,3.2-4.8,3.2-8.9a10,10,0,0,1,1.1-4.3,1.17,1.17,0,0,1,1.5-.5s5.2,2.3,9,2.3,9-2.3,9-2.3a1.24,1.24,0,0,1,1.5.5,10,10,0,0,1,1.1,4.3c0,4.1,1.1,7.1,3.2,8.9a7.16,7.16,0,0,0,3,1.5,1.38,1.38,0,0,1,1.1,1.3V85.7a16.2,16.2,0,0,1-.1,2.2,21.86,21.86,0,0,1-1.1,5.1A17.16,17.16,0,0,1,126.6,101.3Z"/><path d="M127,85.9H105.4a.89.89,0,0,0-1.1.8,13.66,13.66,0,0,0,.2,1.9,15.9,15.9,0,0,0,1.9,5.3,11.79,11.79,0,0,0,18.8,1c1.8-2,2.7-6.3,2.7-6.3a15.41,15.41,0,0,0,.2-1.9C128.1,86.3,127.6,85.9,127,85.9Zm-2.8,3.7-.1.2-.1.2c-.1.2-.3.4-.4.4H108.7a.45.45,0,0,1-.4-.3l-.1-.2-.1-.2c-.1-.2,0-.4.2-.4H124v-.1C124.2,89.2,124.3,89.4,124.2,89.6Zm-12.8,4.6c-.5-.4-.4-.7.2-.7h8.8c.6,0,.7.3.2.7a14.47,14.47,0,0,1-1.4.8,5.94,5.94,0,0,1-3.1.8,8.57,8.57,0,0,1-2.7-.5A8.32,8.32,0,0,1,111.4,94.2Z"/><path d="M108.4,82.3v.3a4.38,4.38,0,0,1,.5.9,1.76,1.76,0,0,0,.4.5l.3.2a9.72,9.72,0,0,0,1.8.1h11l.2-.1a1.78,1.78,0,0,0,.8-.7,1.42,1.42,0,0,0,.2-.6l.1-.4a12.16,12.16,0,0,0-.8-1.7l-4.8-8.9c-.3-.5-.7-1.2-.9-1.5l-.3-.2a1.34,1.34,0,0,0-.9-.2,2.92,2.92,0,0,0-.9.2l-.3.2a14.62,14.62,0,0,0-.9,1.5l-4.8,8.9A9.33,9.33,0,0,0,108.4,82.3Zm5.2-2.2,2.1-3.8c.3-.5.8-.5,1,0l2,3.8a.63.63,0,0,1-.6,1h-3.9C113.6,81.1,113.3,80.7,113.6,80.1Z"/><path class="cls-10" d="M24.4,153.9c3,0,4.7-1.5,4.7-6v-.8c0-.4-.1-.6-.6-.6H26.1c-.4,0-.6.1-.6.6v.9c0,1.5,0,2.5-1.1,2.5s-1.1-1-1.1-2.5v-9.6c0-1.5,0-2.5,1.1-2.5s1.1,1,1.1,2.5v.9c0,.4.1.6.6.6h2.4c.4,0,.6-.1.6-.6v-.8c0-4.5-1.7-6-4.7-6s-4.7,1.5-4.7,6v9.4C19.7,152.4,21.4,153.9,24.4,153.9Z"/><path class="cls-10" d="M35.5,153.8c3.1,0,4.7-1.6,4.7-6v-3c0-4.5-1.7-6-4.7-6s-4.7,1.5-4.7,6v3C30.8,152.3,32.5,153.8,35.5,153.8Zm-1.1-9.1c0-1.5,0-2.8,1.1-2.8s1.1,1.3,1.1,2.8v3c0,1.5,0,2.8-1.1,2.8s-1.1-1.3-1.1-2.8Z"/><path class="cls-10" d="M42.5,153.8h2.4c.4,0,.6-.1.6-.6v-8.4c0-1.5,0-2.8,1.1-2.8s1.1,1.3,1.1,2.8v8.4a.53.53,0,0,0,.6.6h2.3c.4,0,.6-.1.6-.6V143c0-4.3-2.6-4.3-3.1-4.3a3.19,3.19,0,0,0-3,2v-1.4c0-.4-.1-.6-.6-.6h-2c-.4,0-.6.1-.6.6v13.9C41.9,153.6,42,153.8,42.5,153.8Z"/><path class="cls-10" d="M58,153.8c3,0,4.5-1.9,4.5-5.3,0-.4-.1-.6-.6-.6H59.6c-.4,0-.6.1-.6.6,0,.7,0,2-1.1,2s-1.1-1.2-1.1-2.7v-3.1c0-1.5,0-2.8,1.1-2.8s1.1,1.2,1.1,2c0,.4.1.6.6.6h2.3c.4,0,.6-.1.6-.6,0-3.4-1.5-5.3-4.5-5.3-2.7,0-4.7,1.6-4.7,5.8V148C53.3,152.3,55.3,153.8,58,153.8Z"/><path class="cls-10" d="M68.8,153.8c3,0,4.7-1.6,4.7-6v-3c0-4.5-1.7-6-4.7-6s-4.7,1.5-4.7,6v3C64.1,152.3,65.8,153.8,68.8,153.8Zm-1.1-9.1c0-1.5,0-2.8,1.1-2.8s1.1,1.3,1.1,2.8v3c0,1.5,0,2.8-1.1,2.8s-1.1-1.3-1.1-2.8Z"/><path class="cls-10" d="M75.9,153.7h2.4c.3,0,.6,0,.6-.6v-7.7c0-1.5,0-3.1,1.5-3.1.3,0,.5.1,1,.1s.6-.1.6-.6v-2.6c0-.4-.1-.6-.6-.6h-.3a3,3,0,0,0-2.2.9v-.3c0-.4-.1-.6-.6-.6H75.9c-.4,0-.6.1-.6.6v13.9C75.3,153.7,75.6,153.7,75.9,153.7Z"/><path class="cls-10" d="M88.3,153.8h3.6c.5,0,.6-.2.6-.6V133.4c0-.6-.3-.6-.6-.6H89.5c-.3,0-.6,0-.6.6v5.4h-.6c-3,0-5.1,1.5-5.1,6v3C83.2,152.3,85.3,153.8,88.3,153.8Zm-1.5-8.7c0-1.6,0-3.1,1.5-3.1.6,0,.6,0,.6.6v7.3c0,.6,0,.6-.6.6-1.5,0-1.5-1.6-1.5-3.1Z"/><path class="cls-10" d="M97.8,153.8a2.77,2.77,0,0,0,2.5-1v.4c0,.6.3.6.6.6h2c.3,0,.6,0,.6-.6v-8.7c0-4.5-2-5.8-4.7-5.8-3,0-4.3,2.2-4.3,4.8,0,.4.1.6.6.6h2c.4,0,.6-.1.6-.6,0-.2,0-1.5,1.1-1.5s1,1.2,1.1,1.2c0,2.2-5.7,1.4-5.7,5.4v1.3C94.2,152.6,95.5,153.8,97.8,153.8Zm2.1-6.9v1.8c0,.7,0,1.8-1,1.7s-1.1-1-1.1-1.4C97.8,148,98.3,147.6,99.9,146.9Z"/><path class="cls-10" d="M105.9,153.7h2.4c.3,0,.6,0,.6-.6v-7.7c0-1.5,0-3.1,1.5-3.1.3,0,.5.1,1,.1s.6-.1.6-.6v-2.6c0-.4-.1-.6-.6-.6h-.3a3,3,0,0,0-2.2.9v-.3c0-.4-.1-.6-.6-.6h-2.4c-.4,0-.6.1-.6.6v13.9C105.3,153.7,105.6,153.7,105.9,153.7Z"/><path d="M54.2,197.2c-.6,0-.6.7-.6,1.4v1.7c0,.7,0,1.4.6,1.4s.6-.7.6-1.4v-1.7C54.8,197.9,54.8,197.2,54.2,197.2Z"/><path d="M79.9,189.7c.6,0,.6-.7.6-1.4v-1.7c0-.7,0-1.4-.6-1.4s-.6.7-.6,1.4v1.7C79.3,189,79.3,189.7,79.9,189.7Z"/><path d="M69,201.7c.6,0,.6-.7.6-1.4v-1.7c0-.7,0-1.4-.6-1.4s-.6.7-.6,1.4v1.7C68.4,201,68.4,201.7,69,201.7Z"/><path d="M81.6,200.6v.2c0,.2,0,.9.7.9s.7-.5.7-1.1v-1.2C82.2,199.7,81.6,199.9,81.6,200.6Z"/><path d="M75.6,186.1v-4.8H73.8l1.8,4.8C75.5,186.2,75.6,186.2,75.6,186.1Z"/><path d="M103.2,201.7c.6,0,.6-.7.6-1.4v-1.7c0-.7,0-1.4-.6-1.4s-.6.7-.6,1.4v1.7C102.6,201,102.6,201.7,103.2,201.7Z"/><path d="M83.6,209.3c-.6,0-.6.7-.6,1.4v1.7c0,.7,0,1.4.6,1.4s.6-.7.6-1.4v-1.7C84.2,210,84.2,209.3,83.6,209.3Z"/><path d="M77.3,201.7h.4c.3,0,.3,0,.3-.3v-4.1c0-.1-.1-.1-.3-.1h-.4c-.7,0-.7.7-.7,1.4v1.7C76.6,201,76.6,201.7,77.3,201.7Z"/><path d="M90.3,198.4H91c.3,0,.3,0,.3-.3,0-.5-.1-1-.6-1s-.7.5-.7,1C90,198.4,90,198.4,90.3,198.4Z"/><path d="M136.6,177.2H65.4a4,4,0,0,1-3-1.7l-2-3.4-6.2-10.3c-.6-1-1.5-1-2,0l-5.5,10.3L45,175.4a3.87,3.87,0,0,1-3,1.8H24.1a2,2,0,0,0-2,2v38.2a2,2,0,0,0,2,2H136.6a2,2,0,0,0,2-2h0V179.2A2,2,0,0,0,136.6,177.2ZM47.3,198.6c0-2,.8-2.7,2-2.7,1.4,0,2,.9,2,2.5a.27.27,0,0,1-.3.3h-.8a.27.27,0,0,1-.3-.3c0-.5,0-1.2-.6-1.2s-.6.7-.6,1.4v1.7c0,.7,0,1.4.6,1.4s.6-.8.6-1.2a.27.27,0,0,1,.3-.3H51a.27.27,0,0,1,.3.3c0,1.6-.6,2.5-2,2.5s-2-.7-2-2.7ZM74.2,196h0c.3,0,.4.1.4.3v.8a.27.27,0,0,1-.3.3c-.1-.2-.2-.2-.4-.2-.7,0-.7.7-.7,1.4v4c0,.3-.1.3-.3.3h-.8c-.1,0-.3,0-.3-.3v-6.4a.27.27,0,0,1,.3-.3h.8a.27.27,0,0,1,.3.3v.2A1.43,1.43,0,0,1,74.2,196Zm2,11.9c.2,0,1.4,0,1.4,2v4.7a.27.27,0,0,1-.3.3h-.8c-.3.1-.4,0-.4-.2v-4.1c0-.6,0-1.4-.6-1.4s-.6.9-.6,1.4v4.1a.27.27,0,0,1-.3.3h-.8a.27.27,0,0,1-.3-.3v-6.5a.27.27,0,0,1,.3-.3h.7a.27.27,0,0,1,.3.3v.6A1.5,1.5,0,0,1,76.2,207.9Zm3.7-24.1c1.3,0,2,.7,2,2.7v1.7c0,2-.8,2.7-2,2.7s-2-.7-2-2.7v-1.7C77.9,184.5,78.7,183.8,79.9,183.8Zm-.4-.5v-1.2a.27.27,0,0,1,.3-.3h1c.1,0,.2.1.1.3a7.81,7.81,0,0,0-.5,1.2c-.1.3-.2.3-.4.3h-.3C79.5,183.6,79.5,183.5,79.5,183.3Zm7.2,5.8a2.06,2.06,0,0,1-4.1-.1.27.27,0,0,1,.3-.3h.8a.27.27,0,0,1,.3.3.65.65,0,1,0,1.3-.1c-.1-1.1-2.8-1.3-2.7-3.3a1.93,1.93,0,0,1,2.1-1.8,1.84,1.84,0,0,1,1.9,1.9.27.27,0,0,1-.3.3h-.8a.27.27,0,0,1-.3-.3.65.65,0,1,0-1.3.1C84.1,186.9,86.8,187.1,86.7,189.1ZM89.9,200v.4c0,.7,0,1.4.6,1.4s.6-.8.6-1.2c0-.2.1-.4.3-.4h.8c.2,0,.3.1.3.4,0,1.6-.6,2.5-2,2.5s-2-.7-2-2.7v-1.8c0-2,.8-2.7,2-2.7s2,.7,2,2.7v.9a.27.27,0,0,1-.3.3h-2v-.1C89.9,199.7,89.9,199.7,89.9,200Zm.5,9.8a.27.27,0,0,1-.3.3h-.8a.27.27,0,0,1-.3-.3.65.65,0,1,0-1.3.1c.2,1.1,2.9,1.3,2.8,3.3a2.06,2.06,0,0,1-4.1-.1.27.27,0,0,1,.3-.3h.8a.27.27,0,0,1,.3.3.65.65,0,1,0,1.3-.1c-.1-1.1-2.8-1.3-2.7-3.3a1.93,1.93,0,0,1,2.1-1.8A1.84,1.84,0,0,1,90.4,209.8ZM88,197.1a.27.27,0,0,1-.3.3c-.2-.2-.3-.2-.4-.2-.7,0-.7.7-.7,1.4v4c0,.3-.1.3-.3.3h-.8c-.1,0-.3,0-.3-.3v-6.4a.27.27,0,0,1,.3-.3h.8a.27.27,0,0,1,.3.3v.2a1.43,1.43,0,0,1,1-.4h.1a.27.27,0,0,1,.3.3Zm-2.3,13.5v1.7c0,2-.8,2.7-2,2.7s-2-.7-2-2.7v-1.7c0-2,.8-2.7,2-2.7S85.7,208.6,85.7,210.6Zm-1.4-11.9v4.1c0,.3-.1.3-.3.3h-.7c-.1,0-.3,0-.3-.3v-.2a1.47,1.47,0,0,1-1.2.4,1.63,1.63,0,0,1-1.8-1.8v-.6c0-2.2,2.8-1.5,2.8-2.7a.43.43,0,0,0-.4-.7c-.6,0-.7.6-.7,1a.27.27,0,0,1-.3.3h-.8a.27.27,0,0,1-.3-.3,1.94,1.94,0,0,1,2-2.2C83.6,196,84.3,196.7,84.3,198.7Zm-5.9,10.8c-.3,0-.3-.1-.3-.3v-.8c.1-.3.1-.4.3-.4h.1v-1.2a.27.27,0,0,1,.3-.3h.8a.27.27,0,0,1,.3.3V208h.4a.27.27,0,0,1,.3.3v.8a.27.27,0,0,1-.3.3h-.4v2.9c0,.9,0,1.4.8,1.5a.27.27,0,0,1,.3.3v.8a.27.27,0,0,1-.3.3c-1.6,0-2.2-.7-2.2-2.8l-.1-2.9ZM78,196v-2.5c0-.3.1-.3.3-.3h.8c.1,0,.3,0,.3.3v9.3c0,.1-.1.2-.3.2H77.3c-1.4,0-2.1-.7-2.1-2.8v-1.4c0-2.1.7-2.8,2.1-2.8Zm-8.1,19.1c-.2,0-1.4,0-1.4-2v-4.7a.27.27,0,0,1,.3-.3h.9V208a.27.27,0,0,1,.3.3v4.1c0,.6,0,1.4.6,1.4s.6-.9.6-1.4v-4.1a.27.27,0,0,1,.3-.3h.8a.27.27,0,0,1,.3.3v6.5a.27.27,0,0,1-.3.3h-.7a.27.27,0,0,1-.3-.3v-.6A1.5,1.5,0,0,1,69.9,215.1ZM67,200.3v-1.7c0-2,.8-2.7,2-2.7s2,.7,2,2.7v1.7c0,2-.8,2.7-2,2.7S67,202.3,67,200.3Zm-1-1.9a.27.27,0,0,1-.3.3h-.8a.27.27,0,0,1-.3-.3c0-.5,0-1.2-.6-1.2s-.6.7-.6,1.4v1.7c0,.7,0,1.4.6,1.4s.6-.8.6-1.2a.27.27,0,0,1,.3-.3h.8a.27.27,0,0,1,.3.3c0,1.6-.6,2.5-2,2.5s-2-.7-2-2.7v-1.7c0-2,.8-2.7,2-2.7C65.4,195.9,66,196.8,66,198.4Zm-4.7-.5v4.7a.27.27,0,0,1-.3.3h-.8c-.4.1-.4,0-.4-.2v-4.1c0-.6,0-1.4-.6-1.4s-.6.9-.6,1.4v4.1a.27.27,0,0,1-.3.3h-.8a.27.27,0,0,1-.3-.3v-6.5a.27.27,0,0,1,.3-.3h.7a.27.27,0,0,1,.3.3v.6a1.5,1.5,0,0,1,1.4-.9C60.1,195.9,61.3,195.9,61.3,197.9Zm-5.1.7v1.7c0,2-.8,2.7-2,2.7s-2-.7-2-2.7v-1.7c0-2,.8-2.7,2-2.7S56.2,196.6,56.2,198.6ZM67,206.1a.8.8,0,0,1,0,1.6.8.8,0,0,1,0-1.6Zm29.2-10.2a1.34,1.34,0,0,1,1.3.9,1.5,1.5,0,0,1,1.4-.9c.2,0,1.4,0,1.4,2v4.7a.27.27,0,0,1-.3.3h-.8c-.3.1-.4,0-.4-.2v-4.1c0-.6,0-1.4-.6-1.4s-.6.9-.6,1.4v4.1a.27.27,0,0,1-.3.3h-.9a.27.27,0,0,1-.3-.3v-4.1c0-.6,0-1.4-.6-1.4s-.6.9-.6,1.4v4.1a.27.27,0,0,1-.3.3h-.8a.27.27,0,0,1-.3-.3v-6.5a.27.27,0,0,1,.3-.3h.7a.27.27,0,0,1,.3.3v.6A1.5,1.5,0,0,1,96.2,195.9Zm5,4.4v-1.7c0-2,.8-2.7,2-2.7s2,.7,2,2.7v1.7c0,2-.8,2.7-2,2.7S101.2,202.3,101.2,200.3Zm6.7,2.7a1.92,1.92,0,0,1-2-1.9.27.27,0,0,1,.3-.3h.8a.27.27,0,0,1,.3.3.65.65,0,1,0,1.3-.1c-.1-1.1-2.8-1.3-2.7-3.3a1.93,1.93,0,0,1,2.1-1.8,1.84,1.84,0,0,1,1.9,1.9.27.27,0,0,1-.3.3h-.8a.27.27,0,0,1-.3-.3.65.65,0,1,0-1.3.1c.2,1.1,2.9,1.2,2.8,3.3A1.93,1.93,0,0,1,107.9,203ZM72.7,181h.8c.2,0,.2,0,.3.2v.1h1.8a.27.27,0,0,1,.3-.3h.8a.27.27,0,0,1,.3.3v9.3a.27.27,0,0,1-.3.3h-.8c-.1,0-.2,0-.3-.2l-1.7-4.8c0-.1-.1-.1-.1,0v4.7a.27.27,0,0,1-.3.3h-.8a.27.27,0,0,1-.3-.3v-9.3A.27.27,0,0,1,72.7,181Zm-5,35.2c0,2.1-.7,2.8-2.3,2.8a.27.27,0,0,1-.3-.3v-.8a.27.27,0,0,1,.3-.3c.9.1.9-.4.9-1.3v-8.1a.27.27,0,0,1,.3-.3h.8a.27.27,0,0,1,.3.3v8Z"/><path class="cls-2" d="M72.7,190.9h.8a.27.27,0,0,0,.3-.3v-4.7c0-.1.1-.1.1,0l1.7,4.8c.1.2.2.2.3.2h.8a.27.27,0,0,0,.3-.3v-9.3a.27.27,0,0,0-.3-.3h-.8a.27.27,0,0,0-.3.3v4.8c0,.1-.1.1-.1,0l-1.7-4.8v-.1c-.1-.2-.1-.2-.3-.2h-.8a.27.27,0,0,0-.3.3v9.3A.27.27,0,0,0,72.7,190.9Z"/><path class="cls-2" d="M79.9,190.9c1.2,0,2-.7,2-2.7v-1.7c0-2-.7-2.7-2-2.7s-2,.7-2,2.7v1.7C77.9,190.2,78.6,190.9,79.9,190.9Zm-.6-4.3c0-.7,0-1.4.6-1.4s.6.7.6,1.4v1.7c0,.7,0,1.4-.6,1.4s-.6-.7-.6-1.4Z"/><path class="cls-2" d="M79.7,183.6H80c.2,0,.3,0,.4-.3a7.81,7.81,0,0,1,.5-1.2c.1-.2,0-.3-.1-.3h-1a.27.27,0,0,0-.3.3v1.2C79.5,183.5,79.5,183.6,79.7,183.6Z"/><path class="cls-2" d="M85.3,188.9a.65.65,0,1,1-1.3.1.27.27,0,0,0-.3-.3h-.8a.27.27,0,0,0-.3.3,2.06,2.06,0,0,0,4.1.1c.1-2-2.6-2.2-2.8-3.3a.65.65,0,1,1,1.3-.1.27.27,0,0,0,.3.3h.8a.27.27,0,0,0,.3-.3,1.84,1.84,0,0,0-1.9-1.9,1.93,1.93,0,0,0-2.1,1.8C82.5,187.6,85.2,187.8,85.3,188.9Z"/><path class="cls-2" d="M49.3,197.2c.6,0,.6.7.6,1.2a.27.27,0,0,0,.3.3H51a.27.27,0,0,0,.3-.3c0-1.6-.6-2.5-2-2.5-1.2,0-2,.7-2,2.7v1.7c0,2,.7,2.7,2,2.7s2-.9,2-2.5a.27.27,0,0,0-.3-.3h-.8a.27.27,0,0,0-.3.3c0,.4,0,1.2-.6,1.2s-.6-.7-.6-1.4v-1.7C48.7,197.9,48.7,197.2,49.3,197.2Z"/><path class="cls-2" d="M54.2,195.9c-1.2,0-2,.7-2,2.7v1.7c0,2,.7,2.7,2,2.7s2-.7,2-2.7v-1.7C56.2,196.6,55.5,195.9,54.2,195.9Zm.6,4.4c0,.7,0,1.4-.6,1.4s-.6-.7-.6-1.4v-1.7c0-.7,0-1.4.6-1.4s.6.7.6,1.4Z"/><path class="cls-2" d="M59.9,195.9a1.5,1.5,0,0,0-1.4.9v-.6a.27.27,0,0,0-.3-.3h-.7a.27.27,0,0,0-.3.3v6.5a.27.27,0,0,0,.3.3h.8a.27.27,0,0,0,.3-.3v-4.1c0-.5,0-1.4.6-1.4s.6.8.6,1.4v4.1c0,.2,0,.3.4.2H61a.27.27,0,0,0,.3-.3v-4.7C61.3,195.9,60.1,195.9,59.9,195.9Z"/><path class="cls-2" d="M64,197.2c.6,0,.6.7.6,1.2a.27.27,0,0,0,.3.3h.8a.27.27,0,0,0,.3-.3c0-1.6-.6-2.5-2-2.5-1.2,0-2,.7-2,2.7v1.7c0,2,.7,2.7,2,2.7s2-.9,2-2.5a.27.27,0,0,0-.3-.3h-.8a.27.27,0,0,0-.3.3c0,.4,0,1.2-.6,1.2s-.6-.7-.6-1.4v-1.7C63.4,197.9,63.4,197.2,64,197.2Z"/><path class="cls-2" d="M69,203c1.2,0,2-.7,2-2.7v-1.7c0-2-.7-2.7-2-2.7s-2,.7-2,2.7v1.7C67,202.3,67.7,203,69,203Zm-.6-4.4c0-.7,0-1.4.6-1.4s.6.7.6,1.4v1.7c0,.7,0,1.4-.6,1.4s-.6-.7-.6-1.4Z"/><path class="cls-2" d="M72.1,202.9h.8c.2,0,.3,0,.3-.3v-4c0-.7,0-1.4.7-1.4.2,0,.3,0,.4.2a.27.27,0,0,0,.3-.3v-.8a.27.27,0,0,0-.3-.3h-.1a1.43,1.43,0,0,0-1,.4v-.2a.27.27,0,0,0-.3-.3h-.8a.27.27,0,0,0-.3.3v6.4C71.8,202.9,72,202.9,72.1,202.9Z"/><path class="cls-2" d="M77.3,203h1.8c.2,0,.3-.1.3-.2v-9.3c0-.3-.2-.3-.3-.3h-.8c-.2,0-.3,0-.3.3V196h-.7c-1.4,0-2.1.7-2.1,2.8v1.4C75.2,202.3,75.9,203,77.3,203Zm-.7-4.4c0-.7,0-1.4.7-1.4h.4c.2,0,.3,0,.3.1v4.1c0,.3,0,.3-.3.3h-.4c-.7,0-.7-.7-.7-1.4Z"/><path class="cls-2" d="M80.3,198.2a.27.27,0,0,0,.3.3h.8a.27.27,0,0,0,.3-.3c0-.4.1-1,.7-1a.43.43,0,0,1,.4.7c0,1.2-2.8.5-2.8,2.7v.6a1.63,1.63,0,0,0,1.8,1.8,1.47,1.47,0,0,0,1.2-.4v.2c0,.3.2.3.3.3H84c.2,0,.3,0,.3-.3v-4.1c0-2-.7-2.7-2-2.7A1.94,1.94,0,0,0,80.3,198.2Zm2.7,2.4c0,.6-.1,1.1-.7,1.1s-.7-.7-.7-.9v-.2c0-.7.6-.9,1.4-1.2v1.2Z"/><path class="cls-2" d="M86.6,196.2a.27.27,0,0,0-.3-.3h-.8a.27.27,0,0,0-.3.3v6.4c0,.3.2.3.3.3h.8c.2,0,.3,0,.3-.3v-4c0-.7,0-1.4.7-1.4.1,0,.2,0,.4.2a.27.27,0,0,0,.3-.3v-.8a.27.27,0,0,0-.3-.3h-.1a1.43,1.43,0,0,0-1,.4Z"/><path class="cls-2" d="M90.5,203.1c1.4,0,2-.9,2-2.5,0-.3-.1-.4-.3-.4h-.8c-.2,0-.3.2-.3.4,0,.4,0,1.2-.6,1.2s-.6-.7-.6-1.4V200c0-.3,0-.3.3-.3v.1h2a.27.27,0,0,0,.3-.3v-.9c0-2-.7-2.7-2-2.7s-2,.7-2,2.7v1.8C88.5,202.4,89.2,203.1,90.5,203.1Zm.2-6c.5,0,.6.5.6,1,0,.3,0,.3-.3.3h-.7c-.3,0-.3,0-.3-.3C90,197.6,90.1,197.1,90.7,197.1Z"/><path class="cls-2" d="M93.8,203h.8a.27.27,0,0,0,.3-.3v-4.1c0-.5,0-1.4.6-1.4s.6.8.6,1.4v4.1a.27.27,0,0,0,.3.3h.9a.27.27,0,0,0,.3-.3v-4.1c0-.5,0-1.4.6-1.4s.6.8.6,1.4v4.1c0,.2.1.3.4.2h.8a.27.27,0,0,0,.3-.3v-4.7c0-2-1.2-2-1.4-2a1.5,1.5,0,0,0-1.4.9,1.34,1.34,0,0,0-1.3-.9,1.5,1.5,0,0,0-1.4.9v-.6a.27.27,0,0,0-.3-.3h-.7a.27.27,0,0,0-.3.3v6.5A.27.27,0,0,0,93.8,203Z"/><path class="cls-2" d="M103.2,203c1.2,0,2-.7,2-2.7v-1.7c0-2-.7-2.7-2-2.7s-2,.7-2,2.7v1.7C101.2,202.3,101.9,203,103.2,203Zm-.6-4.4c0-.7,0-1.4.6-1.4s.6.7.6,1.4v1.7c0,.7,0,1.4-.6,1.4s-.6-.7-.6-1.4Z"/><path class="cls-2" d="M108.6,201a.65.65,0,1,1-1.3.1.27.27,0,0,0-.3-.3h-.8a.27.27,0,0,0-.3.3,2.06,2.06,0,0,0,4.1.1c.1-2.1-2.6-2.2-2.8-3.3a.65.65,0,1,1,1.3-.1.27.27,0,0,0,.3.3h.8a.27.27,0,0,0,.3-.3,1.84,1.84,0,0,0-1.9-1.9,1.93,1.93,0,0,0-2.1,1.8C105.8,199.7,108.5,199.9,108.6,201Z"/><circle class="cls-2" cx="67" cy="206.9" r="0.8"/><path class="cls-2" d="M67.7,216.2v-8a.27.27,0,0,0-.3-.3h-.8a.27.27,0,0,0-.3.3v8.1c0,.9,0,1.4-.9,1.3a.27.27,0,0,0-.3.3v.8a.27.27,0,0,0,.3.3C67,219,67.7,218.3,67.7,216.2Z"/><path class="cls-2" d="M70.6,213.8c-.6,0-.6-.8-.6-1.4v-4.1a.27.27,0,0,0-.3-.3v.1h-.9a.27.27,0,0,0-.3.3v4.7c0,2,1.2,2,1.4,2a1.5,1.5,0,0,0,1.4-.9v.6a.27.27,0,0,0,.3.3h.7a.27.27,0,0,0,.3-.3v-6.5a.27.27,0,0,0-.3-.3h-.8a.27.27,0,0,0-.3.3v4.1C71.2,212.9,71.2,213.8,70.6,213.8Z"/><path class="cls-2" d="M73.8,207.9a.27.27,0,0,0-.3.3v6.5a.27.27,0,0,0,.3.3h.8a.27.27,0,0,0,.3-.3v-4.1c0-.5,0-1.4.6-1.4s.6.8.6,1.4v4.1c0,.2.1.3.4.2h.8a.27.27,0,0,0,.3-.3v-4.7c0-2-1.2-2-1.4-2a1.5,1.5,0,0,0-1.4.9v-.6a.27.27,0,0,0-.3-.3Z"/><path class="cls-2" d="M80.7,213.8c-.8-.1-.8-.6-.8-1.5v-2.9h.4a.27.27,0,0,0,.3-.3v-.8a.27.27,0,0,0-.3-.3h-.4v-1.2a.27.27,0,0,0-.3-.3h-.8a.27.27,0,0,0-.3.3V208h-.1c-.2,0-.2.1-.3.4v.8c0,.2,0,.3.3.3h.1v2.9c0,2.1.6,2.8,2.2,2.8a.27.27,0,0,0,.3-.3v-.8A.27.27,0,0,0,80.7,213.8Z"/><path class="cls-2" d="M83.7,207.9c-1.2,0-2,.7-2,2.7v1.7c0,2,.7,2.7,2,2.7s2-.7,2-2.7v-1.7C85.7,208.6,85,207.9,83.7,207.9Zm.5,4.5c0,.7,0,1.4-.6,1.4s-.6-.7-.6-1.4v-1.7c0-.7,0-1.4.6-1.4s.6.7.6,1.4Z"/><path class="cls-2" d="M86.4,209.7c-.1,2,2.6,2.2,2.7,3.3a.65.65,0,1,1-1.3.1.27.27,0,0,0-.3-.3h-.8a.27.27,0,0,0-.3.3,2.06,2.06,0,0,0,4.1.1c.1-2-2.6-2.2-2.8-3.3a.65.65,0,1,1,1.3-.1.27.27,0,0,0,.3.3h.8a.27.27,0,0,0,.3-.3,1.84,1.84,0,0,0-1.9-1.9A1.93,1.93,0,0,0,86.4,209.7Z"/></g></g></svg>