<svg xmlns="http://www.w3.org/2000/svg" viewBox="0 0 156.5 227.7"><defs><style>.cls-1{fill:#fff;}.cls-2{fill:#f58220;}.cls-3{fill:#f9c1cf;}.cls-4{fill:#007aa8;}.cls-5{fill:#abe1fa;}.cls-6{fill:#eee809;}.cls-7{fill:#fcaf17;}.cls-8{fill:#b14c24;}.cls-9{fill:#000104;}</style></defs><title>Asset 3</title><g id="Layer_2" data-name="Layer 2"><g id="Layer_1-2" data-name="Layer 1"><rect class="cls-1" y="90.7" width="156.5" height="107.2"/><path class="cls-2" d="M136.7,50.6c0-.3.1-.5.1-.7,0,0,.1-.5.2-1.1l-.3,1.8Z"/><path class="cls-2" d="M62.4,175.5a4,4,0,0,0,3,1.7h71.2a2,2,0,0,1,2,2v38.2h-.1a2,2,0,0,1-2,2H24.1a2,2,0,0,1-2-2V179.2a2,2,0,0,1,2-2H42a3.87,3.87,0,0,0,3-1.8l.9-1.7L0,176v37.5s0,14.2,14.2,14.2H142.3s14.2,0,14.2-14.2V168.3L60.9,173Z"/><path class="cls-2" d="M142.3,0H14.2S0,0,0,14.2V119.1l156.5-7.4V14.2S156.5,0,142.3,0ZM11.7,33.2h3.1c.6,0,.8.2.8.8,0,1.6,0,2.8,1.4,2.8s1.4-1.2,1.4-3.2V31.7c0-1.7,0-2.9-1.6-2.9h-.5c-.5,0-.6-.2-.6-.8V25.1c0-.6.2-.8.8-.8h.4c1.6,0,1.6-1.2,1.6-2.9V21c0-2,0-3.2-1.4-3.2s-1.4,1.3-1.4,2.8c0,.6-.2.8-.8.8H11.8c-.6,0-.8-.4-.8-1,0-4.7,1.6-7,6.1-7,3.8,0,6.1,1.9,6.1,7.4v1.5a6,6,0,0,1-1.3,4.2,6,6,0,0,1,1.3,4.2v3.1c-.1,5.5-2.2,7.4-6.1,7.4-4.5,0-6.1-2.2-6.1-7.3C10.9,33.4,11.1,33.2,11.7,33.2Zm63,73.8c-3.2,0-7.8-2.5-7.8-2.5a1.88,1.88,0,0,0-1.9.2,31.57,31.57,0,0,1-5.4,3.8,20,20,0,0,1-5.4,1.7c-1.1.2-2.2.3-2.2.3H50.5a20.51,20.51,0,0,1-9.5-2.3,38.35,38.35,0,0,1-5-3.8,1.85,1.85,0,0,0-1.9-.2s-4.8,2.8-8.2,2.8A14.3,14.3,0,0,1,11.6,92.7c0-3.5,3-8.5,3-8.5a2.58,2.58,0,0,0,.3-2.1,17.16,17.16,0,0,1-.7-4.1,14.32,14.32,0,0,1,3-8.7,19,19,0,0,1,3.2-2.9,4.63,4.63,0,0,0,1.3-1.8,5.63,5.63,0,0,1,1.5-2.2,5,5,0,0,1,1.7-.8,15,15,0,0,1,2-.2c.4,0,.8-.6.8-1.2V57.5a17.7,17.7,0,0,1,.1-2.3s.6-4.9,1.9-7.5a19.2,19.2,0,0,1,9.8-9.2,26.4,26.4,0,0,1,6.2-1.4c.7,0,1.8-.1,2.4-.1h4.5a17.85,17.85,0,0,1,2.3.2s5.2.7,7.9,2.2a19,19,0,0,1,7.9,8c1.5,2.7,2.1,7.8,2.1,7.8,0,.6.1,1.7.1,2.3v2.7a1.22,1.22,0,0,0,1.2,1.2h.5a17.85,17.85,0,0,1,2.3.2,4.43,4.43,0,0,1,2.2,1.1A4.37,4.37,0,0,1,80.5,66v.1a3.23,3.23,0,0,0,.9,1,19,19,0,0,1,2.9,3.3,14.84,14.84,0,0,1,2.1,7.5,17.16,17.16,0,0,1-.7,4.1,3.12,3.12,0,0,0,.3,2.1s3.1,5,3,8.6A14.3,14.3,0,0,1,74.7,107Zm71.4-43.3a15.17,15.17,0,0,1-.3,2.1,8.89,8.89,0,0,1-2.1,3.7,10.9,10.9,0,0,1-3,1.5,1.52,1.52,0,0,0-1,1.2v1.7a12.13,12.13,0,0,1-.1,1.8,32.14,32.14,0,0,1-1.2,5.9,19.24,19.24,0,0,1-10,10.6,29.33,29.33,0,0,1-6.9,1.6c-.6,0-1.5.1-2.1.1h-1.5a14.92,14.92,0,0,1-2.1-.2s-6.1-.9-9.1-2.7a19.66,19.66,0,0,1-7.8-9.3,28,28,0,0,1-1.3-6,10.9,10.9,0,0,1-.1-1.7c0-.4,0-.7-.1-.7s-.1-.5-.1-1a1.48,1.48,0,0,0-1-1.3,9.46,9.46,0,0,1-2.6-1.3,8.23,8.23,0,0,1-2.3-3.9,7.61,7.61,0,0,1-.3-2.1V62.6a14.92,14.92,0,0,1,.2-2.1,8.89,8.89,0,0,1,1.6-3.4,9,9,0,0,1,3.3-1.9,1.66,1.66,0,0,0,1-1.4V52a14.92,14.92,0,0,0-.2-2.1,12.66,12.66,0,0,0-1.1-3.1,17,17,0,0,0-2.8-3.3c-.1,0-.2,0-.2-.1A6.32,6.32,0,0,1,91,39.1a6.47,6.47,0,0,1,1.7-4.8,6.71,6.71,0,0,1,4.6-2.2h.1a.22.22,0,0,0,.2-.2v-.1A6.47,6.47,0,0,1,99.3,27a6.71,6.71,0,0,1,4.6-2.2,6.86,6.86,0,0,1,2.9.6,1.42,1.42,0,0,0,1.6-.4,9.81,9.81,0,0,1,1.9-1.6,6.23,6.23,0,0,1,3.5-.8,8.44,8.44,0,0,1,3.5,1.3,1.91,1.91,0,0,0,1.8,0,8.49,8.49,0,0,1,4.3-1.5,7.59,7.59,0,0,1,3.4,1.1,6,6,0,0,1,1.4,1.3,1.56,1.56,0,0,0,1.6.4,6.59,6.59,0,0,1,9.1,6.5v.1a.22.22,0,0,0,.2.2h.1a6.71,6.71,0,0,1,6.4,7,8.59,8.59,0,0,1-1.6,3.8l-.6.8a8.43,8.43,0,0,0-.8.7,12.84,12.84,0,0,0-2,2.8,7.77,7.77,0,0,0-.8,2.5,14.92,14.92,0,0,0-.2,2.1v1.9a1.3,1.3,0,0,0,1,1.3,6.75,6.75,0,0,1,2.6,1.3c.2.1.3.3.5.4a9.76,9.76,0,0,1,2.1,3.9,7.61,7.61,0,0,1,.3,2.1v1.1Z"/><path class="cls-1" d="M40.2,148.7v-3c0-1.5,0-2.8-1.1-2.8s-1.1,1.3-1.1,2.8v3c0,1.5,0,2.8,1.1,2.8S40.2,150.2,40.2,148.7Z"/><path class="cls-1" d="M94.4,150c0,.4,0,1.4,1.1,1.4s1-1,1-1.7v-1.8C94.9,148.6,94.4,149,94.4,150Z"/><path class="cls-1" d="M17.1,41.2c3.9,0,6-1.9,6.1-7.4V30.7a6,6,0,0,0-1.3-4.2,6,6,0,0,0,1.3-4.2V20.8c0-5.5-2.3-7.4-6.1-7.4-4.5,0-6.1,2.3-6.1,7,0,.6.2,1,.8,1h3.1c.6,0,.8-.2.8-.8,0-1.5,0-2.8,1.4-2.8S18.5,19,18.5,21v.4c0,1.7,0,2.9-1.6,2.9h-.4c-.6,0-.8.2-.8.8V28c0,.6.1.8.6.8h.5c1.6,0,1.6,1.2,1.6,2.9v1.9c0,2,0,3.2-1.4,3.2s-1.4-1.2-1.4-2.8c0-.6-.2-.8-.8-.8H11.7c-.6,0-.8.2-.7.7C11,39,12.6,41.2,17.1,41.2Z"/><path class="cls-3" d="M26.9,74.9a5.34,5.34,0,0,0-1.1,1.4,6.74,6.74,0,0,0-.4,1.2,16.46,16.46,0,0,0-.2,2.1,16.46,16.46,0,0,0,.2,2.1,3.54,3.54,0,0,0,.6,1.4,4.29,4.29,0,0,0,.9,1.1c.5.4.9.1.9-.5V75.4C27.8,74.7,27.4,74.5,26.9,74.9Z"/><path class="cls-4" d="M25.8,67.1H75.6a5.64,5.64,0,0,1,.7-.1l.2-.1A1.05,1.05,0,0,0,77,66a1.23,1.23,0,0,0-.7-1.1l-.1-.1H25.5c-.1.1-.2.1-.3.2a1.21,1.21,0,0,0,0,1.8A.71.71,0,0,0,25.8,67.1Z"/><path class="cls-5" d="M32.3,60.9H68.2a1.22,1.22,0,0,0,1.2-1.2V57a17.7,17.7,0,0,0-.1-2.3,22.09,22.09,0,0,0-1.4-5.6,15,15,0,0,0-3.3-4.6,18,18,0,0,0-4.9-3.2,22.69,22.69,0,0,0-4.7-1c-.7,0-1.8-.1-2.4-.1H48.1a17.85,17.85,0,0,0-2.3.2,25.74,25.74,0,0,0-6.7,2,15.9,15.9,0,0,0-6.8,7.9,22.29,22.29,0,0,0-1,4.6c0,.7-.1,1.8-.1,2.4h-.1v2.4A1.22,1.22,0,0,0,32.3,60.9ZM42.7,46.4a1.14,1.14,0,0,1,.3-.8.91.91,0,0,1,.7-.3h1.7a2,2,0,0,1,.8.1c.2.1.4.1.6.3a1,1,0,0,1,.4.5,4.88,4.88,0,0,1,.3.7l2.8,7.8L53.2,47a4.88,4.88,0,0,1,.3-.7,1,1,0,0,1,.4-.5,2.19,2.19,0,0,1,.5-.3,1.48,1.48,0,0,1,.7-.1h1.8a.9.9,0,0,1,.5.1c.1,0,.2.1.3.2s.1.2.2.3.1.3.1.4V58h-.1c0,.1,0,.1-.1.2s-.1.1-.2.1-.2.1-.4.1H56c-.2,0-.3,0-.4-.1a.35.35,0,0,1-.2-.1c0-.1-.1-.1-.1-.2V47.4L51.5,58a.35.35,0,0,1-.1.2c-.1.1-.1.1-.2.1s-.2.1-.4.1H49.6c-.2,0-.3,0-.4-.1a.35.35,0,0,1-.2-.1c-.1-.1-.1-.1-.1-.2L45.3,47.4V58c0,.1,0,.1-.1.2s-.1.1-.2.1-.2.1-.4.1H43.4c-.2,0-.3,0-.4-.1a.35.35,0,0,1-.2-.1c0-.1-.1-.1-.1-.2V46.4Z"/><path class="cls-6" d="M30.1,95.4a41.58,41.58,0,0,1-1.5-5.2,2.5,2.5,0,0,0-1.3-1.7,12.24,12.24,0,0,1-4.1-3.2,9.28,9.28,0,0,1-1.3-3.5,16.46,16.46,0,0,1-.2-2.1,16.46,16.46,0,0,1,.2-2.1,11.42,11.42,0,0,1,1.7-4.2,9.12,9.12,0,0,1,1.7-1.7,9.41,9.41,0,0,1,.8-.5c.6-.3.8-.5.5-.5s-1.1-.1-1.6-.1l-.4-.1a2.73,2.73,0,0,1-1.2-.6,1.37,1.37,0,0,0-1.8-.1,10.52,10.52,0,0,0-1,.9A11.87,11.87,0,0,0,19,73a10.44,10.44,0,0,0-1.2,4.9,13.38,13.38,0,0,0,.7,3.7,5,5,0,0,1,.2,2.1,5.15,5.15,0,0,1-.9,2s-2.7,3.9-2.7,6.9a10.82,10.82,0,0,0,10.8,10.8c2.5,0,5.9-2,6.1-1.9a1.23,1.23,0,0,0,.4-1.6A38.71,38.71,0,0,1,30.1,95.4Z"/><path class="cls-3" d="M69.7,83.9V71.8a1.22,1.22,0,0,0-1.2-1.2h-36a1.22,1.22,0,0,0-1.2,1.2V83.2a17.85,17.85,0,0,0,.2,2.3s.8,6.1,2.1,9.1a20.94,20.94,0,0,0,8.4,10,15.43,15.43,0,0,0,4.6,1.9,23.81,23.81,0,0,0,3,.4,8.47,8.47,0,0,0,1.3.1c.1,0,.7-.1,1.3-.1,0,0,.7-.1,1.7-.3a18.71,18.71,0,0,0,4-1.3,19.53,19.53,0,0,0,5.8-4.2,22.25,22.25,0,0,0,4.6-7.7,40.58,40.58,0,0,0,1.3-8.3A8.33,8.33,0,0,0,69.7,83.9ZM35.5,78.7a5.2,5.2,0,1,1,10.4,0,5.23,5.23,0,0,1-5.2,5.2A5.16,5.16,0,0,1,35.5,78.7ZM61.8,93.4l-.5.8c-.4.5-1,1.4-1.4,1.9,0,0-2.5,3.1-4.6,4.1a10.44,10.44,0,0,1-4.9,1.2,10.9,10.9,0,0,1-5.8-1.7,13.58,13.58,0,0,1-3.7-3.5l-.2-.3c-.3-.4-.7-1.2-1.1-1.7l-.4-.8c-.4-.6-.1-1,.5-1H61.3C61.9,92.4,62.2,92.9,61.8,93.4Zm-1.1-9.5a5.2,5.2,0,0,1,0-10.4,5.29,5.29,0,0,1,5.2,5.2A5.16,5.16,0,0,1,60.7,83.9Z"/><path class="cls-3" d="M42.3,78.3a1.67,1.67,0,0,0-.9-1.1A3.13,3.13,0,0,1,42.3,78.3Z"/><path class="cls-3" d="M73.2,75.2v9.5c0,.2.5.1,1-.3a4.94,4.94,0,0,0,1.2-1.3,3.54,3.54,0,0,0,.6-1.4,16.46,16.46,0,0,0,.2-2.1,16.46,16.46,0,0,0-.2-2.1,6.25,6.25,0,0,0-.7-1.6,4.24,4.24,0,0,0-1.1-1.2C73.6,74.3,73.2,74.6,73.2,75.2Z"/><path class="cls-6" d="M83.1,85.5a3.91,3.91,0,0,1-1-1.9,5.17,5.17,0,0,1,.2-2.1,13.38,13.38,0,0,0,.7-3.7,10.62,10.62,0,0,0-2.2-6.5c-.5-.6-.9-1-.9-1a1.66,1.66,0,0,0-1.9-.2,4.69,4.69,0,0,1-1.7.5H75.1c-.5,0-.4.2.2.5a2.88,2.88,0,0,1,1,.6,9,9,0,0,1,1.9,2,11,11,0,0,1,1.4,3.8,16.46,16.46,0,0,1,.2,2.1,15.48,15.48,0,0,1-.1,2.1,6.85,6.85,0,0,1-.5,1.8,7.89,7.89,0,0,1-2,3.1,11.15,11.15,0,0,1-3,1.9,2.33,2.33,0,0,0-1.3,1.6s-.3,1.5-.6,2.7a25.42,25.42,0,0,1-1.7,4.6,24.9,24.9,0,0,1-1.6,2.8,1.15,1.15,0,0,0,.3,1.6,8.15,8.15,0,0,0,1.9,1,11.33,11.33,0,0,0,3.6.6,10.85,10.85,0,0,0,9.6-16A10.14,10.14,0,0,0,83.1,85.5Z"/><path class="cls-1" d="M46.7,96c-.6,0-.7.3-.2.7a5.81,5.81,0,0,0,1.1.6,7.08,7.08,0,0,0,5.2.2,7.44,7.44,0,0,0,1.5-.8c.5-.4.4-.7-.2-.7Z"/><path class="cls-4" d="M42.4,78.7a.6.6,0,0,0-.1-.4,3.13,3.13,0,0,0-.9-1.1,1.88,1.88,0,0,0-.8-.2,1.7,1.7,0,0,0,0,3.4A1.71,1.71,0,0,0,42.4,78.7Z"/><circle class="cls-4" cx="60.7" cy="78.7" r="1.7"/><path d="M85.7,82a17.16,17.16,0,0,0,.7-4.1,14.84,14.84,0,0,0-2.1-7.5,19,19,0,0,0-2.9-3.3,3.23,3.23,0,0,1-.9-1V66a4.37,4.37,0,0,0-1.4-3.3,4.43,4.43,0,0,0-2.2-1.1,17.85,17.85,0,0,0-2.3-.2h-.5a1.22,1.22,0,0,1-1.2-1.2V57.5c0-.6-.1-1.7-.1-2.3,0,0-.6-5.1-2.1-7.8a19,19,0,0,0-7.9-8c-2.7-1.5-7.9-2.2-7.9-2.2a17.85,17.85,0,0,0-2.3-.2H48.1c-.6,0-1.7.1-2.4.1a26.4,26.4,0,0,0-6.2,1.4,19.2,19.2,0,0,0-9.8,9.2c-1.3,2.6-1.9,7.5-1.9,7.5a17.7,17.7,0,0,0-.1,2.3v2.7c0,.6-.4,1.2-.8,1.2a15,15,0,0,0-2,.2,5,5,0,0,0-1.7.8,5.63,5.63,0,0,0-1.5,2.2,4.63,4.63,0,0,1-1.3,1.8,19,19,0,0,0-3.2,2.9,14.32,14.32,0,0,0-3,8.7,17.16,17.16,0,0,0,.7,4.1,2.58,2.58,0,0,1-.3,2.1s-3,5-3,8.5A14.3,14.3,0,0,0,25.9,107c3.4,0,8.2-2.8,8.2-2.8a1.85,1.85,0,0,1,1.9.2,38.35,38.35,0,0,0,5,3.8,20.51,20.51,0,0,0,9.5,2.3H52s1.1-.1,2.2-.3a20,20,0,0,0,5.4-1.7,31.57,31.57,0,0,0,5.4-3.8,1.88,1.88,0,0,1,1.9-.2s4.6,2.5,7.8,2.5A14.3,14.3,0,0,0,89,92.7c.1-3.6-3-8.6-3-8.6A3.12,3.12,0,0,1,85.7,82ZM31.1,57.3h.1c0-.6.1-1.7.1-2.4a22.29,22.29,0,0,1,1-4.6,15.9,15.9,0,0,1,6.8-7.9,25.74,25.74,0,0,1,6.7-2,17.85,17.85,0,0,1,2.3-.2h4.5c.6,0,1.7.1,2.4.1a22.69,22.69,0,0,1,4.7,1,18,18,0,0,1,4.9,3.2,15,15,0,0,1,3.3,4.6,22.09,22.09,0,0,1,1.4,5.6,17.7,17.7,0,0,1,.1,2.3v2.7a1.22,1.22,0,0,1-1.2,1.2H32.3a1.22,1.22,0,0,1-1.2-1.2ZM25.2,65c.1-.1.2-.1.3-.2H76.2l.1.1A1.23,1.23,0,0,1,77,66a1.05,1.05,0,0,1-.5.9l-.2.1a5.64,5.64,0,0,0-.7.1H25.8a.71.71,0,0,1-.6-.3,1.21,1.21,0,0,1,0-1.8ZM75.3,75.9a6.25,6.25,0,0,1,.7,1.6,16.46,16.46,0,0,1,.2,2.1,16.46,16.46,0,0,1-.2,2.1,3.54,3.54,0,0,1-.6,1.4,4.94,4.94,0,0,1-1.2,1.3c-.5.4-1,.5-1,.3V75.2c0-.6.4-.9,1-.5A4.24,4.24,0,0,1,75.3,75.9Zm-47.5-.5v8.3c0,.6-.4.9-.9.5a4.29,4.29,0,0,1-.9-1.1,3.54,3.54,0,0,1-.6-1.4,16.46,16.46,0,0,1-.2-2.1,16.46,16.46,0,0,1,.2-2.1,6.74,6.74,0,0,1,.4-1.2,5.34,5.34,0,0,1,1.1-1.4C27.4,74.5,27.8,74.7,27.8,75.4ZM32,101.5c-.2-.1-3.6,1.9-6.1,1.9A10.82,10.82,0,0,1,15.1,92.6c0-3,2.7-6.9,2.7-6.9a5.15,5.15,0,0,0,.9-2,5,5,0,0,0-.2-2.1,13.38,13.38,0,0,1-.7-3.7A10.44,10.44,0,0,1,19,73a11.87,11.87,0,0,1,1.6-2.3,10.52,10.52,0,0,1,1-.9,1.37,1.37,0,0,1,1.8.1,2.73,2.73,0,0,0,1.2.6l.4.1c.5,0,1.2.1,1.6.1s.1.2-.5.5a9.41,9.41,0,0,0-.8.5,9.12,9.12,0,0,0-1.7,1.7,11.42,11.42,0,0,0-1.7,4.2,16.46,16.46,0,0,0-.2,2.1,16.46,16.46,0,0,0,.2,2.1,9.28,9.28,0,0,0,1.3,3.5,12.24,12.24,0,0,0,4.1,3.2,2.5,2.5,0,0,1,1.3,1.7,41.58,41.58,0,0,0,1.5,5.2,38.71,38.71,0,0,0,2.3,4.5A1.23,1.23,0,0,1,32,101.5Zm31.7-.4a19.53,19.53,0,0,1-5.8,4.2,18.71,18.71,0,0,1-4,1.3c-1,.2-1.7.3-1.7.3-.6,0-1.2.1-1.3.1a8.47,8.47,0,0,1-1.3-.1,23.81,23.81,0,0,1-3-.4,15.43,15.43,0,0,1-4.6-1.9,20.94,20.94,0,0,1-8.4-10c-1.3-3-2.1-9.1-2.1-9.1a17.85,17.85,0,0,1-.2-2.3V71.8a1.22,1.22,0,0,1,1.2-1.2h36a1.22,1.22,0,0,1,1.2,1.2V83.9a8.33,8.33,0,0,1-.1,1.2,40.58,40.58,0,0,1-1.3,8.3A22.25,22.25,0,0,1,63.7,101.1Zm11.1,2.3a11.33,11.33,0,0,1-3.6-.6,8.15,8.15,0,0,1-1.9-1,1.15,1.15,0,0,1-.3-1.6,24.9,24.9,0,0,0,1.6-2.8,25.42,25.42,0,0,0,1.7-4.6c.3-1.2.6-2.7.6-2.7a2.33,2.33,0,0,1,1.3-1.6,11.15,11.15,0,0,0,3-1.9,7.89,7.89,0,0,0,2-3.1,6.85,6.85,0,0,0,.5-1.8,15.48,15.48,0,0,0,.1-2.1,16.46,16.46,0,0,0-.2-2.1,11,11,0,0,0-1.4-3.8,9,9,0,0,0-1.9-2,2.88,2.88,0,0,0-1-.6c-.6-.3-.7-.5-.2-.5h1.2a4.69,4.69,0,0,0,1.7-.5,1.66,1.66,0,0,1,1.9.2s.4.4.9,1A10.62,10.62,0,0,1,83,77.8a13.38,13.38,0,0,1-.7,3.7,5.17,5.17,0,0,0-.2,2.1,3.91,3.91,0,0,0,1,1.9,10.14,10.14,0,0,1,1.3,1.9,10.85,10.85,0,0,1-9.6,16Z"/><path d="M61.3,92.4H39.7c-.6,0-.9.4-.5,1l.4.8c.4.5.8,1.3,1.1,1.7l.2.3a13.58,13.58,0,0,0,3.7,3.5,10.9,10.9,0,0,0,5.8,1.7,10.44,10.44,0,0,0,4.9-1.2c2.1-1,4.6-4.1,4.6-4.1.4-.5,1-1.4,1.4-1.9l.5-.8C62.2,92.9,61.9,92.4,61.3,92.4Zm-7,4.3a7.44,7.44,0,0,1-1.5.8,7.08,7.08,0,0,1-5.2-.2,5.81,5.81,0,0,1-1.1-.6c-.5-.4-.4-.7.2-.7h7.4C54.7,96,54.8,96.3,54.3,96.7Z"/><path d="M45.9,78.7a5.2,5.2,0,1,0-5.2,5.2A5.23,5.23,0,0,0,45.9,78.7Zm-6.9,0A1.69,1.69,0,0,1,40.7,77a2.35,2.35,0,0,1,.8.2,1.67,1.67,0,0,1,.9,1.1c0,.1.1.3.1.4a1.63,1.63,0,0,1-1.7,1.7A1.77,1.77,0,0,1,39,78.7Z"/><path d="M60.7,73.5a5.2,5.2,0,1,0,5.2,5.2A5.29,5.29,0,0,0,60.7,73.5Zm0,6.9A1.69,1.69,0,0,1,59,78.7,1.63,1.63,0,0,1,60.7,77a1.7,1.7,0,0,1,0,3.4Z"/><path d="M43,58.3c.1.1.2.1.4.1h1.2c.2,0,.3-.1.4-.1s.2,0,.2-.1.1-.1.1-.2V47.4L48.9,58c0,.1,0,.1.1.2a.35.35,0,0,0,.2.1c.1.1.2.1.4.1h1.2c.2,0,.3-.1.4-.1s.1,0,.2-.1a.35.35,0,0,0,.1-.2l3.8-10.6V58c0,.1.1.1.1.2a.35.35,0,0,0,.2.1c.1.1.2.1.4.1h1.2c.2,0,.3-.1.4-.1s.2,0,.2-.1.1-.1.1-.2H58V46.4c0-.1-.1-.3-.1-.4s-.1-.2-.2-.3-.2-.2-.3-.2a.9.9,0,0,0-.5-.1H55.1a1.48,1.48,0,0,0-.7.1,2.19,2.19,0,0,0-.5.3,1,1,0,0,0-.4.5,4.88,4.88,0,0,0-.3.7l-2.9,7.7-2.8-7.8a4.88,4.88,0,0,0-.3-.7,1,1,0,0,0-.4-.5c-.2-.2-.4-.2-.6-.3a2,2,0,0,0-.8-.1H43.7a.91.91,0,0,0-.7.3,1.14,1.14,0,0,0-.3.8V58c0,.1.1.1.1.2A.35.35,0,0,0,43,58.3Z"/><path class="cls-7" d="M96.1,58.1a2.2,2.2,0,0,0-.9.6,3.61,3.61,0,0,0-.9,1.4,7.61,7.61,0,0,0-.3,2.1v1.1a15.17,15.17,0,0,0,.3,2.1,3.43,3.43,0,0,0,.8,1.2,5.86,5.86,0,0,0,1,.7.68.68,0,0,0,1-.7V58.8A.7.7,0,0,0,96.1,58.1Z"/><path class="cls-7" d="M135.3,56.2a7,7,0,0,1-2.9-1.4c-2.1-1.7-3.1-4.6-3.1-8.5a9.88,9.88,0,0,0-1-4.1,1.28,1.28,0,0,0-1.5-.5s-5,2.2-8.6,2.2-8.6-2.2-8.6-2.2a1.24,1.24,0,0,0-1.5.5,9.88,9.88,0,0,0-1,4.1c0,3.9-1.1,6.8-3.1,8.5a6.89,6.89,0,0,1-2.7,1.4,1.41,1.41,0,0,0-1,1.3v2.3a6.27,6.27,0,0,0,.1,1.1c.1,0,.1.5.1,1.1V73.1c0,.6.1,1.5.1,2.1a24.2,24.2,0,0,0,.6,3.5,14.15,14.15,0,0,0,2.6,5.2,16.21,16.21,0,0,0,8.3,5.7,15.7,15.7,0,0,0,3.5.6,14.77,14.77,0,0,0,2.1.1h1.5a14.77,14.77,0,0,0,2.1-.1s4.6-.6,7-2.1a16.09,16.09,0,0,0,6.9-7.9,23.57,23.57,0,0,0,1-4.9,14.77,14.77,0,0,0,.1-2.1V57.5A1.3,1.3,0,0,0,135.3,56.2Zm-17.8,2.6.2-.1a1.7,1.7,0,0,1,1.6,0l.2.1a11.47,11.47,0,0,0,.8,1.4l4.6,8.5a7.09,7.09,0,0,1,.7,1.6l-.1.3a1.69,1.69,0,0,1-.2.5,1.78,1.78,0,0,1-.8.7l-.2.1H113.8a9.72,9.72,0,0,1-1.8-.1l-.3-.2a.78.78,0,0,1-.4-.4c-.1-.3-.2-.5.1-.8v-.3c.1-.2.4-.9.7-1.4l4.6-8.5A8.7,8.7,0,0,1,117.5,58.8Zm-14.1,1.5a5,5,0,1,1,10,0,5,5,0,0,1-10,0Zm26,15.8s-.9,4.1-2.6,6a11.85,11.85,0,0,1-8.6,4,11.57,11.57,0,0,1-9.3-5,16.88,16.88,0,0,1-1.8-5.1,12.37,12.37,0,0,1-.2-1.8.84.84,0,0,1,1-.7h20.6c.6,0,1.1.4,1.1.8A14.05,14.05,0,0,1,129.4,76.1Zm-1.1-10.8a5,5,0,0,1,0-10,5,5,0,0,1,5,5A5,5,0,0,1,128.3,65.3Z"/><path class="cls-7" d="M142.6,62.3a14.92,14.92,0,0,0-.2-2.1,3.43,3.43,0,0,0-.8-1.2,2.71,2.71,0,0,0-1.1-.8.68.68,0,0,0-1,.7v7.8c0,.6.5.8,1,.6a6.15,6.15,0,0,0,1.7-1.4l.3-.5a14.92,14.92,0,0,0,.2-2.1h-.1v-1Z"/><path class="cls-8" d="M141,41.8a10.1,10.1,0,0,0,1.3-1.6,2.1,2.1,0,0,0,.3-1.2,3.57,3.57,0,0,0-3.4-3.7,3.29,3.29,0,0,0-1.7.4,1.68,1.68,0,0,1-1.9-.4,1.51,1.51,0,0,1-.2-1.9,3.37,3.37,0,0,0,.5-1.7,3.57,3.57,0,0,0-3.4-3.7,3.75,3.75,0,0,0-3,1.4,1.63,1.63,0,0,1-1.7.6,1.61,1.61,0,0,1-1.2-1.3,3.53,3.53,0,0,0-3.3-3,3.63,3.63,0,0,0-3.5,2.3,1.64,1.64,0,0,1-1.5,1,1.54,1.54,0,0,1-1.5-1,3.61,3.61,0,0,0-3.1-2.2,3.53,3.53,0,0,0-3.7,3.1,1.75,1.75,0,0,1-1.2,1.3,1.62,1.62,0,0,1-1.7-.7,3.37,3.37,0,0,0-3.1-1.6,3.19,3.19,0,0,0-2.4,1.1,3.84,3.84,0,0,0-.9,2.5,3.37,3.37,0,0,0,.5,1.7,1.66,1.66,0,0,1-.2,1.9,1.56,1.56,0,0,1-1.9.4,3.29,3.29,0,0,0-1.7-.4A3.19,3.19,0,0,0,95,36.2a3.84,3.84,0,0,0-.9,2.5,3.61,3.61,0,0,0,.4,1.3,10.7,10.7,0,0,0,1.4,1.6A14.33,14.33,0,0,1,99.1,46a16,16,0,0,1,1.4,6.1v.6c0,.6.4,1,1,.8,0,0,.1,0,.7-.5,1.2-1.1,1.9-3.2,1.9-6.1q0-5.7,3.6-8.4a1.66,1.66,0,0,1,2,.1,14.1,14.1,0,0,0,8.7,2.7,13.69,13.69,0,0,0,8.7-2.7,1.66,1.66,0,0,1,2-.1q3.6,2.85,3.6,8.4c0,2.9.7,5,2,6.1a9.08,9.08,0,0,0,.9.6.8.8,0,0,0,1-.8V52a7.08,7.08,0,0,1,.1-1.4h0l.3-1.8a15.18,15.18,0,0,1,.9-2.8A15.28,15.28,0,0,1,141,41.8Z"/><path class="cls-5" d="M110.1,60.3a1.8,1.8,0,0,0-3.6,0,1.68,1.68,0,0,0,1.8,1.8A1.79,1.79,0,0,0,110.1,60.3Z"/><path class="cls-5" d="M128.3,58.6a1.8,1.8,0,1,0,0,3.6,1.68,1.68,0,0,0,1.8-1.8A1.79,1.79,0,0,0,128.3,58.6Z"/><path class="cls-1" d="M125.7,76.6v.1H110.6c-.2,0-.3.2-.2.4l.1.2.1.2a.45.45,0,0,0,.4.3h14.3c.1,0,.3-.2.4-.4l.1-.2.1-.2C126,76.8,125.9,76.6,125.7,76.6Z"/><path class="cls-1" d="M114,80.8c-.6,0-.7.2-.2.6a11.85,11.85,0,0,0,1.9,1,7,7,0,0,0,2.5.5,7.79,7.79,0,0,0,3.1-.6,8,8,0,0,0,1.3-.8c.5-.4.4-.7-.2-.7Z"/><path class="cls-2" d="M116.3,68.8H120c.6,0,.9-.4.6-.9l-1.9-3.6c-.3-.5-.7-.5-1,0l-2,3.6C115.5,68.4,115.7,68.8,116.3,68.8Z"/><path d="M113.4,60.3a5,5,0,1,0-10,0,5,5,0,0,0,10,0Zm-6.9,0a1.8,1.8,0,1,1,1.8,1.8A1.68,1.68,0,0,1,106.5,60.3Z"/><path d="M128.3,55.3a5,5,0,1,0,5,5A5,5,0,0,0,128.3,55.3Zm0,6.9a1.8,1.8,0,1,1,1.8-1.8A1.68,1.68,0,0,1,128.3,62.2Z"/><path d="M143.7,56.6c-.2-.1-.3-.3-.5-.4a6.75,6.75,0,0,0-2.6-1.3,1.3,1.3,0,0,1-1-1.3V51.7a14.92,14.92,0,0,1,.2-2.1,7.77,7.77,0,0,1,.8-2.5,12.84,12.84,0,0,1,2-2.8,8.43,8.43,0,0,1,.8-.7l.6-.8a8.59,8.59,0,0,0,1.6-3.8,6.71,6.71,0,0,0-6.4-7h-.1a.22.22,0,0,1-.2-.2v-.1a6.59,6.59,0,0,0-9.1-6.5,1.56,1.56,0,0,1-1.6-.4,6,6,0,0,0-1.4-1.3,7.59,7.59,0,0,0-3.4-1.1,8.49,8.49,0,0,0-4.3,1.5,1.91,1.91,0,0,1-1.8,0,8.44,8.44,0,0,0-3.5-1.3,6.23,6.23,0,0,0-3.5.8,9.81,9.81,0,0,0-1.9,1.6,1.42,1.42,0,0,1-1.6.4,6.86,6.86,0,0,0-2.9-.6A6.71,6.71,0,0,0,99.3,27a6.47,6.47,0,0,0-1.7,4.8v.1a.22.22,0,0,1-.2.2h-.1a6.71,6.71,0,0,0-4.6,2.2A6.47,6.47,0,0,0,91,39.1a6.32,6.32,0,0,0,1.9,4.3c0,.1.1.1.2.1a17,17,0,0,1,2.8,3.3A12.66,12.66,0,0,1,97,49.9a14.92,14.92,0,0,1,.2,2.1v1.8a1.66,1.66,0,0,1-1,1.4,9,9,0,0,0-3.3,1.9,8.89,8.89,0,0,0-1.6,3.4,14.92,14.92,0,0,0-.2,2.1v1.1a7.61,7.61,0,0,0,.3,2.1,8.23,8.23,0,0,0,2.3,3.9A9.46,9.46,0,0,0,96.3,71a1.48,1.48,0,0,1,1,1.3c0,.5,0,1,.1,1s.1.3.1.7a10.9,10.9,0,0,0,.1,1.7,28,28,0,0,0,1.3,6,19.66,19.66,0,0,0,7.8,9.3c3,1.8,9.1,2.7,9.1,2.7a14.92,14.92,0,0,0,2.1.2h1.5c.6,0,1.5-.1,2.1-.1a29.33,29.33,0,0,0,6.9-1.6,19.24,19.24,0,0,0,10-10.6,32.14,32.14,0,0,0,1.2-5.9,12.13,12.13,0,0,0,.1-1.8V72.2a1.52,1.52,0,0,1,1-1.2,10.9,10.9,0,0,0,3-1.5,8.89,8.89,0,0,0,2.1-3.7,15.17,15.17,0,0,0,.3-2.1V62.6a7.61,7.61,0,0,0-.3-2.1A9.76,9.76,0,0,0,143.7,56.6Zm-46.6,10a.68.68,0,0,1-1,.7,5.86,5.86,0,0,1-1-.7,3.43,3.43,0,0,1-.8-1.2,15.17,15.17,0,0,1-.3-2.1V62.2a7.61,7.61,0,0,1,.3-2.1,3.61,3.61,0,0,1,.9-1.4,2.2,2.2,0,0,1,.9-.6.7.7,0,0,1,1,.7Zm39.2,6.6a14.77,14.77,0,0,1-.1,2.1,23.57,23.57,0,0,1-1,4.9,16.09,16.09,0,0,1-6.9,7.9c-2.4,1.5-7,2.1-7,2.1a14.77,14.77,0,0,1-2.1.1h-1.5a14.77,14.77,0,0,1-2.1-.1,15.7,15.7,0,0,1-3.5-.6,16.21,16.21,0,0,1-8.3-5.7,14.15,14.15,0,0,1-2.6-5.2,24.2,24.2,0,0,1-.6-3.5c0-.6-.1-1.5-.1-2.1V62c0-.6,0-1.1-.1-1.1a6.27,6.27,0,0,1-.1-1.1V57.5a1.41,1.41,0,0,1,1-1.3,6.89,6.89,0,0,0,2.7-1.4c2-1.7,3.1-4.6,3.1-8.5a9.88,9.88,0,0,1,1-4.1,1.24,1.24,0,0,1,1.5-.5s5,2.2,8.6,2.2,8.6-2.2,8.6-2.2a1.28,1.28,0,0,1,1.5.5,9.88,9.88,0,0,1,1,4.1c0,3.9,1,6.8,3.1,8.5a7,7,0,0,0,2.9,1.4,1.3,1.3,0,0,1,1,1.3ZM137.9,46a15.18,15.18,0,0,0-.9,2.8c-.1.6-.2,1.1-.2,1.1,0,.2-.1.5-.1.7a7.08,7.08,0,0,0-.1,1.4v.8a.8.8,0,0,1-1,.8,9.08,9.08,0,0,1-.9-.6c-1.3-1.1-2-3.2-2-6.1q0-5.55-3.6-8.4a1.66,1.66,0,0,0-2,.1,13.69,13.69,0,0,1-8.7,2.7,14.1,14.1,0,0,1-8.7-2.7,1.66,1.66,0,0,0-2-.1q-3.6,2.7-3.6,8.4c0,2.9-.7,5-1.9,6.1-.6.5-.7.5-.7.5-.6.2-1-.2-1-.8v-.6A16,16,0,0,0,99.1,46a14.33,14.33,0,0,0-3.2-4.4A10.7,10.7,0,0,1,94.5,40a3.61,3.61,0,0,1-.4-1.3,3.84,3.84,0,0,1,.9-2.5,3.19,3.19,0,0,1,2.4-1.1,3.29,3.29,0,0,1,1.7.4,1.56,1.56,0,0,0,1.9-.4,1.66,1.66,0,0,0,.2-1.9,3.37,3.37,0,0,1-.5-1.7,3.84,3.84,0,0,1,.9-2.5,3.19,3.19,0,0,1,2.4-1.1,3.37,3.37,0,0,1,3.1,1.6,1.62,1.62,0,0,0,1.7.7,1.75,1.75,0,0,0,1.2-1.3,3.53,3.53,0,0,1,3.7-3.1,3.61,3.61,0,0,1,3.1,2.2,1.54,1.54,0,0,0,1.5,1,1.64,1.64,0,0,0,1.5-1,3.63,3.63,0,0,1,3.5-2.3,3.53,3.53,0,0,1,3.3,3,1.61,1.61,0,0,0,1.2,1.3,1.63,1.63,0,0,0,1.7-.6,3.75,3.75,0,0,1,3-1.4,3.57,3.57,0,0,1,3.4,3.7,3.37,3.37,0,0,1-.5,1.7,1.51,1.51,0,0,0,.2,1.9,1.68,1.68,0,0,0,1.9.4,3.29,3.29,0,0,1,1.7-.4,3.57,3.57,0,0,1,3.4,3.7,2.1,2.1,0,0,1-.3,1.2,10.1,10.1,0,0,1-1.3,1.6A15.28,15.28,0,0,0,137.9,46Zm4.6,19.4-.3.5a6.15,6.15,0,0,1-1.7,1.4c-.5.2-1,0-1-.6V58.9a.68.68,0,0,1,1-.7,2.71,2.71,0,0,1,1.1.8,3.43,3.43,0,0,1,.8,1.2,14.92,14.92,0,0,1,.2,2.1v1h.1A14.92,14.92,0,0,1,142.5,65.4Z"/><path d="M128.5,73.5H107.9a.84.84,0,0,0-1,.7,12.37,12.37,0,0,0,.2,1.8,16.88,16.88,0,0,0,1.8,5.1,11.57,11.57,0,0,0,9.3,5,11.85,11.85,0,0,0,8.6-4c1.7-1.9,2.6-6,2.6-6a14.05,14.05,0,0,0,.2-1.8C129.6,73.9,129.1,73.5,128.5,73.5Zm-5.9,8a8,8,0,0,1-1.3.8,7.79,7.79,0,0,1-3.1.6,7,7,0,0,1-2.5-.5,11.85,11.85,0,0,1-1.9-1c-.5-.4-.4-.6.2-.6h8.4C123,80.8,123.1,81.1,122.6,81.5Zm3.3-4.5-.1.2-.1.2c-.1.2-.3.4-.4.4H111a.45.45,0,0,1-.4-.3l-.1-.2-.1-.2c-.1-.2,0-.4.2-.4h15.1v-.1C125.9,76.6,126,76.8,125.9,77Z"/><path d="M111.4,70.1v.3c-.3.3-.2.5-.1.8a.78.78,0,0,0,.4.4l.3.2a9.72,9.72,0,0,0,1.8.1h10.5l.2-.1a1.78,1.78,0,0,0,.8-.7,1.69,1.69,0,0,0,.2-.5l.1-.3a7.09,7.09,0,0,0-.7-1.6l-4.6-8.5a11.47,11.47,0,0,1-.8-1.4l-.2-.1a1.7,1.7,0,0,0-1.6,0l-.2.1a8.7,8.7,0,0,0-.8,1.4l-4.6,8.5C111.8,69.2,111.5,69.9,111.4,70.1Zm4.3-2.2,2-3.6c.3-.5.7-.5,1,0l1.9,3.6c.3.5,0,.9-.6.9h-3.7C115.7,68.8,115.5,68.4,115.7,67.9Z"/><path class="cls-9" d="M29.7,140.9h2.4c.4,0,.6-.1.6-.6v-.8c0-4.5-1.7-6-4.7-6s-4.7,1.5-4.7,6v9.4c0,4.5,1.7,6,4.7,6s4.7-1.5,4.7-6v-.8c0-.4-.1-.6-.6-.6H29.7c-.4,0-.6.1-.6.6v.9c0,1.5,0,2.5-1.1,2.5s-1.1-1-1.1-2.5v-9.6c0-1.5,0-2.5,1.1-2.5s1.1,1,1.1,2.5v.9C29.1,140.7,29.2,140.9,29.7,140.9Z"/><path class="cls-9" d="M43.8,148.8v-3c0-4.5-1.7-6-4.7-6s-4.7,1.5-4.7,6v3c0,4.5,1.7,6,4.7,6S43.8,153.3,43.8,148.8Zm-5.8-.1v-3c0-1.5,0-2.8,1.1-2.8s1.1,1.3,1.1,2.8v3c0,1.5,0,2.8-1.1,2.8S38,150.2,38,148.7Z"/><path class="cls-9" d="M48.1,139.7h-2c-.4,0-.6.1-.6.6v13.9c0,.4.1.6.6.6h2.4c.4,0,.6-.1.6-.6v-8.4c0-1.5,0-2.8,1.1-2.8s1.1,1.3,1.1,2.8v8.4c0,.4.2.6.5.6h2.4c.4,0,.6-.1.6-.6V144c0-4.3-2.6-4.3-3.1-4.3a3.19,3.19,0,0,0-3,2v-1.4C48.7,139.9,48.6,139.7,48.1,139.7Z"/><path class="cls-9" d="M62.2,143.7c0,.4.1.6.6.6H65c.4,0,.6-.1.6-.6,0-2.6-2.6-4.2-4.7-4.2a4.42,4.42,0,0,0-4.6,4c-.2,3.2,2.7,4.2,4.4,5.5a3.42,3.42,0,0,1,1.3,1.4c.5,1.6-1.9,2-2.1.3,0-.4-.1-.6-.6-.6H57c-.4,0-.6.1-.6.6,0,2.6,2.5,4.2,4.6,4.2a4.52,4.52,0,0,0,4.7-4c.2-3.2-2.8-4.2-4.5-5.5a2.49,2.49,0,0,1-1.1-1.4A1.08,1.08,0,1,1,62.2,143.7Z"/><path class="cls-9" d="M70.3,139.7h0l-2.3.1c-.4,0-.6.1-.6.6v10.1c0,4.3,2.6,4.3,3.1,4.3a3.19,3.19,0,0,0,3-2v1.4c0,.4.1.6.6.6h2c.4,0,.6-.1.6-.6V140.3c0-.4-.1-.6-.6-.6H73.7c-.4,0-.6.1-.6.6v8.4c0,1.5,0,2.8-1.1,2.8s-1.1-1.3-1.1-2.8v-8.4C70.9,139.9,70.8,139.7,70.3,139.7Z"/><path class="cls-9" d="M81.4,154.8c.3,0,.6,0,.6-.6V134.3c0-.4-.1-.6-.6-.6H79c-.4,0-.6.1-.6.6v19.9c0,.6.3.6.6.6Z"/><path class="cls-9" d="M87.3,136.4H84.9c-.4,0-.6.1-.6.6v2.7H84c-.4,0-.6.1-.6.6v2.1c0,.5.1.6.6.6h.3v5.8c0,4.5,1.2,6,4.6,6,.4,0,.6-.1.6-.6v-2c0-.5-.1-.7-.6-.7-1-.1-1-.9-1-2.7V143h1c.4,0,.6-.1.6-.6v-2.1c0-.4-.1-.6-.6-.6h-1V137C87.9,136.6,87.8,136.4,87.3,136.4Z"/><path class="cls-9" d="M90.8,149.6v1.3c0,2.7,1.3,3.9,3.6,3.9a2.77,2.77,0,0,0,2.5-1v.4c0,.6.3.6.6.6h2c.3,0,.6,0,.6-.6v-8.7c0-4.5-2-5.8-4.7-5.8-3,0-4.3,2.2-4.3,4.8,0,.4.1.6.6.6h2c.4,0,.6-.1.6-.6,0-.2,0-1.5,1.1-1.5s1,1.2,1.1,1.2C96.5,146.4,90.8,145.6,90.8,149.6Zm5.7.1c0,.7,0,1.8-1,1.7s-1.1-1-1.1-1.4c0-1,.5-1.4,2.1-2.1Z"/><path class="cls-9" d="M104.9,139.6h-2.4c-.4,0-.6.1-.6.6v13.9c0,.6.3.6.6.6h2.4c.3,0,.6,0,.6-.6v-7.7c0-1.5,0-3.1,1.5-3.1.2,0,.5.1,1,.1s.6-.1.6-.6v-2.6c0-.4-.1-.6-.6-.6h-.3a3,3,0,0,0-2.2.9v-.3C105.5,139.8,105.4,139.6,104.9,139.6Z"/><path d="M111.9,190.2h.8c.3,0,.3,0,.3-.3,0-.6-.1-1.2-.7-1.2s-.7.6-.7,1.2C111.6,190.2,111.6,190.2,111.9,190.2Z"/><path d="M45.6,206.3h.8c.3,0,.3,0,.3-.3,0-.6-.1-1.2-.7-1.2s-.7.6-.7,1.2C45.3,206.3,45.3,206.3,45.6,206.3Z"/><path d="M62.7,194c.7,0,.7-.8.7-1.6v-1.9c0-.8,0-1.6-.7-1.6s-.7.8-.7,1.6v1.9C62,193.2,62,194,62.7,194Z"/><path d="M60.1,208.9v.2c0,.2,0,1.1.8,1.1s.8-.7.8-1.4v-1.3C60.8,207.9,60.1,208.1,60.1,208.9Z"/><path d="M100.3,190.2h.8c.3,0,.3,0,.3-.3,0-.6-.1-1.2-.7-1.2s-.7.6-.7,1.2C100,190.2,100,190.2,100.3,190.2Z"/><path d="M66.7,210c.7,0,.7-.8.7-1.6v-1.9c0-.8,0-1.6-.7-1.6s-.7.8-.7,1.6v1.9C66,209.2,66,210,66.7,210Z"/><path d="M81.2,204.8c-.6,0-.6.6-.7,1.2,0,.3,0,.3.3.3h.8c.3,0,.3,0,.3-.3C81.9,205.4,81.8,204.8,81.2,204.8Z"/><path d="M107.2,206.3h.8c.3,0,.3,0,.3-.3,0-.6-.1-1.2-.7-1.2s-.7.6-.7,1.2C106.9,206.3,106.9,206.3,107.2,206.3Z"/><path d="M74.7,206.5v1.9c0,.8,0,1.6.8,1.6H76c.3,0,.3,0,.3-.3v-4.6c0-.2-.1-.2-.3-.2h-.5C74.7,204.9,74.7,205.7,74.7,206.5Z"/><path d="M91.2,194.1c.7-.1.8-.7.8-1.4v-1.3c-.9.4-1.6.6-1.6,1.4v.2C90.4,193.2,90.4,194.1,91.2,194.1Z"/><path d="M95.8,204.9h-.5c-.8,0-.8.8-.8,1.6v1.9c0,.8,0,1.6.8,1.6h.5c.3,0,.3,0,.3-.3v-4.6C96.1,204.9,96,204.9,95.8,204.9Z"/><path d="M42,177.2H24.1a2,2,0,0,0-2,2v38.2a2,2,0,0,0,2,2H136.5a2,2,0,0,0,2-2h.1V179.2a2,2,0,0,0-2-2H65.4a4,4,0,0,1-3-1.7l-1.5-2.6-6.7-11.1c-.6-1-1.5-1-2,0l-6.3,11.9-.9,1.7A3.87,3.87,0,0,1,42,177.2Zm21.4,34c0,.3-.2.3-.3.3h-.8c-.2,0-.3,0-.3-.3V211a2,2,0,0,1-1.4.5,1.83,1.83,0,0,1-2-2.1v-.7c0-2.6,3.2-1.8,3.2-3.1-.1-.2-.1-.7-.7-.7s-.8.7-.8,1.1a.27.27,0,0,1-.3.3h-.9a.27.27,0,0,1-.3-.3,2.21,2.21,0,0,1,2.3-2.5c1.4,0,2.3.8,2.3,3.1v4.6Zm20-3.9a.27.27,0,0,1-.3.3H80.8v.2c-.3,0-.3,0-.3.3v.4c0,.8,0,1.6.7,1.6s.7-.9.7-1.4c0-.2.1-.4.3-.4h.9c.2,0,.3.2.3.4,0,1.8-.7,2.8-2.3,2.8-1.4,0-2.3-.8-2.3-3.1v-2.1c0-2.3.9-3.1,2.3-3.1s2.3.8,2.3,3.1Zm8.4,3.9c0,.3-.2.3-.3.3h-1c-.1,0-.3,0-.3-.3v-7.4a.27.27,0,0,1,.3-.3h1a.27.27,0,0,1,.3.3Zm-.8-8.1a.9.9,0,1,1,.9-.9A.9.9,0,0,1,91,203.1Zm6.7,8.1a.27.27,0,0,1-.3.3H95.3c-1.6,0-2.4-.8-2.4-3.2v-1.6c0-2.4.8-3.2,2.4-3.2h.8v-2.9c0-.3.2-.3.3-.3h1c.2,0,.3,0,.3.3Zm2.7,0c0,.3-.2.3-.3.3h-1c-.2,0-.3,0-.3-.3v-7.4a.27.27,0,0,1,.3-.3h1a.27.27,0,0,1,.3.3Zm-.8-8.1a.9.9,0,1,1,.9-.9A.9.9,0,0,1,99.6,203.1Zm13,8.1c0,.3-.2.3-.3.3h-1c-.2,0-.3,0-.3-.3v-7.4a.27.27,0,0,1,.3-.3h1a.27.27,0,0,1,.3.3Zm-.8-8.1a.9.9,0,1,1,.9-.9A.9.9,0,0,1,111.8,203.1Zm-1.9-12.9c0-2.3.9-3.1,2.3-3.1s2.3.8,2.3,3.1v1a.27.27,0,0,1-.3.3h-2.3v.2c-.3,0-.3,0-.3.3v.4c0,.8,0,1.6.7,1.6s.7-.9.7-1.4c0-.2.1-.4.3-.4h.9c.2,0,.3.2.3.4,0,1.8-.7,2.8-2.3,2.8-1.4,0-2.3-.8-2.3-3.1Zm-2.4,13c1.4,0,2.3.8,2.3,3.1v1a.27.27,0,0,1-.3.3h-2.3v.2c-.3,0-.3,0-.3.3v.4c0,.8,0,1.6.7,1.6s.7-.9.7-1.4c0-.2.1-.4.3-.4h.9c.2,0,.3.2.3.4,0,1.8-.7,2.8-2.3,2.8-1.4,0-2.3-.8-2.3-3.1v-2.1C105.2,204,106.1,203.2,107.5,203.2Zm-3.1-7.8c-.2,0-.3,0-.3-.3v-7.4a.27.27,0,0,1,.3-.3h1a.27.27,0,0,1,.3.3v7.4c0,.3-.2.3-.3.3Zm.5-10.1a.9.9,0,1,1-.9.9A.9.9,0,0,1,104.9,185.3Zm-1.8,18.4v.2a1.58,1.58,0,0,1,1.2-.5h.2a.27.27,0,0,1,.3.3v.9c0,.2-.1.4-.3.3h-.6c-.8,0-.8.8-.8,1.6v4.6c0,.3-.2.3-.3.3h-1c-.2,0-.3,0-.3-.3v-7.4a.27.27,0,0,1,.3-.3h1A.27.27,0,0,1,103.1,203.7Zm-4.8-13.5c0-2.3.9-3.1,2.3-3.1s2.3.8,2.3,3.1v1a.27.27,0,0,1-.3.3h-2.3v.2c-.3,0-.3,0-.3.3v.4c0,.8,0,1.6.7,1.6s.7-.9.7-1.4c0-.2.1-.4.3-.4h.9c.2,0,.3.2.3.4,0,1.8-.7,2.8-2.3,2.8-1.4,0-2.3-.8-2.3-3.1Zm-3.7-2.6a.27.27,0,0,1,.3-.3h1a.27.27,0,0,1,.3.3v.2a1.58,1.58,0,0,1,1.2-.5h.2a.27.27,0,0,1,.3.3v.9c0,.2-.1.4-.3.3a1.06,1.06,0,0,1-.6,0c-.8,0-.8.8-.8,1.6V195c0,.3-.2.3-.3.3h-1c-.2,0-.3,0-.3-.3Zm-5.8,5c0-2.6,3.2-1.8,3.2-3.1a.67.67,0,0,0-.7-.7c-.7,0-.8.7-.8,1.1a.27.27,0,0,1-.3.3h-.9a.27.27,0,0,1-.3-.3,2.21,2.21,0,0,1,2.3-2.5c1.4,0,2.3.8,2.3,3.1v4.6c0,.3-.2.3-.3.3h-.8c-.2,0-.3,0-.3-.3v-.2a2,2,0,0,1-1.4.5,1.83,1.83,0,0,1-2-2.1v-.7Zm-3.5-5.2h.2V186a.27.27,0,0,1,.3-.3h1a.27.27,0,0,1,.3.3v1.4h.5a.27.27,0,0,1,.3.3v.9a.27.27,0,0,1-.3.3h-.5v3.3c0,1,0,1.7.9,1.7a.27.27,0,0,1,.3.3v.9a.27.27,0,0,1-.3.3c-1.8,0-2.5-.8-2.5-3.2v-3.3h-.2c-.3,0-.3-.2-.3-.3v-.9C84.9,187.6,84.9,187.4,85.3,187.4Zm-.9,19c0-2.3.9-3.1,2.3-3.1,1.6,0,2.3,1,2.3,2.8a.27.27,0,0,1-.3.3h-.9a.27.27,0,0,1-.3-.3c0-.5,0-1.4-.7-1.4s-.7.8-.7,1.6v2.1c0,.8,0,1.6.7,1.6s.7-.9.7-1.4a.27.27,0,0,1,.3-.3h.9a.27.27,0,0,1,.3.3c0,1.8-.7,2.8-2.3,2.8-1.4,0-2.3-.8-2.3-3.1Zm-1.8-21.9a.27.27,0,0,1,.3-.3h1a.27.27,0,0,1,.3.3v10.6c0,.3-.2.3-.3.3h-1c-.1,0-.3,0-.3-.3ZM77,187.7a.27.27,0,0,1,.3-.3h1a.27.27,0,0,1,.3.3v4.7c0,.7,0,1.6.7,1.6s.7-1,.7-1.6v-4.7a.27.27,0,0,1,.3-.3h1a.27.27,0,0,1,.3.3v7.4a.27.27,0,0,1-.3.3h-.8a.27.27,0,0,1-.3-.3v-.7a1.62,1.62,0,0,1-1.6,1c-.2,0-1.6,0-1.6-2.3Zm-.7,12.9c0-.3.2-.3.3-.3h1c.2,0,.3,0,.3.3v10.6q.15.3-.3.3H75.5c-1.6,0-2.4-.8-2.4-3.2v-1.6c0-2.4.8-3.2,2.4-3.2h.8Zm-2.5-13.2a2.13,2.13,0,0,1,2.2,2.1.27.27,0,0,1-.3.3h-.9a.27.27,0,0,1-.3-.3.7.7,0,1,0-1.4.1c.1,1.3,3.2,1.5,3.1,3.8a2.37,2.37,0,0,1-4.7-.1.27.27,0,0,1,.3-.3h.9a.27.27,0,0,1,.3.3.75.75,0,1,0,1.5-.1c-.1-1.3-3.2-1.4-3.1-3.8A2.24,2.24,0,0,1,73.8,187.4Zm-7.7.3a.27.27,0,0,1,.3-.3h.8a.27.27,0,0,1,.3.3v.7a1.62,1.62,0,0,1,1.6-1c.2,0,1.6,0,1.6,2.3v5.4a.27.27,0,0,1-.3.3h-1c-.2,0-.3,0-.3-.3v-4.7c0-.7,0-1.6-.7-1.6s-.7,1-.7,1.6v4.7a.27.27,0,0,1-.3.3h-1a.27.27,0,0,1-.3-.3Zm.6,15.7c1.4,0,2.3.8,2.3,3.1v1.9c0,2.2-.9,3.1-2.3,3.1s-2.3-.8-2.3-3.1v-1.9C64.4,204.2,65.3,203.4,66.7,203.4Zm-6.2-12.9c0-2.3.9-3.1,2.3-3.1s2.3.8,2.3,3.1v1.9c0,2.2-.9,3.1-2.3,3.1s-2.3-.8-2.3-3.1Zm-.2,11.4c.4,0,.7.4,1.1.4a.54.54,0,0,0,.4-.3.1.1,0,0,1,.1-.1h.9c.1,0,.1,0,.1.1a1.16,1.16,0,0,1-1.3,1.1c-.4,0-.7-.4-1.1-.4a.54.54,0,0,0-.4.3.1.1,0,0,1-.1.1h-.9c-.1,0-.1,0-.1-.1A1.16,1.16,0,0,1,60.3,201.9Zm-5.6-11.5c0-2.3.9-3.1,2.3-3.1,1.6,0,2.3,1,2.3,2.8a.27.27,0,0,1-.3.3h-.9a.27.27,0,0,1-.3-.3c0-.5,0-1.4-.7-1.4s-.7.8-.7,1.6v2.1c0,.8,0,1.6.7,1.6s.7-.9.7-1.4a.27.27,0,0,1,.3-.3H59a.27.27,0,0,1,.3.3c0,1.8-.7,2.8-2.3,2.8-1.4,0-2.3-.8-2.3-3.1Zm0,13.4c0-.2,0-.3.3-.3h.2v-1.4a.27.27,0,0,1,.3-.3h1a.27.27,0,0,1,.3.3v1.4h.5a.27.27,0,0,1,.3.3v.9a.27.27,0,0,1-.3.3h-.5v3.3c0,1,0,1.7.9,1.7a.27.27,0,0,1,.3.3v.9a.27.27,0,0,1-.3.3c-1.8,0-2.5-.8-2.5-3.2V205H55c-.3,0-.3-.2-.3-.3ZM41,195.1V184.5a.27.27,0,0,1,.3-.3h3.4a.27.27,0,0,1,.3.3v.9a.27.27,0,0,1-.3.3H42.9c-.3,0-.3,0-.3.3v2.4c0,.3,0,.3.3.3h1.8a.27.27,0,0,1,.3.3v.9a.27.27,0,0,1-.3.3H42.9c-.3,0-.3,0-.3.3v3c0,.3,0,.3.3.3h1.8a.27.27,0,0,1,.3.3v.9a.27.27,0,0,1-.3.3H41.3C41.1,195.4,41,195.4,41,195.1Zm9.8,8.7v.7a1.62,1.62,0,0,1,1.6-1c.2,0,1.6,0,1.6,2.3v5.4a.27.27,0,0,1-.3.3h-1c-.3,0-.3-.1-.3-.3v-4.7c0-.7,0-1.6-.7-1.6s-.7,1-.7,1.6v4.7a.27.27,0,0,1-.3.3h-1a.27.27,0,0,1-.3-.3v-7.4a.27.27,0,0,1,.3-.3h.8A.27.27,0,0,1,50.8,203.8ZM46,187.7a.27.27,0,0,1,.3-.3h1a.27.27,0,0,1,.3.3v4.7c0,.7,0,1.6.7,1.6s.7-1,.7-1.6v-4.7a.27.27,0,0,1,.3-.3h1a.27.27,0,0,1,.3.3v7.4a.27.27,0,0,1-.3.3h-.8a.27.27,0,0,1-.3-.3v-.7a1.62,1.62,0,0,1-1.6,1c-.2,0-1.6,0-1.6-2.3Zm2.2,18.6v1a.27.27,0,0,1-.3.3H45.6v.2c-.3,0-.3,0-.3.3v.4c0,.8,0,1.6.7,1.6s.7-.9.7-1.4c0-.2.1-.4.3-.4h.9c.2,0,.3.2.3.4,0,1.8-.7,2.8-2.3,2.8-1.4,0-2.3-.8-2.3-3.1v-2.1c0-2.3.9-3.1,2.3-3.1S48.2,204,48.2,206.3Z"/><path class="cls-1" d="M45,195v-.9a.27.27,0,0,0-.3-.3H42.9c-.3,0-.3,0-.3-.3v-3c0-.3,0-.3.3-.3h1.8a.27.27,0,0,0,.3-.3V189a.27.27,0,0,0-.3-.3H42.9c-.3,0-.3,0-.3-.3V186c0-.3,0-.3.3-.3h1.8a.27.27,0,0,0,.3-.3v-.9a.27.27,0,0,0-.3-.3H41.3a.27.27,0,0,0-.3.3v10.6c0,.3.1.3.3.2h3.4A.27.27,0,0,0,45,195Z"/><path class="cls-1" d="M47.6,195.4a1.62,1.62,0,0,0,1.6-1v.7a.27.27,0,0,0,.3.3h.8a.27.27,0,0,0,.3-.3v-7.4a.27.27,0,0,0-.3-.3h-1a.27.27,0,0,0-.3.3v4.7c0,.6,0,1.6-.7,1.6s-.7-.9-.7-1.6v-4.7a.27.27,0,0,0-.3-.3h-1a.27.27,0,0,0-.3.3v5.4C46,195.4,47.4,195.4,47.6,195.4Z"/><path class="cls-1" d="M57,195.4c1.6,0,2.3-1,2.3-2.8a.27.27,0,0,0-.3-.3h-.9a.27.27,0,0,0-.3.3c0,.5,0,1.4-.7,1.4s-.7-.8-.7-1.6v-2.1c0-.8,0-1.6.7-1.6s.7.9.7,1.4a.27.27,0,0,0,.3.3H59a.27.27,0,0,0,.3-.3c0-1.8-.7-2.8-2.3-2.8-1.4,0-2.3.8-2.3,3.1v1.9C54.7,194.6,55.6,195.4,57,195.4Z"/><path class="cls-1" d="M62.8,195.5c1.4,0,2.3-.9,2.3-3.1v-1.9c0-2.3-.9-3.1-2.3-3.1s-2.3.8-2.3,3.1v1.9C60.5,194.7,61.4,195.5,62.8,195.5Zm-.8-5c0-.8,0-1.6.7-1.6s.7.8.7,1.6v1.9c0,.8,0,1.6-.7,1.6s-.7-.8-.7-1.6Z"/><path class="cls-1" d="M66.4,195.4h1a.27.27,0,0,0,.3-.3v-4.7c0-.6,0-1.6.7-1.6s.7.9.7,1.6v4.7c0,.3.1.3.3.3h1a.27.27,0,0,0,.3-.3v-5.4c0-2.3-1.4-2.3-1.6-2.3a1.62,1.62,0,0,0-1.6,1v-.7a.27.27,0,0,0-.3-.3h-.8a.27.27,0,0,0-.3.3v7.4A.27.27,0,0,0,66.4,195.4Z"/><path class="cls-1" d="M74.5,193.2a.75.75,0,1,1-1.5.1.27.27,0,0,0-.3-.3h-.9a.27.27,0,0,0-.3.3,2.37,2.37,0,0,0,4.7.1c.1-2.3-3-2.5-3.1-3.8a.7.7,0,1,1,1.4-.1.27.27,0,0,0,.3.3h.9a.27.27,0,0,0,.3-.3,2.13,2.13,0,0,0-2.2-2.1,2.24,2.24,0,0,0-2.4,2C71.3,191.8,74.4,191.9,74.5,193.2Z"/><path class="cls-1" d="M78.6,195.4a1.62,1.62,0,0,0,1.6-1v.7a.27.27,0,0,0,.3.3h.8a.27.27,0,0,0,.3-.3v-7.4a.27.27,0,0,0-.3-.3h-1a.27.27,0,0,0-.3.3v4.7c0,.6,0,1.6-.7,1.6s-.7-.9-.7-1.6v-4.7a.27.27,0,0,0-.3-.3h-1a.27.27,0,0,0-.3.3v5.4C77,195.4,78.4,195.4,78.6,195.4Z"/><path class="cls-1" d="M82.9,195.4h1c.1,0,.3,0,.3-.3V184.5a.27.27,0,0,0-.3-.3h-1a.27.27,0,0,0-.3.3v10.6C82.6,195.4,82.8,195.4,82.9,195.4Z"/><path class="cls-1" d="M85,188.6c0,.1,0,.3.3.3h.2v3.3c0,2.4.7,3.2,2.5,3.2a.27.27,0,0,0,.3-.3v-.9a.27.27,0,0,0-.3-.3c-.9,0-.9-.7-.9-1.7v-3.3h.5a.27.27,0,0,0,.3-.3v-.9a.27.27,0,0,0-.3-.3h-.5V186a.27.27,0,0,0-.3-.3h-1a.27.27,0,0,0-.3.3v1.4h-.2c-.4,0-.4.2-.3.3Z"/><path class="cls-1" d="M90.8,195.4a2,2,0,0,0,1.4-.5v.2c0,.3.1.3.3.3h.8c.1,0,.3,0,.3-.3v-4.6c0-2.3-.9-3.1-2.3-3.1a2.21,2.21,0,0,0-2.3,2.5.27.27,0,0,0,.3.3h.9a.27.27,0,0,0,.3-.3c0-.4.1-1.1.8-1.1a.67.67,0,0,1,.7.7c0,1.3-3.2.5-3.2,3.1v.7A1.83,1.83,0,0,0,90.8,195.4Zm-.4-2.6c0-.8.7-1,1.6-1.4v1.3c0,.7-.1,1.3-.8,1.4s-.8-.9-.8-1.1Z"/><path class="cls-1" d="M94.9,195.3h1c.1,0,.3,0,.3-.3v-4.6c0-.8,0-1.6.8-1.6a1.06,1.06,0,0,0,.6,0c.2.1.3-.1.3-.3v-.9a.27.27,0,0,0-.3-.3h-.2a1.58,1.58,0,0,0-1.2.5v-.2a.27.27,0,0,0-.3-.3h-1a.27.27,0,0,0-.3.3V195C94.6,195.3,94.7,195.3,94.9,195.3Z"/><path class="cls-1" d="M100.6,195.4c1.6,0,2.3-1,2.3-2.8,0-.2-.1-.4-.3-.4h-.9c-.2,0-.3.2-.3.4,0,.5,0,1.4-.7,1.4s-.7-.8-.7-1.6V192c0-.3,0-.3.3-.3v-.2h2.3a.27.27,0,0,0,.3-.3v-1c0-2.3-.9-3.1-2.3-3.1s-2.3.8-2.3,3.1v2.1C98.3,194.6,99.2,195.4,100.6,195.4Zm.1-6.7c.6,0,.7.6.7,1.2,0,.3,0,.3-.3.3h-.8c-.3,0-.3,0-.3-.3C100,189.3,100.1,188.7,100.7,188.7Z"/><path class="cls-1" d="M104.9,187.1a.9.9,0,1,0-.9-.9A.9.9,0,0,0,104.9,187.1Z"/><path class="cls-1" d="M105.7,195.1v-7.4a.27.27,0,0,0-.3-.3h-1a.27.27,0,0,0-.3.3v7.4c0,.3.1.3.3.3h1C105.5,195.4,105.7,195.4,105.7,195.1Z"/><path class="cls-1" d="M112.2,195.4c1.6,0,2.3-1,2.3-2.8,0-.2-.1-.4-.3-.4h-.9c-.2,0-.3.2-.3.4,0,.5,0,1.4-.7,1.4s-.7-.8-.7-1.6V192c0-.3,0-.3.3-.3v-.2h2.3a.27.27,0,0,0,.3-.3v-1c0-2.3-.9-3.1-2.3-3.1s-2.3.8-2.3,3.1v2.1C109.9,194.6,110.8,195.4,112.2,195.4Zm.1-6.7c.6,0,.7.6.7,1.2,0,.3,0,.3-.3.3h-.8c-.3,0-.3,0-.3-.3C111.6,189.3,111.7,188.7,112.3,188.7Z"/><path class="cls-1" d="M43.6,206.3v2.1c0,2.3.9,3.1,2.3,3.1,1.6,0,2.3-1,2.3-2.8,0-.2-.1-.4-.3-.4H47c-.2,0-.3.2-.3.4,0,.5,0,1.4-.7,1.4s-.7-.8-.7-1.6v-.4c0-.3,0-.3.3-.3v-.2h2.3a.27.27,0,0,0,.3-.3v-1c0-2.3-.9-3.1-2.3-3.1S43.6,204,43.6,206.3Zm2.4-1.5c.6,0,.7.6.7,1.2,0,.3,0,.3-.3.3h-.8c-.3,0-.3,0-.3-.3C45.3,205.4,45.4,204.8,46,204.8Z"/><path class="cls-1" d="M49.7,203.5a.27.27,0,0,0-.3.3v7.4a.27.27,0,0,0,.3.3h1a.27.27,0,0,0,.3-.3v-4.7c0-.6,0-1.6.7-1.6s.7.9.7,1.6v4.7c0,.2,0,.3.3.3h1a.27.27,0,0,0,.3-.3v-5.4c0-2.3-1.4-2.3-1.6-2.3a1.62,1.62,0,0,0-1.6,1v-.7a.27.27,0,0,0-.3-.3Z"/><path class="cls-1" d="M55,205h.2v3.3c0,2.4.7,3.2,2.5,3.2a.27.27,0,0,0,.3-.3v-.9a.27.27,0,0,0-.3-.3c-.9,0-.9-.7-.9-1.7V205h.5a.27.27,0,0,0,.3-.3v-.9a.27.27,0,0,0-.3-.3h-.5v-1.4a.27.27,0,0,0-.3-.3h-1a.27.27,0,0,0-.3.3v1.4H55c-.3,0-.3.1-.3.3v.9C54.7,204.8,54.7,205,55,205Z"/><path class="cls-1" d="M61.1,203.5a2.21,2.21,0,0,0-2.3,2.5.27.27,0,0,0,.3.3H60a.27.27,0,0,0,.3-.3c0-.4.1-1.1.8-1.1s.6.5.7.7c0,1.3-3.2.5-3.2,3.1v.7a1.83,1.83,0,0,0,2,2.1A2,2,0,0,0,62,211v.2c0,.3.1.3.3.3h.8c.1,0,.3,0,.3-.3v-4.6C63.4,204.3,62.5,203.5,61.1,203.5Zm.6,5.3c0,.7-.1,1.3-.8,1.4s-.8-.9-.8-1.1v-.2c0-.8.7-1,1.6-1.4Z"/><path class="cls-1" d="M59.1,203.1H60a.1.1,0,0,0,.1-.1.54.54,0,0,1,.4-.3c.4,0,.7.4,1.1.4a1.16,1.16,0,0,0,1.3-1.1c0-.1,0-.1-.1-.1h-.9a.1.1,0,0,0-.1.1.54.54,0,0,1-.4.3c-.4,0-.7-.4-1.1-.4A1.16,1.16,0,0,0,59,203C59,203.1,59,203.1,59.1,203.1Z"/><path class="cls-1" d="M64.4,206.5v1.9c0,2.3.9,3.1,2.3,3.1s2.3-.9,2.3-3.1v-1.9c0-2.3-.9-3.1-2.3-3.1S64.4,204.2,64.4,206.5Zm1.6,0c0-.8,0-1.6.7-1.6s.7.8.7,1.6v1.9c0,.8,0,1.6-.7,1.6s-.7-.8-.7-1.6Z"/><path class="cls-1" d="M73.1,206.7v1.6c0,2.4.8,3.2,2.4,3.2h2.1q.45,0,.3-.3V200.6c0-.3-.1-.3-.3-.3h-1c-.1,0-.3,0-.3.3v2.9h-.8C73.9,203.5,73.1,204.3,73.1,206.7Zm3.2-1.6v4.6c0,.3,0,.3-.3.3h-.5c-.8,0-.8-.8-.8-1.6v-1.9c0-.8,0-1.6.8-1.6H76C76.2,204.9,76.3,204.9,76.3,205.1Z"/><path class="cls-1" d="M81.1,203.2c-1.4,0-2.3.8-2.3,3.1v2.1c0,2.3.9,3.1,2.3,3.1,1.6,0,2.3-1,2.3-2.8,0-.2-.1-.4-.3-.4h-.9c-.2,0-.3.2-.3.4,0,.5,0,1.4-.7,1.4s-.7-.8-.7-1.6v-.4c0-.3,0-.3.3-.3v-.2h2.3a.27.27,0,0,0,.3-.3v-1C83.4,204,82.5,203.2,81.1,203.2Zm.5,3.1h-.8c-.3,0-.3,0-.3-.3.1-.6.1-1.2.7-1.2s.7.6.7,1.2C81.9,206.3,81.9,206.3,81.6,206.3Z"/><path class="cls-1" d="M86.7,211.4c1.6,0,2.3-1,2.3-2.8a.27.27,0,0,0-.3-.3h-.9a.27.27,0,0,0-.3.3c0,.5,0,1.4-.7,1.4s-.7-.8-.7-1.6v-2.1c0-.8,0-1.6.7-1.6s.7.9.7,1.4a.27.27,0,0,0,.3.3h.9a.27.27,0,0,0,.3-.3c0-1.8-.7-2.8-2.3-2.8-1.4,0-2.3.8-2.3,3.1v1.9C84.4,210.6,85.3,211.4,86.7,211.4Z"/><path class="cls-1" d="M91.5,203.5h-1a.27.27,0,0,0-.3.3v7.4c0,.3.2.3.3.3h1c.1,0,.3,0,.3-.3v-7.4A.27.27,0,0,0,91.5,203.5Z"/><path class="cls-1" d="M91,201.3a.9.9,0,1,0,.9.9A.9.9,0,0,0,91,201.3Z"/><path class="cls-1" d="M97.4,200.3h-1c-.1,0-.3,0-.3.3v2.9h-.8c-1.6,0-2.4.8-2.4,3.2v1.6c0,2.4.8,3.2,2.4,3.2h2.1a.27.27,0,0,0,.3-.3V200.6C97.7,200.3,97.6,200.3,97.4,200.3Zm-1.3,9.4c0,.3,0,.3-.3.3h-.5c-.8,0-.8-.8-.8-1.6v-1.9c0-.8,0-1.6.8-1.6h.5c.2,0,.3,0,.3.2Z"/><path class="cls-1" d="M100.1,203.5h-1a.27.27,0,0,0-.3.3v7.4c0,.3.1.3.3.3h1c.1,0,.3,0,.3-.3v-7.4A.27.27,0,0,0,100.1,203.5Z"/><path class="cls-1" d="M99.6,201.3a.9.9,0,1,0,.9.9A.9.9,0,0,0,99.6,201.3Z"/><path class="cls-1" d="M101.8,203.4a.27.27,0,0,0-.3.3v7.4c0,.3.1.3.3.3h1c.1,0,.3,0,.3-.3v-4.6c0-.8,0-1.6.8-1.6h.6c.2.1.3-.1.3-.3v-.9a.27.27,0,0,0-.3-.3h-.2a1.58,1.58,0,0,0-1.2.5v-.2a.27.27,0,0,0-.3-.3Z"/><path class="cls-1" d="M105.2,208.4c0,2.3.9,3.1,2.3,3.1,1.6,0,2.3-1,2.3-2.8,0-.2-.1-.4-.3-.4h-.9c-.2,0-.3.2-.3.4,0,.5,0,1.4-.7,1.4s-.7-.8-.7-1.6v-.4c0-.3,0-.3.3-.3v-.2h2.3a.27.27,0,0,0,.3-.3v-1c0-2.3-.9-3.1-2.3-3.1s-2.3.8-2.3,3.1Zm2.4-3.6c.6,0,.7.6.7,1.2,0,.3,0,.3-.3.3h-.8c-.3,0-.3,0-.3-.3C106.9,205.4,107,204.8,107.6,204.8Z"/><path class="cls-1" d="M111.8,201.3a.9.9,0,1,0,.9.9A.9.9,0,0,0,111.8,201.3Z"/><path class="cls-1" d="M112.3,203.5h-1a.27.27,0,0,0-.3.3v7.4c0,.3.1.3.3.3h1c.1,0,.3,0,.3-.3v-7.4A.27.27,0,0,0,112.3,203.5Z"/></g></g></svg>