<svg xmlns="http://www.w3.org/2000/svg" viewBox="0 0 156.6 227.7"><defs><style>.cls-1{fill:#8a73b4;}.cls-2{fill:#fff;}.cls-3{fill:#fcaf17;}.cls-4{fill:#b14c24;}.cls-5{fill:#abe1fa;}.cls-6{fill:#f58220;}.cls-7{fill:#000104;}</style></defs><title>Asset 7</title><g id="Layer_2" data-name="Layer 2"><g id="Layer_1-2" data-name="Layer 1"><path class="cls-1" d="M53.4,43.1a.1.1,0,0,0,.1.1,19.93,19.93,0,0,1,1.6,5.4,26.35,26.35,0,0,1,.2,2.8v.7a.85.85,0,0,0,.2.6V50.1A13.71,13.71,0,0,0,53.4,43.1Z"/><path class="cls-1" d="M55.9,80V64.6h0V80Z"/><path class="cls-1" d="M65.4,177.2H86l-27.2-7.7,3.6,6A4,4,0,0,0,65.4,177.2Z"/><path class="cls-1" d="M138.6,217.4a2,2,0,0,1-2,2H24.1a2,2,0,0,1-2-2V179.2a2,2,0,0,1,2-2H42a3.87,3.87,0,0,0,3-1.8l4.5-8.5L0,152.9v60.6s0,14.2,14.2,14.2H142.4s14.2,0,14.2-14.2h-.1V197.3l-17.9-5.1Z"/><polygon class="cls-1" points="55.7 59.2 55.7 62.3 55.7 62.3 55.7 59.2"/><path class="cls-1" d="M94.5,20.8a1,1,0,0,0-.4.5c.1-.1.2-.1.2-.2S94.4,20.9,94.5,20.8Z"/><path class="cls-1" d="M96.2,36.7A15,15,0,0,1,98,44.3c0,3.4.7,6.1,2.1,7.6a13.29,13.29,0,0,1-1.9-7.6A14.09,14.09,0,0,0,96.2,36.7Z"/><path class="cls-1" d="M81.4,19.2,82,18a2.85,2.85,0,0,0-.8,1.4c0,.1-.1.2-.2.3A1,1,0,0,0,81.4,19.2Z"/><path class="cls-1" d="M156.5,138.4V14.2S156.5,0,142.3,0H14.2S0,0,0,14.2V94.1ZM43.1,65.2a13.33,13.33,0,0,1,.3-2.8,11.84,11.84,0,0,1,2.2-4.5A11.28,11.28,0,0,1,50,55.4a2,2,0,0,0,1.3-1.8V51.3a26.6,26.6,0,0,0-.3-2.8,13.2,13.2,0,0,0-1.4-4.1A19.7,19.7,0,0,0,45.8,40l-.2-.2a8.76,8.76,0,0,1-2.5-5.7,8.89,8.89,0,0,1,2.3-6.4,8.66,8.66,0,0,1,6.2-2.9h.1a.22.22,0,0,0,.2-.2v-.1a8.89,8.89,0,0,1,2.3-6.4,8.66,8.66,0,0,1,6.2-2.9,9.8,9.8,0,0,1,3.9.8,2,2,0,0,0,2.2-.5A10.77,10.77,0,0,1,69,13.4a8.07,8.07,0,0,1,4.6-1.1A10.91,10.91,0,0,1,78.2,14a2.35,2.35,0,0,0,2.3,0s3.1-2,5.7-1.9a8.63,8.63,0,0,1,4.5,1.5,11.1,11.1,0,0,1,1.9,1.8,1.86,1.86,0,0,0,2.1.6,9.5,9.5,0,0,1,3.6-.7,8.93,8.93,0,0,1,8.5,9.3v.1a.22.22,0,0,0,.2.2h.1a8.93,8.93,0,0,1,8.5,9.3c-.1,2.3-2.1,5-2.1,5-.4.6-.8,1.1-.8,1.1l-1,1a17.06,17.06,0,0,0-2.7,3.8,11.35,11.35,0,0,0-1.1,3.3,26.35,26.35,0,0,0-.2,2.8v2.6a2,2,0,0,0,1.4,1.7,13.19,13.19,0,0,1,3,1.2,1.79,1.79,0,0,1,.7.5c1.9,1.6,2.8,5.1,2.8,5.1a26.6,26.6,0,0,1,.3,2.8v1.4a12.61,12.61,0,0,1-.4,2.8s-.9,3.4-2.8,5a11.26,11.26,0,0,1-3.9,2,1.81,1.81,0,0,0-1.3,1.6v2.2a21.82,21.82,0,0,1-.1,2.4,39.27,39.27,0,0,1-1.6,7.8,25.68,25.68,0,0,1-13.3,14c-3.2,1.4-9.2,2.1-9.2,2.1a26.35,26.35,0,0,1-2.8.2h-2a26.35,26.35,0,0,1-2.8-.2s-8.2-1.2-12.1-3.6A25.83,25.83,0,0,1,53.3,90.5a36,36,0,0,1-1.7-8c0-.8-.1-1.8-.1-2.3a4.13,4.13,0,0,0-.1-.9c-.1,0-.1-.6-.1-1.3A1.94,1.94,0,0,0,50,76.3a11.94,11.94,0,0,1-3.5-1.7c-2-1.6-3-5.2-3-5.2a13.51,13.51,0,0,1-.4-2.8Zm-31-50.9c0-.6.2-.8.8-.8h9.4c.6,0,.8.2.8.8v2.4a3.44,3.44,0,0,1-.1.9L18,40.2c-.2.7-.5.8-.9.8H13.8c-.4,0-.7-.2-.6-.8l5.1-21.7c.1-.4-.1-.5-.3-.5H12.9c-.6,0-.8-.2-.8-.8Z"/><path class="cls-2" d="M78.1,159.3c1,0,1-1.2,1-2.4s0-2.4-1-2.4-1,1.2-1,2.4S77.1,159.3,78.1,159.3Z"/><path class="cls-2" d="M0,152.9l49.5,14,2.7-5.1c.5-1,1.4-1,2,0l4.6,7.7L86,177.2h50.6a2,2,0,0,1,2,2v12.9l17.9,5.1V138.4L0,94.2ZM94.9,140c0-.4.1-.6.6-.6h2.3c.4,0,.6.1.6.6v.3a3,3,0,0,1,2.1-.9h.3c.4,0,.6.1.6.6v2.5c0,.4-.1.7-.6.6a3.71,3.71,0,0,0-.9-.2c-1.5,0-1.5,1.5-1.5,3v7.5c0,.6-.3.6-.6.6H95.5c-.3,0-.6,0-.6-.6V140Zm-10.8,9c0-3.9,5.5-3.1,5.5-5.2a.9.9,0,0,0-.9-1.2c-1,0-1,1.2-1,1.4,0,.4-.1.6-.6.6h-2c-.4,0-.6-.1-.6-.6,0-2.5,1.2-4.6,4.2-4.6,2.6,0,4.5,1.3,4.5,5.6v8.4c0,.6-.3.6-.6.6h-2c-.3,0-.6,0-.6-.6V153a2.63,2.63,0,0,1-2.4.9c-2.2,0-3.5-1.2-3.5-3.8V149Zm-10.4-3.9c.1-4.3,1.7-5.6,4.5-5.6a4.64,4.64,0,0,1,2.1.4l1-1c.3-.3.5-.3.8,0l1.2,1.2c.3.3.3.5,0,.8l-1.1,1a11.77,11.77,0,0,1,.5,3.1c-.1,4.1-1.7,5.5-4.5,5.5a8.81,8.81,0,0,1-1.7-.2,1.91,1.91,0,0,0,0,1.3,7.93,7.93,0,0,1,1.7-.2c2.9,0,4.5,1.3,4.5,5.6,0,4.1-1.7,5.5-4.5,5.5s-4.5-1.4-4.5-5.3a8.26,8.26,0,0,1,.6-3.7,5.15,5.15,0,0,1,0-5.1A7.19,7.19,0,0,1,73.7,145.1ZM63.3,145c0-4.1,1.9-5.6,4.5-5.6s4.5,1.5,4.5,5.6v1.6c0,.4-.1.6-.6.6H67.3c-.6,0-.6,0-.6.6v.3c0,1.5,0,2.7,1,2.7s1-1.2,1-2c0-.4.1-.6.6-.6h2.2c.4,0,.6.1.6.6,0,3.3-1.4,5.1-4.3,5.1-2.6,0-4.5-1.5-4.5-5.6ZM58,134.2c0-.4.1-.6.6-.6h2.3c.4,0,.6.1.6.6v19.2c0,.6-.3.6-.6.6H58.6c-.3,0-.6,0-.6-.6ZM47.3,145c0-4.1,1.9-5.6,4.5-5.6s4.5,1.5,4.5,5.6v1.6c0,.4-.1.6-.6.6H51.3c-.6,0-.6,0-.6.6v.3c0,1.5,0,2.7,1,2.7s1-1.2,1-2c0-.4.1-.6.6-.6h2.2c.4,0,.6.1.6.6,0,3.3-1.4,5.1-4.3,5.1-2.6,0-4.5-1.5-4.5-5.6ZM37.1,133.6h4.1c2.9,0,4.4,1.5,4.4,5.8v8.7c0,4.4-1.5,5.8-4.4,5.8H37.1c-.4,0-.6-.1-.6-.6V134.2C36.5,133.8,36.6,133.6,37.1,133.6Z"/><path class="cls-2" d="M78.1,147.4c1,0,1-1.2,1-2.4s0-2.4-1-2.4-1,1.2-1,2.4S77.1,147.4,78.1,147.4Z"/><path class="cls-2" d="M40.6,150.7c1.5,0,1.5-1.5,1.5-3v-8.1c0-1.5,0-3-1.5-3-.6.2-.6.2-.6.7v12.8C40,150.7,40,150.7,40.6,150.7Z"/><path class="cls-2" d="M88.8,150.9c1-.1,1-1.1,1-1.8v-1.7c-1.6.7-2,1-2,2.1C87.8,149.9,87.8,150.9,88.8,150.9Z"/><path class="cls-2" d="M67.4,144.6h.9c.6,0,.6,0,.6-.6,0-.2,0-1.4-1-1.4s-1.1,1.2-1.1,1.4C66.8,144.6,66.8,144.6,67.4,144.6Z"/><path class="cls-2" d="M51.3,144.6h.9c.6,0,.6,0,.6-.6,0-.2,0-1.4-1-1.4s-1.1,1.2-1.1,1.4C50.7,144.6,50.7,144.6,51.3,144.6Z"/><path class="cls-2" d="M12.9,18H18c.2,0,.4.1.3.5L13.2,40.2c-.1.6.2.8.6.8h3.3c.4,0,.7-.1.9-.8l5-22.6a3.44,3.44,0,0,0,.1-.9V14.3c0-.6-.2-.8-.8-.8H12.9c-.6,0-.8.2-.8.8v2.9C12.1,17.8,12.3,18,12.9,18Z"/><path class="cls-3" d="M48.8,71.1a3.75,3.75,0,0,0,1.3.9.88.88,0,0,0,1.3-.9V60.8a.88.88,0,0,0-1.3-.9,4.87,4.87,0,0,0-1.2.8,3.4,3.4,0,0,0-1.2,1.8,26.6,26.6,0,0,0-.3,2.8v1.4a12.61,12.61,0,0,0,.4,2.8A3.84,3.84,0,0,0,48.8,71.1Z"/><path class="cls-3" d="M55.9,80a26.2,26.2,0,0,0,.1,2.8,24.67,24.67,0,0,0,.8,4.6,20.91,20.91,0,0,0,3.5,6.8,21.38,21.38,0,0,0,11,7.6,24.67,24.67,0,0,0,4.6.8,26.2,26.2,0,0,0,2.8.1h2a26.35,26.35,0,0,0,2.8-.2s6.2-.8,9.3-2.6A21.39,21.39,0,0,0,102,89.4a28.71,28.71,0,0,0,1.4-6.5c0-.8.1-2,.1-2.8V59.5a1.72,1.72,0,0,0-1.4-1.7,9.53,9.53,0,0,1-3.8-1.9c-2.7-2.3-4.1-6.1-4.1-11.3a13.11,13.11,0,0,0-1.4-5.5,1.47,1.47,0,0,0-1.9-.7s-6.6,2.9-11.4,2.9-11.4-2.9-11.4-2.9a1.51,1.51,0,0,0-1.9.7,12.4,12.4,0,0,0-1.4,5.4c0,5.2-1.4,9-4.1,11.3a9.35,9.35,0,0,1-3.6,1.8,1.81,1.81,0,0,0-1.4,1.7v3.1a9.44,9.44,0,0,0,.1,1.4c.1,0,.1.3.1.8h0V80Zm38.3,3.5s-1.1,5.4-3.4,8a15.31,15.31,0,0,1-11.4,5.4A15.68,15.68,0,0,1,67,90.3c-1.6-2.3-2.4-6.7-2.4-6.7a21.16,21.16,0,0,1-.2-2.4c0-.6.7-1.1,1.4-1.2H93.1a1.27,1.27,0,0,1,1.4,1.1A11.21,11.21,0,0,1,94.2,83.5ZM92.9,56.2a6.7,6.7,0,1,1-6.7,6.7A6.7,6.7,0,0,1,92.9,56.2ZM78,60.7l.3-.2a2.17,2.17,0,0,1,2.2,0l.3.2c.2.4.7,1.2,1.1,1.9L88,73.9A13.09,13.09,0,0,1,89,76l-.1.5c-.1.2-.2.5-.3.7a2.19,2.19,0,0,1-1,.9l-.2.1a9.23,9.23,0,0,1-1.9.1h-12a15.16,15.16,0,0,1-2.3-.2l-.4-.3a2.65,2.65,0,0,1-.5-.6,4.18,4.18,0,0,1-.4-1v-.4a10.14,10.14,0,0,1,.9-1.9l6.1-11.3A7.94,7.94,0,0,1,78,60.7ZM66.3,56.1a6.7,6.7,0,1,1-6.7,6.7A6.7,6.7,0,0,1,66.3,56.1Z"/><path class="cls-3" d="M107.8,60.9V71.3c0,.8.6,1.1,1.3.8a6,6,0,0,0,2.2-1.8l.4-.7a26.35,26.35,0,0,0,.2-2.8h0V65.4a13.33,13.33,0,0,0-.3-2.8,3.84,3.84,0,0,0-1-1.6,4.72,4.72,0,0,0-1.5-1A.88.88,0,0,0,107.8,60.9Z"/><path class="cls-4" d="M81,19.7a2.17,2.17,0,0,1-1.7,1.1,2.05,2.05,0,0,1-1.9-1.3,4.63,4.63,0,0,0-8.9,1.2,2,2,0,0,1-1.6,1.8,2.17,2.17,0,0,1-2.2-.9,4.59,4.59,0,0,0-4.1-2.1A4.41,4.41,0,0,0,57.4,21a4.9,4.9,0,0,0-1.2,3.4,5.68,5.68,0,0,0,.7,2.2,2.11,2.11,0,0,1-.2,2.5,2.15,2.15,0,0,1-2.5.5,4.56,4.56,0,0,0-2.3-.5,4.41,4.41,0,0,0-3.2,1.5A4.9,4.9,0,0,0,47.5,34a4.81,4.81,0,0,0,.5,1.8,11.79,11.79,0,0,0,1.8,2.1,15.35,15.35,0,0,1,3.6,5.2,14.74,14.74,0,0,1,2.1,7v2.6a1,1,0,0,0,1.1.4s.2,0,1-.7c1.7-1.5,2.6-4.3,2.6-8.1,0-4.9,1.6-8.7,4.8-11.1a2.11,2.11,0,0,1,2.6.1c2.7,2.3,7,3.6,11.5,3.6a18.77,18.77,0,0,0,11.5-3.6,2,2,0,0,1,2.6-.1,9.22,9.22,0,0,1,3,3.5,13.85,13.85,0,0,1,2,7.6,13.29,13.29,0,0,0,1.9,7.6c.2.2.3.4.5.5a5.45,5.45,0,0,0,1.2.8c.8.1,1.4-.3,1.4-1.1v-1a26.35,26.35,0,0,1,.2-2.8,20.39,20.39,0,0,1,1.5-5.1,19.7,19.7,0,0,1,4.1-5.5,9.09,9.09,0,0,0,1.8-2.1,2.68,2.68,0,0,0,.4-1.6,4.7,4.7,0,0,0-4.5-4.9,5.93,5.93,0,0,0-2.3.5,2.1,2.1,0,0,1-2.7-3,4.39,4.39,0,0,0,.7-2.2,4.74,4.74,0,0,0-7.9-3.7c-.1.1-.1.2-.2.3l-.2.2-.1.1a2.1,2.1,0,0,1-2.2.8,2,2,0,0,1-1.6-1.7A4.71,4.71,0,0,0,82,18a3.38,3.38,0,0,0-.6,1.2A1,1,0,0,1,81,19.7Z"/><circle class="cls-5" cx="66.4" cy="62.8" r="2.5"/><path class="cls-5" d="M92.9,65.3a2.46,2.46,0,0,0,2.4-2.5,2.39,2.39,0,0,0-2.4-2.5,2.5,2.5,0,0,0,0,5Z"/><path class="cls-2" d="M89.4,84.3h0l-2,.1h-18c-.2,0-.3.2-.2.5l.1.2.1.2a.82.82,0,0,0,.6.4H89c.2,0,.4-.2.5-.5l.1-.2.1-.2A.35.35,0,0,0,89.4,84.3Z"/><path class="cls-2" d="M85.3,90.7c.6-.5.5-.9-.3-.9H73.9c-.8,0-.9.4-.3.9a9.48,9.48,0,0,0,2.5,1.4,9.74,9.74,0,0,0,3.4.6,9,9,0,0,0,4-.9A8.3,8.3,0,0,0,85.3,90.7Z"/><path class="cls-6" d="M77,74h5c.7,0,1.1-.5.7-1.2L80.1,68c-.3-.7-.9-.7-1.3,0l-2.5,4.8C75.9,73.4,76.2,74,77,74Z"/><path d="M66.3,69.5a6.7,6.7,0,1,0-6.7-6.7A6.7,6.7,0,0,0,66.3,69.5Zm.1-9.2a2.5,2.5,0,1,1-2.5,2.5A2.48,2.48,0,0,1,66.4,60.3Z"/><path d="M92.9,69.6a6.7,6.7,0,1,0-6.7-6.7A6.7,6.7,0,0,0,92.9,69.6Zm0-9.3a2.39,2.39,0,0,1,2.4,2.5,2.45,2.45,0,1,1-2.4-2.5Z"/><path d="M46.5,74.6A11.94,11.94,0,0,0,50,76.3,1.94,1.94,0,0,1,51.3,78c0,.7,0,1.3.1,1.3a4.13,4.13,0,0,1,.1.9c0,.5.1,1.5.1,2.3a36,36,0,0,0,1.7,8,25.83,25.83,0,0,0,10.3,12.3c3.9,2.4,12.1,3.6,12.1,3.6a26.35,26.35,0,0,0,2.8.2h2a26.35,26.35,0,0,0,2.8-.2s6-.7,9.2-2.1a25.68,25.68,0,0,0,13.3-14,39.27,39.27,0,0,0,1.6-7.8,21.82,21.82,0,0,0,.1-2.4V77.9a1.81,1.81,0,0,1,1.3-1.6,11.26,11.26,0,0,0,3.9-2c1.9-1.6,2.8-5,2.8-5a12.61,12.61,0,0,0,.4-2.8V65.1a26.6,26.6,0,0,0-.3-2.8s-.9-3.5-2.8-5.1a1.79,1.79,0,0,0-.7-.5,13.19,13.19,0,0,0-3-1.2,2,2,0,0,1-1.4-1.7V51.2a26.35,26.35,0,0,1,.2-2.8,11.35,11.35,0,0,1,1.1-3.3,17.06,17.06,0,0,1,2.7-3.8l1-1s.4-.5.8-1.1c0,0,2-2.7,2.1-5a8.93,8.93,0,0,0-8.5-9.3H107a.22.22,0,0,1-.2-.2v-.1a8.93,8.93,0,0,0-8.5-9.3,9.5,9.5,0,0,0-3.6.7,1.86,1.86,0,0,1-2.1-.6,11.1,11.1,0,0,0-1.9-1.8,8.63,8.63,0,0,0-4.5-1.5C83.6,12,80.5,14,80.5,14a2.35,2.35,0,0,1-2.3,0,10.91,10.91,0,0,0-4.6-1.7A8.07,8.07,0,0,0,69,13.4a10.77,10.77,0,0,0-2.5,2.1,2,2,0,0,1-2.2.5,9.8,9.8,0,0,0-3.9-.8,8.66,8.66,0,0,0-6.2,2.9,8.89,8.89,0,0,0-2.3,6.4v.1a.22.22,0,0,1-.2.2h-.1a8.66,8.66,0,0,0-6.2,2.9,8.89,8.89,0,0,0-2.3,6.4,8.76,8.76,0,0,0,2.5,5.7l.2.2a19.7,19.7,0,0,1,3.8,4.4A13.2,13.2,0,0,1,51,48.5a26.6,26.6,0,0,1,.3,2.8v2.3A2,2,0,0,1,50,55.4a11.28,11.28,0,0,0-4.4,2.5,11.84,11.84,0,0,0-2.2,4.5,13.33,13.33,0,0,0-.3,2.8v1.4a13.51,13.51,0,0,0,.4,2.8S44.5,73,46.5,74.6Zm.9-9.3a26.6,26.6,0,0,1,.3-2.8,3.4,3.4,0,0,1,1.2-1.8,4.87,4.87,0,0,1,1.2-.8.88.88,0,0,1,1.3.9V71.1a.88.88,0,0,1-1.3.9,3.75,3.75,0,0,1-1.3-.9,3.84,3.84,0,0,1-1-1.6,12.61,12.61,0,0,1-.4-2.8ZM109.1,60a4.72,4.72,0,0,1,1.5,1,3.84,3.84,0,0,1,1,1.6,13.33,13.33,0,0,1,.3,2.8v1.4h0a26.35,26.35,0,0,1-.2,2.8l-.4.7a6,6,0,0,1-2.2,1.8c-.7.3-1.3,0-1.3-.8V60.9A.88.88,0,0,1,109.1,60ZM55.9,64.5c0-.5,0-.8-.1-.8a9.44,9.44,0,0,1-.1-1.4h0V59.2h0a1.81,1.81,0,0,1,1.4-1.7,9.35,9.35,0,0,0,3.6-1.8c2.7-2.3,4.1-6.1,4.1-11.3A12.4,12.4,0,0,1,66.2,39a1.51,1.51,0,0,1,1.9-.7s6.6,2.9,11.4,2.9,11.4-2.9,11.4-2.9a1.47,1.47,0,0,1,1.9.7,13.11,13.11,0,0,1,1.4,5.5c0,5.2,1.4,9,4.1,11.3a9.53,9.53,0,0,0,3.8,1.9,1.72,1.72,0,0,1,1.4,1.7V80c0,.8-.1,2-.1,2.8a28.71,28.71,0,0,1-1.4,6.5,21.39,21.39,0,0,1-9.2,10.5c-3.1,1.8-9.3,2.6-9.3,2.6a26.35,26.35,0,0,1-2.8.2h-2a26.2,26.2,0,0,1-2.8-.1,24.67,24.67,0,0,1-4.6-.8,21.38,21.38,0,0,1-11-7.6,20.91,20.91,0,0,1-3.5-6.8,24.67,24.67,0,0,1-.8-4.6,26.2,26.2,0,0,1-.1-2.8h0V64.5ZM82,18a4.48,4.48,0,0,1,3.8-1.6,4.69,4.69,0,0,1,4.4,4,2,2,0,0,0,1.6,1.7,2.1,2.1,0,0,0,2.2-.8l.1-.1c.1-.2.3-.3.4-.5a4.6,4.6,0,0,1,3.4-1.2,4.7,4.7,0,0,1,4.5,4.9,4.39,4.39,0,0,1-.7,2.2,2.1,2.1,0,0,0,2.7,3,5.93,5.93,0,0,1,2.3-.5,4.7,4.7,0,0,1,4.5,4.9,2.68,2.68,0,0,1-.4,1.6,9.09,9.09,0,0,1-1.8,2.1,19.7,19.7,0,0,0-4.1,5.5,20.39,20.39,0,0,0-1.5,5.1,26.35,26.35,0,0,0-.2,2.8v1c0,.8-.6,1.2-1.4,1.1a5.45,5.45,0,0,1-1.2-.8c-.2-.1-.3-.3-.5-.5-1.4-1.5-2.1-4.2-2.1-7.6a15,15,0,0,0-1.8-7.6,12.66,12.66,0,0,0-3-3.5,2,2,0,0,0-2.6.1,18.77,18.77,0,0,1-11.5,3.6c-4.5,0-8.8-1.3-11.5-3.6a2.11,2.11,0,0,0-2.6-.1c-3.2,2.4-4.8,6.2-4.8,11.1,0,3.8-.9,6.6-2.6,8.1-.8.7-1,.7-1,.7a.9.9,0,0,1-1.1-.4,1.42,1.42,0,0,1-.2-.6v-.7a26.35,26.35,0,0,0-.2-2.8,19.93,19.93,0,0,0-1.6-5.4.1.1,0,0,0-.1-.1,15.35,15.35,0,0,0-3.6-5.2A11.79,11.79,0,0,1,48,35.8a4.81,4.81,0,0,1-.5-1.8,4.9,4.9,0,0,1,1.2-3.4,4.41,4.41,0,0,1,3.2-1.5,4.56,4.56,0,0,1,2.3.5,2.15,2.15,0,0,0,2.5-.5,2.11,2.11,0,0,0,.2-2.5,5.68,5.68,0,0,1-.7-2.2A4.9,4.9,0,0,1,57.4,21a4.41,4.41,0,0,1,3.2-1.5,4.59,4.59,0,0,1,4.1,2.1,2.17,2.17,0,0,0,2.2.9,2,2,0,0,0,1.6-1.8,4.63,4.63,0,0,1,8.9-1.2,2.05,2.05,0,0,0,1.9,1.3A1.91,1.91,0,0,0,81,19.7c.1-.1.1-.2.2-.3A6.38,6.38,0,0,1,82,18Z"/><path d="M93.1,80H65.8c-.7.1-1.4.6-1.4,1.2a21.16,21.16,0,0,0,.2,2.4s.8,4.4,2.4,6.7a15.68,15.68,0,0,0,12.4,6.6,15.31,15.31,0,0,0,11.4-5.4c2.3-2.6,3.4-8,3.4-8a11.21,11.21,0,0,0,.3-2.4A1.27,1.27,0,0,0,93.1,80Zm-17,12.1a9.48,9.48,0,0,1-2.5-1.4c-.6-.5-.5-.9.3-.9H85c.8,0,.9.4.3.9a8.3,8.3,0,0,1-1.8,1.1,9,9,0,0,1-4,.9A9.74,9.74,0,0,1,76.1,92.1Zm13.6-7.3-.1.2-.1.2c-.1.3-.3.5-.5.5H70a.82.82,0,0,1-.6-.4l-.1-.2-.1-.2c-.1-.3,0-.5.2-.5h20v-.1A.35.35,0,0,1,89.7,84.8Z"/><path d="M69.9,75.8v.4a4.18,4.18,0,0,0,.4,1,2.65,2.65,0,0,0,.5.6l.4.3a15.16,15.16,0,0,0,2.3.2h12a9.23,9.23,0,0,0,1.9-.1l.2-.1a2.19,2.19,0,0,0,1-.9c.1-.2.2-.5.3-.7L89,76a13.09,13.09,0,0,0-1-2.1L81.9,62.6c-.4-.7-.9-1.5-1.1-1.9l-.3-.2a2.17,2.17,0,0,0-2.2,0l-.3.2a7.94,7.94,0,0,0-1.1,1.9L70.8,73.9A10.14,10.14,0,0,0,69.9,75.8Zm6.4-3L78.8,68c.4-.7,1-.7,1.3,0l2.6,4.8c.4.7,0,1.2-.7,1.2H77C76.2,74,75.9,73.4,76.3,72.8Z"/><path class="cls-7" d="M37.1,153.9h4.1c2.9,0,4.4-1.4,4.4-5.8v-8.7c0-4.3-1.5-5.8-4.4-5.8H37.1c-.5,0-.6.2-.6.6v19.1C36.5,153.8,36.7,153.9,37.1,153.9ZM40,137.3c0-.5,0-.5.6-.7,1.5,0,1.5,1.5,1.5,3v8.1c0,1.5,0,3-1.5,3-.6,0-.6,0-.6-.6Z"/><path class="cls-7" d="M51.8,153.9c2.9,0,4.3-1.8,4.3-5.1,0-.5-.2-.6-.6-.6H53.3c-.5,0-.6.2-.6.6,0,.8,0,2-1,2s-1-1.2-1-2.7v-.3c0-.6,0-.6.6-.6h4.4c.5,0,.6-.2.6-.6V145c0-4.1-1.9-5.6-4.5-5.6s-4.5,1.5-4.5,5.6v3.3C47.3,152.4,49.2,153.9,51.8,153.9Zm0-11.3c1,0,1,1.2,1,1.4,0,.6,0,.6-.6.6h-.9c-.6,0-.6,0-.6-.6C50.7,143.8,50.7,142.6,51.8,142.6Z"/><path class="cls-7" d="M58.6,154h2.3c.3,0,.6,0,.6-.6V134.2c0-.5-.2-.6-.6-.6H58.6c-.5,0-.6.2-.6.6v19.2C58,154,58.3,154,58.6,154Z"/><path class="cls-7" d="M67.8,153.9c2.9,0,4.3-1.8,4.3-5.1,0-.5-.2-.6-.6-.6H69.3c-.5,0-.6.2-.6.6,0,.8,0,2-1,2s-1-1.2-1-2.7v-.3c0-.6,0-.6.6-.6h4.4c.5,0,.6-.2.6-.6V145c0-4.1-1.9-5.6-4.5-5.6s-4.5,1.5-4.5,5.6v3.3C63.3,152.4,65.2,153.9,67.8,153.9Zm.1-11.3c1,0,1,1.2,1,1.4,0,.6,0,.6-.6.6h-.9c-.6,0-.6,0-.6-.6C66.8,143.8,66.8,142.6,67.9,142.6Z"/><path class="cls-7" d="M74.3,153.5a8.26,8.26,0,0,0-.6,3.7c0,3.9,1.6,5.3,4.5,5.3s4.5-1.4,4.5-5.5c0-4.3-1.6-5.6-4.5-5.6a7.93,7.93,0,0,0-1.7.2,1.91,1.91,0,0,1,0-1.3,8.81,8.81,0,0,0,1.7.2c2.8,0,4.4-1.4,4.5-5.5a11.77,11.77,0,0,0-.5-3.1l1.1-1c.3-.3.3-.5,0-.8l-1.2-1.2c-.3-.3-.5-.3-.8,0l-1,1a4.64,4.64,0,0,0-2.1-.4c-2.8,0-4.4,1.3-4.5,5.6a7.19,7.19,0,0,0,.6,3.3A5.15,5.15,0,0,0,74.3,153.5Zm3.8,1c1,0,1,1.3,1,2.4s0,2.4-1,2.4-1-1.2-1-2.4S77.1,154.5,78.1,154.5Zm0-11.9c1,0,1,1.2,1,2.4s0,2.4-1,2.4-1-1.2-1-2.4S77.1,142.6,78.1,142.6Z"/><path class="cls-7" d="M87.6,153.9A2.63,2.63,0,0,0,90,153v.4c0,.6.3.6.6.6h2c.3,0,.6,0,.6-.6V145c0-4.3-1.9-5.6-4.5-5.6-3,0-4.2,2.1-4.2,4.6,0,.5.2.6.6.6h2c.5,0,.6-.2.6-.6,0-.2,0-1.4,1-1.4a.9.9,0,0,1,.9,1.2c0,2.1-5.5,1.3-5.5,5.2v1.1C84.1,152.7,85.4,153.9,87.6,153.9Zm2.2-6.5v1.7c0,.7,0,1.7-1,1.8s-1-1-1-1.4C87.8,148.4,88.2,148.1,89.8,147.4Z"/><path class="cls-7" d="M95.5,154h2.3c.3,0,.6,0,.6-.6v-7.5c0-1.5,0-3,1.5-3a3.71,3.71,0,0,1,.9.2c.5.1.6-.2.6-.6V140c0-.5-.2-.6-.6-.6h-.3a3,3,0,0,0-2.1.9V140c0-.5-.2-.6-.6-.6H95.5c-.5,0-.6.2-.6.6v13.4C94.9,154,95.2,154,95.5,154Z"/><path d="M92,194.1c.6-.1.7-.7.8-1.4v-1.3c-.9.4-1.6.6-1.6,1.4v.2C91.2,193.2,91.2,194.1,92,194.1Z"/><path d="M49.9,210c.7,0,.7-.8.7-1.6v-1.9c0-.8,0-1.6-.7-1.6s-.7.8-.7,1.6v1.9C49.2,209.2,49.2,210,49.9,210Z"/><path d="M101.1,190.2h.8c.3,0,.3,0,.3-.3,0-.6-.1-1.2-.7-1.2s-.7.6-.7,1.2C100.8,190.2,100.8,190.2,101.1,190.2Z"/><path d="M110.9,204.8c-.6,0-.6.6-.7,1.2,0,.3,0,.3.3.3h.8c.3,0,.3,0,.3-.3C111.6,205.4,111.5,204.8,110.9,204.8Z"/><path d="M72,190.2h.8c.3,0,.3,0,.3-.3,0-.6-.1-1.2-.7-1.2s-.7.6-.7,1.2C71.7,190.2,71.7,190.2,72,190.2Z"/><path d="M72.5,204.8c-.6,0-.6.6-.7,1.2,0,.3,0,.3.3.3h.8c.3,0,.3,0,.3-.3C73.2,205.4,73.1,204.8,72.5,204.8Z"/><path d="M80.9,208.9v.2c0,.2,0,1.1.8,1.1.7-.2.7-.8.8-1.4v-1.3C81.6,207.9,80.9,208.1,80.9,208.9Z"/><path d="M96,204.8c-.6,0-.6.6-.7,1.2,0,.3,0,.3.3.3h.8c.3,0,.3,0,.3-.3C96.7,205.4,96.6,204.8,96,204.8Z"/><path d="M64.3,210.1c.8-.1.8-.9.8-1.7v-1.9c0-.8,0-1.6-.8-1.6s-.8.8-.8,1.6v2.3C63.5,209.5,63.6,210.1,64.3,210.1Z"/><path d="M86.4,198.6c.8,0,.8-.8.8-1.6s0-1.6-.8-1.6-.8.8-.8,1.6S85.6,198.6,86.4,198.6Z"/><path d="M66.7,193.8h.5c.3,0,.3,0,.3-.3v-4.6c0-.2-.1-.2-.3-.2h-.5c-.8,0-.8.8-.8,1.6v1.9C65.9,193,65.9,193.8,66.7,193.8Z"/><path d="M86.4,192c.8,0,.8-.8.8-1.6s0-1.6-.8-1.6-.8.8-.8,1.6S85.6,192,86.4,192Z"/><path d="M80.2,190.2H81c.3,0,.3,0,.3-.3,0-.6-.1-1.2-.7-1.2s-.7.6-.7,1.2C79.9,190.2,79.9,190.2,80.2,190.2Z"/><path d="M136.6,177.2H65.4a4,4,0,0,1-3-1.7l-3.6-6-4.6-7.7c-.6-1-1.5-1-2,0l-2.7,5.1L45,175.4a3.87,3.87,0,0,1-3,1.8H24.1a2,2,0,0,0-2,2v38.2a2,2,0,0,0,2,2H136.6a2,2,0,0,0,2-2V179.2A2,2,0,0,0,136.6,177.2ZM69.1,195.1a.27.27,0,0,1-.3.3H66.7c-1.6,0-2.4-.8-2.4-3.2v-1.6c0-2.4.8-3.2,2.4-3.2h.8v-2.9c0-.3.2-.3.3-.3h1c.2,0,.3,0,.3.3Zm.2,5.4v10.6c0,.3-.2.3-.3.3H68c-.2.1-.3.1-.3-.3V200.5a.27.27,0,0,1,.3-.3h1A.27.27,0,0,1,69.3,200.5Zm3.3,9.5c.7,0,.7-.9.7-1.4,0-.2.1-.4.3-.4h.9c.2,0,.3.2.3.4,0,1.8-.7,2.8-2.3,2.8-1.4,0-2.3-.8-2.3-3.1v-2.1c0-2.3.9-3.1,2.3-3.1s2.3.8,2.3,3.1v1a.27.27,0,0,1-.3.3H72.2v.2c-.3,0-.3,0-.3.3v.4C71.9,209.2,71.9,210,72.6,210Zm2-18.9a.27.27,0,0,1-.3.3H72v.2c-.3,0-.3,0-.3.3v.4c0,.8,0,1.6.7,1.6s.7-.9.7-1.4c0-.2.1-.4.3-.4h.9c.2,0,.3.2.3.4,0,1.8-.7,2.8-2.3,2.8-1.4,0-2.3-.8-2.3-3.1v-2.1c0-2.3.9-3.1,2.3-3.1s2.3.8,2.3,3.1v1Zm1.3,12.3V202a.27.27,0,0,1,.3-.3h1a.27.27,0,0,1,.3.3v1.4H78a.27.27,0,0,1,.3.3v.9a.27.27,0,0,1-.3.3h-.5v3.3c0,1,0,1.7.9,1.7a.27.27,0,0,1,.3.3v.9a.27.27,0,0,1-.3.3c-1.8,0-2.5-.8-2.5-3.2v-3.3h-.2c-.3,0-.3-.2-.3-.3v-.9c0-.1,0-.3.3-.3Zm-.2-8.3V184.5a.27.27,0,0,1,.3-.3h1a.27.27,0,0,1,.3.3v10.6c0,.3-.2.3-.3.3H76C75.9,195.4,75.7,195.4,75.7,195.1Zm8.3-4.7v-.1c0-2.3.8-3,2.4-3a3.59,3.59,0,0,1,1.1.2l.5-.5c.2-.2.3-.2.4,0l.6.6c.2.2.2.3,0,.5l-.5.5a4.18,4.18,0,0,1,.3,1.8c0,2.3-.8,3.1-2.4,3.1a3.73,3.73,0,0,1-1.2-.2.6.6,0,0,0-.1.4.9.9,0,0,0,.1.5,3.73,3.73,0,0,1,1.2-.2c1.6,0,2.4.8,2.4,3s-.8,3.1-2.4,3.1-2.4-.8-2.4-3V197a6.27,6.27,0,0,1,.2-1.6,2.18,2.18,0,0,1-.5-1.7,2.86,2.86,0,0,1,.5-1.7A6.27,6.27,0,0,1,84,190.4Zm8.1-1.6c-.7,0-.8.7-.8,1.1a.27.27,0,0,1-.3.3h-.9a.27.27,0,0,1-.3-.3,2.21,2.21,0,0,1,2.3-2.5c1.4,0,2.3.8,2.3,3.1v4.6c0,.3-.2.3-.3.3h-.8c-.2,0-.3,0-.3-.3v-.2a2,2,0,0,1-1.4.5,1.83,1.83,0,0,1-2-2.1v-.7c0-2.6,3.2-1.8,3.2-3.1A.67.67,0,0,0,92.1,188.8Zm6-1.5h.2a.27.27,0,0,1,.3.3v.9c0,.2-.1.4-.3.3h-.6c-.8,0-.8.8-.8,1.6V195c0,.3-.2.3-.3.3h-1c-.2,0-.3,0-.3-.3v-7.4a.27.27,0,0,1,.3-.3h1a.27.27,0,0,1,.3.3v.2A1.58,1.58,0,0,1,98.1,187.3ZM96,203.1c1.4,0,2.3.8,2.3,3.1v1a.27.27,0,0,1-.3.3H95.7v.2c-.3,0-.3,0-.3.3v.4c0,.8,0,1.6.7,1.6s.7-.9.7-1.4c0-.2.1-.4.3-.4H98c.2,0,.3.2.3.4,0,1.8-.7,2.8-2.3,2.8-1.4,0-2.3-.8-2.3-3.1v-2.1C93.7,203.9,94.6,203.1,96,203.1Zm-4.8.4c.2,0,1.6,0,1.6,2.3v5.4a.27.27,0,0,1-.3.3h-1c-.3,0-.3-.1-.3-.4v-4.7c0-.7,0-1.6-.7-1.6s-.7,1-.7,1.6v4.7a.27.27,0,0,1-.3.3h-1a.27.27,0,0,1-.3-.3v-4.7c0-.7,0-1.6-.7-1.6s-.7,1-.7,1.6v4.7a.27.27,0,0,1-.3.3h-1a.27.27,0,0,1-.3-.3v-7.4a.27.27,0,0,1,.3-.3h.8a.27.27,0,0,1,.3.3v.7a1.62,1.62,0,0,1,1.6-1,1.36,1.36,0,0,1,1.4,1.1A1.62,1.62,0,0,1,91.2,203.5Zm-7.1,3.1v4.6c0,.3-.2.3-.3.3H83c-.2,0-.3,0-.3-.3V211a2,2,0,0,1-1.4.5,1.83,1.83,0,0,1-2-2.1v-.7c0-2.6,3.2-1.8,3.2-3.1a.67.67,0,0,0-.7-.7c-.7,0-.8.7-.8,1.1a.27.27,0,0,1-.3.3h-.9a.27.27,0,0,1-.3-.3,2.21,2.21,0,0,1,2.3-2.5C83.2,203.5,84.1,204.3,84.1,206.6Zm-1.3-15.5a.27.27,0,0,1-.3.3H80.2v.2c-.3,0-.3,0-.3.3v.4c0,.8,0,1.6.7,1.6s.7-.9.7-1.4c0-.2.1-.4.3-.4h.9c.2,0,.3.2.3.4,0,1.8-.7,2.8-2.3,2.8-1.4,0-2.3-.8-2.3-3.1v-2.1c0-2.3.9-3.1,2.3-3.1s2.3.8,2.3,3.1v1Zm18.9,13.7c-.7,0-.7,1-.7,1.6v4.7a.27.27,0,0,1-.3.3h-1a.27.27,0,0,1-.3-.3v-7.4a.27.27,0,0,1,.3-.3h.8a.27.27,0,0,1,.3.3v.7a1.62,1.62,0,0,1,1.6-1c.2,0,1.6,0,1.6,2.3v5.4a.27.27,0,0,1-.3.3h-1q-.3.15-.3-.3v-4.7C102.4,205.7,102.4,204.8,101.7,204.8Zm2-13.7a.27.27,0,0,1-.3.3h-2.3v.2c-.3,0-.3,0-.3.3v.4c0,.8,0,1.6.7,1.6s.7-.9.7-1.4c0-.2.1-.4.3-.4h.9c.2,0,.3.2.3.4,0,1.8-.7,2.8-2.3,2.8-1.4,0-2.3-.8-2.3-3.1v-2.1c0-2.3.9-3.1,2.3-3.1s2.3.8,2.3,3.1v1Zm2-4.1a.9.9,0,1,1,.9-.9A.9.9,0,0,1,105.7,187Zm.8.7v7.4c0,.3-.2.3-.3.3h-1c-.2,0-.3,0-.3-.3v-7.4a.27.27,0,0,1,.3-.3h1A.27.27,0,0,1,106.5,187.7Zm-1.4,15.7h.2V202a.27.27,0,0,1,.3-.3h1a.27.27,0,0,1,.3.3v1.4h.5a.27.27,0,0,1,.3.3v.9a.27.27,0,0,1-.3.3h-.5v3.3c0,1,0,1.7.9,1.7a.27.27,0,0,1,.3.3v.9a.27.27,0,0,1-.3.3c-1.8,0-2.5-.8-2.5-3.2v-3.3h-.2c-.3,0-.3-.2-.3-.3v-.9C104.7,203.6,104.7,203.4,105.1,203.4Zm8.1,3.8a.27.27,0,0,1-.3.3h-2.3v.2c-.3,0-.3,0-.3.3v.4c0,.8,0,1.6.7,1.6s.7-.9.7-1.4c0-.2.1-.4.3-.4h.9c.2,0,.3.2.3.4,0,1.8-.7,2.8-2.3,2.8-1.4,0-2.3-.8-2.3-3.1v-2.1c0-2.3.9-3.1,2.3-3.1s2.3.8,2.3,3.1v1Zm-71.3-.8c0-2.3.9-3.1,2.3-3.1,1.6,0,2.3,1,2.3,2.8a.27.27,0,0,1-.3.3h-.8a.27.27,0,0,1-.3-.3c0-.5,0-1.4-.7-1.4s-.7.8-.7,1.6v2.1h-.1c0,.8,0,1.6.7,1.6s.7-.9.7-1.4a.27.27,0,0,1,.3-.3h.9a.27.27,0,0,1,.3.3c0,1.8-.7,2.8-2.3,2.8-1.4,0-2.3-.8-2.3-3.1Zm15.1-11c-.2,0-1.6,0-1.6-2.3v-5.4a.27.27,0,0,1,.3-.3h1a.27.27,0,0,1,.3.3v4.7c0,.7,0,1.6.7,1.6s.7-1,.7-1.6v-4.7a.27.27,0,0,1,.3-.3h1a.27.27,0,0,1,.3.3v7.4a.27.27,0,0,1-.3.3h-.8a.27.27,0,0,1-.3-.3v-.7A1.62,1.62,0,0,1,57,195.4Zm-2.5-10.9v.9a.27.27,0,0,1-.3.3H52.4c-.3,0-.3,0-.3.3v2.4c0,.3,0,.3.3.3h1.8a.27.27,0,0,1,.3.3v.9a.27.27,0,0,1-.3.3H52.4c-.3,0-.3,0-.3.3v3c0,.3,0,.3.3.3h1.8a.27.27,0,0,1,.3.3v.9a.27.27,0,0,1-.3.3H50.8c-.2.1-.3.1-.3-.2V184.5a.27.27,0,0,1,.3-.3h3.4A.27.27,0,0,1,54.5,184.5Zm-6.9,22c0-2.3.9-3.1,2.3-3.1s2.3.8,2.3,3.1v1.9c0,2.2-.9,3.1-2.3,3.1s-2.3-.8-2.3-3.1Zm13.3,4.7a.27.27,0,0,1-.3.3h-1c-.2,0-.3-.1-.3-.4v-4.7c0-.7,0-1.6-.7-1.6s-.7,1-.7,1.6v4.7a.27.27,0,0,1-.3.3h-1a.27.27,0,0,1-.3-.3v-4.7c0-.7,0-1.6-.7-1.6s-.7,1-.7,1.6v4.7a.27.27,0,0,1-.3.3h-1a.27.27,0,0,1-.3-.3v-7.4a.27.27,0,0,1,.3-.3h.8a.27.27,0,0,1,.3.3v.7a1.62,1.62,0,0,1,1.6-1,1.36,1.36,0,0,1,1.4,1.1,1.62,1.62,0,0,1,1.6-1c.2,0,1.6,0,1.6,2.3Zm2.6,4.7a.27.27,0,0,1-.3.3h-1a.27.27,0,0,1-.3-.3V203.8c0-.3.2-.3.3-.3h1v-.1c.2,0,.3,0,.3.3v.2a1.58,1.58,0,0,1,1.2-.5c1.2,0,2,.7,2,3.1v1.9c0,2.4-.8,3.1-2,3.1a1.73,1.73,0,0,1-1.2-.5v4.9Z"/><path class="cls-2" d="M50.8,195.3h3.4a.27.27,0,0,0,.3-.3v-.9a.27.27,0,0,0-.3-.3H52.4c-.3,0-.3,0-.3-.3v-3c0-.3,0-.3.3-.3h1.8a.27.27,0,0,0,.3-.3V189a.27.27,0,0,0-.3-.3H52.4c-.3,0-.3,0-.3-.3V186c0-.3,0-.3.3-.3h1.8a.27.27,0,0,0,.3-.3v-.9a.27.27,0,0,0-.3-.3H50.8a.27.27,0,0,0-.3.3v10.6C50.5,195.4,50.6,195.4,50.8,195.3Z"/><path class="cls-2" d="M57,195.4a1.62,1.62,0,0,0,1.6-1v.7a.27.27,0,0,0,.3.3h.8a.27.27,0,0,0,.3-.3v-7.4a.27.27,0,0,0-.3-.3h-1a.27.27,0,0,0-.3.3v4.7c0,.6,0,1.6-.7,1.6s-.7-.9-.7-1.6v-4.7a.27.27,0,0,0-.3-.3h-1a.27.27,0,0,0-.3.3v5.4C55.4,195.4,56.8,195.4,57,195.4Z"/><path class="cls-2" d="M66.7,195.4h2.1a.27.27,0,0,0,.3-.3V184.5c0-.3-.1-.3-.3-.3h-1c-.1,0-.3,0-.3.3v2.9h-.8c-1.6,0-2.4.8-2.4,3.2v1.6C64.3,194.6,65.1,195.4,66.7,195.4Zm-.8-5.1c0-.8,0-1.6.8-1.6h.5c.2,0,.3,0,.3.2v4.6c0,.3,0,.3-.3.3h-.5c-.8,0-.8-.8-.8-1.6Z"/><path class="cls-2" d="M72.3,195.3c1.6,0,2.3-1,2.3-2.8,0-.2-.1-.4-.3-.4h-.9c-.2,0-.3.2-.3.4,0,.5,0,1.4-.7,1.4s-.7-.8-.7-1.6v-.4c0-.3,0-.3.3-.3v-.2h2.3a.27.27,0,0,0,.3-.3v-1c0-2.3-.9-3.1-2.3-3.1s-2.3.8-2.3,3.1v2.1C70,194.5,70.9,195.3,72.3,195.3Zm.1-6.6c.6,0,.7.6.7,1.2,0,.3,0,.3-.3.3H72c-.3,0-.3,0-.3-.3C71.7,189.3,71.8,188.7,72.4,188.7Z"/><path class="cls-2" d="M76,195.4h1c.1,0,.3,0,.3-.3V184.5a.27.27,0,0,0-.3-.3H76a.27.27,0,0,0-.3.3v10.6C75.7,195.4,75.9,195.4,76,195.4Z"/><path class="cls-2" d="M80.5,195.3c1.6,0,2.3-1,2.3-2.8,0-.2-.1-.4-.3-.4h-.9c-.2,0-.3.2-.3.4,0,.5,0,1.4-.7,1.4s-.7-.8-.7-1.6v-.4c0-.3,0-.3.3-.3v-.2h2.3a.27.27,0,0,0,.3-.3v-1c0-2.3-.9-3.1-2.3-3.1s-2.3.8-2.3,3.1v2.1C78.2,194.5,79.1,195.3,80.5,195.3Zm.1-6.6c.6,0,.7.6.7,1.2,0,.3,0,.3-.3.3h-.8c-.3,0-.3,0-.3-.3C79.9,189.3,80,188.7,80.6,188.7Z"/><path class="cls-2" d="M84.2,195.4A6.27,6.27,0,0,0,84,197v.1c0,2.2.8,3,2.4,3s2.4-.8,2.4-3.1-.8-3-2.4-3a3.73,3.73,0,0,0-1.2.2.9.9,0,0,1-.1-.5.6.6,0,0,1,.1-.4,3.73,3.73,0,0,0,1.2.2c1.6,0,2.4-.8,2.4-3.1a4.18,4.18,0,0,0-.3-1.8l.5-.5c.2-.2.2-.3,0-.5l-.6-.6c-.1-.2-.2-.2-.4,0l-.5.5a3.59,3.59,0,0,0-1.1-.2c-1.6,0-2.4.7-2.4,3v.1a6.27,6.27,0,0,0,.2,1.6,2.86,2.86,0,0,0-.5,1.7A2.18,2.18,0,0,0,84.2,195.4Zm2.2,0c.8,0,.8.8.8,1.6s0,1.6-.8,1.6-.8-.8-.8-1.6S85.6,195.4,86.4,195.4Zm0-6.6c.8,0,.8.8.8,1.6s0,1.6-.8,1.6-.8-.8-.8-1.6S85.6,188.8,86.4,188.8Z"/><path class="cls-2" d="M91.6,195.4a2,2,0,0,0,1.4-.5v.2c0,.3.1.3.3.3h.8c.1,0,.3,0,.3-.3v-4.6c0-2.3-.9-3.1-2.3-3.1a2.21,2.21,0,0,0-2.3,2.5.27.27,0,0,0,.3.3H91a.27.27,0,0,0,.3-.3c0-.4.1-1.1.8-1.1a.67.67,0,0,1,.7.7c0,1.3-3.2.5-3.2,3.1v.7A1.83,1.83,0,0,0,91.6,195.4Zm-.4-2.6c0-.8.7-1,1.6-1.4v1.3c-.1.7-.2,1.3-.8,1.4-.8,0-.8-.9-.8-1.1Z"/><path class="cls-2" d="M95.6,195.3h1c.1,0,.3,0,.3-.3v-4.6c0-.8,0-1.6.8-1.6h.6c.2.1.3-.1.3-.3v-.9a.27.27,0,0,0-.3-.3h-.2a1.58,1.58,0,0,0-1.2.5v-.2a.27.27,0,0,0-.3-.3h-1a.27.27,0,0,0-.3.3V195C95.3,195.3,95.4,195.3,95.6,195.3Z"/><path class="cls-2" d="M101.4,195.3c1.6,0,2.3-1,2.3-2.8,0-.2-.1-.4-.3-.4h-.9c-.2,0-.3.2-.3.4,0,.5,0,1.4-.7,1.4s-.7-.8-.7-1.6v-.4c0-.3,0-.3.3-.3v-.2h2.3a.27.27,0,0,0,.3-.3v-1c0-2.3-.9-3.1-2.3-3.1s-2.3.8-2.3,3.1v2.1C99.1,194.5,100,195.3,101.4,195.3Zm.1-6.6c.6,0,.7.6.7,1.2,0,.3,0,.3-.3.3h-.8c-.3,0-.3,0-.3-.3C100.8,189.3,100.9,188.7,101.5,188.7Z"/><path class="cls-2" d="M105.7,185.2a.9.9,0,1,0,.9.9A.9.9,0,0,0,105.7,185.2Z"/><path class="cls-2" d="M105.2,187.4a.27.27,0,0,0-.3.3v7.4c0,.3.1.3.3.3h1c.1,0,.3,0,.3-.3v-7.4a.27.27,0,0,0-.3-.3Z"/><path class="cls-2" d="M41.9,206.4v1.9c0,2.3.9,3.1,2.3,3.1,1.6,0,2.3-1,2.3-2.8a.27.27,0,0,0-.3-.3h-.9a.27.27,0,0,0-.3.3c0,.5,0,1.4-.7,1.4s-.7-.8-.7-1.6h.1v-2.1c0-.8,0-1.6.7-1.6s.7.9.7,1.4a.27.27,0,0,0,.3.3h.8a.27.27,0,0,0,.3-.3c0-1.8-.7-2.8-2.3-2.8C42.8,203.3,41.9,204.1,41.9,206.4Z"/><path class="cls-2" d="M49.9,211.5c1.4,0,2.3-.9,2.3-3.1v-1.9c0-2.3-.9-3.1-2.3-3.1s-2.3.8-2.3,3.1v1.9C47.6,210.7,48.5,211.5,49.9,211.5Zm-.7-5c0-.8,0-1.6.7-1.6s.7.8.7,1.6v1.9c0,.8,0,1.6-.7,1.6s-.7-.8-.7-1.6Z"/><path class="cls-2" d="M53.6,203.4a.27.27,0,0,0-.3.3v7.4a.27.27,0,0,0,.3.3h1a.27.27,0,0,0,.3-.3v-4.7c0-.6,0-1.6.7-1.6s.7.9.7,1.6v4.7a.27.27,0,0,0,.3.3h1a.27.27,0,0,0,.3-.3v-4.7c0-.6,0-1.6.7-1.6s.7.9.7,1.6v4.7c0,.3.1.4.3.4h1a.27.27,0,0,0,.3-.3v-5.4c0-2.3-1.4-2.3-1.6-2.3a1.62,1.62,0,0,0-1.6,1,1.36,1.36,0,0,0-1.4-1.1,1.62,1.62,0,0,0-1.6,1v-.7a.27.27,0,0,0-.3-.3Z"/><path class="cls-2" d="M64.7,211.5c1.2,0,2-.7,2-3.1v-1.9c0-2.4-.8-3.1-2-3.1a1.58,1.58,0,0,0-1.2.5v-.2c0-.3-.1-.3-.3-.3v.1h-1c-.1,0-.3,0-.3.3v12.1a.27.27,0,0,0,.3.3h1a.27.27,0,0,0,.3-.3V211A1.73,1.73,0,0,0,64.7,211.5Zm-1.2-5c0-.8,0-1.6.8-1.6s.8.8.8,1.6v1.9c0,.8,0,1.6-.8,1.7s-.8-.6-.8-1.3Z"/><path class="cls-2" d="M68,200.2a.27.27,0,0,0-.3.3v10.6c0,.4.1.4.3.3h1c.1,0,.3,0,.3-.3V200.5a.27.27,0,0,0-.3-.3Z"/><path class="cls-2" d="M72.5,203.1c-1.4,0-2.3.8-2.3,3.1v2.1c0,2.3.9,3.1,2.3,3.1,1.6,0,2.3-1,2.3-2.8,0-.2-.1-.4-.3-.4h-.9c-.2,0-.3.2-.3.4,0,.5,0,1.4-.7,1.4s-.7-.8-.7-1.6V208c0-.3,0-.3.3-.3v-.2h2.3a.27.27,0,0,0,.3-.3v-1C74.8,203.9,73.9,203.1,72.5,203.1Zm.4,3.2h-.8c-.3,0-.3,0-.3-.3.1-.6.1-1.2.7-1.2s.7.6.7,1.2C73.2,206.3,73.2,206.3,72.9,206.3Z"/><path class="cls-2" d="M75.7,204.9h.2v3.3c0,2.4.7,3.2,2.5,3.2a.27.27,0,0,0,.3-.3v-.9a.27.27,0,0,0-.3-.3c-.9,0-.9-.7-.9-1.7v-3.3H78a.27.27,0,0,0,.3-.3v-.9a.27.27,0,0,0-.3-.3h-.5V202a.27.27,0,0,0-.3-.3h-1a.27.27,0,0,0-.3.3v1.4h-.2c-.3,0-.3.2-.3.3v.9C75.4,204.7,75.4,204.9,75.7,204.9Z"/><path class="cls-2" d="M79.5,206a.27.27,0,0,0,.3.3h.9a.27.27,0,0,0,.3-.3c0-.4.1-1.1.8-1.1a.67.67,0,0,1,.7.7c0,1.3-3.2.5-3.2,3.1v.7a1.83,1.83,0,0,0,2,2.1,2,2,0,0,0,1.4-.5v.2c0,.3.1.3.3.3h.8c.1,0,.3,0,.3-.3v-4.6c0-2.3-.9-3.1-2.3-3.1A2.21,2.21,0,0,0,79.5,206Zm3,2.8c-.1.6-.1,1.2-.8,1.4-.8,0-.8-.9-.8-1.1v-.2c0-.8.7-1,1.6-1.4Z"/><path class="cls-2" d="M86.6,204.4v-.7a.27.27,0,0,0-.3-.3h-.8a.27.27,0,0,0-.3.3v7.4a.27.27,0,0,0,.3.3h1a.27.27,0,0,0,.3-.3v-4.7c0-.6,0-1.6.7-1.6s.7.9.7,1.6v4.7a.27.27,0,0,0,.3.3h1a.27.27,0,0,0,.3-.3v-4.7c0-.6,0-1.6.7-1.6s.7.9.7,1.6v4.7c0,.3,0,.4.3.4h1a.27.27,0,0,0,.3-.3v-5.4c0-2.3-1.4-2.3-1.6-2.3a1.62,1.62,0,0,0-1.6,1,1.36,1.36,0,0,0-1.4-1.1A1.62,1.62,0,0,0,86.6,204.4Z"/><path class="cls-2" d="M96,203.1c-1.4,0-2.3.8-2.3,3.1v2.1c0,2.3.9,3.1,2.3,3.1,1.6,0,2.3-1,2.3-2.8,0-.2-.1-.4-.3-.4h-.9c-.2,0-.3.2-.3.4,0,.5,0,1.4-.7,1.4s-.7-.8-.7-1.6V208c0-.3,0-.3.3-.3v-.2H98a.27.27,0,0,0,.3-.3v-1C98.3,203.9,97.4,203.1,96,203.1Zm.4,3.2h-.8c-.3,0-.3,0-.3-.3.1-.6.1-1.2.7-1.2s.7.6.7,1.2C96.7,206.3,96.7,206.3,96.4,206.3Z"/><path class="cls-2" d="M102.4,203.4a1.62,1.62,0,0,0-1.6,1v-.7a.27.27,0,0,0-.3-.3h-.8a.27.27,0,0,0-.3.3v7.4a.27.27,0,0,0,.3.3h1a.27.27,0,0,0,.3-.3v-4.7c0-.6,0-1.6.7-1.6s.7.9.7,1.6v4.7q0,.45.3.3h1a.27.27,0,0,0,.3-.3v-5.4C104,203.4,102.6,203.4,102.4,203.4Z"/><path class="cls-2" d="M107.8,209.9c-.9,0-.9-.7-.9-1.7v-3.3h.5a.27.27,0,0,0,.3-.3v-.9a.27.27,0,0,0-.3-.3h-.5V202a.27.27,0,0,0-.3-.3h-1a.27.27,0,0,0-.3.3v1.4h-.2c-.4,0-.4.2-.3.3v.9c0,.1,0,.3.3.3h.2v3.3c0,2.4.7,3.2,2.5,3.2a.27.27,0,0,0,.3-.3v-.9A.27.27,0,0,0,107.8,209.9Z"/><path class="cls-2" d="M110.9,203.1c-1.4,0-2.3.8-2.3,3.1v2.1c0,2.3.9,3.1,2.3,3.1,1.6,0,2.3-1,2.3-2.8,0-.2-.1-.4-.3-.4H112c-.2,0-.3.2-.3.4,0,.5,0,1.4-.7,1.4s-.7-.8-.7-1.6V208c0-.3,0-.3.3-.3v-.2h2.3a.27.27,0,0,0,.3-.3v-1C113.2,203.9,112.3,203.1,110.9,203.1Zm.4,3.2h-.8c-.3,0-.3,0-.3-.3.1-.6.1-1.2.7-1.2s.7.6.7,1.2C111.6,206.3,111.6,206.3,111.3,206.3Z"/></g></g></svg>