<svg xmlns="http://www.w3.org/2000/svg" viewBox="0 0 156.5 227.6"><defs><style>.cls-1{fill:#00bce7;}.cls-2{fill:#fff;}.cls-3{fill:#f9c1cf;}.cls-4{fill:#007aa8;}.cls-5{fill:#abe1fa;}.cls-6{fill:#eee809;}.cls-7{fill:#fcaf17;}.cls-8{fill:#b14c24;}.cls-9{fill:#f58220;}.cls-10{fill:#000104;}</style></defs><title>Asset 6</title><g id="Layer_2" data-name="Layer 2"><g id="Layer_1-2" data-name="Layer 1"><path class="cls-1" d="M65.3,177.2H106l-48-8.8,4.3,7.1A4,4,0,0,0,65.3,177.2Z"/><path class="cls-1" d="M16.9,36.6c1.4,0,1.4-1.3,1.4-3.2V30.9c0-2.3,0-3.2-1.4-3.2-1.1,0-1.3.6-1.4,2.2v3.5C15.5,35.4,15.5,36.6,16.9,36.6Z"/><path class="cls-1" d="M138.5,217.4h0a2,2,0,0,1-2,2H24.1a2,2,0,0,1-2-2V179.2a2,2,0,0,1,2-2H41.9a3.87,3.87,0,0,0,3-1.8l4.6-8.6L.1,157.7,0,156.6v56.8s0,14.2,14.2,14.2H142.3s14.2,0,14.2-14.2V186.5l-18-3.3v34.2Z"/><path class="cls-1" d="M156.5,129V14.2S156.5,0,142.3,0H14.2S0,0,0,14.2v86ZM81.7,67.7a10.68,10.68,0,0,1,.3-2.5,9.89,9.89,0,0,1,2-4.1,11.57,11.57,0,0,1,4.1-2.2,2,2,0,0,0,1.2-1.7V55.1a21.05,21.05,0,0,0-.2-2.5,12.36,12.36,0,0,0-1.3-3.8,17,17,0,0,0-3.5-4.1l-.2-.2a8.26,8.26,0,0,1-2.3-5.3,8,8,0,0,1,2.1-5.9,7.8,7.8,0,0,1,5.6-2.6h.1a.22.22,0,0,0,.2-.2v-.1a7.89,7.89,0,0,1,2.1-5.8A7.8,7.8,0,0,1,97.5,22a9,9,0,0,1,3.6.7,1.83,1.83,0,0,0,2-.5,9,9,0,0,1,2.3-1.9,7.49,7.49,0,0,1,4.2-1,9.93,9.93,0,0,1,4.2,1.6,2,2,0,0,0,2.1,0s2.8-1.9,5.2-1.8a7.39,7.39,0,0,1,4.1,1.3,8.83,8.83,0,0,1,1.7,1.6,1.87,1.87,0,0,0,2,.5,8.66,8.66,0,0,1,3.3-.6,8.14,8.14,0,0,1,7.7,8.5v.1a.22.22,0,0,0,.2.2h.1a8.14,8.14,0,0,1,7.7,8.5,10.14,10.14,0,0,1-1.9,4.6,7.22,7.22,0,0,1-.8,1l-.9.9a13.81,13.81,0,0,0-2.5,3.4,11.82,11.82,0,0,0-1,3.1,19.48,19.48,0,0,0-.2,2.5V57a1.71,1.71,0,0,0,1.2,1.6,9.35,9.35,0,0,1,3,1.5c.2.2.4.3.6.5,1.7,1.5,2.5,4.7,2.5,4.7a10.68,10.68,0,0,1,.3,2.5v1.3a10,10,0,0,1-2.8,7,12.23,12.23,0,0,1-3.6,1.8,1.85,1.85,0,0,0-1.2,1.5v2a17.73,17.73,0,0,1-.1,2.2,33.66,33.66,0,0,1-1.4,7.1,23.2,23.2,0,0,1-12.2,12.8c-2.9,1.4-8.4,2-8.4,2-.7,0-1.9.1-2.6.1h-1.8a21.12,21.12,0,0,1-2.6-.2s-7.5-1.1-11.1-3.3A23.48,23.48,0,0,1,91,90.9a37.58,37.58,0,0,1-1.5-7.3c0-.7-.1-1.7-.1-2.1s0-.8-.1-.8-.1-.5-.1-1.2A1.71,1.71,0,0,0,88,77.9a12.15,12.15,0,0,1-3.2-1.6c-1.9-1.5-2.8-4.8-2.8-4.8a21.3,21.3,0,0,1-.3-2.5V67.7ZM27,64.6a3.81,3.81,0,0,0,.9-1.3,3.85,3.85,0,0,1,1-1.6,2.36,2.36,0,0,1,1.2-.6c.4,0,1.1-.1,1.4-.1s.6-.3.6-.8v-2a9.7,9.7,0,0,1,.1-1.7,24,24,0,0,1,1.4-5.3A12.12,12.12,0,0,1,35.8,48a15.38,15.38,0,0,1,4.9-3.4,20.63,20.63,0,0,1,4.5-1,9.7,9.7,0,0,1,1.7-.1h3.2a9.7,9.7,0,0,1,1.7.1s3.8.4,5.7,1.5a14,14,0,0,1,5.6,5.7,22,22,0,0,1,1.5,5.6,9.7,9.7,0,0,1,.1,1.7v2a.79.79,0,0,0,.8.8h.4a9.85,9.85,0,0,1,1.7.2,3.59,3.59,0,0,1,1.6.8,3.49,3.49,0,0,1,1,2.4v.1c0,.1.3.4.6.7a15.63,15.63,0,0,1,2.1,2.4,10.23,10.23,0,0,1,1.5,5.4,11.73,11.73,0,0,1-.5,2.9,2.62,2.62,0,0,0,.2,1.5s2.1,3.6,2.2,6.1A10.24,10.24,0,0,1,66.1,93.6c-2.3,0-5.6-1.8-5.6-1.8a1.21,1.21,0,0,0-1.4.1,27.38,27.38,0,0,1-3.9,2.7,14.91,14.91,0,0,1-3.9,1.3,7.49,7.49,0,0,1-1.6.2H48.6a14.58,14.58,0,0,1-6.8-1.7,19.35,19.35,0,0,1-3.6-2.7,1.41,1.41,0,0,0-1.4-.1s-3.5,2-5.9,2A10.24,10.24,0,0,1,20.7,83.4c0-2.5,2.2-6.1,2.2-6.1a2.62,2.62,0,0,0,.2-1.5,11.73,11.73,0,0,1-.5-2.9,9.89,9.89,0,0,1,2.1-6.2A14.78,14.78,0,0,1,27,64.6ZM10.8,21.1c0-5.9,2.2-7.8,6.1-7.8,4.2,0,6,2.8,6,7,0,.6-.2,1-.8,1H19c-.6,0-.8-.2-.8-.8,0-1.5,0-2.8-1.4-2.8s-1.4,1.3-1.4,2.8v3.1a6.15,6.15,0,0,1,1.4-.1c3.5,0,6.1,2,6.1,7.5v2.4c0,5.5-2.5,7.5-6,7.5s-6.1-2-6.1-7.5Z"/><path class="cls-2" d="M0,156.6l.1,1.1,49.4,9.1,2.6-5c.5-1,1.4-1,2,0l3.9,6.6,48,8.8h30.5a2,2,0,0,1,2,2v4l18,3.3V129L0,100.2Zm102.7-19.4c0-.5.2-.6.6-.6h2.4c.5,0,.6.2.6.6v.3a3,3,0,0,1,2.2-.9h.3c.5,0,.6.2.6.6v2.6q0,.75-.6.6a4.14,4.14,0,0,0-1-.1c-1.5,0-1.5,1.6-1.5,3.1v7.7c0,.6-.3.6-.6.6h-2.4c-.3,0-.6,0-.6-.6Zm-11,9.3c0-4,5.7-3.2,5.7-5.4-.1.1-.1-1.2-1.1-1.2s-1.1,1.3-1.1,1.5c0,.5-.2.6-.6.6h-2c-.5,0-.6-.2-.6-.6,0-2.6,1.3-4.8,4.3-4.8,2.7,0,4.7,1.3,4.7,5.8v8.7c0,.6-.3.6-.6.6h-2c-.3,0-.6,0-.6-.6v-.4a2.77,2.77,0,0,1-2.5,1c-2.3,0-3.6-1.2-3.6-3.9Zm-7.4-9.2c0-.5.2-.6.6-.6h.3V134c0-.5.2-.6.6-.6h2.4c.5,0,.6.2.6.6v2.7h1c.5,0,.6.2.6.6v2.1c0,.5-.2.6-.6.6h-1v5.8c0,1.8,0,2.6,1,2.7.5,0,.6.2.6.7v2c0,.5-.2.6-.6.6-3.4,0-4.6-1.5-4.6-6V140h-.3c-.5,0-.6-.1-.6-.6Zm-10.8-.1c0-.5.2-.6.6-.6h2c.5,0,.6.2.6.6v1.4a3.19,3.19,0,0,1,3-2c.5,0,3.1,0,3.1,4.3V151c0,.5-.2.6-.6.6H79.9c-.5.1-.6,0-.6-.5v-8.4c0-1.5,0-2.8-1.1-2.8s-1.1,1.3-1.1,2.8v8.4c0,.5-.2.6-.6.6H74.1c-.5,0-.6-.2-.6-.6Zm-11,.1c0-.5.2-.6.6-.6h2.3v-.1c.5,0,.6.2.6.6v8.4c0,1.5,0,2.8,1.1,2.8s1.1-1.3,1.1-2.8v-8.4c0-.5.2-.6.6-.6h2.4c.5,0,.6.2.6.6v13.9c0,.5-.2.6-.6.6h-2c-.5,0-.6-.2-.6-.6v-1.4a3.19,3.19,0,0,1-3,2c-.5,0-3.1,0-3.1-4.3V137.3Zm-11.3,5.2c.1-4.4,1.7-5.8,4.7-5.8a5.09,5.09,0,0,1,2.2.4l1-1c.3-.3.5-.3.8,0l1.3,1.3c.3.3.3.5,0,.8l-1.1,1.1a9.33,9.33,0,0,1,.5,3.2c-.1,4.3-1.7,5.7-4.7,5.7a8.81,8.81,0,0,1-1.7-.2,1.48,1.48,0,0,0,0,1.3,8.81,8.81,0,0,1,1.7-.2c3,0,4.7,1.3,4.7,5.8,0,4.2-1.7,5.7-4.7,5.7s-4.6-1.4-4.7-5.5a8.77,8.77,0,0,1,.6-3.8,5.54,5.54,0,0,1,0-5.3A7.57,7.57,0,0,1,51.2,142.5Zm-7.4-5.3c0-.5.2-.6.6-.6h2.4c.5,0,.6.2.6.6v.3a3,3,0,0,1,2.2-.9h.3c.5,0,.6.2.6.6v2.6q0,.75-.6.6a4.14,4.14,0,0,0-1-.1c-1.5,0-1.5,1.6-1.5,3.1v7.7c0,.6-.3.6-.6.6H44.4c-.3,0-.6,0-.6-.6Zm-11.1,5.2c0-4.2,2-5.8,4.7-5.8s4.7,1.6,4.7,5.8v1.7c0,.5-.2.6-.6.6H36.9c-.6,0-.6,0-.6.6v.4c0,1.5,0,2.8,1.1,2.8s1.1-1.3,1.1-2c0-.5.2-.6.6-.6h2.2c.5,0,.6.2.6.6,0,3.4-1.4,5.3-4.5,5.3-2.7,0-4.7-1.5-4.7-5.8ZM22,131.2c0-.5.2-.6.6-.6h3.6c3,0,5.1,1.5,5.1,6v2c.1,4.6-2,6.1-5.1,6.1-.6,0-.6,0-.6.6v5.8c0,.5-.2.6-.6.6H22.6c-.5,0-.6-.2-.6-.6Z"/><path class="cls-2" d="M96.3,148.3c1.1,0,1-.9,1-1.7v-1.8c-1.6.7-2.1,1.1-2.1,2.1C95.2,147.3,95.2,148.3,96.3,148.3Z"/><path class="cls-2" d="M55.9,157.3c1.1,0,1.1-1.2,1.1-2.5s0-2.5-1.1-2.5-1.1,1.3-1.1,2.5S54.8,157.3,55.9,157.3Z"/><path class="cls-2" d="M55.9,144.9c1.1,0,1.1-1.2,1.1-2.5s0-2.5-1.1-2.5-1.1,1.3-1.1,2.5S54.8,144.9,55.9,144.9Z"/><path class="cls-2" d="M36.9,142h.9c.6,0,.6,0,.6-.6,0-.2,0-1.5-1.1-1.5s-1,1.3-1,1.5C36.3,142,36.3,142,36.9,142Z"/><path class="cls-2" d="M26.2,141.4c1.5,0,1.5-1.5,1.5-3.1V137c0-1.5,0-3.1-1.5-3.1-.6,0-.6,0-.6.6v6.4C25.6,141.4,25.6,141.4,26.2,141.4Z"/><path class="cls-2" d="M16.9,40.9c3.5,0,6-2,6-7.5V31c0-5.5-2.6-7.5-6.1-7.5a6.15,6.15,0,0,0-1.4.1V20.5c0-1.5,0-2.8,1.4-2.8s1.4,1.3,1.4,2.8c0,.6.2.8.8.8h3.1c.6,0,.8-.4.8-1,0-4.2-1.8-7-6-7-3.9,0-6.1,1.9-6.1,7.8V33.4C10.8,38.9,13.4,40.9,16.9,40.9Zm-1.4-11c.1-1.6.3-2.2,1.4-2.2,1.4,0,1.4.9,1.4,3.2v2.5c0,1.9,0,3.2-1.4,3.2s-1.4-1.2-1.4-3.2Z"/><path class="cls-3" d="M31.7,70.7a3.35,3.35,0,0,0-.8,1,1.76,1.76,0,0,0-.3.8c0,.4-.1,1.1-.1,1.5a8.08,8.08,0,0,0,.1,1.5,3.52,3.52,0,0,0,.4,1,2.13,2.13,0,0,0,.6.8c.4.3.7.2.7-.3h.1V71C32.4,70.6,32.1,70.4,31.7,70.7Z"/><path class="cls-4" d="M31,65.1H66.6a4.33,4.33,0,0,1,.5-.1l.1-.1a.91.91,0,0,0,.3-.7.79.79,0,0,0-.5-.8H30.8l-.3.3a.6.6,0,0,0-.3.6.86.86,0,0,0,.3.6C30.7,65,30.8,65.1,31,65.1Z"/><path class="cls-5" d="M35,60.1a.79.79,0,0,0,.8.8H61.5a.79.79,0,0,0,.8-.8v-2a9.7,9.7,0,0,0-.1-1.7,16.47,16.47,0,0,0-1-4,11.19,11.19,0,0,0-2.4-3.3,10.14,10.14,0,0,0-3.5-2.3,16.14,16.14,0,0,0-3.4-.7,9.7,9.7,0,0,0-1.7-.1H47a9.7,9.7,0,0,0-1.7.1,15.91,15.91,0,0,0-4.8,1.4,10.77,10.77,0,0,0-4.9,5.6,15.73,15.73,0,0,0-.7,3.3,9.7,9.7,0,0,0-.1,1.7H35v2Zm8.4-1.5V50.3a1.42,1.42,0,0,1,.2-.6.76.76,0,0,1,.5-.2h1.2a1.27,1.27,0,0,1,.6.1.52.52,0,0,1,.4.2l.3.3c.1.1.1.3.2.5l2,5.6,2.1-5.6c.1-.2.1-.4.2-.5s.2-.3.3-.3.2-.1.3-.2a4.33,4.33,0,0,1,.5-.1h1.3a.37.37,0,0,1,.3.1.35.35,0,0,1,.2.1c.1.1.1.1.1.2v8.7h-.2v.1l-.1.1a.37.37,0,0,0-.3.1h-.8a.37.37,0,0,1-.3-.1.1.1,0,0,1-.1-.1V51l-2.7,7.6c0,.1-.1.1-.1.2a.35.35,0,0,1-.2.1H48.2a.37.37,0,0,1-.3-.1c-.1,0-.1-.1-.2-.1l-.1-.1L45,51v7.7l-.1.1a.37.37,0,0,0-.3.1h-.8a.37.37,0,0,1-.3-.1c-.1,0-.1-.1-.1-.2Z"/><path class="cls-6" d="M25.8,77.1a4.24,4.24,0,0,1-.6,1.4s-2,2.8-2,4.9a7.77,7.77,0,0,0,7.7,7.7c1.9,0,4.3-1.4,4.1-1.2a1,1,0,0,0,.3-1.2s-1-1.8-1.6-3.2a25.8,25.8,0,0,1-1.1-3.7,1.86,1.86,0,0,0-.9-1.2,9.11,9.11,0,0,1-2.9-2.3,6.62,6.62,0,0,1-.9-2.5c0-.4-.1-1.1-.1-1.5a8.87,8.87,0,0,1,.2-1.5,9.51,9.51,0,0,1,1.2-3,3.45,3.45,0,0,1,1.2-1.2,4.57,4.57,0,0,1,.6-.4c.5-.2.6-.4.4-.4s-.7-.1-1.1-.1l-.3-.1a2.44,2.44,0,0,1-.9-.5,1,1,0,0,0-1.3,0l-.7.7a6.57,6.57,0,0,0-1.2,1.7,8.53,8.53,0,0,0-.8,3.5,9.22,9.22,0,0,0,.5,2.6A2.62,2.62,0,0,1,25.8,77.1Z"/><path class="cls-3" d="M62.4,78V68.4a.79.79,0,0,0-.8-.8H35.8a.79.79,0,0,0-.8.8v8.2a9.7,9.7,0,0,0,.1,1.7,36.19,36.19,0,0,0,1.5,6.5,14.59,14.59,0,0,0,6,7.1,12,12,0,0,0,3.3,1.3,19,19,0,0,0,2.1.3,3.87,3.87,0,0,0,.9.1h.9a7.21,7.21,0,0,0,1.4-.2,15.18,15.18,0,0,0,2.8-.9,12.46,12.46,0,0,0,4.2-3A14,14,0,0,0,61.5,84,30,30,0,0,0,62.4,78ZM37.9,73.4a3.7,3.7,0,1,1,7.4,0,3.63,3.63,0,0,1-3.7,3.7A3.69,3.69,0,0,1,37.9,73.4ZM56.7,84l-.4.5c-.3.4-.7,1-1,1.4A12.94,12.94,0,0,1,52,88.8a8.53,8.53,0,0,1-3.5.8,7.79,7.79,0,0,1-4.1-1.2,10.14,10.14,0,0,1-2.6-2.5l-.2-.2c-.2-.3-.5-.8-.8-1.2l-.4-.5c-.2-.4-.1-.7.4-.7H56.3C56.8,83.3,57,83.6,56.7,84Zm-.8-6.9a3.7,3.7,0,0,1,0-7.4,3.76,3.76,0,0,1,3.7,3.7A3.69,3.69,0,0,1,55.9,77.1Z"/><path class="cls-3" d="M65.5,77.5a3.19,3.19,0,0,0,.9-.9,3.52,3.52,0,0,0,.4-1c0-.4.1-1.1.1-1.5a8.08,8.08,0,0,0-.1-1.5,3.43,3.43,0,0,0-.5-1.2,3.92,3.92,0,0,0-.8-.9c-.4-.2-.7-.1-.7.4v6.8C64.8,77.8,65.1,77.8,65.5,77.5Z"/><path class="cls-6" d="M68.1,67.2a3.53,3.53,0,0,1-1.2.4H66c-.3,0-.2.2.2.4,0,0,.3.2.7.5a6.2,6.2,0,0,1,1.4,1.4,8.16,8.16,0,0,1,1,2.7c0,.4.1,1.2.1,1.5s-.1,1-.1,1.5a3.65,3.65,0,0,1-.3,1.3,8.55,8.55,0,0,1-1.5,2.2,7,7,0,0,1-2.1,1.3,1.86,1.86,0,0,0-.9,1.2s-.2,1-.4,1.9a16.07,16.07,0,0,1-1.2,3.3,11.61,11.61,0,0,1-1.1,2A.83.83,0,0,0,62,90a7.64,7.64,0,0,0,1.4.7,11.71,11.71,0,0,0,2.6.4,7.64,7.64,0,0,0,7.6-7.8,7.79,7.79,0,0,0-.9-3.7,7.11,7.11,0,0,0-1-1.3,4.59,4.59,0,0,1-.7-1.4,3.89,3.89,0,0,1,.2-1.5,9.22,9.22,0,0,0,.5-2.6,7.84,7.84,0,0,0-1.6-4.7c-.4-.5-.7-.8-.7-.8A1.21,1.21,0,0,0,68.1,67.2Z"/><path class="cls-2" d="M46,85.8c-.5,0-.6.2-.2.5a4.77,4.77,0,0,0,.8.4,4.48,4.48,0,0,0,2,.4,5.08,5.08,0,0,0,1.7-.3,6.25,6.25,0,0,0,1.1-.5c.3-.3.3-.5-.2-.5Z"/><circle class="cls-4" cx="41.5" cy="73.4" r="1.2"/><circle class="cls-4" cx="55.9" cy="73.4" r="1.2"/><path d="M23.1,75.8a2.62,2.62,0,0,1-.2,1.5s-2.2,3.6-2.2,6.1A10.24,10.24,0,0,0,30.9,93.6c2.4,0,5.9-2,5.9-2a1.41,1.41,0,0,1,1.4.1,19.35,19.35,0,0,0,3.6,2.7,14.58,14.58,0,0,0,6.8,1.7h1.1a7.49,7.49,0,0,0,1.6-.2,14.91,14.91,0,0,0,3.9-1.3,27.38,27.38,0,0,0,3.9-2.7,1.21,1.21,0,0,1,1.4-.1s3.3,1.8,5.6,1.8A10.24,10.24,0,0,0,76.3,83.4c-.1-2.5-2.2-6.1-2.2-6.1a2.62,2.62,0,0,1-.2-1.5,11.73,11.73,0,0,0,.5-2.9,10.23,10.23,0,0,0-1.5-5.4,15.63,15.63,0,0,0-2.1-2.4c-.3-.3-.6-.6-.6-.7v-.1a3.49,3.49,0,0,0-1-2.4,3.59,3.59,0,0,0-1.6-.8,9.85,9.85,0,0,0-1.7-.2h-.4a.79.79,0,0,1-.8-.8v-2a9.7,9.7,0,0,0-.1-1.7,22,22,0,0,0-1.5-5.6,14,14,0,0,0-5.6-5.7c-1.9-1.1-5.7-1.5-5.7-1.5a9.7,9.7,0,0,0-1.7-.1H46.9a9.7,9.7,0,0,0-1.7.1,20.63,20.63,0,0,0-4.5,1A15.38,15.38,0,0,0,35.8,48a12.12,12.12,0,0,0-2.2,3.2,24,24,0,0,0-1.4,5.3,9.7,9.7,0,0,0-.1,1.7v2c0,.5-.3.8-.6.8s-1,.1-1.4.1a2.36,2.36,0,0,0-1.2.6,3.85,3.85,0,0,0-1,1.6,3.81,3.81,0,0,1-.9,1.3,14.78,14.78,0,0,0-2.3,2.1,9.89,9.89,0,0,0-2.1,6.2A11.73,11.73,0,0,0,23.1,75.8Zm2.8-6.3a6.57,6.57,0,0,1,1.2-1.7l.7-.7a1,1,0,0,1,1.3,0,2.44,2.44,0,0,0,.9.5l.3.1c.4,0,.9.1,1.1.1s.1.2-.4.4a4.57,4.57,0,0,0-.6.4,3.45,3.45,0,0,0-1.2,1.2,9.51,9.51,0,0,0-1.2,3,8.87,8.87,0,0,0-.2,1.5c0,.4.1,1.1.1,1.5a6.62,6.62,0,0,0,.9,2.5,9.11,9.11,0,0,0,2.9,2.3,1.86,1.86,0,0,1,.9,1.2,25.8,25.8,0,0,0,1.1,3.7c.6,1.4,1.6,3.2,1.6,3.2a1,1,0,0,1-.3,1.2c.2-.2-2.2,1.2-4.1,1.2a7.77,7.77,0,0,1-7.7-7.7c0-2.1,2-4.9,2-4.9a4.24,4.24,0,0,0,.6-1.4,2.62,2.62,0,0,0-.2-1.5,9.22,9.22,0,0,1-.5-2.6A8.53,8.53,0,0,1,25.9,69.5Zm4.6-5.8.3-.3H67a.79.79,0,0,1,.5.8.91.91,0,0,1-.3.7l-.1.1a4.33,4.33,0,0,0-.5.1H31c-.2,0-.3-.1-.5-.2a.86.86,0,0,1-.3-.6A.6.6,0,0,1,30.5,63.7Zm4.4-7.3a15.73,15.73,0,0,1,.7-3.3,10.77,10.77,0,0,1,4.9-5.6,15.91,15.91,0,0,1,4.8-1.4A9.7,9.7,0,0,1,47,46h3.2a9.7,9.7,0,0,1,1.7.1,16.14,16.14,0,0,1,3.4.7,10.14,10.14,0,0,1,3.5,2.3,11.19,11.19,0,0,1,2.4,3.3,16.47,16.47,0,0,1,1,4,9.7,9.7,0,0,1,.1,1.7v2a.79.79,0,0,1-.8.8H35.8a.79.79,0,0,1-.8-.8v-2h-.2A9.7,9.7,0,0,1,34.9,56.4ZM71.7,72.8a9.22,9.22,0,0,1-.5,2.6,3.89,3.89,0,0,0-.2,1.5,4.59,4.59,0,0,0,.7,1.4,7.11,7.11,0,0,1,1,1.3,7.79,7.79,0,0,1,.9,3.7A7.64,7.64,0,0,1,66,91.1a11.71,11.71,0,0,1-2.6-.4A7.64,7.64,0,0,1,62,90a.83.83,0,0,1-.2-1.2,11.61,11.61,0,0,0,1.1-2,16.07,16.07,0,0,0,1.2-3.3c.2-.9.4-1.9.4-1.9a1.86,1.86,0,0,1,.9-1.2,7,7,0,0,0,2.1-1.3A8.55,8.55,0,0,0,69,76.9a3.65,3.65,0,0,0,.3-1.3c0-.5.1-1.2.1-1.5s-.1-1.1-.1-1.5a8.16,8.16,0,0,0-1-2.7,6.2,6.2,0,0,0-1.4-1.4c-.4-.3-.7-.5-.7-.5-.4-.2-.5-.4-.2-.4h.9a3.53,3.53,0,0,0,1.2-.4,1.21,1.21,0,0,1,1.3.1s.3.3.7.8A7.84,7.84,0,0,1,71.7,72.8ZM54,92.5a15.18,15.18,0,0,1-2.8.9,7.21,7.21,0,0,1-1.4.2h-.9a3.87,3.87,0,0,1-.9-.1,19,19,0,0,1-2.1-.3,12,12,0,0,1-3.3-1.3,14.59,14.59,0,0,1-6-7.1,36.19,36.19,0,0,1-1.5-6.5,9.7,9.7,0,0,1-.1-1.7V68.4a.79.79,0,0,1,.8-.8H61.6a.79.79,0,0,1,.8.8V78a30,30,0,0,1-.9,6,14,14,0,0,1-3.3,5.5A12.46,12.46,0,0,1,54,92.5ZM64.8,70.9c0-.5.3-.6.7-.4a3.92,3.92,0,0,1,.8.9,3.43,3.43,0,0,1,.5,1.2,8.08,8.08,0,0,1,.1,1.5c0,.4-.1,1.1-.1,1.5a3.52,3.52,0,0,1-.4,1,3.19,3.19,0,0,1-.9.9c-.4.3-.7.3-.7.2V70.9ZM32.4,71v6h-.1c0,.5-.3.6-.7.3a2.13,2.13,0,0,1-.6-.8,3.52,3.52,0,0,1-.4-1,8.08,8.08,0,0,1-.1-1.5c0-.4.1-1.1.1-1.5a1.76,1.76,0,0,1,.3-.8,3.35,3.35,0,0,1,.8-1C32.1,70.4,32.4,70.6,32.4,71Z"/><path d="M56.3,83.3H40.8c-.5,0-.6.3-.4.7l.4.5c.3.4.6.9.8,1.2l.2.2a10.14,10.14,0,0,0,2.6,2.5,7.79,7.79,0,0,0,4.1,1.2,8.53,8.53,0,0,0,3.5-.8,12.94,12.94,0,0,0,3.3-2.9c.3-.4.7-1,1-1.4l.4-.5C57,83.6,56.8,83.3,56.3,83.3Zm-4.9,3a6.25,6.25,0,0,1-1.1.5,5.08,5.08,0,0,1-1.7.3,4.48,4.48,0,0,1-2-.4,4.77,4.77,0,0,1-.8-.4c-.4-.3-.3-.5.2-.5h5.2C51.7,85.8,51.7,86,51.4,86.3Z"/><path d="M45.3,73.4a3.7,3.7,0,1,0-3.7,3.7A3.63,3.63,0,0,0,45.3,73.4Zm-5,0a1.2,1.2,0,1,1,1.2,1.2A1.22,1.22,0,0,1,40.3,73.4Z"/><path d="M55.9,69.7a3.7,3.7,0,1,0,3.7,3.7A3.76,3.76,0,0,0,55.9,69.7Zm0,4.9a1.2,1.2,0,1,1,1.2-1.2A1.22,1.22,0,0,1,55.9,74.6Z"/><path d="M43.5,58.8a.37.37,0,0,0,.3.1h.8a.37.37,0,0,1,.3-.1l.1-.1V51l2.6,7.6.1.1c.1,0,.1.1.2.1a.37.37,0,0,0,.3.1h1.1a.35.35,0,0,0,.2-.1c0-.1.1-.1.1-.2L52.3,51v7.7a.1.1,0,0,0,.1.1.37.37,0,0,0,.3.1h.8a.37.37,0,0,1,.3-.1l.1-.1v-.1h.2V49.9c0-.1,0-.1-.1-.2a.35.35,0,0,0-.2-.1.37.37,0,0,0-.3-.1H52.2a4.33,4.33,0,0,0-.5.1c-.1.1-.2.1-.3.2s-.2.2-.3.3-.1.3-.2.5l-2.1,5.6-2-5.6c-.1-.2-.1-.4-.2-.5l-.3-.3a.52.52,0,0,0-.4-.2,1.27,1.27,0,0,0-.6-.1H44.1a.76.76,0,0,0-.5.2,1.42,1.42,0,0,0-.2.6v8.4A.1.1,0,0,0,43.5,58.8Z"/><path class="cls-7" d="M86.7,73.1a4.87,4.87,0,0,0,1.2.8.8.8,0,0,0,1.2-.8V63.6c0-.7-.5-1-1.2-.8a3.7,3.7,0,0,0-1.1.8,3.09,3.09,0,0,0-1.1,1.6,10.68,10.68,0,0,0-.3,2.5V69a10.68,10.68,0,0,0,.3,2.5A4.64,4.64,0,0,0,86.7,73.1Z"/><path class="cls-7" d="M136.6,83.6c0-.7.1-1.9.1-2.6V61.9a1.6,1.6,0,0,0-1.3-1.5,7.74,7.74,0,0,1-3.5-1.7c-2.4-2.2-3.7-5.6-3.7-10.4a11.38,11.38,0,0,0-1.3-5,1.48,1.48,0,0,0-1.8-.6s-6,2.7-10.4,2.7-10.4-2.6-10.4-2.6a1.41,1.41,0,0,0-1.8.6,11.94,11.94,0,0,0-1.3,5c0,4.8-1.2,8.3-3.7,10.4a8.43,8.43,0,0,1-3.3,1.7A1.6,1.6,0,0,0,92.9,62v2.8a8.87,8.87,0,0,0,.1,1.3c.1,0,.1.6.1,1.3V80.9a22.6,22.6,0,0,0,.1,2.6,27.85,27.85,0,0,0,.7,4.3,20.82,20.82,0,0,0,3.2,6.3,20,20,0,0,0,10.1,6.9,25.61,25.61,0,0,0,4.2.7,22.6,22.6,0,0,0,2.6.1h1.8a21.12,21.12,0,0,0,2.6-.2s5.6-.8,8.5-2.5a18.8,18.8,0,0,0,8.4-9.6A27.56,27.56,0,0,0,136.6,83.6ZM113.3,63.3l.3-.2a1.82,1.82,0,0,1,2,0l.3.2a19.41,19.41,0,0,1,1,1.7l5.6,10.3a8.32,8.32,0,0,1,.9,2l-.1.4a1.45,1.45,0,0,1-.2.7,1.76,1.76,0,0,1-.9.8l-.2.1H109.2a13.42,13.42,0,0,1-2.1-.1l-.3-.3a1.21,1.21,0,0,1-.5-.5,2.32,2.32,0,0,1-.4-1v-.3a12.63,12.63,0,0,1,.8-1.8L112.3,65A19.41,19.41,0,0,1,113.3,63.3Zm-16.7,2a6.1,6.1,0,1,1,6.1,6.1A6.06,6.06,0,0,1,96.6,65.3Zm31.5,19.1s-1,4.9-3.1,7.3a13.93,13.93,0,0,1-10.4,4.9,14.27,14.27,0,0,1-11.3-6.1,19.6,19.6,0,0,1-2.2-6.2,19.88,19.88,0,0,1-.2-2.2,1,1,0,0,1,1.2-.9h25a1.23,1.23,0,0,1,1.3,1C128.4,82.7,128.2,83.7,128.1,84.4Zm-1.1-13a6.1,6.1,0,1,1,0-12.2,6.12,6.12,0,0,1,6.1,6.1A6.06,6.06,0,0,1,127,71.4Z"/><path class="cls-7" d="M140.6,63.4v9.5a.77.77,0,0,0,1.2.7,5.7,5.7,0,0,0,2-1.6l.4-.6a19.48,19.48,0,0,0,.2-2.5h0V67.5a10.68,10.68,0,0,0-.3-2.5,3,3,0,0,0-.9-1.5,6.11,6.11,0,0,0-1.4-.9A.8.8,0,0,0,140.6,63.4Z"/><path class="cls-8" d="M91.6,47.9A21.45,21.45,0,0,1,93,52.8a19.48,19.48,0,0,1,.2,2.5V56a.87.87,0,0,0,1.2.9,6.27,6.27,0,0,0,.9-.7c1.5-1.3,2.3-3.9,2.3-7.4,0-4.5,1.5-7.9,4.4-10.1a2,2,0,0,1,2.4.1c2.4,2.1,6.4,3.3,10.5,3.3s8.1-1.2,10.5-3.3a2,2,0,0,1,2.4-.1c2.9,2.2,4.4,5.6,4.4,10.1,0,3.5.8,6.1,2.4,7.4a5,5,0,0,0,1.1.7,1,1,0,0,0,1.2-1V55a21.12,21.12,0,0,1,.2-2.6,17.63,17.63,0,0,1,1.3-4.7,18.43,18.43,0,0,1,3.7-5.1,15.58,15.58,0,0,0,1.6-2,2.51,2.51,0,0,0,.4-1.5,4.27,4.27,0,0,0-4.1-4.5,3.78,3.78,0,0,0-2.1.4,1.9,1.9,0,0,1-2.5-2.7,3.61,3.61,0,0,0,.6-2,4.29,4.29,0,0,0-7.7-2.8,1.91,1.91,0,0,1-2,.7,1.94,1.94,0,0,1-1.4-1.6,4.1,4.1,0,0,0-4-3.7,4.57,4.57,0,0,0-4.2,2.8,1.95,1.95,0,0,1-3.6,0,4.23,4.23,0,0,0-8.1,1.1,1.91,1.91,0,0,1-1.5,1.6,1.81,1.81,0,0,1-2-.8,4.24,4.24,0,0,0-3.8-1.9,4.7,4.7,0,0,0-3,1.4,4.11,4.11,0,0,0-1.1,3.1,3.61,3.61,0,0,0,.6,2,1.82,1.82,0,0,1-.2,2.3,2,2,0,0,1-2.3.4,5.22,5.22,0,0,0-2.1-.4,4.7,4.7,0,0,0-3,1.4A4.11,4.11,0,0,0,85.5,39a3.08,3.08,0,0,0,.4,1.6,15.37,15.37,0,0,0,1.7,1.9A22.42,22.42,0,0,1,91.6,47.9Z"/><circle class="cls-5" cx="102.7" cy="65.3" r="2.2"/><circle class="cls-5" cx="127" cy="65.3" r="2.2"/><path class="cls-2" d="M123.8,85H105.6c-.2,0-.3.2-.2.4l.1.2.1.2a.66.66,0,0,0,.5.4h17.3a.66.66,0,0,0,.5-.4l.1-.2.1-.2C124.1,85.2,124,85,123.8,85Z"/><path class="cls-2" d="M118.5,91.9a18.66,18.66,0,0,0,1.6-1c.5-.4.4-.8-.3-.8H109.6c-.7,0-.9.4-.3.8a13,13,0,0,0,2.3,1.3,10.59,10.59,0,0,0,3.1.5A10,10,0,0,0,118.5,91.9Z"/><path class="cls-9" d="M112.4,75.6h4.5c.7,0,1-.5.7-1.1l-2.3-4.4a.62.62,0,0,0-1.2,0l-2.4,4.4C111.4,75.1,111.7,75.6,112.4,75.6Z"/><path d="M108.8,65.3a6.1,6.1,0,1,0-6.1,6.1A6.06,6.06,0,0,0,108.8,65.3Zm-6.1-2.2a2.2,2.2,0,1,1-2.2,2.2A2.22,2.22,0,0,1,102.7,63.1Z"/><path d="M127,59.2a6.1,6.1,0,1,0,6.1,6.1A6.12,6.12,0,0,0,127,59.2Zm-2.2,6.1a2.2,2.2,0,1,1,2.2,2.2A2.22,2.22,0,0,1,124.8,65.3Z"/><path d="M84.8,76.3A12.15,12.15,0,0,0,88,77.9a1.71,1.71,0,0,1,1.2,1.6c0,.7,0,1.2.1,1.2s.1.4.1.8.1,1.4.1,2.1A37.58,37.58,0,0,0,91,90.9a23.48,23.48,0,0,0,9.4,11.2c3.6,2.2,11.1,3.3,11.1,3.3a21.12,21.12,0,0,0,2.6.2h1.8c.7,0,1.9-.1,2.6-.1,0,0,5.5-.6,8.4-2a23.2,23.2,0,0,0,12.2-12.8,33.66,33.66,0,0,0,1.4-7.1,17.73,17.73,0,0,0,.1-2.2v-2a1.85,1.85,0,0,1,1.2-1.5,12.23,12.23,0,0,0,3.6-1.8,10,10,0,0,0,2.8-7V67.8a10.68,10.68,0,0,0-.3-2.5s-.8-3.2-2.5-4.7c-.2-.2-.4-.3-.6-.5a9.35,9.35,0,0,0-3-1.5,1.71,1.71,0,0,1-1.2-1.6V54.7a19.48,19.48,0,0,1,.2-2.5,11.82,11.82,0,0,1,1-3.1,13.81,13.81,0,0,1,2.5-3.4l.9-.9a7.22,7.22,0,0,0,.8-1,10.14,10.14,0,0,0,1.9-4.6,8.14,8.14,0,0,0-7.7-8.5h-.1a.22.22,0,0,1-.2-.2v-.1a8.14,8.14,0,0,0-7.7-8.5,8.66,8.66,0,0,0-3.3.6,1.87,1.87,0,0,1-2-.5,8.83,8.83,0,0,0-1.7-1.6,7.39,7.39,0,0,0-4.1-1.3c-2.4-.1-5.2,1.8-5.2,1.8a2,2,0,0,1-2.1,0,9.93,9.93,0,0,0-4.2-1.6,7.49,7.49,0,0,0-4.2,1,9,9,0,0,0-2.3,1.9,1.83,1.83,0,0,1-2,.5,9,9,0,0,0-3.6-.7,7.8,7.8,0,0,0-5.6,2.6,7.89,7.89,0,0,0-2.1,5.8v.1a.22.22,0,0,1-.2.2h-.1a7.8,7.8,0,0,0-5.6,2.6,8,8,0,0,0-2.1,5.9,8.26,8.26,0,0,0,2.3,5.3l.2.2a17,17,0,0,1,3.5,4.1,12.36,12.36,0,0,1,1.3,3.8,21.05,21.05,0,0,1,.2,2.5v2.1a2,2,0,0,1-1.2,1.7A11.57,11.57,0,0,0,84,61.1a9.89,9.89,0,0,0-2,4.1,10.68,10.68,0,0,0-.3,2.5V69a21.3,21.3,0,0,0,.3,2.5S82.9,74.8,84.8,76.3Zm.6-8.6a10.68,10.68,0,0,1,.3-2.5,3.09,3.09,0,0,1,1.1-1.6,3.7,3.7,0,0,1,1.1-.8c.7-.2,1.2.1,1.2.8v9.5a.8.8,0,0,1-1.2.8,4.87,4.87,0,0,1-1.2-.8,4.64,4.64,0,0,1-1-1.6,10.68,10.68,0,0,1-.3-2.5ZM85.5,39a4.11,4.11,0,0,1,1.1-3.1,4.7,4.7,0,0,1,3-1.4,5.22,5.22,0,0,1,2.1.4,2,2,0,0,0,2.3-.4,1.82,1.82,0,0,0,.2-2.3,3.61,3.61,0,0,1-.6-2,4.11,4.11,0,0,1,1.1-3.1,4.7,4.7,0,0,1,3-1.4,4.24,4.24,0,0,1,3.8,1.9,1.81,1.81,0,0,0,2,.8,1.91,1.91,0,0,0,1.5-1.6,4.23,4.23,0,0,1,8.1-1.1,2,2,0,0,0,3.6,0,4.57,4.57,0,0,1,4.2-2.8,4.1,4.1,0,0,1,4,3.7,1.94,1.94,0,0,0,1.4,1.6,1.91,1.91,0,0,0,2-.7,4.29,4.29,0,0,1,7.7,2.8,3.61,3.61,0,0,1-.6,2,1.9,1.9,0,0,0,2.5,2.7,3.78,3.78,0,0,1,2.1-.4,4.27,4.27,0,0,1,4.1,4.5,2.51,2.51,0,0,1-.4,1.5,15.58,15.58,0,0,1-1.6,2,18.43,18.43,0,0,0-3.7,5.1,17.63,17.63,0,0,0-1.3,4.7,21.12,21.12,0,0,0-.2,2.6v.9a1,1,0,0,1-1.2,1,5,5,0,0,1-1.1-.7c-1.6-1.3-2.4-3.9-2.4-7.4,0-4.5-1.5-7.9-4.4-10.1a2,2,0,0,0-2.4.1c-2.4,2.1-6.4,3.3-10.5,3.3s-8.1-1.2-10.5-3.3a2,2,0,0,0-2.4-.1c-2.9,2.2-4.4,5.6-4.4,10.1,0,3.5-.8,6.1-2.3,7.4a6.27,6.27,0,0,1-.9.7.87.87,0,0,1-1.2-.9v-.7a19.48,19.48,0,0,0-.2-2.5,21.45,21.45,0,0,0-1.4-4.9,22.42,22.42,0,0,0-4-5.4,15.37,15.37,0,0,1-1.7-1.9A3.08,3.08,0,0,1,85.5,39Zm56.3,23.6a6.11,6.11,0,0,1,1.4.9,3,3,0,0,1,.9,1.5,10.68,10.68,0,0,1,.3,2.5v1.4h0a19.48,19.48,0,0,1-.2,2.5l-.4.6a5.7,5.7,0,0,1-2,1.6.77.77,0,0,1-1.2-.7V63.4A.8.8,0,0,1,141.8,62.6ZM126.9,99.1c-2.9,1.7-8.5,2.5-8.5,2.5a21.12,21.12,0,0,1-2.6.2H114a22.6,22.6,0,0,1-2.6-.1,25.61,25.61,0,0,1-4.2-.7,20,20,0,0,1-10.1-6.9,20.82,20.82,0,0,1-3.2-6.3,27.85,27.85,0,0,1-.7-4.3,22.6,22.6,0,0,1-.1-2.6V67.4c0-.7,0-1.3-.1-1.3a8.87,8.87,0,0,1-.1-1.3V62a1.6,1.6,0,0,1,1.3-1.5,8.43,8.43,0,0,0,3.3-1.7c2.5-2.1,3.7-5.6,3.7-10.4a11.94,11.94,0,0,1,1.3-5,1.41,1.41,0,0,1,1.8-.6s6,2.6,10.4,2.6,10.4-2.7,10.4-2.7a1.48,1.48,0,0,1,1.8.6,11.38,11.38,0,0,1,1.3,5c0,4.8,1.3,8.2,3.7,10.4a7.74,7.74,0,0,0,3.5,1.7,1.6,1.6,0,0,1,1.3,1.5V81c0,.7-.1,1.9-.1,2.6a27.56,27.56,0,0,1-1.3,5.9A18.8,18.8,0,0,1,126.9,99.1Z"/><path d="M127.1,81.2h-25a1,1,0,0,0-1.2.9,19.88,19.88,0,0,0,.2,2.2,19.6,19.6,0,0,0,2.2,6.2,14.27,14.27,0,0,0,11.3,6.1A13.93,13.93,0,0,0,125,91.7c2.1-2.4,3.1-7.3,3.1-7.3.1-.7.3-1.7.3-2.2A1.23,1.23,0,0,0,127.1,81.2ZM124,85.6l-.1.2a.66.66,0,0,1-.5.4H106.1a.66.66,0,0,1-.5-.4l-.1-.2-.1-.2c-.1-.2,0-.4.2-.4h18.2c.2,0,.3.2.3.4Zm-14.7,5.3c-.6-.4-.4-.8.3-.8h10.2c.7,0,.8.4.3.8a18.66,18.66,0,0,1-1.6,1,10,10,0,0,1-3.8.8,10.59,10.59,0,0,1-3.1-.5A13,13,0,0,1,109.3,90.9Z"/><path d="M105.9,77.1v.3a2.32,2.32,0,0,0,.4,1,1.21,1.21,0,0,0,.5.5l.3.3a13.42,13.42,0,0,0,2.1.1H122l.2-.1a1.76,1.76,0,0,0,.9-.8,1.45,1.45,0,0,0,.2-.7l.1-.4a8.32,8.32,0,0,0-.9-2L116.9,65a19.41,19.41,0,0,0-1-1.7l-.3-.2a1.82,1.82,0,0,0-2,0l-.3.2a19.41,19.41,0,0,0-1,1.7l-5.6,10.3A12.63,12.63,0,0,0,105.9,77.1Zm5.8-2.6,2.4-4.4a.63.63,0,0,1,1.2,0l2.3,4.4c.3.6,0,1.1-.7,1.1h-4.5C111.7,75.6,111.4,75.1,111.7,74.5Z"/><path class="cls-10" d="M22.6,151.7H25c.4,0,.6-.1.6-.6v-5.8c0-.6,0-.6.6-.6,3.1,0,5.2-1.5,5.1-6.1v-2c0-4.5-2.1-6-5.1-6H22.6c-.4,0-.6.1-.6.6v19.9C22,151.5,22.1,151.7,22.6,151.7Zm3-17.2c0-.6,0-.6.6-.6,1.5,0,1.5,1.6,1.5,3.1v1.3c0,1.6,0,3.1-1.5,3.1-.6,0-.6,0-.6-.5Z"/><path class="cls-10" d="M37.4,151.8c3.1,0,4.5-1.9,4.5-5.3,0-.4-.1-.6-.6-.6H39.1c-.4,0-.6.1-.6.6,0,.7,0,2-1.1,2s-1.1-1.3-1.1-2.8v-.4c0-.6,0-.6.6-.6h4.6c.4,0,.6-.1.6-.6v-1.7c0-4.2-2-5.8-4.7-5.8s-4.7,1.6-4.7,5.8V146C32.7,150.3,34.7,151.8,37.4,151.8Zm-.1-11.9c1.1,0,1.1,1.3,1.1,1.5,0,.6,0,.6-.6.6h-.9c-.6,0-.6,0-.6-.6C36.3,141.2,36.2,139.9,37.3,139.9Z"/><path class="cls-10" d="M44.4,151.7h2.4c.3,0,.6,0,.6-.6v-7.7c0-1.5,0-3.1,1.5-3.1a4.14,4.14,0,0,1,1,.1q.6.15.6-.6v-2.6c0-.4-.1-.6-.6-.6h-.3a3,3,0,0,0-2.2.9v-.3c0-.4-.1-.6-.6-.6H44.4c-.4,0-.6.1-.6.6v13.9C43.8,151.7,44.1,151.7,44.4,151.7Z"/><path class="cls-10" d="M51.8,151.3a8.77,8.77,0,0,0-.6,3.8c.1,4.1,1.7,5.5,4.7,5.5s4.7-1.5,4.7-5.7c0-4.5-1.7-5.8-4.7-5.8a8.81,8.81,0,0,0-1.7.2,1.48,1.48,0,0,1,0-1.3,8.81,8.81,0,0,0,1.7.2c3,0,4.6-1.4,4.7-5.7a9.33,9.33,0,0,0-.5-3.2l1.1-1.1c.3-.3.3-.5,0-.8l-1.3-1.3c-.3-.3-.5-.3-.8,0l-1,1a5.09,5.09,0,0,0-2.2-.4c-3,0-4.6,1.4-4.7,5.8a7.57,7.57,0,0,0,.6,3.5A5.54,5.54,0,0,0,51.8,151.3Zm4.1,1c1.1,0,1.1,1.3,1.1,2.5s0,2.5-1.1,2.5-1.1-1.3-1.1-2.5S54.8,152.3,55.9,152.3Zm0-12.4c1.1,0,1.1,1.3,1.1,2.5s0,2.5-1.1,2.5-1.1-1.3-1.1-2.5S54.8,139.9,55.9,139.9Z"/><path class="cls-10" d="M65.6,151.7a3.19,3.19,0,0,0,3-2v1.4c0,.4.1.6.6.6h2c.4,0,.6-.1.6-.6V137.2c0-.4-.1-.6-.6-.6H68.8c-.4,0-.6.1-.6.6v8.4c0,1.5,0,2.8-1.1,2.8s-1.1-1.3-1.1-2.8v-8.4c0-.4-.1-.6-.6-.6v.1H63.1c-.4,0-.6.1-.6.6v10.1C62.5,151.7,65.1,151.7,65.6,151.7Z"/><path class="cls-10" d="M74.1,151.7h2.4c.4,0,.6-.1.6-.6v-8.4c0-1.5,0-2.8,1.1-2.8s1.1,1.3,1.1,2.8v8.4c0,.5.1.6.6.5h2.3c.4,0,.6-.1.6-.6V140.9c0-4.3-2.6-4.3-3.1-4.3a3.19,3.19,0,0,0-3,2v-1.4c0-.4-.1-.6-.6-.6h-2c-.4,0-.6.1-.6.6v13.9C73.5,151.5,73.6,151.7,74.1,151.7Z"/><path class="cls-10" d="M84.9,140h.3v5.8c0,4.5,1.2,6,4.6,6,.4,0,.6-.1.6-.6v-2c0-.5-.1-.7-.6-.7-1-.1-1-.9-1-2.7V140h1c.4,0,.6-.1.6-.6v-2.1c0-.4-.1-.6-.6-.6h-1V134c0-.4-.1-.6-.6-.6H85.8c-.4,0-.6.1-.6.6v2.7h-.3c-.4,0-.6.1-.6.6v2.1C84.3,139.9,84.4,140,84.9,140Z"/><path class="cls-10" d="M95.3,151.7a2.77,2.77,0,0,0,2.5-1v.4c0,.6.3.6.6.6h2c.3,0,.6,0,.6-.6v-8.7c0-4.5-2-5.8-4.7-5.8-3,0-4.3,2.2-4.3,4.8,0,.4.1.6.6.6h2c.4,0,.6-.1.6-.6,0-.2,0-1.5,1.1-1.5s1,1.3,1.1,1.2c0,2.2-5.7,1.4-5.7,5.4v1.3C91.7,150.5,93,151.7,95.3,151.7Zm2-6.9v1.8c0,.8.1,1.7-1,1.7s-1.1-1-1.1-1.4C95.2,145.9,95.7,145.5,97.3,144.8Z"/><path class="cls-10" d="M103.3,151.7h2.4c.3,0,.6,0,.6-.6v-7.7c0-1.5,0-3.1,1.5-3.1a4.14,4.14,0,0,1,1,.1q.6.15.6-.6v-2.6c0-.4-.1-.6-.6-.6h-.3a3,3,0,0,0-2.2.9v-.3c0-.4-.1-.6-.6-.6h-2.4c-.4,0-.6.1-.6.6v13.9C102.7,151.7,103,151.7,103.3,151.7Z"/><ellipse cx="62.9" cy="198" rx="0.8" ry="1.6"/><path d="M74.7,205.8c-.5,0-.7.6-.7,1.2,0,.3,0,.3.3.3h.8c.3,0,.3,0,.3-.3C75.4,206.4,75.3,205.8,74.7,205.8Z"/><path d="M47.6,195c.8,0,.8-.9.8-1.7v-1.9c0-.8,0-1.6-.8-1.6s-.8.8-.8,1.6v2.3C46.8,194.4,46.9,195,47.6,195Z"/><path d="M52.8,191.2h.8c.3,0,.3,0,.3-.3,0-.6-.1-1.2-.7-1.2s-.6.6-.7,1.2C52.5,191.2,52.5,191.2,52.8,191.2Z"/><path d="M62.9,193c.8,0,.8-.8.8-1.6s0-1.6-.8-1.6-.8.8-.8,1.6S62.1,193,62.9,193Z"/><path d="M54,207c0,.3,0,.3.3.3h.8c.3,0,.3,0,.3-.3,0-.6-.1-1.2-.7-1.2S54.1,206.4,54,207Z"/><path d="M69.5,205.8H69c-.8,0-.8.8-.8,1.6v1.9c0,.8,0,1.6.8,1.6h.5c.3,0,.3,0,.3-.3V206C69.8,205.8,69.7,205.8,69.5,205.8Z"/><path d="M88.8,210.9h.5c.3,0,.3,0,.3-.3V206c0-.2-.1-.2-.3-.2h-.5c-.8,0-.8.8-.8,1.6v1.9C88,210.1,88,210.9,88.8,210.9Z"/><path d="M28.1,181.3a2,2,0,0,0-2,2v30.1a2,2,0,0,0,2,2H132.5a2,2,0,0,0,2-2V183.3a2,2,0,0,0-2-2H63.1a3.88,3.88,0,0,1-3-1.7L54.4,170c-.6-.9-1.5-.9-2,0l-5,9.5a3.58,3.58,0,0,1-3,1.8Zm7.2,5.1a.27.27,0,0,1-.3.3H33.2c-.3,0-.3,0-.3.3v2.4c0,.3,0,.3.3.3H35a.27.27,0,0,1,.3.3v.9a.27.27,0,0,1-.3.3H33.2c-.3,0-.3,0-.3.3v3c0,.3,0,.3.3.3H35a.27.27,0,0,1,.3.3v.9a.27.27,0,0,1-.3.3H31.6c-.1.1-.3.1-.3-.2V185.5a.27.27,0,0,1,.3-.3H35a.27.27,0,0,1,.3.3Zm5.6,9.7a.27.27,0,0,1-.3.3h-.7a.27.27,0,0,1-.3-.3v-.7a1.62,1.62,0,0,1-1.6,1c-.2,0-1.6,0-1.6-2.3v-5.4a.27.27,0,0,1,.3-.3h.9a.27.27,0,0,1,.3.3v4.7c0,.7,0,1.6.7,1.6s.7-1,.7-1.6v-4.7a.27.27,0,0,1,.3-.3h1a.27.27,0,0,1,.3.3v7.4ZM80.3,211c.7,0,.7-.9.7-1.4a.27.27,0,0,1,.3-.3h.9a.27.27,0,0,1,.3.3c0,1.8-.7,2.8-2.3,2.8-1.4,0-2.3-.8-2.3-3.1v-1.9c0-2.3.9-3.1,2.3-3.1,1.6,0,2.3,1,2.3,2.8a.27.27,0,0,1-.3.3h-.9a.27.27,0,0,1-.3-.3c0-.5,0-1.4-.7-1.4s-.7.8-.7,1.6v2.1C79.6,210.2,79.6,211,80.3,211Zm5,1.1c0,.3-.2.3-.3.3H84c-.1.1-.3.1-.3-.3v-7.4a.27.27,0,0,1,.3-.3h1a.27.27,0,0,1,.3.3Zm-.8-8a.9.9,0,1,1,.9-.9A.9.9,0,0,1,84.5,204.1Zm9.3,8c0,.3-.2.3-.3.3h-1c-.1.1-.3.1-.3-.3v-7.4a.27.27,0,0,1,.3-.3h1a.27.27,0,0,1,.3.3Zm-.8-8a.9.9,0,1,1,.9-.9A.9.9,0,0,1,93,204.1Zm28.4-15.7a2.13,2.13,0,0,1,2.2,2.1.27.27,0,0,1-.3.3h-.9a.27.27,0,0,1-.3-.3.7.7,0,1,0-1.4.1c.1,1.2,3.2,1.4,3.1,3.8a2.37,2.37,0,0,1-4.7-.1.27.27,0,0,1,.3-.3h.9a.27.27,0,0,1,.3.3.75.75,0,1,0,1.5-.1c-.1-1.3-3.2-1.4-3.1-3.8A2.24,2.24,0,0,1,121.4,188.4Zm-5.9-2.1c0-.3.1-.3.3-.3h1.1c.1,0,.2.1.1.3a3.75,3.75,0,0,1-.5,1.4c-.2.3-.2.3-.4.3h-.3a.27.27,0,0,1-.3-.3Zm-1.8,5.1c0-2.3.9-3.1,2.3-3.1s2.3.8,2.3,3.1v1.9c0,2.2-.9,3.1-2.3,3.1s-2.3-.8-2.3-3.1Zm-5.9-2.6c0-.3.2-.3.3-.3h1v-.1c.2,0,.3,0,.3.3v.2a1.58,1.58,0,0,1,1.2-.5c1.2,0,2,.7,2,3.1v1.9c0,2.4-.8,3.1-2,3.1a1.73,1.73,0,0,1-1.2-.5v4.9a.27.27,0,0,1-.3.3h-1a.27.27,0,0,1-.3-.3Zm1.1,16.7a1.62,1.62,0,0,1,1.6-1c.2,0,1.6,0,1.6,2.3v5.4a.27.27,0,0,1-.3.3h-1c-.3,0-.3-.1-.3-.4v-4.7c0-.7,0-1.6-.7-1.6s-.7,1-.7,1.6v4.7a.27.27,0,0,1-.3.3h-1a.27.27,0,0,1-.3-.3v-4.7c0-.7,0-1.6-.7-1.6s-.7,1-.7,1.6v4.7a.27.27,0,0,1-.3.3h-1a.27.27,0,0,1-.3-.3v-7.4a.27.27,0,0,1,.3-.3h.8a.27.27,0,0,1,.3.3v.7a1.62,1.62,0,0,1,1.6-1A1.36,1.36,0,0,1,108.9,205.5Zm-6.8-11.9c0-2.6,3.2-1.8,3.2-3.1a.67.67,0,0,0-.7-.7c-.7,0-.8.7-.8,1.1a.27.27,0,0,1-.3.3h-.9a.27.27,0,0,1-.3-.3,2.21,2.21,0,0,1,2.3-2.5c1.4,0,2.3.8,2.3,3.1v4.6c0,.3-.2.3-.3.3h-.8c-.2,0-.3,0-.3-.3v-.2a2,2,0,0,1-1.4.5,1.83,1.83,0,0,1-2-2.1v-.7Zm-3.5,13.6c0-2.3.9-3.1,2.3-3.1s2.3.8,2.3,3.1v1a.27.27,0,0,1-.3.3h-2.3v.2c-.3,0-.3,0-.3.3v.4c0,.8,0,1.6.7,1.6s.7-.9.7-1.4c0-.2.1-.4.3-.4h.9c.2,0,.3.2.3.4,0,1.8-.7,2.8-2.3,2.8-1.4,0-2.3-.8-2.3-3.1Zm-1.5-21a.9.9,0,1,1-.9.9A.84.84,0,0,1,97.1,186.2Zm.8,2.5v7.4c0,.3-.2.3-.3.3h-1c-.2,0-.3,0-.3-.3v-7.4a.27.27,0,0,1,.3-.3h1A.27.27,0,0,1,97.9,188.7Zm-1.7,15.7a.27.27,0,0,1,.3.3v.2a1.58,1.58,0,0,1,1.2-.5h.2a.27.27,0,0,1,.3.3v.9c0,.2-.1.4-.3.3h-.6c-.8,0-.8.8-.8,1.6v4.6c0,.3-.2.3-.3.3h-1c-.2,0-.3,0-.3-.3v-7.4a.27.27,0,0,1,.3-.3Zm-5.7-13.3c0-2.3.9-3.1,2.3-3.1s2.3.8,2.3,3.1v1a.27.27,0,0,1-.3.3H92.5v.2c-.3,0-.3,0-.3.3v.4c0,.8,0,1.6.7,1.6s.7-.9.7-1.4c0-.2.1-.4.3-.4h.9c.2,0,.3.2.3.4,0,1.8-.7,2.8-2.3,2.8-1.4,0-2.3-.8-2.3-3.1Zm-3.8-2.5a.27.27,0,0,1,.3-.3h1a.27.27,0,0,1,.3.3v.2a1.58,1.58,0,0,1,1.2-.5h.2a.27.27,0,0,1,.3.3v.9c0,.2-.1.4-.3.3h-.6c-.8,0-.8.8-.8,1.6V196c0,.3-.2.3-.3.3H87c-.2,0-.3,0-.3-.3Zm-.3,19.1c0-2.4.8-3.2,2.4-3.2h.8v-2.9c0-.3.2-.3.3-.3h1c.2,0,.3,0,.3.3v10.6a.27.27,0,0,1-.3.3H88.8c-1.6,0-2.4-.8-2.4-3.2ZM81,193.6c0-2.6,3.2-1.8,3.2-3.1-.1-.2-.1-.7-.7-.7s-.8.7-.8,1.1a.27.27,0,0,1-.3.3h-.9a.27.27,0,0,1-.3-.3,2.21,2.21,0,0,1,2.3-2.5c1.4,0,2.3.8,2.3,3.1v4.6c0,.3-.2.3-.3.3h-.8c-.2,0-.3,0-.3-.3v-.2a2,2,0,0,1-1.4.5,1.83,1.83,0,0,1-2-2.1v-.7Zm-3.9-4.9c0-.2,0-.3.3-.3h.2V187a.27.27,0,0,1,.3-.3h1a.27.27,0,0,1,.3.3v1.4h.5a.27.27,0,0,1,.3.3v.9a.27.27,0,0,1-.3.3h-.5v3.3c0,1,0,1.7.9,1.7a.27.27,0,0,1,.3.3v.9a.27.27,0,0,1-.3.3c-1.8,0-2.5-.8-2.5-3.2v-3.3h-.2c-.3,0-.3-.2-.3-.3Zm-.2,19.5a.27.27,0,0,1-.3.3H74.3v.2c-.3,0-.3,0-.3.3v.4c0,.8,0,1.6.7,1.6s.7-.9.7-1.4c0-.2.1-.4.3-.4h.9c.2,0,.3.2.3.4,0,1.8-.7,2.8-2.3,2.8-1.4,0-2.3-.8-2.3-3.1v-2.1c0-2.3.9-3.1,2.3-3.1s2.3.8,2.3,3.1Zm-5.1-19.5a.27.27,0,0,1,.3-.3h.8a.27.27,0,0,1,.3.3v.7a1.62,1.62,0,0,1,1.6-1c.2,0,1.6,0,1.6,2.3v5.4a.27.27,0,0,1-.3.3h-1a.27.27,0,0,1-.3-.3v-4.7c0-.7,0-1.6-.7-1.6s-.7,1-.7,1.6v4.7a.27.27,0,0,1-.3.3h-1a.27.27,0,0,1-.3-.3Zm-.4,12.9v10.6a.27.27,0,0,1-.3.3H69c-1.6,0-2.4-.8-2.4-3.2v-1.6c0-2.4.8-3.2,2.4-3.2h.8v-2.9c0-.3.2-.3.3-.3h1C71.3,201.3,71.4,201.3,71.4,201.6Zm-5.3-12.9a.27.27,0,0,1,.3-.3h1a.27.27,0,0,1,.3.3v4.7c0,.7,0,1.6.7,1.6s.7-1,.7-1.6v-4.7a.27.27,0,0,1,.3-.3h1a.27.27,0,0,1,.3.3v7.4a.27.27,0,0,1-.3.3h-.8a.27.27,0,0,1-.3-.3v-.7a1.62,1.62,0,0,1-1.6,1c-.2,0-1.6,0-1.6-2.3v-5.4Zm-5.6,2.7h0c0-2.4.8-3.1,2.4-3.1a3.59,3.59,0,0,1,1.1.2l.5-.5c.2-.2.3-.2.4,0l.6.6c.2.2.2.3,0,.5l-.5.5a4.18,4.18,0,0,1,.3,1.8c-.1,2.3-.9,3.1-2.4,3.1a3.73,3.73,0,0,1-1.2-.2.6.6,0,0,0-.1.4.9.9,0,0,0,.1.5,3.73,3.73,0,0,1,1.2-.2c1.6,0,2.4.8,2.4,3s-.8,3.1-2.4,3.1-2.4-.8-2.4-3V198a6.27,6.27,0,0,1,.2-1.6,2.18,2.18,0,0,1-.5-1.7,2.86,2.86,0,0,1,.5-1.7A6.27,6.27,0,0,1,60.5,191.4Zm-.3,13a2.13,2.13,0,0,1,2.2,2.1.27.27,0,0,1-.3.3h-.9a.27.27,0,0,1-.3-.3.7.7,0,1,0-1.4.1c.1,1.3,3.2,1.5,3.1,3.8a2.37,2.37,0,0,1-4.7-.1.27.27,0,0,1,.3-.3h.9a.27.27,0,0,1,.3.3.75.75,0,1,0,1.5-.1c-.1-1.3-3.2-1.4-3.1-3.8A2.24,2.24,0,0,1,60.2,204.4Zm-3.6-15.8a.27.27,0,0,1,.3-.3h1a.27.27,0,0,1,.3.3v.2a1.58,1.58,0,0,1,1.2-.5h.2a.27.27,0,0,1,.3.3v.9c0,.2-.1.4-.3.3H59c-.8,0-.8.8-.8,1.6V196c0,.3-.2.3-.3.3h-1c-.2,0-.3,0-.3-.3v-7.4Zm.3,18.6v1a.27.27,0,0,1-.3.3H54.3v.2c-.3,0-.3,0-.3.3v.4c0,.8,0,1.6.7,1.6s.7-.9.7-1.4c0-.2.1-.4.3-.4h.9c.2,0,.3.2.3.4,0,1.8-.7,2.8-2.3,2.8-1.4,0-2.3-.8-2.3-3.1v-2.1c0-2.3.9-3.1,2.3-3.1S56.9,204.9,56.9,207.2Zm-6-16.1c0-2.3.9-3.1,2.3-3.1s2.3.8,2.3,3.1v1a.27.27,0,0,1-.3.3H52.9v.2c-.3,0-.3,0-.3.3v.4c0,.8,0,1.6.7,1.6s.7-.9.7-1.4c0-.2.1-.4.3-.4h.9c.2,0,.3.2.3.4,0,1.8-.7,2.8-2.3,2.8-1.4,0-2.3-.8-2.3-3.1v-2.1Zm.2,10.1a.27.27,0,0,1,.3.3v10.6c0,.3-.2.3-.3.3h-1c-.1.1-.3.1-.3-.3V201.5a.27.27,0,0,1,.3-.3Zm-6-12.4c0-.3.2-.3.3-.3h1v-.1c.2,0,.3,0,.3.3v.2a1.58,1.58,0,0,1,1.2-.5c1.2,0,2,.7,2,3.1v1.9c0,2.4-.8,3.1-2,3.1a1.73,1.73,0,0,1-1.2-.5v4.9a.27.27,0,0,1-.3.3h-1a.27.27,0,0,1-.3-.3Zm1.4,15.3c1.4,0,2.3.8,2.3,3.1v1a.27.27,0,0,1-.3.3H46.2v.2c-.3,0-.3,0-.3.3v.4c0,.8,0,1.6.7,1.6s.7-.9.7-1.4c0-.2.1-.4.3-.4h.9c.2,0,.3.2.3.4,0,1.8-.7,2.8-2.3,2.8-1.4,0-2.3-.8-2.3-3.1v-2.1C44.2,204.9,45.1,204.1,46.5,204.1Z"/><path d="M46.1,207.3h.8c.3,0,.3,0,.3-.3,0-.6-.1-1.2-.7-1.2s-.6.6-.7,1.2C45.8,207.3,45.8,207.3,46.1,207.3Z"/><path d="M110.3,195c.8,0,.8-.9.8-1.7v-1.9c0-.8,0-1.6-.8-1.6s-.8.8-.8,1.6v2.3C109.5,194.4,109.6,195,110.3,195Z"/><path d="M116,194.9c.7,0,.7-.8.7-1.6v-1.9c0-.8,0-1.6-.7-1.6s-.7.8-.7,1.6v1.9C115.3,194.1,115.3,194.9,116,194.9Z"/><path d="M83.3,195.1c.7-.1.8-.7.8-1.4v-1.3c-.9.4-1.6.6-1.6,1.4v.2C82.5,194.2,82.5,195.1,83.3,195.1Z"/><path d="M92.4,191.2h.8c.3,0,.3,0,.3-.3,0-.6-.1-1.2-.7-1.2s-.6.6-.7,1.2C92.1,191.2,92.1,191.2,92.4,191.2Z"/><path d="M100.6,207.3h.8c.3,0,.3,0,.3-.3,0-.6-.1-1.2-.7-1.2s-.6.6-.7,1.2C100.3,207.3,100.3,207.3,100.6,207.3Z"/><path d="M104.5,195.1c.7-.1.8-.7.8-1.4v-1.3c-.9.4-1.6.6-1.6,1.4v.2C103.7,194.2,103.7,195.1,104.5,195.1Z"/><path d="M136.5,177.2H65.3a4,4,0,0,1-3-1.7L58,168.4l-3.9-6.6c-.6-1-1.5-1-2,0l-2.6,5-4.6,8.6a3.87,3.87,0,0,1-3,1.8H24.1a2,2,0,0,0-2,2v38.2a2,2,0,0,0,2,2H136.5a2,2,0,0,0,2-2h0V179.2A2,2,0,0,0,136.5,177.2Z"/><path class="cls-2" d="M35,185.2H31.6a.27.27,0,0,0-.3.3v10.6c0,.3.2.3.3.2H35a.27.27,0,0,0,.3-.3v-.9a.27.27,0,0,0-.3-.3H33.2c-.3,0-.3,0-.3-.3v-3c0-.3,0-.3.3-.3H35a.27.27,0,0,0,.3-.3V190a.27.27,0,0,0-.3-.3H33.2c-.3,0-.3,0-.3-.3V187c0-.3,0-.3.3-.3H35a.27.27,0,0,0,.3-.3v-.9A.27.27,0,0,0,35,185.2Z"/><path class="cls-2" d="M40.6,188.4h-1a.27.27,0,0,0-.3.3v4.7c0,.6,0,1.6-.7,1.6s-.7-.9-.7-1.6v-4.7a.27.27,0,0,0-.3-.3h-.9a.27.27,0,0,0-.3.3v5.4c0,2.3,1.4,2.3,1.6,2.3a1.62,1.62,0,0,0,1.6-1v.7a.27.27,0,0,0,.3.3h.7a.27.27,0,0,0,.3-.3v-7.4A.27.27,0,0,0,40.6,188.4Z"/><path class="cls-2" d="M45.4,201.2h1a.27.27,0,0,0,.3-.3V196a1.73,1.73,0,0,0,1.2.5c1.2,0,2-.7,2-3.1v-1.9c0-2.4-.8-3.1-2-3.1a1.58,1.58,0,0,0-1.2.5v-.2c0-.3-.1-.3-.3-.3v.1h-1c-.1,0-.3,0-.3.3v12.1A.27.27,0,0,0,45.4,201.2Zm1.4-9.8c0-.8,0-1.6.8-1.6s.8.8.8,1.6v1.9c0,.8,0,1.7-.8,1.7s-.8-.6-.8-1.3Z"/><path class="cls-2" d="M53.2,196.3c1.6,0,2.3-1,2.3-2.8,0-.2-.1-.4-.3-.4h-.9c-.2,0-.3.2-.3.4,0,.5,0,1.4-.7,1.4s-.7-.8-.7-1.6v-.4c0-.3,0-.3.3-.3v-.2h2.3a.27.27,0,0,0,.3-.3v-1c0-2.3-.9-3.1-2.3-3.1s-2.3.8-2.3,3.1v2.1C50.9,195.5,51.8,196.3,53.2,196.3Zm0-6.6c.6,0,.7.6.7,1.2,0,.3,0,.3-.3.3h-.8c-.3,0-.3,0-.3-.3C52.6,190.3,52.7,189.7,53.2,189.7Z"/><path class="cls-2" d="M56.9,196.3h1c.1,0,.3,0,.3-.3v-4.6c0-.8,0-1.6.8-1.6h.6c.2.1.3-.1.3-.3v-.9a.27.27,0,0,0-.3-.3h-.2a1.58,1.58,0,0,0-1.2.5v-.2a.27.27,0,0,0-.3-.3h-1a.27.27,0,0,0-.3.3V196C56.6,196.3,56.7,196.3,56.9,196.3Z"/><path class="cls-2" d="M60.7,196.4a6.27,6.27,0,0,0-.2,1.6v.1c0,2.2.8,3,2.4,3s2.4-.8,2.4-3.1-.8-3-2.4-3a3.73,3.73,0,0,0-1.2.2.9.9,0,0,1-.1-.5.6.6,0,0,1,.1-.4,3.73,3.73,0,0,0,1.2.2c1.5,0,2.3-.8,2.4-3.1a4.18,4.18,0,0,0-.3-1.8l.5-.5c.2-.2.2-.3,0-.5l-.6-.6c-.1-.2-.2-.2-.4,0l-.5.5a3.59,3.59,0,0,0-1.1-.2c-1.6,0-2.4.7-2.4,3v.1a6.27,6.27,0,0,0,.2,1.6,2.86,2.86,0,0,0-.5,1.7A2.18,2.18,0,0,0,60.7,196.4Zm2.2,0c.8,0,.8.8.8,1.6s0,1.6-.8,1.6-.8-.8-.8-1.6S62.1,196.4,62.9,196.4Zm0-6.6c.8,0,.8.8.8,1.6s0,1.6-.8,1.6-.8-.8-.8-1.6S62.1,189.8,62.9,189.8Z"/><path class="cls-2" d="M67.7,196.4a1.62,1.62,0,0,0,1.6-1v.7a.27.27,0,0,0,.3.3h.8a.27.27,0,0,0,.3-.3v-7.4a.27.27,0,0,0-.3-.3h-1a.27.27,0,0,0-.3.3v4.7c0,.6,0,1.6-.7,1.6s-.7-.9-.7-1.6v-4.7a.27.27,0,0,0-.3-.3h-1a.27.27,0,0,0-.3.3v5.4C66.1,196.4,67.5,196.4,67.7,196.4Z"/><path class="cls-2" d="M72.1,196.4h1a.27.27,0,0,0,.3-.3v-4.7c0-.6,0-1.6.7-1.6s.7.9.7,1.6v4.7a.27.27,0,0,0,.3.3h1a.27.27,0,0,0,.3-.3v-5.4c0-2.3-1.4-2.3-1.6-2.3a1.62,1.62,0,0,0-1.6,1v-.7a.27.27,0,0,0-.3-.3h-.8a.27.27,0,0,0-.3.3v7.4A.27.27,0,0,0,72.1,196.4Z"/><path class="cls-2" d="M77.4,189.9h.2v3.3c0,2.4.7,3.2,2.5,3.2a.27.27,0,0,0,.3-.3v-.9a.27.27,0,0,0-.3-.3c-.9,0-.9-.7-.9-1.7v-3.3h.5a.27.27,0,0,0,.3-.3v-.9a.27.27,0,0,0-.3-.3h-.5V187a.27.27,0,0,0-.3-.3h-1a.27.27,0,0,0-.3.3v1.4h-.2c-.3,0-.3.1-.3.3v.9C77.1,189.7,77.1,189.9,77.4,189.9Z"/><path class="cls-2" d="M83,196.4a2,2,0,0,0,1.4-.5v.2c0,.3.1.3.3.3h.8c.1,0,.3,0,.3-.3v-4.6c0-2.3-.9-3.1-2.3-3.1a2.21,2.21,0,0,0-2.3,2.5.27.27,0,0,0,.3.3h.9a.27.27,0,0,0,.3-.3c0-.4.1-1.1.8-1.1s.6.5.7.7c0,1.3-3.2.5-3.2,3.1v.7A1.83,1.83,0,0,0,83,196.4Zm-.5-2.6c0-.8.7-1,1.6-1.4v1.3c0,.7-.1,1.3-.8,1.4s-.8-.9-.8-1.1Z"/><path class="cls-2" d="M87,196.3h1c.1,0,.3,0,.3-.3v-4.6c0-.8,0-1.6.8-1.6h.6c.2.1.3-.1.3-.3v-.9a.27.27,0,0,0-.3-.3h-.2a1.58,1.58,0,0,0-1.2.5v-.2a.27.27,0,0,0-.3-.3H87a.27.27,0,0,0-.3.3V196C86.7,196.3,86.8,196.3,87,196.3Z"/><path class="cls-2" d="M92.8,196.3c1.6,0,2.3-1,2.3-2.8,0-.2-.1-.4-.3-.4h-.9c-.2,0-.3.2-.3.4,0,.5,0,1.4-.7,1.4s-.7-.8-.7-1.6v-.4c0-.3,0-.3.3-.3v-.2h2.3a.27.27,0,0,0,.3-.3v-1c0-2.3-.9-3.1-2.3-3.1s-2.3.8-2.3,3.1v2.1C90.5,195.5,91.4,196.3,92.8,196.3Zm0-6.6c.6,0,.7.6.7,1.2,0,.3,0,.3-.3.3h-.8c-.3,0-.3,0-.3-.3C92.2,190.3,92.3,189.7,92.8,189.7Z"/><path class="cls-2" d="M97.1,188a.9.9,0,0,0,0-1.8.84.84,0,0,0-.9.9A.9.9,0,0,0,97.1,188Z"/><path class="cls-2" d="M96.6,188.4a.27.27,0,0,0-.3.3v7.4c0,.3.1.3.3.3h1c.1,0,.3,0,.3-.3v-7.4a.27.27,0,0,0-.3-.3Z"/><path class="cls-2" d="M104.1,196.4a2,2,0,0,0,1.4-.5v.2c0,.3.1.3.3.3h.8c.1,0,.3,0,.3-.3v-4.6c0-2.3-.9-3.1-2.3-3.1a2.21,2.21,0,0,0-2.3,2.5.27.27,0,0,0,.3.3h.9a.27.27,0,0,0,.3-.3c0-.4.1-1.1.8-1.1a.67.67,0,0,1,.7.7c0,1.3-3.2.5-3.2,3.1v.7A1.83,1.83,0,0,0,104.1,196.4Zm-.4-2.6c0-.8.7-1,1.6-1.4v1.3c0,.7-.1,1.3-.8,1.4s-.8-.9-.8-1.1Z"/><path class="cls-2" d="M108.1,201.2h1a.27.27,0,0,0,.3-.3V196a1.73,1.73,0,0,0,1.2.5c1.2,0,2-.7,2-3.1v-1.9c0-2.4-.8-3.1-2-3.1a1.58,1.58,0,0,0-1.2.5v-.2c0-.3-.1-.3-.3-.3v.1h-1c-.1,0-.3,0-.3.3v12.1A.27.27,0,0,0,108.1,201.2Zm1.4-9.8c0-.8,0-1.6.8-1.6s.8.8.8,1.6v1.9c0,.8,0,1.7-.8,1.7s-.8-.6-.8-1.3Z"/><path class="cls-2" d="M115.8,188h.3c.2,0,.2,0,.4-.3a3.75,3.75,0,0,0,.5-1.4c.1-.2,0-.3-.1-.3h-1.1c-.2,0-.3,0-.3.3v1.4A.27.27,0,0,0,115.8,188Z"/><path class="cls-2" d="M116,196.4c1.4,0,2.3-.9,2.3-3.1v-1.9c0-2.3-.9-3.1-2.3-3.1s-2.3.8-2.3,3.1v1.9C113.7,195.6,114.6,196.4,116,196.4Zm-.7-5c0-.8,0-1.6.7-1.6s.7.8.7,1.6v1.9c0,.8,0,1.6-.7,1.6s-.7-.8-.7-1.6Z"/><path class="cls-2" d="M122.1,194.2a.75.75,0,1,1-1.5.1.27.27,0,0,0-.3-.3h-.9a.27.27,0,0,0-.3.3,2.37,2.37,0,0,0,4.7.1c.1-2.4-3-2.6-3.1-3.8a.7.7,0,1,1,1.4-.1.27.27,0,0,0,.3.3h.9a.27.27,0,0,0,.3-.3,2.13,2.13,0,0,0-2.2-2.1,2.24,2.24,0,0,0-2.4,2C118.9,192.8,122,192.9,122.1,194.2Z"/><path class="cls-2" d="M44.2,209.3c0,2.3.9,3.1,2.3,3.1,1.6,0,2.3-1,2.3-2.8,0-.2-.1-.4-.3-.4h-.9c-.2,0-.3.2-.3.4,0,.5,0,1.4-.7,1.4s-.7-.8-.7-1.6V209c0-.3,0-.3.3-.3v-.2h2.3a.27.27,0,0,0,.3-.3v-1c0-2.3-.9-3.1-2.3-3.1s-2.3.8-2.3,3.1v2.1Zm2.3-3.5c.6,0,.7.6.7,1.2,0,.3,0,.3-.3.3h-.8c-.3,0-.3,0-.3-.3C45.9,206.4,46,205.8,46.5,205.8Z"/><path class="cls-2" d="M49.8,201.5v10.6c0,.4.2.4.3.3h1c.1,0,.3,0,.3-.3V201.5a.27.27,0,0,0-.3-.3h-1A.27.27,0,0,0,49.8,201.5Z"/><path class="cls-2" d="M52.3,207.2v2.1c0,2.3.9,3.1,2.3,3.1,1.6,0,2.3-1,2.3-2.8,0-.2-.1-.4-.3-.4h-.9c-.2,0-.3.2-.3.4,0,.5,0,1.4-.7,1.4s-.7-.8-.7-1.6V209c0-.3,0-.3.3-.3v-.2h2.3a.27.27,0,0,0,.3-.3v-1c0-2.3-.9-3.1-2.3-3.1S52.3,204.9,52.3,207.2Zm3.1-.2c0,.3,0,.3-.3.3h-.8c-.3,0-.3,0-.3-.3.1-.6.2-1.2.7-1.2S55.4,206.4,55.4,207Z"/><path class="cls-2" d="M57.8,206.4c-.1,2.4,3,2.5,3.1,3.8a.75.75,0,1,1-1.5.1.27.27,0,0,0-.3-.3h-.9a.27.27,0,0,0-.3.3,2.37,2.37,0,0,0,4.7.1c.1-2.3-3-2.5-3.1-3.8a.7.7,0,1,1,1.4-.1.27.27,0,0,0,.3.3h.9a.27.27,0,0,0,.3-.3,2.13,2.13,0,0,0-2.2-2.1A2.24,2.24,0,0,0,57.8,206.4Z"/><path class="cls-2" d="M69.8,201.6v2.9H69c-1.6,0-2.4.8-2.4,3.2v1.6c0,2.4.8,3.2,2.4,3.2h2.1a.27.27,0,0,0,.3-.3V201.6c0-.3-.1-.3-.3-.3h-1C70,201.3,69.8,201.3,69.8,201.6Zm0,9c0,.3,0,.3-.3.3H69c-.8,0-.8-.8-.8-1.6v-1.9c0-.8,0-1.6.8-1.6h.5c.2,0,.3,0,.3.2Z"/><path class="cls-2" d="M74.6,204.1c-1.4,0-2.3.8-2.3,3.1v2.1c0,2.3.9,3.1,2.3,3.1,1.6,0,2.3-1,2.3-2.8,0-.2-.1-.4-.3-.4h-.9c-.2,0-.3.2-.3.4,0,.5,0,1.4-.7,1.4s-.7-.8-.7-1.6V209c0-.3,0-.3.3-.3v-.2h2.3a.27.27,0,0,0,.3-.3v-1C76.9,204.9,76,204.1,74.6,204.1Zm.5,3.2h-.8c-.3,0-.3,0-.3-.3,0-.6.2-1.2.7-1.2s.7.6.7,1.2C75.4,207.3,75.4,207.3,75.1,207.3Z"/><path class="cls-2" d="M80.3,205.7c.7,0,.7.9.7,1.4a.27.27,0,0,0,.3.3h.9a.27.27,0,0,0,.3-.3c0-1.8-.7-2.8-2.3-2.8-1.4,0-2.3.8-2.3,3.1v1.9c0,2.3.9,3.1,2.3,3.1,1.6,0,2.3-1,2.3-2.8a.27.27,0,0,0-.3-.3h-.9a.27.27,0,0,0-.3.3c0,.5,0,1.4-.7,1.4s-.7-.8-.7-1.6v-2.1C79.6,206.5,79.6,205.7,80.3,205.7Z"/><path class="cls-2" d="M84.5,202.3a.9.9,0,1,0,.9.9A.9.9,0,0,0,84.5,202.3Z"/><path class="cls-2" d="M85,204.4H84a.27.27,0,0,0-.3.3v7.4c0,.4.2.4.3.3h1c.1,0,.3,0,.3-.3v-7.4A.27.27,0,0,0,85,204.4Z"/><path class="cls-2" d="M88.8,212.5h2.1a.27.27,0,0,0,.3-.3V201.6c0-.3-.1-.3-.3-.3h-1c-.1,0-.3,0-.3.3v2.9h-.8c-1.6,0-2.4.8-2.4,3.2v1.6C86.4,211.7,87.2,212.5,88.8,212.5Zm-.8-5.1c0-.8,0-1.6.8-1.6h.5c.2,0,.3,0,.3.2v4.6c0,.3,0,.3-.3.3h-.5c-.8,0-.8-.8-.8-1.6Z"/><path class="cls-2" d="M93,202.3a.9.9,0,1,0,.9.9A.9.9,0,0,0,93,202.3Z"/><path class="cls-2" d="M93.5,204.4h-1a.27.27,0,0,0-.3.3v7.4c0,.4.2.4.3.3h1c.1,0,.3,0,.3-.3v-7.4A.27.27,0,0,0,93.5,204.4Z"/><path class="cls-2" d="M94.9,204.7v7.4c0,.3.1.3.3.3h1c.1,0,.3,0,.3-.3v-4.6c0-.8,0-1.6.8-1.6h.6c.2.1.3-.1.3-.3v-.9a.27.27,0,0,0-.3-.3h-.2a1.58,1.58,0,0,0-1.2.5v-.2a.27.27,0,0,0-.3-.3h-1A.27.27,0,0,0,94.9,204.7Z"/><path class="cls-2" d="M100.9,212.4c1.6,0,2.3-1,2.3-2.8,0-.2-.1-.4-.3-.4H102c-.2,0-.3.2-.3.4,0,.5,0,1.4-.7,1.4s-.7-.8-.7-1.6V209c0-.3,0-.3.3-.3v-.2h2.3a.27.27,0,0,0,.3-.3v-1c0-2.3-.9-3.1-2.3-3.1s-2.3.8-2.3,3.1v2.1C98.6,211.6,99.5,212.4,100.9,212.4Zm.1-6.6c.6,0,.7.6.7,1.2,0,.3,0,.3-.3.3h-.8c-.3,0-.3,0-.3-.3C100.4,206.4,100.5,205.8,101,205.8Z"/><path class="cls-2" d="M105.9,205.4v-.7a.27.27,0,0,0-.3-.3h-.8a.27.27,0,0,0-.3.3v7.4a.27.27,0,0,0,.3.3h1a.27.27,0,0,0,.3-.3v-4.7c0-.6,0-1.6.7-1.6s.7.9.7,1.6v4.7a.27.27,0,0,0,.3.3h1a.27.27,0,0,0,.3-.3v-4.7c0-.6,0-1.6.7-1.6s.7.9.7,1.6v4.7c0,.3,0,.4.3.4h1a.27.27,0,0,0,.3-.3v-5.4c0-2.3-1.4-2.3-1.6-2.3a1.62,1.62,0,0,0-1.6,1,1.36,1.36,0,0,0-1.4-1.1A1.62,1.62,0,0,0,105.9,205.4Z"/></g></g></svg>