<svg xmlns="http://www.w3.org/2000/svg" viewBox="0 0 156.5 227.6"><defs><style>.cls-1{fill:#00b26b;}.cls-2{fill:#fff;}.cls-3{fill:#f9c1cf;}.cls-4{fill:#007aa8;}.cls-5{fill:#abe1fa;}.cls-6{fill:#eee809;}.cls-7{fill:#fcaf17;}.cls-8{fill:#b14c24;}.cls-9{fill:#f58220;}.cls-10{fill:#000104;}</style></defs><title>Asset 5</title><g id="Layer_2" data-name="Layer 2"><g id="Layer_1-2" data-name="Layer 1"><path class="cls-1" d="M74.5,78.9Z"/><path class="cls-1" d="M59.6,170.9l2.8,4.6a4,4,0,0,0,3,1.7h71.2a2,2,0,0,1,2,2v38.2a2,2,0,0,1-2,2H24.1a2,2,0,0,1-2-2V179.2a2,2,0,0,1,2-2H42a3.87,3.87,0,0,0,3-1.8l2.7-5.1L0,167.9v45.5s0,14.2,14.2,14.2H142.3s14.2,0,14.2-14.2V175.7Z"/><path class="cls-1" d="M156.5,14.2S156.5,0,142.3,0H14.2S0,0,0,14.2v97.3l156.5,7.4ZM10.7,34.3c0-.6.2-1,.8-1h3.1c.6,0,.8.2.8.8,0,1.3,0,2.6,1.4,2.6s1.4-1.3,1.4-2.6V28.9c0-1.6,0-3-1.4-3s-1.4,1.4-1.4,2.4v.1a.68.68,0,0,1-.7.7H11.4V29c-.4,0-.6-.3-.6-.8V14.3c0-.6.2-.8.8-.8H22.2c.6,0,.8.2.8.8V17c0,.6-.2.8-.8.8H15.5v3.7a5.28,5.28,0,0,1,1.3-.1c3.5,0,6.1,2,6.1,7.5v4.8c0,5.5-2.5,7.5-6.1,7.5C12.8,41.2,10.7,38.7,10.7,34.3ZM68.2,97.7c-2.7,0-6.5-2.1-6.5-2.1a1.54,1.54,0,0,0-1.6.2A25.54,25.54,0,0,1,55.6,99a17,17,0,0,1-4.5,1.5l-1.9.2H47.9a16.58,16.58,0,0,1-8-1.9,28.89,28.89,0,0,1-4.2-3.2,1.36,1.36,0,0,0-1.6-.2s-4.1,2.3-6.9,2.3a12,12,0,0,1-12-12c0-2.9,2.5-7.1,2.5-7.1a2.82,2.82,0,0,0,.2-1.8,13.73,13.73,0,0,1-.6-3.4,11.94,11.94,0,0,1,2.5-7.3,20.25,20.25,0,0,1,2.7-2.5,4.18,4.18,0,0,0,1.1-1.5,5,5,0,0,1,1.2-1.8,2.66,2.66,0,0,1,1.4-.7,12.77,12.77,0,0,1,1.7-.2c.4,0,.7-.5.7-1V56.1a12.75,12.75,0,0,1,.1-2,24.9,24.9,0,0,1,1.6-6.3,13.4,13.4,0,0,1,2.5-3.7,16.36,16.36,0,0,1,5.7-4A22.29,22.29,0,0,1,43.7,39a14.08,14.08,0,0,1,2-.1h3.8a12.75,12.75,0,0,1,2,.1,26.17,26.17,0,0,1,6.6,1.8,16.38,16.38,0,0,1,6.6,6.7,24.41,24.41,0,0,1,1.7,6.6c0,.6.1,1.5.1,2v2.3a1,1,0,0,0,1,1h.4a12.31,12.31,0,0,1,2,.2,3.86,3.86,0,0,1,1.8.9,3.63,3.63,0,0,1,1.2,2.8v.1c0,.2.3.5.7.9A17.27,17.27,0,0,1,76,67.1a11.56,11.56,0,0,1,1.8,6.3,13.73,13.73,0,0,1-.6,3.4,2.29,2.29,0,0,0,.2,1.8s2.6,4.2,2.8,7.1A12,12,0,0,1,68.2,97.7Zm76.6-28.9a9.08,9.08,0,0,1-.3,2.3,9.6,9.6,0,0,1-2.3,4.2,9.74,9.74,0,0,1-3.3,1.7,1.6,1.6,0,0,0-1.1,1.4v1.9a16.23,16.23,0,0,1-.1,2.1,33.21,33.21,0,0,1-1.3,6.6,21.29,21.29,0,0,1-11.3,11.9,35.31,35.31,0,0,1-7.8,1.8c-.7,0-1.7.1-2.4.1h-1.7a17.91,17.91,0,0,1-2.4-.2s-7-1-10.3-3.1A22,22,0,0,1,91.7,89a31.14,31.14,0,0,1-1.4-6.8c0-.7-.1-1.6-.1-2s0-.8-.1-.8-.1-.5-.1-1.1a1.63,1.63,0,0,0-1.1-1.5,12.52,12.52,0,0,1-3-1.5c-1.8-1.4-2.6-4.4-2.6-4.4a8.52,8.52,0,0,1-.3-2.3V67.4a17.48,17.48,0,0,1,.3-2.4,8.76,8.76,0,0,1,1.8-3.8,11.31,11.31,0,0,1,3.8-2.1A1.53,1.53,0,0,0,90,57.6v-2a17.91,17.91,0,0,0-.2-2.4,12.45,12.45,0,0,0-1.2-3.5,14.42,14.42,0,0,0-3.2-3.8l-.2-.2a7.53,7.53,0,0,1-2.1-4.9,7.29,7.29,0,0,1,2-5.4,7.38,7.38,0,0,1,5.2-2.5h.1a.22.22,0,0,0,.2-.2v-.1a7.29,7.29,0,0,1,2-5.4,7.38,7.38,0,0,1,5.2-2.5,7.89,7.89,0,0,1,3.3.7,1.53,1.53,0,0,0,1.8-.4,6.94,6.94,0,0,1,2.1-1.8,7.26,7.26,0,0,1,3.9-.9,9,9,0,0,1,3.9,1.5,1.81,1.81,0,0,0,2,0s2.6-1.8,4.8-1.7a7.13,7.13,0,0,1,3.8,1.2,7.86,7.86,0,0,1,1.6,1.5,1.73,1.73,0,0,0,1.8.5,7,7,0,0,1,3-.6,7.52,7.52,0,0,1,7.2,7.9v.1a.22.22,0,0,0,.2.2h.1a7.52,7.52,0,0,1,7.2,7.9,9.83,9.83,0,0,1-1.8,4.3c-.4.5-.7.9-.7.9a9.4,9.4,0,0,0-.9.8,14.66,14.66,0,0,0-2.3,3.2,12.57,12.57,0,0,0-.9,2.8,19.42,19.42,0,0,0-.2,2.4v2.2a1.72,1.72,0,0,0,1.2,1.5,5.43,5.43,0,0,1,2.6,1.5,2.09,2.09,0,0,1,.6.4c1.7,1.4,2.4,4.4,2.4,4.4a9.86,9.86,0,0,1,.3,2.4v1.2Z"/><path class="cls-2" d="M102.4,148.3c1.1,0,1-.9,1-1.7v-1.8c-1.6.7-2.1,1.1-2.1,2.1C101.3,147.3,101.3,148.3,102.4,148.3Z"/><path class="cls-2" d="M52.2,161.8c.5-1,1.4-1,2,0l5.4,9.1,96.9,4.8V119L0,111.6V168l47.7,2.4Zm56.7-24.6c0-.5.2-.6.6-.6h2.4c.5,0,.6.2.6.6v.3a3,3,0,0,1,2.2-.9h.3c.5,0,.6.2.6.6v2.6q0,.75-.6.6a5.13,5.13,0,0,0-1-.1c-1.5,0-1.5,1.6-1.5,3.1v7.7c0,.6-.3.6-.6.6h-2.4c-.3,0-.6,0-.6-.6Zm-11.1,9.3c0-4,5.7-3.2,5.7-5.4-.1.1-.1-1.2-1.1-1.2s-1.1,1.3-1.1,1.5c0,.5-.2.6-.6.6h-2c-.5,0-.6-.2-.6-.6,0-2.6,1.3-4.8,4.3-4.8,2.7,0,4.7,1.3,4.7,5.8v8.7c0,.6-.3.6-.6.6h-2c-.3,0-.6,0-.6-.6v-.4a2.77,2.77,0,0,1-2.5,1c-2.3,0-3.6-1.2-3.6-3.9v-1.3ZM86.7,131.2c0-.5.2-.6.6-.6h2.4c.5,0,.6.2.6.6V138a3.14,3.14,0,0,1,2.7-1.4c.5,0,3.1,0,3.1,4.3V151c0,.5-.2.6-.6.6H93.1c-.5,0-.6-.2-.6-.6v-8.4c0-1.5,0-2.8-1.1-2.8s-1.1,1.3-1.1,2.8V151c0,.5-.2.6-.6.6H87.3v.1c-.5,0-.6-.2-.6-.6Zm-5.4,0c0-.5.2-.6.6-.6h2.4c.5,0,.6.2.6.6v19.9c0,.6-.3.6-.6.6H81.9c-.3,0-.6,0-.6-.6ZM70.2,142.4c0-4.2,2-5.8,4.7-5.8s4.7,1.6,4.7,5.8v1.7c0,.5-.2.6-.6.6H74.4c-.6,0-.6,0-.6.6v.4c0,1.5,0,2.8,1.1,2.8s1.1-1.3,1.1-2c0-.5.2-.6.6-.6h2.2c.5,0,.6.2.6.6,0,3.4-1.4,5.3-4.5,5.3-2.7,0-4.7-1.5-4.7-5.8v-3.6Zm-11-1.9a4.42,4.42,0,0,1,4.6-4c2.1,0,4.7,1.6,4.7,4.2,0,.5-.2.6-.6.6H65.6c-.5,0-.6-.2-.6-.6a1.08,1.08,0,1,0-2.1.3,3.75,3.75,0,0,0,1.2,1.4c1.7,1.3,4.7,2.3,4.5,5.5a4.52,4.52,0,0,1-4.7,4c-2.1,0-4.6-1.6-4.6-4.2,0-.5.2-.6.6-.6h2.3c.5,0,.6.2.6.6.2,1.7,2.6,1.3,2.1-.3a3.42,3.42,0,0,0-1.3-1.4C61.9,144.7,59,143.7,59.2,140.5Zm-10.8-3.3c0-.5.2-.6.6-.6h2c.5,0,.6.2.6.6v1.4a3.19,3.19,0,0,1,3-2c.5,0,3.1,0,3.1,4.3V151c0,.5-.2.6-.6.6H54.7c-.4.1-.5,0-.5-.5v-8.4c0-1.5,0-2.8-1.1-2.8s-1.1,1.3-1.1,2.8v8.4c0,.5-.2.6-.6.6H49c-.5,0-.6-.2-.6-.6ZM24.8,151.7H22.4c-.4,0-.6,0-.7-.5l-.4-2.4c-.1-.6-.1-.6-.7-.6H19.5c-.5,0-.5,0-.7.6l-.4,2.4c-.1.5-.3.5-.7.5H15.2c-.3,0-.6,0-.5-.5l3.5-20c.1-.5.2-.5.7-.5h2.2c.5,0,.6.1.7.5l3.5,20C25.4,151.7,25.1,151.7,24.8,151.7Zm6.2-3.3c1.1,0,1.1-1.3,1.1-2,0-.5.2-.6.6-.6H35c.5,0,.6.2.6.6,0,3.4-1.5,5.3-4.5,5.3-2.7,0-4.7-1.5-4.7-5.8v-3.6c0-4.2,2-5.8,4.7-5.8,3,0,4.5,1.9,4.5,5.3,0,.5-.2.6-.6.6H32.7c-.5,0-.6-.2-.6-.6,0-.8,0-2-1.1-2s-1.1,1.3-1.1,2.8v3.1C29.9,147.2,29.9,148.4,31,148.4Zm11,3.3c-3,0-4.7-1.5-4.7-6v-3c0-4.5,1.7-6,4.7-6s4.7,1.5,4.7,6v3C46.7,150.2,45,151.7,42,151.7Z"/><path class="cls-2" d="M74.4,142h.9c.6,0,.6,0,.6-.6,0-.2,0-1.5-1.1-1.5s-1,1.3-1,1.5C73.8,142,73.8,142,74.4,142Z"/><path class="cls-2" d="M41.9,139.9c-1.1,0-1.1,1.3-1.1,2.8v3c0,1.5,0,2.8,1.1,2.8s1.1-1.3,1.1-2.8v-3C43,141.2,43,139.9,41.9,139.9Z"/><path class="cls-2" d="M20.2,140.7c0-.2-.2-.2-.2,0l-.6,4c-.1.6-.1.6.5.6h.4c.6,0,.6,0,.5-.6Z"/><path class="cls-2" d="M22.9,33.7V28.9c0-5.5-2.6-7.5-6.1-7.5a5.28,5.28,0,0,0-1.3.1V17.8h6.7c.6,0,.8-.2.8-.8V14.3c0-.6-.2-.8-.8-.8H11.6c-.6,0-.8.2-.8.8V28.2c0,.5.2.8.6.8v.1h3.3a.68.68,0,0,0,.7-.7v-.1c0-1,0-2.4,1.4-2.4s1.4,1.4,1.4,3v5.2c0,1.3,0,2.6-1.4,2.6s-1.4-1.3-1.4-2.6c0-.6-.2-.8-.8-.8H11.5c-.6,0-.8.4-.8,1,0,4.4,2.1,6.9,6.1,6.9C20.4,41.2,22.9,39.2,22.9,33.7Z"/><path class="cls-3" d="M26.4,76.6a3.43,3.43,0,0,0,.5,1.2,3.92,3.92,0,0,0,.8.9.47.47,0,0,0,.8-.4l-.1-7c0-.6-.4-.7-.8-.4a4.19,4.19,0,0,0-.9,1.1,5.45,5.45,0,0,0-.4,1c0,.6-.1,1.3-.1,1.8A11,11,0,0,0,26.4,76.6Z"/><path class="cls-4" d="M26.5,62.6a1,1,0,0,0-.1,1.5.76.76,0,0,0,.5.2H68.6c.1,0,.4-.1.6-.1l.2-.1a1.23,1.23,0,0,0,.4-.8.87.87,0,0,0-.6-.9H26.8C26.7,62.5,26.6,62.5,26.5,62.6Z"/><path class="cls-5" d="M31.4,58.5a1,1,0,0,0,1,1H62.5a1,1,0,0,0,1-1V56.2a12.75,12.75,0,0,0-.1-2,20.4,20.4,0,0,0-1.2-4.7,13.35,13.35,0,0,0-6.9-6.6,14.14,14.14,0,0,0-3.9-.9,14.08,14.08,0,0,0-2-.1H45.6a12.75,12.75,0,0,0-2,.1A19.64,19.64,0,0,0,38,43.6a13.14,13.14,0,0,0-5.7,6.6,16.86,16.86,0,0,0-.8,3.9,14.08,14.08,0,0,0-.1,2h0Zm9.8-1.8V47a1.45,1.45,0,0,1,.2-.7.73.73,0,0,1,.6-.2h1.5a1.48,1.48,0,0,1,.7.1c.2,0,.3.1.5.2a1.38,1.38,0,0,1,.3.4,1.42,1.42,0,0,1,.2.6l2.4,6.5,2.5-6.5a1.42,1.42,0,0,0,.2-.6,1.38,1.38,0,0,1,.3-.4.76.76,0,0,1,.4-.2,4.33,4.33,0,0,1,.5-.1H53c.2,0,.3,0,.4.1s.2.1.3.2.1.2.2.3.1.2.1.4v9.6h-.2v.2a.35.35,0,0,1-.2.1c-.1,0-.2.1-.3.1h-1A.37.37,0,0,1,52,57c-.1,0-.1-.1-.2-.1a.35.35,0,0,1-.1-.2V47.8l-3.2,8.9c0,.1-.1.1-.1.2s-.1.1-.2.1a.37.37,0,0,0-.3.1h-1a.37.37,0,0,1-.3-.1.35.35,0,0,1-.2-.1c-.1,0-.1-.1-.1-.2l-3.1-8.9v9.1a.35.35,0,0,1-.2.1c-.1,0-.2.1-.3.1h-1a.37.37,0,0,1-.3-.1c-.1,0-.1-.1-.2-.1Z"/><path class="cls-6" d="M30.2,87.9c-.6-1.7-1.2-4.4-1.2-4.4a2.21,2.21,0,0,0-1.1-1.4,10.49,10.49,0,0,1-3.4-2.7,8.14,8.14,0,0,1-1.1-2.9,12.37,12.37,0,0,1-.2-1.8,11,11,0,0,1,.2-1.8,9.06,9.06,0,0,1,1.4-3.5A19.2,19.2,0,0,1,26.3,68c.5-.3.7-.4.7-.4.5-.2.7-.4.4-.4s-.9-.1-1.3-.1l-.4-.1a2.43,2.43,0,0,1-1-.5,1.36,1.36,0,0,0-1.5,0l-.8.8a9.06,9.06,0,0,0-1.3,1.9,9.19,9.19,0,0,0-1,4.1,11.22,11.22,0,0,0,.6,3.1,3.72,3.72,0,0,1,.2,1.8,5.09,5.09,0,0,1-.7,1.7s-2.3,3.3-2.3,5.8a9,9,0,0,0,9,9A9.75,9.75,0,0,0,31.8,93a.93.93,0,0,0,.3-1.3A40.18,40.18,0,0,1,30.2,87.9Z"/><path class="cls-3" d="M63.8,79.3V68.1a1,1,0,0,0-1-1H32.6a1,1,0,0,0-1,1v9.6a12.75,12.75,0,0,0,.1,2,35.87,35.87,0,0,0,1.7,7.6,17.25,17.25,0,0,0,7,8.4,13.36,13.36,0,0,0,3.9,1.6c1.1.2,2.5.3,2.5.3a5.94,5.94,0,0,0,1.1.1c.1.1.6,0,1.1,0,0,0,.6-.1,1.6-.3a21.29,21.29,0,0,0,3.3-1.1,15.22,15.22,0,0,0,4.9-3.5,18.81,18.81,0,0,0,3.9-6.5A31,31,0,0,0,63.8,79.3ZM34.9,74.1a4.4,4.4,0,0,1,8.8,0,4.51,4.51,0,0,1-4.4,4.4A4.44,4.44,0,0,1,34.9,74.1ZM57,86.4l-.4.6c-.3.5-.9,1.2-1.2,1.6A18.94,18.94,0,0,1,51.5,92a8.57,8.57,0,0,1-4.1,1,9.23,9.23,0,0,1-4.8-1.4,12.05,12.05,0,0,1-3.1-2.9l-.2-.3c-.2-.3-.6-.9-.9-1.4l-.4-.6a.52.52,0,0,1,.5-.8H56.6C57.1,85.6,57.3,85.9,57,86.4Zm-.9-7.9a4.4,4.4,0,1,1,0-8.8,4.37,4.37,0,0,1,4.4,4.4A4.44,4.44,0,0,1,56.1,78.5Z"/><path class="cls-3" d="M67.4,78.8a2.08,2.08,0,0,0,.9-1.1,3.43,3.43,0,0,0,.5-1.2,12.37,12.37,0,0,0,.2-1.8,11,11,0,0,0-.2-1.8,4.36,4.36,0,0,0-.5-1.3,2.9,2.9,0,0,0-.9-1,.47.47,0,0,0-.8.4v8C66.6,79.2,66.9,79.1,67.4,78.8Z"/><path class="cls-6" d="M74.5,78.9c-.1-.3-.2-.5-.3-.8a3.72,3.72,0,0,1,.2-1.8,11.22,11.22,0,0,0,.6-3.1,9.16,9.16,0,0,0-1.9-5.5c-.5-.6-.8-.9-.8-.9a1.53,1.53,0,0,0-1.6-.1,4.86,4.86,0,0,1-1.5.4h-1c-.4,0-.3.2.2.4a3,3,0,0,1,.8.5,8.52,8.52,0,0,1,1.6,1.7,9.5,9.5,0,0,1,1.1,3.2,12.37,12.37,0,0,1,.2,1.8,10.87,10.87,0,0,1-.1,1.8,8,8,0,0,1-.4,1.5,7.82,7.82,0,0,1-1.7,2.6,7.42,7.42,0,0,1-2.5,1.6,2.49,2.49,0,0,0-1.1,1.4,20.38,20.38,0,0,1-.5,2.3,17.35,17.35,0,0,1-1.4,3.8A19.42,19.42,0,0,1,63.1,92a1,1,0,0,0,.3,1.4,6.75,6.75,0,0,0,1.6.8,10.47,10.47,0,0,0,3,.5,9.28,9.28,0,0,0,9.2-9.1,9.16,9.16,0,0,0-1.1-4.3A6,6,0,0,0,75,79.7a2.77,2.77,0,0,1-.5-.8Z"/><path class="cls-2" d="M50.6,88.5H44.5c-.6,0-.6.3-.2.6a9.24,9.24,0,0,0,.9.5,5.93,5.93,0,0,0,2.3.5,6.93,6.93,0,0,0,2-.3,3.69,3.69,0,0,0,1.3-.6c.4-.3.3-.6-.2-.7Z"/><path class="cls-4" d="M40.7,74.1a1.4,1.4,0,1,0-2.8,0,1.43,1.43,0,0,0,1.4,1.4A1.37,1.37,0,0,0,40.7,74.1Z"/><path class="cls-4" d="M56.1,72.7a1.4,1.4,0,1,0,0,2.8,1.43,1.43,0,0,0,1.4-1.4A1.37,1.37,0,0,0,56.1,72.7Z"/><path d="M77.2,76.8a13.73,13.73,0,0,0,.6-3.4A11.56,11.56,0,0,0,76,67.1a17.27,17.27,0,0,0-2.4-2.8c-.4-.4-.7-.7-.7-.9v-.1a3.63,3.63,0,0,0-1.2-2.8,3.86,3.86,0,0,0-1.8-.9,12.31,12.31,0,0,0-2-.2h-.4a1,1,0,0,1-1-1V56.1c0-.5-.1-1.4-.1-2a24.41,24.41,0,0,0-1.7-6.6,16.38,16.38,0,0,0-6.6-6.7A26.17,26.17,0,0,0,51.5,39a12.75,12.75,0,0,0-2-.1H45.7a14.08,14.08,0,0,0-2,.1,22.29,22.29,0,0,0-5.2,1.1,16.36,16.36,0,0,0-5.7,4,13.4,13.4,0,0,0-2.5,3.7,24.9,24.9,0,0,0-1.6,6.3,12.75,12.75,0,0,0-.1,2v2.3c0,.5-.3,1-.7,1a12.77,12.77,0,0,0-1.7.2,2.66,2.66,0,0,0-1.4.7,5,5,0,0,0-1.2,1.8,4.18,4.18,0,0,1-1.1,1.5,20.25,20.25,0,0,0-2.7,2.5,11.94,11.94,0,0,0-2.5,7.3,13.73,13.73,0,0,0,.6,3.4,2.82,2.82,0,0,1-.2,1.8s-2.5,4.2-2.5,7.1a12,12,0,0,0,12,12c2.8,0,6.9-2.3,6.9-2.3a1.36,1.36,0,0,1,1.6.2,28.89,28.89,0,0,0,4.2,3.2,16.58,16.58,0,0,0,8,1.9h1.3l1.9-.2A17,17,0,0,0,55.6,99a25.54,25.54,0,0,0,4.5-3.2,1.54,1.54,0,0,1,1.6-.2s3.8,2.1,6.5,2.1a12,12,0,0,0,12-12c-.2-2.9-2.8-7.1-2.8-7.1A2.29,2.29,0,0,1,77.2,76.8ZM75,79.7a6,6,0,0,1,1.1,1.6,9.16,9.16,0,0,1,1.1,4.3A9.28,9.28,0,0,1,68,94.7a10.47,10.47,0,0,1-3-.5,6.75,6.75,0,0,1-1.6-.8,1,1,0,0,1-.3-1.4,19.42,19.42,0,0,0,1.3-2.3,17.35,17.35,0,0,0,1.4-3.8,20.38,20.38,0,0,0,.5-2.3,2.49,2.49,0,0,1,1.1-1.4,7.42,7.42,0,0,0,2.5-1.6A7.82,7.82,0,0,0,71.6,78a8,8,0,0,0,.4-1.5,10.87,10.87,0,0,0,.1-1.8,12.37,12.37,0,0,0-.2-1.8,9.5,9.5,0,0,0-1.1-3.2A8.52,8.52,0,0,0,69.2,68a3,3,0,0,0-.8-.5c-.5-.2-.6-.4-.2-.4h1a4.86,4.86,0,0,0,1.5-.4,1.53,1.53,0,0,1,1.6.1s.3.3.8.9A9.16,9.16,0,0,1,75,73.2a11.22,11.22,0,0,1-.6,3.1,3.72,3.72,0,0,0-.2,1.8,4.12,4.12,0,0,0,.3.8h0A2.77,2.77,0,0,0,75,79.7ZM53.9,96.3a21.29,21.29,0,0,1-3.3,1.1c-1,.2-1.6.3-1.6.3-.5,0-1,.1-1.1,0a5.94,5.94,0,0,1-1.1-.1s-1.4-.1-2.5-.3a13.36,13.36,0,0,1-3.9-1.6,17.25,17.25,0,0,1-7-8.4,35.87,35.87,0,0,1-1.7-7.6,12.75,12.75,0,0,1-.1-2V68.1a1,1,0,0,1,1-1H62.8a1,1,0,0,1,1,1V79.3a31,31,0,0,1-1.1,7,18.81,18.81,0,0,1-3.9,6.5A15.22,15.22,0,0,1,53.9,96.3ZM31.8,93a9.75,9.75,0,0,1-4.9,1.7,9,9,0,0,1-9-9c0-2.5,2.3-5.8,2.3-5.8a5.09,5.09,0,0,0,.7-1.7,3.72,3.72,0,0,0-.2-1.8,11.22,11.22,0,0,1-.6-3.1,9.19,9.19,0,0,1,1-4.1,9.06,9.06,0,0,1,1.3-1.9l.8-.8a1.36,1.36,0,0,1,1.5,0,2.43,2.43,0,0,0,1,.5l.4.1c.4,0,1,.1,1.3.1s.1.2-.4.4c0,0-.2.1-.7.4a19.2,19.2,0,0,0-1.5,1.4,9.06,9.06,0,0,0-1.4,3.5,11,11,0,0,0-.2,1.8,12.37,12.37,0,0,0,.2,1.8,8.14,8.14,0,0,0,1.1,2.9,10.49,10.49,0,0,0,3.4,2.7A2.21,2.21,0,0,1,29,83.5s.6,2.7,1.2,4.4a40.18,40.18,0,0,0,1.9,3.8A.93.93,0,0,1,31.8,93Zm-.3-38.9a16.86,16.86,0,0,1,.8-3.9A13.14,13.14,0,0,1,38,43.6,19.64,19.64,0,0,1,43.6,42a12.75,12.75,0,0,1,2-.1h3.8a14.08,14.08,0,0,1,2,.1,14.14,14.14,0,0,1,3.9.9,13.35,13.35,0,0,1,6.9,6.6,20.4,20.4,0,0,1,1.2,4.7,12.75,12.75,0,0,1,.1,2v2.3a1,1,0,0,1-1,1H32.4a1,1,0,0,1-1-1V56.1h0A14.08,14.08,0,0,1,31.5,54.1Zm36,8.3h1.7a.87.87,0,0,1,.6.9,1.23,1.23,0,0,1-.4.8l-.2.1c-.2,0-.5.1-.6.1H26.9a.76.76,0,0,1-.5-.2,1,1,0,0,1,.1-1.5c.1-.1.2-.1.3-.2H67.5Zm-.9,14.9V71a.47.47,0,0,1,.8-.4,2.9,2.9,0,0,1,.9,1,4.36,4.36,0,0,1,.5,1.3,11,11,0,0,1,.2,1.8,12.37,12.37,0,0,1-.2,1.8,3.43,3.43,0,0,1-.5,1.2,2.08,2.08,0,0,1-.9,1.1c-.5.3-.8.4-.8.2ZM26.7,72a4.19,4.19,0,0,1,.9-1.1c.4-.3.8-.2.8.4l.1,7a.47.47,0,0,1-.8.4,3.92,3.92,0,0,1-.8-.9,3.43,3.43,0,0,1-.5-1.2,11,11,0,0,1-.2-1.8c0-.5.1-1.2.1-1.8A5.45,5.45,0,0,1,26.7,72Z"/><path d="M56.6,85.6H38.5a.52.52,0,0,0-.5.8l.4.6c.3.5.7,1.1.9,1.4l.2.3a12.05,12.05,0,0,0,3.1,2.9A9.23,9.23,0,0,0,47.4,93a8.57,8.57,0,0,0,4.1-1,18.94,18.94,0,0,0,3.9-3.4c.3-.4.9-1.1,1.2-1.6l.4-.6C57.3,85.9,57.1,85.6,56.6,85.6Zm-5.8,3.6a3.69,3.69,0,0,1-1.3.6,6.93,6.93,0,0,1-2,.3,5.93,5.93,0,0,1-2.3-.5,9.24,9.24,0,0,1-.9-.5c-.4-.3-.4-.6.2-.6h6.1v.1C51.1,88.6,51.2,88.9,50.8,89.2Z"/><path d="M43.7,74.1a4.4,4.4,0,1,0-4.4,4.4A4.51,4.51,0,0,0,43.7,74.1Zm-5.8,0a1.4,1.4,0,1,1,1.4,1.4A1.43,1.43,0,0,1,37.9,74.1Z"/><path d="M56.1,69.7a4.4,4.4,0,1,0,4.4,4.4A4.37,4.37,0,0,0,56.1,69.7Zm0,5.8a1.4,1.4,0,1,1,1.4-1.4A1.43,1.43,0,0,1,56.1,75.5Z"/><path d="M41.7,57.1h1c.1,0,.2-.1.3-.1a.35.35,0,0,0,.2-.1V47.8l3.1,8.9c0,.1,0,.2.1.2a.35.35,0,0,0,.2.1.37.37,0,0,0,.3.1h1a.37.37,0,0,1,.3-.1c.1,0,.1-.1.2-.1s.1-.1.1-.2l3.2-8.9v8.9a.35.35,0,0,0,.1.2c.1,0,.1.1.2.1a.37.37,0,0,0,.3.1h1c.1,0,.2-.1.3-.1a.35.35,0,0,0,.2-.1v-.2H54V47.1c0-.2-.1-.3-.1-.4s-.1-.2-.2-.3-.2-.2-.3-.2-.2-.1-.4-.1H51.5a4.33,4.33,0,0,0-.5.1.76.76,0,0,0-.4.2,1.38,1.38,0,0,0-.3.4,1.42,1.42,0,0,1-.2.6l-2.5,6.5-2.4-6.5a1.42,1.42,0,0,0-.2-.6,1.38,1.38,0,0,0-.3-.4c-.2-.1-.3-.2-.5-.2a1.48,1.48,0,0,0-.7-.1H42a.73.73,0,0,0-.6.2,1.45,1.45,0,0,0-.2.7v9.9c.1,0,.1.1.2.1A.37.37,0,0,0,41.7,57.1Z"/><path class="cls-7" d="M89.9,63.5a.77.77,0,0,0-1.1-.8,4.58,4.58,0,0,0-1.1.7,3.27,3.27,0,0,0-1,1.5,9.86,9.86,0,0,0-.3,2.4v1.2a9.08,9.08,0,0,0,.3,2.3,3.29,3.29,0,0,0,1,1.4,3.7,3.7,0,0,0,1.1.8c.6.3,1.1,0,1.1-.7Z"/><path class="cls-7" d="M134.2,82.1c0-.7.1-1.7.1-2.4V62.1a1.6,1.6,0,0,0-1.2-1.4,7.49,7.49,0,0,1-3.3-1.6c-2.3-1.9-3.5-5.2-3.5-9.6a10.91,10.91,0,0,0-1.2-4.6,1.35,1.35,0,0,0-1.7-.6s-5.6,2.5-9.7,2.5-9.7-2.5-9.7-2.5a1.43,1.43,0,0,0-1.7.6,10.36,10.36,0,0,0-1.2,4.6c0,4.4-1.2,7.6-3.5,9.6a7.31,7.31,0,0,1-3.1,1.6,1.4,1.4,0,0,0-1.2,1.4v2.6a6.76,6.76,0,0,0,.1,1.2c.1,0,.1.5.1,1.2V79.7c0,.7.1,1.7.1,2.4a23,23,0,0,0,.7,4,20,20,0,0,0,3,5.8,18.3,18.3,0,0,0,9.4,6.4,30.84,30.84,0,0,0,3.9.6,19.27,19.27,0,0,0,2.4.1h1.7a19.42,19.42,0,0,0,2.4-.2s5.3-.7,8.1-2.2a18.51,18.51,0,0,0,7.8-9A21.51,21.51,0,0,0,134.2,82.1ZM112.5,63.3l.3-.2a1.5,1.5,0,0,1,1.8,0l.3.2a7.42,7.42,0,0,1,1,1.6l5.2,9.6a12.63,12.63,0,0,1,.8,1.8l-.1.4a1.42,1.42,0,0,1-.2.6,1.6,1.6,0,0,1-.9.7l-.2.1H108.6a11.52,11.52,0,0,1-2-.1l-.3-.2a2.18,2.18,0,0,1-.4-.5,1.22,1.22,0,0,1-.3-.9v-.3c.1-.3.5-1,.8-1.6l5.2-9.6C111.9,64.3,112.3,63.6,112.5,63.3ZM96.8,65.1a5.7,5.7,0,1,1,5.7,5.7A5.7,5.7,0,0,1,96.8,65.1Zm29.5,17.6s-1,4.6-2.9,6.8a13,13,0,0,1-9.7,4.6,13.26,13.26,0,0,1-10.5-5.6,15.93,15.93,0,0,1-2.3-7.8c0-.5.5-.9,1.1-1h23.3c.7,0,1.2.4,1.2.9A16.46,16.46,0,0,1,126.3,82.7Zm-1.2-11.9a5.63,5.63,0,0,1-5.7-5.7,5.7,5.7,0,1,1,5.7,5.7Z"/><path class="cls-7" d="M140.1,63.5a3,3,0,0,0-1.3-.9.77.77,0,0,0-1.1.8v8.9c0,.7.5,1,1.1.7a4.29,4.29,0,0,0,1.9-1.5l.4-.6a19.42,19.42,0,0,0,.2-2.4V67.3a17.48,17.48,0,0,0-.3-2.4A3.61,3.61,0,0,0,140.1,63.5Z"/><path class="cls-8" d="M139,43.6a6.55,6.55,0,0,0,1.5-1.8,2.91,2.91,0,0,0,.3-1.4,4,4,0,0,0-3.8-4.2,4.33,4.33,0,0,0-1.9.4,1.69,1.69,0,0,1-2.1-.4,1.81,1.81,0,0,1-.2-2.1,3.29,3.29,0,0,0,.6-1.9,4,4,0,0,0-3.8-4.2,4.42,4.42,0,0,0-3.4,1.6,1.76,1.76,0,0,1-3.2-.8,4.05,4.05,0,0,0-3.8-3.4,4.14,4.14,0,0,0-3.9,2.6,1.69,1.69,0,0,1-3.2.1,4,4,0,0,0-7.6,1.1,2,2,0,0,1-1.4,1.5,1.76,1.76,0,0,1-1.9-.7,3.88,3.88,0,0,0-3.5-1.8,4.1,4.1,0,0,0-2.8,1.3,3.83,3.83,0,0,0-1,2.9,6,6,0,0,0,.6,1.9,1.77,1.77,0,0,1-2.3,2.5,4.06,4.06,0,0,0-1.9-.4,4.1,4.1,0,0,0-2.8,1.3,3.83,3.83,0,0,0-1,2.9,2.91,2.91,0,0,0,.4,1.5,6.55,6.55,0,0,0,1.5,1.8,17,17,0,0,1,3.5,4.5A22.74,22.74,0,0,1,93.2,53a19.42,19.42,0,0,1,.2,2.4V56a.8.8,0,0,0,1.1.8s.2,0,.8-.6c1.4-1.3,2.2-3.6,2.2-6.9,0-4.2,1.4-7.3,4.1-9.4a1.81,1.81,0,0,1,2.2.1c2.3,2,5.9,3.1,9.8,3.1a15.71,15.71,0,0,0,9.8-3.1,1.67,1.67,0,0,1,2.2-.1c2.7,2,4.1,5.2,4.1,9.4,0,3.3.8,5.7,2.2,6.9a3.79,3.79,0,0,0,1,.7.87.87,0,0,0,1.2-.9v-.9a17.91,17.91,0,0,1,.2-2.4,18.2,18.2,0,0,1,1.2-4.4A18.1,18.1,0,0,1,139,43.6Z"/><path class="cls-5" d="M102.5,67.2a2.05,2.05,0,0,0,2.1-2.1,2.11,2.11,0,0,0-2.1-2.1,2.05,2.05,0,0,0-2.1,2.1A2.18,2.18,0,0,0,102.5,67.2Z"/><path class="cls-5" d="M125.1,63a2.1,2.1,0,1,0,0,4.2,2.1,2.1,0,1,0,0-4.2Z"/><path class="cls-2" d="M122.1,83.4H105c-.2,0-.3.2-.2.4l.1.2.1.2a.66.66,0,0,0,.5.4h16.2a.66.66,0,0,0,.5-.4l.1-.2.1-.2C122.4,83.6,122.3,83.4,122.1,83.4Z"/><path class="cls-2" d="M117.2,89.8a7,7,0,0,0,1.5-.9c.5-.4.4-.7-.3-.7h-9.5c-.6,0-.7.3-.2.7a8.62,8.62,0,0,0,2.1,1.2,9.29,9.29,0,0,0,2.9.5A8.53,8.53,0,0,0,117.2,89.8Z"/><path class="cls-9" d="M111.6,74.6h4.2c.6,0,.9-.5.6-1.1l-2.2-4c-.3-.6-.8-.6-1.1,0l-2.1,4C110.7,74.1,110.9,74.6,111.6,74.6Z"/><path d="M108.2,65.1a5.7,5.7,0,1,0-5.7,5.7A5.7,5.7,0,0,0,108.2,65.1ZM102.5,63a2.11,2.11,0,0,1,2.1,2.1,2.05,2.05,0,0,1-2.1,2.1,2.18,2.18,0,0,1-2.1-2.1A2.05,2.05,0,0,1,102.5,63Z"/><path d="M125.1,59.4a5.7,5.7,0,0,0-5.7,5.7,5.63,5.63,0,0,0,5.7,5.7,5.7,5.7,0,1,0,0-11.4Zm0,7.8a2.1,2.1,0,1,1,0-4.2,2.1,2.1,0,1,1,0,4.2Z"/><path d="M142.1,60.8a2.09,2.09,0,0,0-.6-.4,5.43,5.43,0,0,0-2.6-1.5,1.72,1.72,0,0,1-1.2-1.5V55.2a19.42,19.42,0,0,1,.2-2.4,12.57,12.57,0,0,1,.9-2.8,14.66,14.66,0,0,1,2.3-3.2,9.4,9.4,0,0,1,.9-.8s.3-.4.7-.9a9.83,9.83,0,0,0,1.8-4.3,7.52,7.52,0,0,0-7.2-7.9h-.1a.22.22,0,0,1-.2-.2v-.1a7.52,7.52,0,0,0-7.2-7.9,7,7,0,0,0-3,.6,1.73,1.73,0,0,1-1.8-.5,7.86,7.86,0,0,0-1.6-1.5,7.13,7.13,0,0,0-3.8-1.2c-2.2-.1-4.8,1.7-4.8,1.7a1.81,1.81,0,0,1-2,0,9,9,0,0,0-3.9-1.5,7.26,7.26,0,0,0-3.9.9,6.94,6.94,0,0,0-2.1,1.8,1.53,1.53,0,0,1-1.8.4,7.89,7.89,0,0,0-3.3-.7,7.38,7.38,0,0,0-5.2,2.5,7.29,7.29,0,0,0-2,5.4v.1a.22.22,0,0,1-.2.2h-.1a7.38,7.38,0,0,0-5.2,2.5,7.29,7.29,0,0,0-2,5.4,7.53,7.53,0,0,0,2.1,4.9l.2.2a14.42,14.42,0,0,1,3.2,3.8,12.45,12.45,0,0,1,1.2,3.5,17.91,17.91,0,0,1,.2,2.4v2a1.53,1.53,0,0,1-1.1,1.5,11.31,11.31,0,0,0-3.8,2.1A8.76,8.76,0,0,0,83.3,65a17.48,17.48,0,0,0-.3,2.4v1.2a8.52,8.52,0,0,0,.3,2.3s.8,3,2.6,4.4a12.52,12.52,0,0,0,3,1.5A1.63,1.63,0,0,1,90,78.3c0,.6,0,1.1.1,1.1s.1.3.1.8.1,1.3.1,2A31.14,31.14,0,0,0,91.7,89a22,22,0,0,0,8.8,10.5c3.3,2.1,10.3,3.1,10.3,3.1a17.91,17.91,0,0,0,2.4.2h1.7c.7,0,1.7-.1,2.4-.1a35.31,35.31,0,0,0,7.8-1.8A21.29,21.29,0,0,0,136.4,89a33.21,33.21,0,0,0,1.3-6.6,16.23,16.23,0,0,0,.1-2.1V78.4a1.6,1.6,0,0,1,1.1-1.4,9.74,9.74,0,0,0,3.3-1.7,9.6,9.6,0,0,0,2.3-4.2,9.08,9.08,0,0,0,.3-2.3V67.6a9.86,9.86,0,0,0-.3-2.4S143.8,62.2,142.1,60.8Zm-.8,7.7a19.42,19.42,0,0,1-.2,2.4l-.4.6a4.29,4.29,0,0,1-1.9,1.5c-.6.3-1.1,0-1.1-.7V63.4a.77.77,0,0,1,1.1-.8,3,3,0,0,1,1.3.9,3.61,3.61,0,0,1,.9,1.4,17.48,17.48,0,0,1,.3,2.4v1.2ZM125.2,96.6c-2.8,1.5-8.1,2.2-8.1,2.2a19.42,19.42,0,0,1-2.4.2H113a19.27,19.27,0,0,1-2.4-.1,30.84,30.84,0,0,1-3.9-.6,18.3,18.3,0,0,1-9.4-6.4,20,20,0,0,1-3-5.8,23,23,0,0,1-.7-4c0-.7-.1-1.7-.1-2.4V67.1c0-.7,0-1.2-.1-1.2a6.76,6.76,0,0,1-.1-1.2V62.1a1.4,1.4,0,0,1,1.2-1.4,7.31,7.31,0,0,0,3.1-1.6c2.3-2,3.5-5.2,3.5-9.6a10.36,10.36,0,0,1,1.2-4.6,1.43,1.43,0,0,1,1.7-.6s5.6,2.5,9.7,2.5,9.7-2.5,9.7-2.5a1.35,1.35,0,0,1,1.7.6,10.91,10.91,0,0,1,1.2,4.6c0,4.4,1.2,7.7,3.5,9.6a7.49,7.49,0,0,0,3.3,1.6,1.6,1.6,0,0,1,1.2,1.4V79.7c0,.7-.1,1.7-.1,2.4a21.51,21.51,0,0,1-1.2,5.5A18.51,18.51,0,0,1,125.2,96.6ZM88.8,73a3.7,3.7,0,0,1-1.1-.8,3.29,3.29,0,0,1-1-1.4,9.08,9.08,0,0,1-.3-2.3V67.3a9.86,9.86,0,0,1,.3-2.4,3.27,3.27,0,0,1,1-1.5,4.58,4.58,0,0,1,1.1-.7.77.77,0,0,1,1.1.8v8.8C89.9,73,89.4,73.3,88.8,73Zm45.5-20.3a17.91,17.91,0,0,0-.2,2.4V56a.87.87,0,0,1-1.2.9,3.79,3.79,0,0,1-1-.7c-1.4-1.2-2.2-3.6-2.2-6.9,0-4.2-1.4-7.4-4.1-9.4a1.67,1.67,0,0,0-2.2.1,15.71,15.71,0,0,1-9.8,3.1c-3.9,0-7.5-1.1-9.8-3.1a1.81,1.81,0,0,0-2.2-.1c-2.7,2.1-4.1,5.2-4.1,9.4,0,3.3-.8,5.6-2.2,6.9-.6.6-.8.6-.8.6a.8.8,0,0,1-1.1-.8v-.6a19.42,19.42,0,0,0-.2-2.4,22.74,22.74,0,0,0-1.3-4.6,17,17,0,0,0-3.5-4.5,6.55,6.55,0,0,1-1.5-1.8,2.91,2.91,0,0,1-.4-1.5,3.83,3.83,0,0,1,1-2.9,4.1,4.1,0,0,1,2.8-1.3,4.06,4.06,0,0,1,1.9.4,1.77,1.77,0,0,0,2.3-2.5,6,6,0,0,1-.6-1.9,3.83,3.83,0,0,1,1-2.9,4.1,4.1,0,0,1,2.8-1.3,3.88,3.88,0,0,1,3.5,1.8,1.76,1.76,0,0,0,1.9.7,2,2,0,0,0,1.4-1.5,4,4,0,0,1,7.6-1.1,1.69,1.69,0,0,0,3.2-.1,4.14,4.14,0,0,1,3.9-2.6,4.05,4.05,0,0,1,3.8,3.4,1.76,1.76,0,0,0,3.2.8,4.42,4.42,0,0,1,3.4-1.6,4,4,0,0,1,3.8,4.2,3.29,3.29,0,0,1-.6,1.9,1.81,1.81,0,0,0,.2,2.1,1.69,1.69,0,0,0,2.1.4,4.33,4.33,0,0,1,1.9-.4,4,4,0,0,1,3.8,4.2,2.91,2.91,0,0,1-.3,1.4,6.55,6.55,0,0,1-1.5,1.8,18.1,18.1,0,0,0-3.5,4.7A18.2,18.2,0,0,0,134.3,52.7Z"/><path d="M125.3,79.7H102c-.6.1-1.1.5-1.1,1a15.93,15.93,0,0,0,2.3,7.8,13.26,13.26,0,0,0,10.5,5.6,13,13,0,0,0,9.7-4.6c1.9-2.2,2.9-6.8,2.9-6.8a16.46,16.46,0,0,0,.2-2.1C126.5,80.1,126,79.7,125.3,79.7Zm-3,4.3-.1.2a.66.66,0,0,1-.5.4H105.5a.66.66,0,0,1-.5-.4l-.1-.2-.1-.2c-.1-.2,0-.4.2-.4h17.1c.2,0,.3.2.3.4Zm-13.6,4.9c-.5-.4-.4-.7.2-.7h9.5c.7,0,.8.3.3.7a7,7,0,0,1-1.5.9,8.53,8.53,0,0,1-3.5.8,9.29,9.29,0,0,1-2.9-.5A8.62,8.62,0,0,1,108.7,88.9Z"/><path d="M105.6,76.1v.3a1.22,1.22,0,0,0,.3.9,2.18,2.18,0,0,0,.4.5l.3.2a11.52,11.52,0,0,0,2,.1h11.9l.2-.1a1.6,1.6,0,0,0,.9-.7,1.42,1.42,0,0,0,.2-.6l.1-.4a12.63,12.63,0,0,0-.8-1.8l-5.2-9.6a7.42,7.42,0,0,0-1-1.6l-.3-.2a1.5,1.5,0,0,0-1.8,0l-.3.2c-.2.3-.6,1-.9,1.6l-5.2,9.6C106.1,75.1,105.7,75.8,105.6,76.1Zm5.4-2.6,2.1-4c.3-.6.8-.6,1.1,0l2.2,4c.3.6,0,1.1-.6,1.1h-4.2C110.9,74.6,110.7,74.1,111,73.5Z"/><path class="cls-10" d="M21.8,131.2c-.1-.4-.2-.5-.7-.5H18.9c-.5,0-.6,0-.7.5l-3.5,20c-.1.5.2.5.5.5h2.5c.4,0,.6,0,.7-.5l.4-2.4c.2-.6.2-.6.7-.6h1.1c.6,0,.6,0,.7.6l.4,2.4c.1.5.3.5.7.5h2.4c.3,0,.6,0,.5-.5Zm-1.5,14.1h-.4c-.6,0-.6,0-.5-.6l.6-4c0-.2.2-.2.2,0l.6,4C20.9,145.3,20.9,145.3,20.3,145.3Z"/><path class="cls-10" d="M31,139.8c1.1,0,1.1,1.2,1.1,2,0,.4.1.6.6.6H35c.4,0,.6-.1.6-.6,0-3.4-1.5-5.3-4.5-5.3-2.7,0-4.7,1.6-4.7,5.8v3.6c0,4.3,2,5.8,4.7,5.8,3,0,4.5-1.9,4.5-5.3,0-.4-.1-.6-.6-.6H32.7c-.4,0-.6.1-.6.6,0,.7,0,2-1.1,2s-1.1-1.2-1.1-2.7v-3.1C29.9,141.1,29.9,139.8,31,139.8Z"/><path class="cls-10" d="M42,136.7c-3,0-4.7,1.5-4.7,6v3c0,4.5,1.7,6,4.7,6s4.7-1.5,4.7-6v-3C46.7,138.2,45,136.7,42,136.7Zm1,9c0,1.5,0,2.8-1.1,2.8s-1.1-1.3-1.1-2.8v-3c0-1.5,0-2.8,1.1-2.8s1.1,1.3,1.1,2.8Z"/><path class="cls-10" d="M49,151.7h2.4c.4,0,.6-.1.6-.6v-8.4c0-1.5,0-2.8,1.1-2.8s1.1,1.3,1.1,2.8v8.4c0,.5.1.6.5.5h2.4c.4,0,.6-.1.6-.6V140.9c0-4.3-2.6-4.3-3.1-4.3a3.19,3.19,0,0,0-3,2v-1.4c0-.4-.1-.6-.6-.6H49c-.4,0-.6.1-.6.6v13.9C48.4,151.5,48.5,151.7,49,151.7Z"/><path class="cls-10" d="M63.6,146a3.42,3.42,0,0,1,1.3,1.4c.5,1.6-1.9,2-2.1.3,0-.4-.1-.6-.6-.6H59.9c-.4,0-.6.1-.6.6,0,2.6,2.5,4.2,4.6,4.2a4.52,4.52,0,0,0,4.7-4c.2-3.2-2.8-4.2-4.5-5.5a3.75,3.75,0,0,1-1.2-1.4,1.08,1.08,0,1,1,2.1-.3c0,.4.1.6.6.6h2.3c.4,0,.6-.1.6-.6,0-2.6-2.6-4.2-4.7-4.2a4.42,4.42,0,0,0-4.6,4C59,143.7,61.9,144.7,63.6,146Z"/><path class="cls-10" d="M74.9,151.8c3.1,0,4.5-1.9,4.5-5.3,0-.4-.1-.6-.6-.6H76.6c-.4,0-.6.1-.6.6,0,.7,0,2-1.1,2s-1.1-1.3-1.1-2.8v-.4c0-.6,0-.6.6-.6H79c.4,0,.6-.1.6-.6v-1.7c0-4.2-2-5.8-4.7-5.8s-4.7,1.6-4.7,5.8V146C70.2,150.3,72.2,151.8,74.9,151.8Zm-.1-11.9c1.1,0,1.1,1.3,1.1,1.5,0,.6,0,.6-.6.6h-.9c-.6,0-.6,0-.6-.6C73.8,141.2,73.7,139.9,74.8,139.9Z"/><path class="cls-10" d="M81.9,151.7h2.4c.3,0,.6,0,.6-.6V131.2c0-.4-.1-.6-.6-.6H81.9c-.4,0-.6.1-.6.6v19.9C81.3,151.7,81.6,151.7,81.9,151.7Z"/><path class="cls-10" d="M87.3,151.7v-.1h2.4c.4,0,.6-.1.6-.6v-8.4c0-1.5,0-2.8,1.1-2.8s1.1,1.3,1.1,2.8V151c0,.4.1.6.6.6h2.4c.4,0,.6-.1.6-.6V140.9c0-4.3-2.6-4.3-3.1-4.3a3.14,3.14,0,0,0-2.7,1.4v-6.8c0-.4-.1-.6-.6-.6H87.3c-.4,0-.6.1-.6.6v19.9C86.7,151.5,86.8,151.7,87.3,151.7Z"/><path class="cls-10" d="M101.4,151.7a2.77,2.77,0,0,0,2.5-1v.4c0,.6.3.6.6.6h2c.3,0,.6,0,.6-.6v-8.7c0-4.5-2-5.8-4.7-5.8-3,0-4.3,2.2-4.3,4.8,0,.4.1.6.6.6h2c.4,0,.6-.1.6-.6,0-.2,0-1.5,1.1-1.5s1,1.3,1.1,1.2c0,2.2-5.7,1.4-5.7,5.4v1.3C97.8,150.5,99.1,151.7,101.4,151.7Zm2-6.9v1.8c0,.8.1,1.7-1,1.7s-1.1-1-1.1-1.4C101.3,145.9,101.8,145.5,103.4,144.8Z"/><path class="cls-10" d="M109.5,151.7h2.4c.3,0,.6,0,.6-.6v-7.7c0-1.5,0-3.1,1.5-3.1a5.13,5.13,0,0,1,1,.1q.6.15.6-.6v-2.6c0-.4-.1-.6-.6-.6h-.3a3,3,0,0,0-2.2.9v-.3c0-.4-.1-.6-.6-.6h-2.4c-.4,0-.6.1-.6.6v13.9C108.9,151.7,109.2,151.7,109.5,151.7Z"/><path d="M96.6,191.2h.8c.3,0,.3,0,.3-.3,0-.6-.1-1.2-.7-1.2s-.7.6-.7,1.2C96.3,191.2,96.3,191.2,96.6,191.2Z"/><path d="M117.3,195.1c.7-.1.8-.7.8-1.4v-1.3c-.9.4-1.6.6-1.6,1.4v.2C116.5,194.2,116.5,195.1,117.3,195.1Z"/><path d="M97.7,207c0,.3,0,.3.3.3h.8c.3,0,.3,0,.3-.3,0-.6-.1-1.2-.7-1.2S97.8,206.4,97.7,207Z"/><path d="M57.1,194.9c.7,0,.7-.8.7-1.6v-1.9c0-.8,0-1.6-.7-1.6s-.7.8-.7,1.6v1.9C56.4,194.1,56.4,194.9,57.1,194.9Z"/><path d="M92.7,210.9h.5c.3,0,.3,0,.3-.3V206c0-.2-.1-.2-.3-.2h-.5c-.8,0-.8.8-.8,1.6v1.9C91.9,210.1,91.9,210.9,92.7,210.9Z"/><path d="M87.5,195.1c.7-.1.8-.7.8-1.4v-1.3c-.9.4-1.6.6-1.6,1.4v.2C86.7,194.2,86.7,195.1,87.5,195.1Z"/><path d="M78.3,207.3h.8c.3,0,.3,0,.3-.3,0-.6-.1-1.2-.7-1.2s-.7.6-.7,1.2C78,207.3,78,207.3,78.3,207.3Z"/><path d="M73.3,191.2h.8c.3,0,.3,0,.3-.3,0-.6-.1-1.2-.7-1.2s-.7.6-.7,1.2C73,191.2,73,191.2,73.3,191.2Z"/><path d="M73,210.9h.5c.3,0,.3,0,.3-.3V206c0-.2-.1-.2-.3-.2H73c-.8,0-.8.8-.8,1.6v1.9C72.2,210.1,72.2,210.9,73,210.9Z"/><path d="M58,207c0,.3,0,.3.3.3h.8c.3,0,.3,0,.3-.3,0-.6-.1-1.2-.7-1.2S58,206.4,58,207Z"/><path d="M45,193.8v.2c0,.2,0,1.1.8,1.1s.8-.7.8-1.4v-1.3C45.7,192.8,45,193,45,193.8Z"/><path d="M50.5,205.8c-.5,0-.7.6-.7,1.2,0,.3,0,.3.3.3h.8c.3,0,.3,0,.3-.3C51.2,206.4,51.1,205.8,50.5,205.8Z"/><path d="M136.6,177.2H65.4a4,4,0,0,1-3-1.7l-2.8-4.6-5.4-9.1c-.6-1-1.5-1-2,0l-4.5,8.5L45,175.4a3.87,3.87,0,0,1-3,1.8H24.1a2,2,0,0,0-2,2v38.2a2,2,0,0,0,2,2H136.6a2,2,0,0,0,2-2V179.2A2,2,0,0,0,136.6,177.2ZM54.8,191.4c0-2.3.9-3.1,2.3-3.1s2.3.8,2.3,3.1v1.9c0,2.2-.9,3.1-2.3,3.1s-2.3-.8-2.3-3.1Zm6.7-3a.27.27,0,0,1,.3.3v.7a1.62,1.62,0,0,1,1.6-1c.2,0,1.6,0,1.6,2.3v5.4a.27.27,0,0,1-.3.3h-1a.27.27,0,0,1-.3-.3v-4.7c0-.7,0-1.6-.7-1.6s-.7,1-.7,1.6v4.7a.27.27,0,0,1-.3.3h-1a.27.27,0,0,1-.3-.3v-7.4a.27.27,0,0,1,.3-.3Zm9,6a2.37,2.37,0,0,1-4.7-.1.27.27,0,0,1,.3-.3H67a.27.27,0,0,1,.3.3.75.75,0,1,0,1.5-.1c-.1-1.3-3.2-1.4-3.1-3.8a2.24,2.24,0,0,1,2.4-2,2.13,2.13,0,0,1,2.2,2.1.27.27,0,0,1-.3.3h-.9a.27.27,0,0,1-.3-.3.7.7,0,1,0-1.4.1C67.6,191.9,70.7,192,70.5,194.4Zm-4.2,12.1a.27.27,0,0,1-.3.3h-.9a.27.27,0,0,1-.3-.3.7.7,0,1,0-1.4.1c.2,1.3,3.3,1.5,3.1,3.8a2.37,2.37,0,0,1-4.7-.1.27.27,0,0,1,.3-.3H63a.27.27,0,0,1,.3.3.75.75,0,1,0,1.5-.1c-.1-1.3-3.2-1.4-3.1-3.8a2.24,2.24,0,0,1,2.4-2A2.13,2.13,0,0,1,66.3,206.5Zm-5.4.7v1a.27.27,0,0,1-.3.3H58.3v.2c-.3,0-.3,0-.3.3v.4c0,.8,0,1.6.7,1.6s.7-.9.7-1.4c0-.2.1-.4.3-.4h.9c.2,0,.3.2.3.4,0,1.8-.7,2.8-2.3,2.8-1.4,0-2.3-.8-2.3-3.1v-2.1c0-2.3.9-3.1,2.3-3.1S60.9,204.9,60.9,207.2Zm-5.8-6a.27.27,0,0,1,.3.3v10.6c0,.3-.2.3-.3.3h-1c-.1.1-.3.1-.3-.3V201.5a.27.27,0,0,1,.3-.3Zm-3.6-6.3c.7,0,.7-.9.7-1.4a.27.27,0,0,1,.3-.3h.9a.27.27,0,0,1,.3.3c0,1.8-.7,2.8-2.3,2.8-1.4,0-2.3-.8-2.3-3.1v-1.9c0-2.3.9-3.1,2.3-3.1,1.6,0,2.3,1,2.3,2.8a.27.27,0,0,1-.3.3h-.9a.27.27,0,0,1-.3-.3c0-.5,0-1.4-.7-1.4s-.7.8-.7,1.6v2.1C50.8,194.1,50.8,194.9,51.5,194.9Zm-1,16.1c.7,0,.7-.9.7-1.4,0-.2.1-.4.3-.4h.9c.2,0,.3.2.3.4,0,1.8-.7,2.8-2.3,2.8-1.4,0-2.3-.8-2.3-3.1v-2.1c0-2.3.9-3.1,2.3-3.1s2.3.8,2.3,3.1v1a.27.27,0,0,1-.3.3H50.1v.2c-.3,0-.3,0-.3.3v.4C49.8,210.2,49.8,211,50.5,211Zm-2.3-19.5v4.6c0,.3-.2.3-.3.3h-.8c-.2,0-.3,0-.3-.3v-.2a2,2,0,0,1-1.4.5,1.83,1.83,0,0,1-2-2.1v-.7c0-2.6,3.2-1.8,3.2-3.1a.67.67,0,0,0-.7-.7c-.7,0-.8.7-.8,1.1a.27.27,0,0,1-.3.3h-.9a.27.27,0,0,1-.3-.3,2.21,2.21,0,0,1,2.3-2.5C47.3,188.4,48.2,189.2,48.2,191.5Zm-12,4.9c-.2,0-1.6,0-1.6-2.3v-5.4a.27.27,0,0,1,.3-.3h1a.27.27,0,0,1,.3.3v4.7c0,.7,0,1.6.7,1.6s.7-1,.7-1.6v-4.7a.27.27,0,0,1,.3-.3h1a.27.27,0,0,1,.3.3v7.4a.27.27,0,0,1-.3.3h-.8a.27.27,0,0,1-.3-.3v-.7A1.62,1.62,0,0,1,36.2,196.4Zm-6.6-10.9a.27.27,0,0,1,.3-.3h3.4a.27.27,0,0,1,.3.3v.9a.27.27,0,0,1-.3.3H31.5c-.3,0-.3,0-.3.3v2.4c0,.3,0,.3.3.3h1.8a.27.27,0,0,1,.3.3v.9a.27.27,0,0,1-.3.3H31.5c-.3,0-.3,0-.3.3v3c0,.3,0,.3.3.3h1.8a.27.27,0,0,1,.3.3v.9a.27.27,0,0,1-.3.3H29.9c-.1.1-.3.1-.3-.2ZM73.7,195c.7,0,.7-.9.7-1.4,0-.2.1-.4.3-.4h.9c.2,0,.3.2.3.4,0,1.8-.7,2.8-2.3,2.8-1.4,0-2.3-.8-2.3-3.1v-2.1c0-2.3.9-3.1,2.3-3.1s2.3.8,2.3,3.1v1a.27.27,0,0,1-.3.3H73.3v.2c-.3,0-.3,0-.3.3v.4C73,194.2,73,195,73.7,195Zm-.7,9.5h.8v-2.9c0-.3.2-.3.3-.3h1c.2,0,.3,0,.3.3v10.6a.27.27,0,0,1-.3.3H73c-1.6,0-2.4-.8-2.4-3.2v-1.6C70.6,205.3,71.4,204.5,73,204.5Zm5.6-.4c1.4,0,2.3.8,2.3,3.1v1a.27.27,0,0,1-.3.3H78.3v.2c-.3,0-.3,0-.3.3v.4c0,.8,0,1.6.7,1.6s.7-.9.7-1.4c0-.2.1-.4.3-.4h.9c.2,0,.3.2.3.4,0,1.8-.7,2.8-2.3,2.8-1.4,0-2.3-.8-2.3-3.1v-2.1C76.3,204.9,77.2,204.1,78.6,204.1Zm-1.6-8V185.5a.27.27,0,0,1,.3-.3h1a.27.27,0,0,1,.3.3v10.6c0,.3-.2.3-.3.3h-1C77.1,196.4,77,196.4,77,196.1Zm5.6-7.7c.2,0,1.6,0,1.6,2.3v5.4a.27.27,0,0,1-.3.3h-1a.27.27,0,0,1-.3-.3v-4.7c0-.7,0-1.6-.7-1.6s-.7.7-.7,1.3v5a.27.27,0,0,1-.3.3h-1a.27.27,0,0,1-.3-.3V185.5a.27.27,0,0,1,.3-.3h1a.27.27,0,0,1,.3.3v3.6A1.61,1.61,0,0,1,82.6,188.4Zm5,1.4c-.7,0-.8.7-.8,1.1a.27.27,0,0,1-.3.3h-.9a.27.27,0,0,1-.3-.3,2.21,2.21,0,0,1,2.3-2.5c1.4,0,2.3.8,2.3,3.1v4.6c0,.3-.2.3-.3.3h-.8c-.2,0-.3,0-.3-.3v-.2a2,2,0,0,1-1.4.5,1.83,1.83,0,0,1-2-2.1v-.7c0-2.6,3.2-1.8,3.2-3.1A.67.67,0,0,0,87.6,189.8Zm.9,14.3a.9.9,0,1,1,.9-.9A.9.9,0,0,1,88.5,204.1Zm.8.6v7.4c0,.3-.2.3-.3.3H88c-.2.1-.3.1-.3-.3v-7.4a.27.27,0,0,1,.3-.3h1A.27.27,0,0,1,89.3,204.7Zm-2.8,2.4a.27.27,0,0,1-.3.3h-.9a.27.27,0,0,1-.3-.3c0-.5,0-1.4-.7-1.4s-.7.8-.7,1.6v2.1c0,.8,0,1.6.7,1.6s.7-.9.7-1.4a.27.27,0,0,1,.3-.3h.9a.27.27,0,0,1,.3.3c0,1.8-.7,2.8-2.3,2.8-1.4,0-2.3-.8-2.3-3.1v-1.9c0-2.3.9-3.1,2.3-3.1C85.8,204.3,86.5,205.3,86.5,207.1Zm7.2-18.8h.2a.27.27,0,0,1,.3.3v.9c0,.2-.1.4-.3.3h-.6c-.8,0-.8.8-.8,1.6V196c0,.3-.2.3-.3.3h-1c-.2,0-.3,0-.3-.3v-7.4a.27.27,0,0,1,.3-.3h1a.27.27,0,0,1,.3.3v.2A1.58,1.58,0,0,1,93.7,188.3Zm-1,16.2h.8v-2.9c0-.3.2-.3.3-.3h1c.2,0,.3,0,.3.3v10.6c0,.2,0,.3-.3.3H92.7c-1.6,0-2.4-.8-2.4-3.2v-1.6C90.3,205.3,91.1,204.5,92.7,204.5Zm12.2-.1a1.36,1.36,0,0,1,1.4,1.1,1.62,1.62,0,0,1,1.6-1c.2,0,1.6,0,1.6,2.3v5.4a.27.27,0,0,1-.3.3h-1c-.3,0-.3-.1-.3-.4v-4.7c0-.7,0-1.6-.7-1.6s-.7,1-.7,1.6v4.7a.27.27,0,0,1-.3.3h-1a.27.27,0,0,1-.3-.3v-4.7c0-.7,0-1.6-.7-1.6s-.7,1-.7,1.6v4.7a.27.27,0,0,1-.3.3h-1a.27.27,0,0,1-.3-.3v-7.4a.27.27,0,0,1,.3-.3h.8a.27.27,0,0,1,.3.3v.7A1.62,1.62,0,0,1,104.9,204.4Zm4.5-16a1.36,1.36,0,0,1,1.4,1.1,1.62,1.62,0,0,1,1.6-1c.2,0,1.6,0,1.6,2.3v5.4a.27.27,0,0,1-.3.3h-1c-.2-.1-.3-.2-.3-.4v-4.7c0-.7,0-1.6-.7-1.6s-.7,1-.7,1.6v4.7a.27.27,0,0,1-.3.3h-1a.27.27,0,0,1-.3-.3v-4.7c0-.7,0-1.6-.7-1.6s-.7,1-.7,1.6v4.7a.27.27,0,0,1-.3.3h-1a.27.27,0,0,1-.3-.3v-7.4a.27.27,0,0,1,.3-.3h.8a.27.27,0,0,1,.3.3v.7A1.62,1.62,0,0,1,109.4,188.4Zm-7.7,8h-1c-.1,0-.3,0-.3-.3v-7.4a.27.27,0,0,1,.3-.3h1a.27.27,0,0,1,.3.3v7.4C102,196.4,101.8,196.4,101.7,196.4Zm-.5-8.4a.9.9,0,1,1,.9-.9A.9.9,0,0,1,101.2,188Zm-.6,19.2v1a.27.27,0,0,1-.3.3H98v.2c-.3,0-.3,0-.3.3v.4c0,.8,0,1.6.7,1.6s.7-.9.7-1.4c0-.2.1-.4.3-.4h.9c.2,0,.3.2.3.4,0,1.8-.7,2.8-2.3,2.8-1.4,0-2.3-.8-2.3-3.1v-2.1c0-2.3.9-3.1,2.3-3.1S100.6,204.9,100.6,207.2Zm-1.4-15a.27.27,0,0,1-.3.3H96.6v.2c-.3,0-.3,0-.3.3v.4c0,.8,0,1.6.7,1.6s.7-.9.7-1.4c0-.2.1-.4.3-.4h.9c.2,0,.3.2.3.4,0,1.8-.7,2.8-2.3,2.8-1.4,0-2.3-.8-2.3-3.1v-2.1c0-2.3.9-3.1,2.3-3.1s2.3.8,2.3,3.1v1Zm18.2-2.4c-.7,0-.8.7-.8,1.1a.27.27,0,0,1-.3.3h-.9a.27.27,0,0,1-.3-.3,2.21,2.21,0,0,1,2.3-2.5c1.4,0,2.3.8,2.3,3.1v4.6c0,.3-.2.3-.3.3h-.8c-.2,0-.3,0-.3-.3v-.2a2,2,0,0,1-1.4.5,1.83,1.83,0,0,1-2-2.1v-.7c0-2.6,3.2-1.8,3.2-3.1A.67.67,0,0,0,117.4,189.8Zm5.4,6.6a2.22,2.22,0,0,1-2.3-2.1.27.27,0,0,1,.3-.3h.9a.27.27,0,0,1,.3.3.75.75,0,1,0,1.5-.1c-.1-1.3-3.2-1.4-3.1-3.8a2.24,2.24,0,0,1,2.4-2,2.13,2.13,0,0,1,2.2,2.1.27.27,0,0,1-.3.3h-.9a.27.27,0,0,1-.3-.3.7.7,0,1,0-1.4.1c.1,1.3,3.3,1.4,3.1,3.8A2.24,2.24,0,0,1,122.8,196.4Z"/><path class="cls-2" d="M33.3,185.2H29.9a.27.27,0,0,0-.3.3v10.6c0,.3.2.3.3.2h3.4a.27.27,0,0,0,.3-.3v-.9a.27.27,0,0,0-.3-.3H31.5c-.3,0-.3,0-.3-.3v-3c0-.3,0-.3.3-.3h1.8a.27.27,0,0,0,.3-.3V190a.27.27,0,0,0-.3-.3H31.5c-.3,0-.3,0-.3-.3V187c0-.3,0-.3.3-.3h1.8a.27.27,0,0,0,.3-.3v-.9A.27.27,0,0,0,33.3,185.2Z"/><path class="cls-2" d="M38.9,188.4h-1a.27.27,0,0,0-.3.3v4.7c0,.6,0,1.6-.7,1.6s-.7-.9-.7-1.6v-4.7a.27.27,0,0,0-.3-.3h-1a.27.27,0,0,0-.3.3v5.4c0,2.3,1.4,2.3,1.6,2.3a1.62,1.62,0,0,0,1.6-1v.7a.27.27,0,0,0,.3.3h.8a.27.27,0,0,0,.3-.3v-7.4A.27.27,0,0,0,38.9,188.4Z"/><path class="cls-2" d="M48.2,191.5c0-2.3-.9-3.1-2.3-3.1a2.21,2.21,0,0,0-2.3,2.5.27.27,0,0,0,.3.3h.9a.27.27,0,0,0,.3-.3c0-.4.1-1.1.8-1.1a.67.67,0,0,1,.7.7c0,1.3-3.2.5-3.2,3.1v.7a1.83,1.83,0,0,0,2,2.1,2,2,0,0,0,1.4-.5v.2c0,.3.1.3.3.3h.8c.1,0,.3,0,.3-.3v-4.6Zm-1.6,2.2c0,.7-.1,1.3-.8,1.4s-.8-.9-.8-1.1v-.2c0-.8.7-1,1.6-1.4v1.3Z"/><path class="cls-2" d="M51.5,189.6c.7,0,.7.9.7,1.4a.27.27,0,0,0,.3.3h.9a.27.27,0,0,0,.3-.3c0-1.8-.7-2.8-2.3-2.8-1.4,0-2.3.8-2.3,3.1v1.9c0,2.3.9,3.1,2.3,3.1,1.6,0,2.3-1,2.3-2.8a.27.27,0,0,0-.3-.3h-.9a.27.27,0,0,0-.3.3c0,.5,0,1.4-.7,1.4s-.7-.8-.7-1.6v-2.1C50.8,190.4,50.8,189.6,51.5,189.6Z"/><path class="cls-2" d="M57.1,196.4c1.4,0,2.3-.9,2.3-3.1v-1.9c0-2.3-.9-3.1-2.3-3.1s-2.3.8-2.3,3.1v1.9C54.8,195.6,55.7,196.4,57.1,196.4Zm-.7-5c0-.8,0-1.6.7-1.6s.7.8.7,1.6v1.9c0,.8,0,1.6-.7,1.6s-.7-.8-.7-1.6Z"/><path class="cls-2" d="M60.7,196.4h1a.27.27,0,0,0,.3-.3v-4.7c0-.6,0-1.6.7-1.6s.7.9.7,1.6v4.7a.27.27,0,0,0,.3.3h1a.27.27,0,0,0,.3-.3v-5.4c0-2.3-1.4-2.3-1.6-2.3a1.62,1.62,0,0,0-1.6,1v-.7a.27.27,0,0,0-.3-.3h-.8a.27.27,0,0,0-.3.3v7.4A.27.27,0,0,0,60.7,196.4Z"/><path class="cls-2" d="M68.8,194.2a.75.75,0,1,1-1.5.1.27.27,0,0,0-.3-.3h-.9a.27.27,0,0,0-.3.3,2.37,2.37,0,0,0,4.7.1c.2-2.4-2.9-2.5-3.1-3.8a.7.7,0,1,1,1.4-.1.27.27,0,0,0,.3.3H70a.27.27,0,0,0,.3-.3,2.13,2.13,0,0,0-2.2-2.1,2.24,2.24,0,0,0-2.4,2C65.6,192.8,68.7,192.9,68.8,194.2Z"/><path class="cls-2" d="M73.6,196.4c1.6,0,2.3-1,2.3-2.8,0-.2-.1-.4-.3-.4h-.9c-.2,0-.3.2-.3.4,0,.5,0,1.4-.7,1.4s-.7-.8-.7-1.6V193c0-.3,0-.3.3-.3v-.2h2.3a.27.27,0,0,0,.3-.3v-1c0-2.3-.9-3.1-2.3-3.1s-2.3.8-2.3,3.1v2.1C71.3,195.6,72.2,196.4,73.6,196.4Zm.1-6.7c.6,0,.7.6.7,1.2,0,.3,0,.3-.3.3h-.8c-.3,0-.3,0-.3-.3C73,190.3,73.1,189.7,73.7,189.7Z"/><path class="cls-2" d="M77.3,196.4h1c.1,0,.3,0,.3-.3V185.5a.27.27,0,0,0-.3-.3h-1a.27.27,0,0,0-.3.3v10.6C77,196.4,77.1,196.4,77.3,196.4Z"/><path class="cls-2" d="M79.9,196.4h1a.27.27,0,0,0,.3-.3v-5c0-.6.1-1.3.7-1.3s.7.9.7,1.6v4.7a.27.27,0,0,0,.3.3h1a.27.27,0,0,0,.3-.3v-5.4c0-2.3-1.4-2.3-1.6-2.3a1.61,1.61,0,0,0-1.4.7v-3.6a.27.27,0,0,0-.3-.3h-1a.27.27,0,0,0-.3.3v10.6A.27.27,0,0,0,79.9,196.4Z"/><path class="cls-2" d="M87.1,196.4a2,2,0,0,0,1.4-.5v.2c0,.3.1.3.3.3h.8c.1,0,.3,0,.3-.3v-4.6c0-2.3-.9-3.1-2.3-3.1a2.21,2.21,0,0,0-2.3,2.5.27.27,0,0,0,.3.3h.9a.27.27,0,0,0,.3-.3c0-.4.1-1.1.8-1.1a.67.67,0,0,1,.7.7c0,1.3-3.2.5-3.2,3.1v.7A1.83,1.83,0,0,0,87.1,196.4Zm-.4-2.6c0-.8.7-1,1.6-1.4v1.3c0,.7-.1,1.3-.8,1.4s-.8-.9-.8-1.1v-.2Z"/><path class="cls-2" d="M91.2,196.3h1c.1,0,.3,0,.3-.3v-4.6c0-.8,0-1.6.8-1.6h.6c.2.1.3-.1.3-.3v-.9a.27.27,0,0,0-.3-.3h-.2a1.58,1.58,0,0,0-1.2.5v-.2a.27.27,0,0,0-.3-.3h-1a.27.27,0,0,0-.3.3V196C90.9,196.3,91,196.3,91.2,196.3Z"/><path class="cls-2" d="M96.9,196.4c1.6,0,2.3-1,2.3-2.8,0-.2-.1-.4-.3-.4H98c-.2,0-.3.2-.3.4,0,.5,0,1.4-.7,1.4s-.7-.8-.7-1.6V193c0-.3,0-.3.3-.3v-.2h2.3a.27.27,0,0,0,.3-.3v-1c0-2.3-.9-3.1-2.3-3.1s-2.3.8-2.3,3.1v2.1C94.6,195.6,95.5,196.4,96.9,196.4Zm.1-6.7c.6,0,.7.6.7,1.2,0,.3,0,.3-.3.3h-.8c-.3,0-.3,0-.3-.3C96.3,190.3,96.4,189.7,97,189.7Z"/><path class="cls-2" d="M101.2,188a.9.9,0,1,0-.9-.9A.9.9,0,0,0,101.2,188Z"/><path class="cls-2" d="M102,188.7a.27.27,0,0,0-.3-.3h-1a.27.27,0,0,0-.3.3v7.4c0,.3.2.3.3.3h1c.1,0,.3,0,.3-.3Z"/><path class="cls-2" d="M106.7,196.4h1a.27.27,0,0,0,.3-.3v-4.7c0-.6,0-1.6.7-1.6s.7.9.7,1.6v4.7a.27.27,0,0,0,.3.3h1a.27.27,0,0,0,.3-.3v-4.7c0-.6,0-1.6.7-1.6s.7.9.7,1.6v4.7c0,.2.1.3.3.4h1a.27.27,0,0,0,.3-.3v-5.4c0-2.3-1.4-2.3-1.6-2.3a1.62,1.62,0,0,0-1.6,1,1.36,1.36,0,0,0-1.4-1.1,1.62,1.62,0,0,0-1.6,1v-.7a.27.27,0,0,0-.3-.3h-.8a.27.27,0,0,0-.3.3v7.4A.27.27,0,0,0,106.7,196.4Z"/><path class="cls-2" d="M116.9,196.4a2,2,0,0,0,1.4-.5v.2c0,.3.1.3.3.3h.8c.1,0,.3,0,.3-.3v-4.6c0-2.3-.9-3.1-2.3-3.1a2.21,2.21,0,0,0-2.3,2.5.27.27,0,0,0,.3.3h.9a.27.27,0,0,0,.3-.3c0-.4.1-1.1.8-1.1a.67.67,0,0,1,.7.7c0,1.3-3.2.5-3.2,3.1v.7A1.83,1.83,0,0,0,116.9,196.4Zm-.4-2.6c0-.8.7-1,1.6-1.4v1.3c0,.7-.1,1.3-.8,1.4s-.8-.9-.8-1.1v-.2Z"/><path class="cls-2" d="M123.5,194.2a.75.75,0,1,1-1.5.1.27.27,0,0,0-.3-.3h-.9a.27.27,0,0,0-.3.3,2.37,2.37,0,0,0,4.7.1c.2-2.4-3-2.5-3.1-3.8a.7.7,0,1,1,1.4-.1.27.27,0,0,0,.3.3h.9a.27.27,0,0,0,.3-.3,2.13,2.13,0,0,0-2.2-2.1,2.24,2.24,0,0,0-2.4,2C120.3,192.8,123.4,192.9,123.5,194.2Z"/><path class="cls-2" d="M50.4,204.1c-1.4,0-2.3.8-2.3,3.1v2.1c0,2.3.9,3.1,2.3,3.1,1.6,0,2.3-1,2.3-2.8,0-.2-.1-.4-.3-.4h-.9c-.2,0-.3.2-.3.4,0,.5,0,1.4-.7,1.4s-.7-.8-.7-1.6V209c0-.3,0-.3.3-.3v-.2h2.3a.27.27,0,0,0,.3-.3v-1C52.7,204.9,51.8,204.1,50.4,204.1Zm.5,3.2h-.8c-.3,0-.3,0-.3-.3,0-.6.2-1.2.7-1.2s.7.6.7,1.2C51.2,207.3,51.2,207.3,50.9,207.3Z"/><path class="cls-2" d="M55.1,201.2h-1a.27.27,0,0,0-.3.3v10.6c0,.4.2.4.3.3h1c.1,0,.3,0,.3-.3V201.5A.27.27,0,0,0,55.1,201.2Z"/><path class="cls-2" d="M56.3,207.2v2.1c0,2.3.9,3.1,2.3,3.1,1.6,0,2.3-1,2.3-2.8,0-.2-.1-.4-.3-.4h-.9c-.2,0-.3.2-.3.4,0,.5,0,1.4-.7,1.4s-.7-.8-.7-1.6V209c0-.3,0-.3.3-.3v-.2h2.3a.27.27,0,0,0,.3-.3v-1c0-2.3-.9-3.1-2.3-3.1S56.3,204.9,56.3,207.2Zm3.1-.2c0,.3,0,.3-.3.3h-.8c-.3,0-.3,0-.3-.3,0-.6.1-1.2.7-1.2S59.4,206.4,59.4,207Z"/><path class="cls-2" d="M61.7,206.4c-.1,2.4,3,2.5,3.1,3.8a.75.75,0,1,1-1.5.1.27.27,0,0,0-.3-.3h-.9a.27.27,0,0,0-.3.3,2.37,2.37,0,0,0,4.7.1c.2-2.3-2.9-2.5-3.1-3.8a.7.7,0,1,1,1.4-.1.27.27,0,0,0,.3.3H66a.27.27,0,0,0,.3-.3,2.13,2.13,0,0,0-2.2-2.1A2.24,2.24,0,0,0,61.7,206.4Z"/><path class="cls-2" d="M73,212.5h2.1a.27.27,0,0,0,.3-.3V201.6c0-.3-.1-.3-.3-.3h-1c-.1,0-.3,0-.3.3v2.9H73c-1.6,0-2.4.8-2.4,3.2v1.6C70.6,211.7,71.4,212.5,73,212.5Zm-.8-5.1c0-.8,0-1.6.8-1.6h.5c.2,0,.3,0,.3.2v4.6c0,.3,0,.3-.3.3H73c-.8,0-.8-.8-.8-1.6Z"/><path class="cls-2" d="M78.6,212.4c1.6,0,2.3-1,2.3-2.8,0-.2-.1-.4-.3-.4h-.9c-.2,0-.3.2-.3.4,0,.5,0,1.4-.7,1.4s-.7-.8-.7-1.6V209c0-.3,0-.3.3-.3v-.2h2.3a.27.27,0,0,0,.3-.3v-1c0-2.3-.9-3.1-2.3-3.1s-2.3.8-2.3,3.1v2.1C76.3,211.6,77.2,212.4,78.6,212.4Zm.1-6.6c.6,0,.7.6.7,1.2,0,.3,0,.3-.3.3h-.8c-.3,0-.3,0-.3-.3C78,206.4,78.1,205.8,78.7,205.8Z"/><path class="cls-2" d="M84.3,205.7c.7,0,.7.9.7,1.4a.27.27,0,0,0,.3.3h.9a.27.27,0,0,0,.3-.3c0-1.8-.7-2.8-2.3-2.8-1.4,0-2.3.8-2.3,3.1v1.9c0,2.3.9,3.1,2.3,3.1,1.6,0,2.3-1,2.3-2.8a.27.27,0,0,0-.3-.3h-.9a.27.27,0,0,0-.3.3c0,.5,0,1.4-.7,1.4s-.7-.8-.7-1.6v-2.1C83.6,206.5,83.6,205.7,84.3,205.7Z"/><path class="cls-2" d="M88.5,202.3a.9.9,0,1,0,.9.9A.9.9,0,0,0,88.5,202.3Z"/><path class="cls-2" d="M89,204.4H88a.27.27,0,0,0-.3.3v7.4c0,.4.1.4.3.3h1c.1,0,.3,0,.3-.3v-7.4A.27.27,0,0,0,89,204.4Z"/><path class="cls-2" d="M92.7,212.5h2.1c.3,0,.3-.1.3-.3V201.6c0-.3-.1-.3-.3-.3h-1c-.1,0-.3,0-.3.3v2.9h-.8c-1.6,0-2.4.8-2.4,3.2v1.6C90.3,211.7,91.1,212.5,92.7,212.5Zm-.8-5.1c0-.8,0-1.6.8-1.6h.5c.2,0,.3,0,.3.2v4.6c0,.3,0,.3-.3.3h-.5c-.8,0-.8-.8-.8-1.6Z"/><path class="cls-2" d="M96,207.2v2.1c0,2.3.9,3.1,2.3,3.1,1.6,0,2.3-1,2.3-2.8,0-.2-.1-.4-.3-.4h-.9c-.2,0-.3.2-.3.4,0,.5,0,1.4-.7,1.4s-.7-.8-.7-1.6V209c0-.3,0-.3.3-.3v-.2h2.3a.27.27,0,0,0,.3-.3v-1c0-2.3-.9-3.1-2.3-3.1S96,204.9,96,207.2Zm3.1-.2c0,.3,0,.3-.3.3H98c-.3,0-.3,0-.3-.3.1-.6.2-1.2.7-1.2S99.1,206.4,99.1,207Z"/><path class="cls-2" d="M101.9,204.7v7.4a.27.27,0,0,0,.3.3h1a.27.27,0,0,0,.3-.3v-4.7c0-.6,0-1.6.7-1.6s.7.9.7,1.6v4.7a.27.27,0,0,0,.3.3h1a.27.27,0,0,0,.3-.3v-4.7c0-.6,0-1.6.7-1.6s.7.9.7,1.6v4.7c0,.3,0,.4.3.4h1a.27.27,0,0,0,.3-.3v-5.4c0-2.3-1.4-2.3-1.6-2.3a1.62,1.62,0,0,0-1.6,1,1.36,1.36,0,0,0-1.4-1.1,1.62,1.62,0,0,0-1.6,1v-.7a.27.27,0,0,0-.3-.3h-.8A.27.27,0,0,0,101.9,204.7Z"/></g></g></svg>