<svg width="18" height="18" viewBox="0 0 18 18" fill="none" xmlns="http://www.w3.org/2000/svg">
<path d="M0.911933 0.929636C1.13477 0.697242 1.50356 0.689525 1.73621 0.911422L1.73646 0.911669L8.99992 7.85925L16.2634 0.911638L16.2637 0.911391C16.4963 0.689481 16.8651 0.697213 17.088 0.929644C17.1966 1.04288 17.25 1.18913 17.25 1.33318C17.25 1.48692 17.1893 1.6399 17.0704 1.75427L17.0699 1.75473L9.49565 8.99992L17.0882 17.0702M0.911933 0.929636C0.911971 0.929597 0.912009 0.929557 0.912047 0.929518L1.09231 1.10274L0.911814 0.929761C0.911853 0.929719 0.911893 0.929678 0.911933 0.929636ZM0.911933 0.929636C0.687254 1.16358 0.699528 1.53233 0.92907 1.75395L0.929068 1.75395L0.92991 1.75476L8.50435 9.00008L0.930067 16.2453L0.929589 16.2457C0.810654 16.3601 0.75 16.5131 0.75 16.6668C0.75 16.8108 0.803374 16.957 0.911941 17.0703C1.13477 17.3028 1.50364 17.3105 1.73633 17.0886L1.73659 17.0884L9.00008 10.1407L16.2635 17.0883L16.2638 17.0886C16.4965 17.3105 16.8654 17.3028 17.0882 17.0702M17.0882 17.0702C17.0881 17.0703 17.088 17.0704 17.088 17.0705L16.9081 16.8976L17.0882 17.0702Z" fill="#5F5E61" stroke="#5F5E61" stroke-width="0.5" stroke-linejoin="round"/>
</svg>
