<svg width="18" height="19" viewBox="0 0 18 19" fill="none" xmlns="http://www.w3.org/2000/svg">
<path d="M15 11.5791V1.5791M9 3.5791V1.5791V3.5791ZM9 3.5791C8.46957 3.5791 7.96086 3.78982 7.58579 4.16489C7.21071 4.53996 7 5.04867 7 5.5791C7 6.10953 7.21071 6.61824 7.58579 6.99331C7.96086 7.36839 8.46957 7.5791 9 7.5791V3.5791ZM9 3.5791C9.53043 3.5791 10.0391 3.78982 10.4142 4.16489C10.7893 4.53996 11 5.04867 11 5.5791C11 6.10953 10.7893 6.61824 10.4142 6.99331C10.0391 7.36839 9.53043 7.5791 9 7.5791V3.5791ZM3 15.5791C3.53043 15.5791 4.03914 15.3684 4.41421 14.9933C4.78929 14.6182 5 14.1095 5 13.5791C5 13.0487 4.78929 12.54 4.41421 12.1649C4.03914 11.7898 3.53043 11.5791 3 11.5791V15.5791ZM3 15.5791C2.46957 15.5791 1.96086 15.3684 1.58579 14.9933C1.21071 14.6182 1 14.1095 1 13.5791C1 13.0487 1.21071 12.54 1.58579 12.1649C1.96086 11.7898 2.46957 11.5791 3 11.5791V15.5791ZM3 15.5791V17.5791V15.5791ZM3 11.5791V1.5791V11.5791ZM9 7.5791V17.5791V7.5791ZM15 15.5791C15.5304 15.5791 16.0391 15.3684 16.4142 14.9933C16.7893 14.6182 17 14.1095 17 13.5791C17 13.0487 16.7893 12.54 16.4142 12.1649C16.0391 11.7898 15.5304 11.5791 15 11.5791V15.5791ZM15 15.5791C14.4696 15.5791 13.9609 15.3684 13.5858 14.9933C13.2107 14.6182 13 14.1095 13 13.5791C13 13.0487 13.2107 12.54 13.5858 12.1649C13.9609 11.7898 14.4696 11.5791 15 11.5791V15.5791ZM15 15.5791V17.5791V15.5791Z" stroke="white" stroke-width="2" stroke-linecap="round" stroke-linejoin="round"/>
</svg>
