<svg width="24" height="25" viewBox="0 0 24 25" fill="none" xmlns="http://www.w3.org/2000/svg">
<path fill-rule="evenodd" clip-rule="evenodd" d="M9.00692 3.00346C7.41439 3.00346 5.8871 3.63608 4.76101 4.76217C3.63493 5.88825 3.00231 7.41555 3.00231 9.00807C3.00231 10.6006 3.63493 12.1279 4.76101 13.254C5.8871 14.3801 7.41439 15.0127 9.00692 15.0127C10.5994 15.0127 12.1267 14.3801 13.2528 13.254C14.3789 12.1279 15.0115 10.6006 15.0115 9.00807C15.0115 7.41555 14.3789 5.88825 13.2528 4.76217C12.1267 3.63608 10.5994 3.00346 9.00692 3.00346ZM1.70323e-07 9.00807C-0.000180723 7.59053 0.33422 6.19297 0.976007 4.92905C1.61779 3.66512 2.54884 2.57052 3.69343 1.73427C4.83802 0.898019 6.16383 0.343732 7.56303 0.116488C8.96223 -0.110755 10.3953 -0.00453722 11.7457 0.426502C13.0961 0.857542 14.3257 1.60123 15.3345 2.59709C16.3433 3.59294 17.1028 4.81285 17.5513 6.15758C17.9997 7.50231 18.1244 8.9339 17.9152 10.3359C17.7061 11.7379 17.169 13.0708 16.3476 14.2261L23.5786 21.4571C23.8521 21.7402 24.0034 22.1194 23.9999 22.513C23.9965 22.9066 23.8386 23.2831 23.5603 23.5615C23.282 23.8398 22.9055 23.9977 22.5119 24.0011C22.1183 24.0045 21.7391 23.8532 21.456 23.5798L14.2264 16.3502C12.8789 17.3084 11.2937 17.8771 9.64442 17.9941C7.99515 18.1112 6.34548 17.772 4.87619 17.0137C3.40691 16.2554 2.1747 15.1073 1.31459 13.6952C0.454489 12.2831 -0.000321323 10.6615 1.70323e-07 9.00807Z" fill="#BDBDBD"/>
</svg>
