<?xml version="1.0" encoding="utf-8"?>
<!-- Generator: Adobe Illustrator 24.0.2, SVG Export Plug-In . SVG Version: 6.00 Build 0)  -->
<svg version="1.1" id="Camada_1" xmlns="http://www.w3.org/2000/svg" xmlns:xlink="http://www.w3.org/1999/xlink" x="0px" y="0px"
	 viewBox="0 0 841.89 244.9" style="enable-background:new 0 0 841.89 244.9;" xml:space="preserve">
<style type="text/css">
	.st0{fill:#E3942A;}
	.st1{fill:#453324;}
</style>
<g>
	<g>
		<polygon class="st0" points="395.11,79.61 370.87,67.07 369.6,39.82 392.57,25.09 416.8,37.62 418.07,64.87 		"/>
		<polygon class="st0" points="482.04,123.84 457.8,111.32 456.53,84.06 479.5,69.33 503.73,81.86 505.01,109.1 		"/>
		<polygon class="st0" points="454.52,172.25 430.28,159.73 429.01,132.47 451.97,117.74 476.21,130.26 477.48,157.52 		"/>
		<polygon class="st0" points="369.46,130.67 345.22,118.14 343.95,90.88 366.92,76.15 391.16,88.68 392.43,115.94 		"/>
		<polygon class="st0" points="452.34,77.52 428.09,65 426.82,37.74 449.8,23.01 474.03,35.54 475.31,62.79 		"/>
		<polygon class="st0" points="424.81,125.92 400.57,113.4 399.31,86.14 422.27,71.42 446.5,83.94 447.78,111.2 		"/>
	</g>
	<g>
		<path class="st1" d="M65.93,188.85c-2.03,3.66-4.51,6.36-7.43,8.1c-2.92,1.75-6.58,2.62-10.97,2.62c-3.33,0-6.38-0.53-9.14-1.58
			c-2.76-1.05-5.12-2.72-7.07-5c-1.95-2.27-3.47-5.14-4.57-8.59c-1.1-3.45-1.65-7.57-1.65-12.37c0-3.9,0.41-8.02,1.22-12.37
			c0.81-4.35,2.29-8.35,4.45-12c2.15-3.66,5.1-6.68,8.84-9.08c3.74-2.4,8.53-3.6,14.38-3.6c2.44,0,4.53,0.26,6.28,0.79
			c1.75,0.53,3.25,1.24,4.51,2.13c1.26,0.89,2.27,1.95,3.05,3.17c0.77,1.22,1.36,2.52,1.77,3.9c0,0.08,0.02-0.22,0.06-0.91
			c0.04-0.69,0.1-1.48,0.18-2.38c0.08-0.89,0.14-1.77,0.18-2.62c0.04-0.85,0.06-1.4,0.06-1.65c0.08-0.81,0.61-1.22,1.58-1.22h5.61
			c4.22,0,7.29,0.87,9.2,2.62c1.91,1.75,2.86,5.06,2.86,9.93c0,0.65-0.04,2.13-0.12,4.45c-0.08,2.32-0.22,5.1-0.43,8.35
			c-0.2,3.25-0.47,6.85-0.79,10.79c-0.33,3.94-0.69,7.9-1.1,11.88c-0.41,3.98-0.85,7.8-1.34,11.45c-0.49,3.66-1.02,6.87-1.58,9.63
			c-0.57,2.76-1.54,5.44-2.92,8.04c-1.38,2.6-3.33,4.91-5.85,6.95c-2.52,2.03-5.75,3.66-9.69,4.87c-3.94,1.22-8.75,1.83-14.44,1.83
			c-4.31,0-8.06-0.41-11.27-1.22c-3.21-0.81-5.87-1.89-7.98-3.23c-2.11-1.34-3.72-2.86-4.81-4.57c-1.1-1.71-1.64-3.41-1.64-5.12
			c0-1.54,0.32-2.88,0.97-4.02c0.65-1.14,1.5-2.07,2.56-2.8c1.06-0.73,2.21-1.28,3.47-1.65c1.26-0.37,2.46-0.55,3.59-0.55
			c1.38,0,2.4,0.41,3.05,1.22c0.65,0.81,1.38,1.73,2.19,2.74c0.81,1.01,1.95,1.93,3.41,2.74c1.46,0.81,3.74,1.22,6.82,1.22
			c5.36,0,9.12-1.97,11.27-5.91C64.85,201.91,65.93,196.25,65.93,188.85z M55.69,183.37c2.92,0,5.22-0.69,6.89-2.07
			c1.66-1.38,2.94-3.05,3.84-5c0.89-1.95,1.46-3.98,1.71-6.09c0.24-2.11,0.37-3.94,0.37-5.48c0-4.87-0.75-8.35-2.25-10.42
			c-1.5-2.07-3.76-3.11-6.76-3.11c-3.01,0-5.36,0.81-7.07,2.44c-1.71,1.63-2.99,3.56-3.84,5.79c-0.85,2.24-1.4,4.47-1.65,6.7
			c-0.24,2.24-0.37,3.96-0.37,5.18c0,4.06,0.69,7.09,2.07,9.08C50,182.37,52.36,183.37,55.69,183.37z"/>
		<path class="st1" d="M122.1,204.45c-5.61,0-10.26-0.79-13.95-2.38c-3.7-1.58-6.64-3.76-8.84-6.52c-2.19-2.76-3.74-5.99-4.63-9.69
			c-0.89-3.7-1.34-7.66-1.34-11.88c0-4.87,0.59-9.65,1.77-14.32c1.18-4.67,3.19-8.83,6.03-12.49c2.84-3.66,6.6-6.6,11.27-8.84
			c4.67-2.23,10.5-3.35,17.49-3.35c10.24,0,17.57,2.5,22,7.49c4.43,5,6.64,12,6.64,21.02c0,2.52-0.18,5.3-0.55,8.35
			c-0.37,3.05-1.06,6.07-2.07,9.08c-1.02,3.01-2.4,5.93-4.14,8.77c-1.75,2.84-3.96,5.36-6.64,7.56c-2.68,2.19-5.91,3.94-9.69,5.24
			C131.67,203.8,127.22,204.45,122.1,204.45z M127.83,151.2c-3.09,0-5.54,0.79-7.37,2.38c-1.83,1.58-3.21,3.49-4.14,5.73
			c-0.94,2.24-1.54,4.59-1.83,7.07c-0.29,2.48-0.43,4.57-0.43,6.27c0,5.36,0.85,9.3,2.56,11.82c1.71,2.52,4.14,3.78,7.31,3.78
			c2.84,0,5.18-0.89,7.01-2.68c1.83-1.79,3.25-3.94,4.26-6.46c1.02-2.52,1.71-5.16,2.07-7.92c0.37-2.76,0.55-5.08,0.55-6.95
			c0-4.06-0.75-7.25-2.25-9.57C134.06,152.35,131.49,151.2,127.83,151.2z"/>
		<path class="st1" d="M189.73,204.45c-5.61,0-10.26-0.79-13.95-2.38c-3.7-1.58-6.64-3.76-8.84-6.52c-2.19-2.76-3.74-5.99-4.63-9.69
			c-0.89-3.7-1.34-7.66-1.34-11.88c0-4.87,0.59-9.65,1.77-14.32c1.18-4.67,3.19-8.83,6.03-12.49c2.84-3.66,6.6-6.6,11.27-8.84
			c4.67-2.23,10.5-3.35,17.49-3.35c10.24,0,17.57,2.5,22,7.49c4.43,5,6.64,12,6.64,21.02c0,2.52-0.18,5.3-0.55,8.35
			c-0.37,3.05-1.06,6.07-2.07,9.08c-1.02,3.01-2.4,5.93-4.14,8.77c-1.75,2.84-3.96,5.36-6.64,7.56c-2.68,2.19-5.91,3.94-9.69,5.24
			C199.3,203.8,194.85,204.45,189.73,204.45z M195.46,151.2c-3.09,0-5.54,0.79-7.37,2.38c-1.83,1.58-3.21,3.49-4.14,5.73
			c-0.93,2.24-1.54,4.59-1.83,7.07c-0.29,2.48-0.43,4.57-0.43,6.27c0,5.36,0.85,9.3,2.56,11.82c1.71,2.52,4.14,3.78,7.31,3.78
			c2.84,0,5.18-0.89,7.01-2.68c1.83-1.79,3.25-3.94,4.26-6.46c1.02-2.52,1.71-5.16,2.07-7.92c0.37-2.76,0.55-5.08,0.55-6.95
			c0-4.06-0.75-7.25-2.25-9.57C201.7,152.35,199.12,151.2,195.46,151.2z"/>
		<path class="st0" d="M257.98,204.45c-6.26,0-11.21-0.91-14.87-2.74c-3.66-1.83-6.42-4.12-8.29-6.89
			c-1.87-2.76-3.05-5.75-3.53-8.96c-0.49-3.21-0.73-6.15-0.73-8.83c0-1.05,0.1-3.13,0.3-6.22c0.2-3.09,0.47-6.66,0.79-10.72
			c0.32-4.06,0.65-8.39,0.97-12.98c0.32-4.59,0.65-8.94,0.97-13.04c0.32-4.1,0.59-7.74,0.79-10.91c0.2-3.17,0.3-5.36,0.3-6.58
			c0-1.79,0.12-2.82,0.37-3.11c0.24-0.28,0.97-0.43,2.19-0.43h4.75c2.44,0,4.47,0.29,6.09,0.85c1.62,0.57,2.92,1.34,3.9,2.32
			c0.97,0.97,1.66,2.09,2.07,3.35c0.41,1.26,0.61,2.62,0.61,4.08c0,1.38-0.14,4.06-0.43,8.04c-0.29,3.98-0.63,8.65-1.04,14.01
			c2.11-3.66,4.51-6.36,7.19-8.1c2.68-1.75,6.21-2.62,10.6-2.62c7.39,0,13.06,2.44,17,7.31c3.94,4.87,5.91,12.15,5.91,21.81
			c0,2.52-0.18,5.28-0.55,8.29c-0.37,3.01-1.02,5.99-1.95,8.96c-0.93,2.97-2.24,5.85-3.9,8.65c-1.67,2.8-3.84,5.26-6.52,7.37
			c-2.68,2.11-5.91,3.82-9.69,5.12C267.54,203.8,263.09,204.45,257.98,204.45z M263.46,151.2c-2.92,0-5.22,0.77-6.88,2.32
			c-1.67,1.54-2.95,3.41-3.84,5.61c-0.89,2.19-1.46,4.53-1.71,7.01c-0.24,2.48-0.37,4.65-0.37,6.52c0,5.61,0.77,9.61,2.32,12
			c1.54,2.4,3.86,3.6,6.95,3.6c2.92,0,5.22-0.91,6.88-2.74c1.66-1.83,2.93-4,3.78-6.52c0.85-2.52,1.4-5.08,1.65-7.68
			c0.24-2.6,0.37-4.63,0.37-6.09c0-4.55-0.69-8.02-2.07-10.42C269.14,152.4,266.79,151.2,263.46,151.2z"/>
		<path class="st0" d="M326.09,204.45c-3.58,0-7.13-0.45-10.66-1.34c-3.53-0.89-6.7-2.44-9.5-4.63c-2.8-2.19-5.1-5.12-6.89-8.77
			c-1.79-3.66-2.68-8.24-2.68-13.77c0-2.03,0.16-4.47,0.49-7.31c0.32-2.84,0.95-5.77,1.89-8.77c0.93-3,2.23-5.99,3.9-8.96
			c1.66-2.96,3.84-5.62,6.52-7.98c2.68-2.36,5.93-4.26,9.75-5.73c3.82-1.46,8.37-2.19,13.65-2.19c4.22,0,7.8,0.49,10.72,1.46
			c2.93,0.97,5.28,2.3,7.07,3.96c1.79,1.67,3.09,3.6,3.9,5.79c0.81,2.19,1.22,4.55,1.22,7.07c0,3.74-0.75,6.91-2.25,9.51
			c-1.5,2.6-3.45,4.77-5.85,6.52c-2.4,1.75-5.06,3.11-7.98,4.08c-2.92,0.97-5.81,1.73-8.65,2.25c-2.84,0.53-5.46,0.85-7.86,0.97
			c-2.4,0.12-4.25,0.18-5.55,0.18c0,1.54,0.22,3.07,0.67,4.57c0.45,1.5,1.12,2.82,2.01,3.96c0.89,1.14,2.07,2.07,3.53,2.8
			c1.46,0.73,3.25,1.1,5.36,1.1c2.11,0,3.76-0.34,4.94-1.04c1.18-0.69,2.13-1.46,2.86-2.32c0.73-0.85,1.36-1.62,1.89-2.32
			c0.53-0.69,1.24-1.04,2.13-1.04c0.41,0,1.12,0.1,2.13,0.3c1.01,0.2,2.05,0.63,3.11,1.28c1.05,0.65,1.99,1.54,2.8,2.68
			c0.81,1.14,1.22,2.6,1.22,4.39c0,2.36-0.73,4.39-2.19,6.09c-1.46,1.71-3.35,3.09-5.67,4.14c-2.32,1.06-4.89,1.83-7.74,2.32
			C331.53,204.21,328.77,204.45,326.09,204.45z M328.41,151.2c-1.79,0-3.31,0.51-4.57,1.52c-1.26,1.02-2.32,2.3-3.17,3.84
			c-0.85,1.54-1.5,3.25-1.95,5.12c-0.45,1.87-0.79,3.65-1.04,5.36c5.04-0.08,9.12-0.93,12.25-2.56c3.13-1.62,4.69-3.94,4.69-6.95
			c0-1.62-0.51-3.09-1.52-4.39C332.08,151.85,330.52,151.2,328.41,151.2z"/>
		<path class="st0" d="M385.68,204.45c-3.58,0-7.13-0.45-10.66-1.34c-3.53-0.89-6.7-2.44-9.51-4.63c-2.8-2.19-5.1-5.12-6.89-8.77
			c-1.79-3.66-2.68-8.24-2.68-13.77c0-2.03,0.16-4.47,0.49-7.31c0.32-2.84,0.95-5.77,1.89-8.77c0.93-3,2.23-5.99,3.9-8.96
			c1.66-2.96,3.84-5.62,6.52-7.98c2.68-2.36,5.93-4.26,9.75-5.73c3.82-1.46,8.37-2.19,13.65-2.19c4.22,0,7.8,0.49,10.72,1.46
			c2.93,0.97,5.28,2.3,7.07,3.96c1.79,1.67,3.09,3.6,3.9,5.79c0.81,2.19,1.22,4.55,1.22,7.07c0,3.74-0.75,6.91-2.25,9.51
			c-1.5,2.6-3.45,4.77-5.85,6.52c-2.4,1.75-5.06,3.11-7.98,4.08c-2.92,0.97-5.81,1.73-8.65,2.25c-2.84,0.53-5.46,0.85-7.86,0.97
			c-2.4,0.12-4.25,0.18-5.55,0.18c0,1.54,0.22,3.07,0.67,4.57c0.45,1.5,1.12,2.82,2.01,3.96c0.89,1.14,2.07,2.07,3.53,2.8
			c1.46,0.73,3.25,1.1,5.36,1.1c2.11,0,3.76-0.34,4.94-1.04c1.18-0.69,2.13-1.46,2.86-2.32c0.73-0.85,1.36-1.62,1.89-2.32
			c0.53-0.69,1.24-1.04,2.13-1.04c0.41,0,1.12,0.1,2.13,0.3c1.01,0.2,2.05,0.63,3.11,1.28c1.05,0.65,1.99,1.54,2.8,2.68
			c0.81,1.14,1.22,2.6,1.22,4.39c0,2.36-0.73,4.39-2.19,6.09c-1.46,1.71-3.35,3.09-5.67,4.14c-2.32,1.06-4.89,1.83-7.74,2.32
			C391.12,204.21,388.36,204.45,385.68,204.45z M388,151.2c-1.79,0-3.31,0.51-4.57,1.52c-1.26,1.02-2.32,2.3-3.17,3.84
			c-0.85,1.54-1.5,3.25-1.95,5.12c-0.45,1.87-0.79,3.65-1.04,5.36c5.04-0.08,9.12-0.93,12.25-2.56c3.13-1.62,4.69-3.94,4.69-6.95
			c0-1.62-0.51-3.09-1.52-4.39C391.67,151.85,390.11,151.2,388,151.2z"/>
	</g>
	<g>
		<g>
			<path class="st1" d="M524.64,152.66c-0.24,3.09-0.51,6.13-0.79,9.14c-0.29,3.01-0.55,5.85-0.79,8.53
				c-0.24,2.68-0.43,5.08-0.55,7.19c-0.12,2.11-0.18,3.74-0.18,4.87c0,2.11,0.24,3.51,0.73,4.2c0.49,0.69,1.3,1.04,2.44,1.04
				c0.89,0,1.66-0.16,2.32-0.49c0.65-0.32,1.26-0.69,1.83-1.1c0.57-0.41,1.08-0.77,1.52-1.1c0.45-0.32,0.95-0.49,1.52-0.49
				c0.57,0,1.1,0.33,1.58,0.97c0.49,0.65,0.73,2.15,0.73,4.51c0,4.47-1.22,8-3.66,10.6c-2.44,2.6-6.62,3.9-12.55,3.9
				c-5.85,0-10.18-1.36-12.98-4.08c-2.8-2.72-4.2-6.88-4.2-12.49c0-1.22,0.06-2.66,0.18-4.33c0.12-1.66,0.3-3.84,0.55-6.52
				c0.24-2.68,0.55-5.97,0.91-9.87c0.37-3.9,0.75-8.73,1.16-14.5h-6.46c-0.65,0-1.04-0.14-1.16-0.43c-0.12-0.28-0.18-0.71-0.18-1.28
				l0.37-6.22c0.08-1.06,0.22-2.09,0.43-3.11c0.2-1.01,0.61-1.93,1.22-2.74c0.61-0.81,1.48-1.46,2.62-1.95
				c1.14-0.49,2.64-0.73,4.51-0.73c0.57-1.46,1.22-3.21,1.95-5.24c0.73-2.03,1.46-4,2.19-5.91c0.73-1.91,1.44-3.51,2.13-4.81
				c0.69-1.3,1.32-1.95,1.89-1.95h3.53c3.41,0,5.77,1.06,7.07,3.17c1.3,2.11,1.95,4.63,1.95,7.56c0,1.63-0.12,4.02-0.37,7.19h12.8
				c1.3,0,1.95,0.57,1.95,1.71l-0.49,6.58c-0.16,2.44-0.83,4.41-2.01,5.91c-1.18,1.5-3.59,2.25-7.25,2.25H524.64z"/>
			<path class="st1" d="M569.12,204.45c-3.58,0-7.13-0.45-10.66-1.34c-3.53-0.89-6.7-2.44-9.51-4.63c-2.8-2.19-5.1-5.12-6.88-8.77
				c-1.79-3.66-2.68-8.24-2.68-13.77c0-2.03,0.16-4.47,0.49-7.31c0.32-2.84,0.95-5.77,1.89-8.77c0.93-3,2.23-5.99,3.9-8.96
				c1.66-2.96,3.84-5.62,6.52-7.98c2.68-2.36,5.93-4.26,9.75-5.73c3.82-1.46,8.37-2.19,13.65-2.19c4.22,0,7.8,0.49,10.72,1.46
				c2.93,0.97,5.28,2.3,7.07,3.96c1.79,1.67,3.09,3.6,3.9,5.79c0.81,2.19,1.22,4.55,1.22,7.07c0,3.74-0.75,6.91-2.25,9.51
				c-1.5,2.6-3.45,4.77-5.85,6.52c-2.4,1.75-5.06,3.11-7.98,4.08c-2.92,0.97-5.81,1.73-8.65,2.25c-2.85,0.53-5.46,0.85-7.86,0.97
				c-2.4,0.12-4.25,0.18-5.55,0.18c0,1.54,0.22,3.07,0.67,4.57c0.45,1.5,1.12,2.82,2.01,3.96c0.89,1.14,2.07,2.07,3.53,2.8
				c1.46,0.73,3.25,1.1,5.36,1.1c2.11,0,3.76-0.34,4.94-1.04c1.18-0.69,2.13-1.46,2.86-2.32c0.73-0.85,1.36-1.62,1.89-2.32
				c0.53-0.69,1.24-1.04,2.13-1.04c0.41,0,1.12,0.1,2.13,0.3c1.01,0.2,2.05,0.63,3.11,1.28c1.05,0.65,1.99,1.54,2.8,2.68
				c0.81,1.14,1.22,2.6,1.22,4.39c0,2.36-0.73,4.39-2.19,6.09c-1.46,1.71-3.35,3.09-5.67,4.14c-2.32,1.06-4.89,1.83-7.74,2.32
				C574.56,204.21,571.8,204.45,569.12,204.45z M571.43,151.2c-1.79,0-3.31,0.51-4.57,1.52c-1.26,1.02-2.32,2.3-3.17,3.84
				c-0.85,1.54-1.5,3.25-1.95,5.12c-0.45,1.87-0.79,3.65-1.04,5.36c5.04-0.08,9.12-0.93,12.25-2.56c3.13-1.62,4.69-3.94,4.69-6.95
				c0-1.62-0.51-3.09-1.52-4.39C575.11,151.85,573.55,151.2,571.43,151.2z"/>
			<path class="st1" d="M596.9,188.24c0-7.31,3.29-13.04,9.87-17.18c6.58-4.14,16.29-6.38,29.12-6.7c0.08-0.89,0.14-1.64,0.18-2.25
				c0.04-0.61,0.06-1.36,0.06-2.25c0-2.6-0.49-4.67-1.46-6.22c-0.97-1.54-3.01-2.32-6.09-2.32c-1.71,0-3.09,0.24-4.14,0.73
				c-1.06,0.49-1.91,1.16-2.56,2.01c-0.65,0.85-1.18,1.89-1.58,3.11c-0.41,1.22-0.77,2.56-1.1,4.02c-0.16,0.73-0.53,1.2-1.1,1.4
				c-0.57,0.2-1.46,0.3-2.68,0.3c-8.29,0-12.43-3.13-12.43-9.38c0-2.52,0.59-4.91,1.77-7.19c1.18-2.27,2.92-4.24,5.24-5.91
				c2.32-1.66,5.22-2.99,8.71-3.96c3.49-0.98,7.56-1.46,12.19-1.46c9.02,0,15.56,1.87,19.62,5.61c4.06,3.74,6.09,9.02,6.09,15.84
				c0,0.89-0.1,2.5-0.3,4.81c-0.2,2.32-0.45,4.75-0.73,7.31c-0.29,2.56-0.53,4.98-0.73,7.25c-0.2,2.28-0.3,3.86-0.3,4.75
				c0,2.03,0.37,3.47,1.1,4.33c0.73,0.85,1.56,1.44,2.5,1.77c0.93,0.33,1.77,0.57,2.5,0.73c0.73,0.16,1.1,0.57,1.1,1.22
				c0,1.79-0.24,3.62-0.73,5.48c-0.49,1.87-1.28,3.58-2.38,5.12c-1.1,1.54-2.6,2.8-4.51,3.78c-1.91,0.97-4.25,1.46-7.01,1.46
				c-3.9,0-6.82-0.93-8.77-2.8c-1.95-1.87-3.25-4.47-3.9-7.8c-1.95,2.84-4.49,5.32-7.62,7.43c-3.13,2.11-7.21,3.17-12.25,3.17
				c-2.44,0-4.73-0.29-6.89-0.85c-2.15-0.57-4.02-1.5-5.61-2.8c-1.58-1.3-2.84-2.99-3.78-5.06
				C597.37,193.66,596.9,191.17,596.9,188.24z M634.8,174.35c-2.11,0-4.19,0.16-6.21,0.49c-2.03,0.33-3.84,0.83-5.42,1.52
				c-1.58,0.69-2.86,1.61-3.84,2.74c-0.97,1.14-1.46,2.52-1.46,4.14c0,1.87,0.59,3.17,1.77,3.9c1.18,0.73,2.46,1.1,3.84,1.1
				c1.3,0,2.6-0.28,3.9-0.85c1.3-0.57,2.46-1.44,3.47-2.62c1.01-1.18,1.89-2.62,2.62-4.33C634.19,178.74,634.64,176.71,634.8,174.35
				z"/>
			<path class="st1" d="M685.01,181.3c-0.24,3.74-0.53,7.29-0.85,10.66c-0.33,3.37-0.57,6.32-0.73,8.84
				c-0.08,0.97-0.29,1.63-0.61,1.95c-0.33,0.33-1.02,0.49-2.07,0.49h-4.39c-2.52,0-4.57-0.26-6.15-0.79
				c-1.58-0.53-2.84-1.28-3.78-2.25c-0.94-0.97-1.58-2.17-1.95-3.59c-0.37-1.42-0.55-3.07-0.55-4.94c0-1.22,0.06-2.94,0.18-5.18
				c0.12-2.23,0.34-5.32,0.67-9.26c0.32-3.94,0.71-8.94,1.16-14.99c0.45-6.05,0.99-13.55,1.64-22.48c0.08-1.79,0.28-2.84,0.61-3.17
				c0.24-0.24,0.89-0.37,1.95-0.37h4.75c2.44,0,4.43,0.29,5.97,0.85c1.54,0.57,2.8,1.3,3.78,2.19c0.98,0.9,1.66,1.95,2.07,3.17
				c0.41,1.22,0.65,2.48,0.73,3.78c2.36-4.39,5.04-7.35,8.04-8.9c3-1.54,6.54-2.32,10.6-2.32c2.19,0,4.31,0.2,6.34,0.61
				c2.03,0.41,3.86,1.1,5.48,2.07c1.62,0.97,3,2.25,4.14,3.84c1.14,1.58,1.95,3.6,2.44,6.03c2.52-4.71,5.28-7.98,8.29-9.81
				c3-1.83,6.78-2.74,11.33-2.74c2.52,0,4.94,0.26,7.25,0.79c2.32,0.53,4.33,1.44,6.03,2.74c1.71,1.3,3.07,3.07,4.08,5.3
				c1.01,2.24,1.52,5.02,1.52,8.35c0,2.52-0.12,5.61-0.37,9.26c-0.24,3.66-0.53,7.62-0.85,11.88c-0.33,4.27-0.69,8.65-1.1,13.16
				c-0.41,4.51-0.73,8.84-0.97,12.98c-0.08,0.89-0.16,1.58-0.24,2.07c-0.08,0.49-0.22,0.85-0.43,1.1c-0.2,0.24-0.51,0.41-0.91,0.49
				c-0.41,0.08-0.98,0.12-1.71,0.12h-3.9c-2.6,0-4.71-0.24-6.34-0.73c-1.63-0.49-2.88-1.18-3.78-2.07
				c-0.89-0.89-1.52-2.01-1.89-3.35c-0.37-1.34-0.55-2.86-0.55-4.57c0-1.06,0.06-2.56,0.18-4.51c0.12-1.95,0.28-4.06,0.49-6.34
				c0.2-2.27,0.41-4.63,0.61-7.07c0.2-2.44,0.41-4.69,0.61-6.76c0.2-2.07,0.37-3.88,0.49-5.42c0.12-1.54,0.18-2.56,0.18-3.05
				c0-2.11-0.43-3.98-1.28-5.61c-0.85-1.62-2.5-2.44-4.94-2.44c-2.11,0-3.94,0.69-5.48,2.07c-1.54,1.38-2.84,3.29-3.9,5.73
				c-1.06,2.44-1.91,5.32-2.56,8.65c-0.65,3.33-1.1,6.95-1.34,10.85c-0.16,2.52-0.37,5.4-0.61,8.65c-0.24,3.25-0.53,7.31-0.85,12.19
				c-0.08,0.89-0.16,1.58-0.24,2.07c-0.08,0.49-0.23,0.85-0.43,1.1c-0.2,0.24-0.51,0.41-0.91,0.49c-0.41,0.08-0.97,0.12-1.71,0.12
				h-3.9c-2.6,0-4.71-0.24-6.34-0.73c-1.63-0.49-2.88-1.18-3.78-2.07c-0.89-0.89-1.52-2.01-1.89-3.35s-0.55-2.86-0.55-4.57
				c0-1.62,0.14-4,0.43-7.13c0.28-3.13,0.57-6.38,0.85-9.75c0.28-3.37,0.57-6.58,0.85-9.63c0.28-3.05,0.43-5.26,0.43-6.64
				c0-2.11-0.43-3.98-1.28-5.61c-0.85-1.62-2.5-2.44-4.94-2.44c-2.19,0-4.06,0.81-5.61,2.44c-1.54,1.63-2.82,3.8-3.84,6.52
				c-1.02,2.72-1.83,5.91-2.44,9.57C685.68,173.5,685.25,177.32,685.01,181.3z"/>
			<path class="st1" d="M796.99,134.99c6.9,0,11.98,1.36,15.23,4.08c3.25,2.72,4.87,6.2,4.87,10.42c0,3.58-1.12,6.3-3.35,8.16
				c-2.24,1.87-5.47,2.8-9.69,2.8c-1.14,0-1.91-0.12-2.32-0.37c-0.41-0.24-0.61-0.69-0.61-1.34c0-0.73-0.06-1.56-0.18-2.5
				c-0.12-0.93-0.41-1.83-0.85-2.68c-0.45-0.85-1.14-1.56-2.07-2.13c-0.93-0.57-2.25-0.85-3.96-0.85c-2.27,0-4.1,0.55-5.48,1.64
				c-1.38,1.1-2.07,2.46-2.07,4.08c0,1.71,0.71,3.07,2.13,4.08c1.42,1.02,3.21,1.97,5.36,2.86c2.15,0.9,4.49,1.81,7.01,2.74
				c2.52,0.94,4.85,2.18,7.01,3.72c2.15,1.54,3.94,3.47,5.36,5.79c1.42,2.32,2.13,5.3,2.13,8.96c0,5.85-2.07,10.64-6.21,14.38
				c-4.14,3.74-10.36,5.61-18.64,5.61c-2.28,0-4.9-0.18-7.86-0.55c-2.97-0.37-5.79-0.93-8.47-1.71c-2.68-0.77-4.94-1.81-6.76-3.11
				c-1.83-1.3-2.74-2.93-2.74-4.87c0-0.73,0.14-1.62,0.43-2.68c0.28-1.06,0.73-2.07,1.34-3.05c0.61-0.98,1.34-1.81,2.19-2.5
				c0.85-0.69,1.89-1.04,3.11-1.04c0.98,0,1.87,0.24,2.68,0.73c0.81,0.49,1.77,1,2.86,1.52c1.1,0.53,2.46,1.04,4.08,1.52
				c1.62,0.49,3.78,0.73,6.46,0.73c2.03,0,3.84-0.24,5.42-0.73c1.58-0.49,2.38-1.58,2.38-3.29c0-1.54-0.65-2.78-1.95-3.72
				c-1.3-0.93-2.95-1.81-4.94-2.62c-1.99-0.81-4.14-1.68-6.46-2.62c-2.32-0.93-4.47-2.17-6.46-3.72c-1.99-1.54-3.64-3.51-4.94-5.91
				c-1.3-2.4-1.95-5.5-1.95-9.32c0-4.14,0.83-7.66,2.5-10.54c1.66-2.88,3.82-5.22,6.46-7.01c2.64-1.79,5.62-3.07,8.96-3.84
				C790.33,135.38,793.66,134.99,796.99,134.99z"/>
		</g>
	</g>
</g>
</svg>
