<?xml version="1.0" encoding="utf-8"?>
<!-- Generator: Adobe Illustrator 24.0.2, SVG Export Plug-In . SVG Version: 6.00 Build 0)  -->
<svg version="1.1" id="Camada_1" xmlns="http://www.w3.org/2000/svg" xmlns:xlink="http://www.w3.org/1999/xlink" x="0px" y="0px"
	 viewBox="0 0 200 200" style="enable-background:new 0 0 200 200;" xml:space="preserve">
<style type="text/css">
	.st0{opacity:0.6;fill-rule:evenodd;clip-rule:evenodd;fill:#E39429;}
	.st1{fill:#E39429;}
	.st2{opacity:0.6;}
</style>
<g>
	<path class="st0" d="M62.34,87.13L62.34,87.13c0,0-1.6-4.32-1.43-7.36c0,0-16.97,10.24-23.21,10.08c0,0,11.37-5.44,12.97-9.61
		c-5.28,3.84-16.81,9.61-20.66,9.45c0,0,5.13-3.04,6.09-5.6c-12.49,3.04-11.84,12.8-12.49,22.41c0,0-2.24-10.88-3.04-13.28
		C15.45,75.93,27.77,62,44.74,61.84c20.48-0.32,29.93,14.25,22.88,32.5c-1.12,3.2-4.32,14.24-4.32,14.24
		C63.79,101.38,65.22,94.01,62.34,87.13L62.34,87.13z"/>
	<path class="st0" d="M28.41,126.82L28.41,126.82C4.7,140.05-8.05,133.49-9.27,162.15c-0.06,1.51-0.1,38.13-0.1,39.85h52.98h0.49
		h52.01c0-1.36-0.02-37.65-0.06-38.88c-1-28.56-13.61-22.79-37.71-36.29c-4.16,3.84-9.28,6.56-14.72,6.56
		C38.01,133.39,32.73,130.67,28.41,126.82L28.41,126.82z"/>
	<path class="st0" d="M44.54,110.75L44.54,110.75c1.67-0.9,3.33-0.52,4.49,1.03c0.26,0.38,0.38,0.9,0.77,1.28
		c0.38,0.51,0.64,1.03,1.03,1.54c0.38,0.51,1.15,0.77,1.79,0.64c0.77,0,1.29-0.38,1.29-1.28c0-0.13,0-0.38,0-0.64
		c0.9,0.77,0.9,2.31-0.13,3.08c-0.39,0.13-0.77,0.38-1.29,0.51c-1.92,0.51-3.72,0.26-5.52-0.64c-1.03-0.65-1.54-1.29-2.44-2.82
		c-0.13,0.13-0.13,0.38-0.26,0.51c-1.16,1.92-2.95,2.95-5,3.21c-1.16,0.13-2.18,0-3.21-0.38c-0.77-0.38-1.28-0.9-1.54-1.8
		c-0.13-0.64,0.13-1.15,0.77-1.54c0,0.26-0.13,0.51,0,0.77c0,0.51,0.38,1.03,1.03,1.03c0.77,0.13,1.54-0.13,2.18-0.77
		c0.38-0.64,0.77-1.41,1.15-2.05c0.64-0.9,1.28-1.54,2.31-2.06C42.87,110.11,43.77,110.24,44.54,110.75L44.54,110.75z"/>
</g>
<g>
	<path class="st1" d="M138.89,140.24c-1.19-0.51-8.78-4.39-8.95-4.73c3.55,0.17,6.92-1.18,9.11-3.71c-6.41,0-12.14-4.22-13.33-10.64
		c-2.54-14.18-0.51-22.28-1.52-35.96c-1.35-16.2-9.96-29.54-26.67-29.2c-10.47,0-18.74,5.74-23.12,15.03
		c-6.08,16.71,1.69,30.39-1.86,50.3c-1.17,6.25-7.08,10.47-13.33,10.47c1.85,2.19,4.56,3.37,7.6,3.71
		c-12.54,8.3-20.27,8.46-23.21,26.82c-0.23,1.41-0.42,37.94-0.59,39.58c37.14,0,74.27,0,111.41,0c-0.17-1.91-0.38-38.67-0.63-40.28
		C151.72,148.55,146.71,144.6,138.89,140.24z M83.53,82.85c12.99-0.84,17.71,2.53,29.7-6.41c3.04,4.05,4.9,7.93,5.91,11.81
		l-1.52,0.51c-0.34-0.34-0.67-0.67-1.01-0.67c-2.52-0.34-5.73-0.51-8.94-0.18h-0.17c-2.02,0.18-3.04,0.18-4.39,0.85
		c-0.34,0.17-0.67,0.34-0.84,0.51c-0.51,0.17-1.19,0.51-1.7,0.68c-0.16,0-0.34,0-0.5,0c-0.18,0-0.51,0-0.67,0c-0.17,0-0.34,0-0.51,0
		c-0.34-0.17-1.01-0.34-1.51-0.68c-0.34-0.17-0.68-0.17-0.85-0.34c-1.35-0.68-2.54-0.68-4.56-0.84H91.8c-3.38-0.18-6.25,0-8.94,0.67
		c-0.34,0-0.69,0.34-1.02,0.51l-1.01-0.17C81.5,86.73,82.34,84.71,83.53,82.85z M115.77,92.64c0,1.36-0.34,3.88-2.2,5.07
		c-1.01,0.34-2.36,0.67-3.71,0.67c-2.87,0.17-4.9-0.84-5.91-2.36c-1.86-3.21-1.35-5.07-1.35-5.07c0.16-0.34,1.01-1.35,5.91-1.85
		c0.84,0,1.51,0,2.19,0c2.87,0,3.89,0.34,4.4,1.18C115.43,90.78,115.77,91.96,115.77,92.64z M95.85,96.18
		c-1.01,1.52-3.04,2.53-5.73,2.53c-1.52,0-2.87-0.17-3.88-0.68c-1.86-0.84-2.36-3.55-2.36-4.9c0-0.68,0.16-1.86,0.5-2.36
		c0.51-0.84,1.35-1.35,4.4-1.35c0.67,0,1.35,0,2.19,0c5.07,0.17,5.75,1.18,6.08,1.69C97.03,91.12,97.53,92.97,95.85,96.18z
		 M112.05,126.06c-1.01,1.69-2.02,3.21-3.04,4.39c-6.58,5.74-18.23,5.4-23.63-4.22c1.01-2.54,2.53-6.58,2.36-9.29
		c0,0-5.57-5.74-7.76-15.36c-0.51-3.21-0.34-6.75,0.16-9.96l1.69,0.34c0,0.34,0.17,0.34,0.34,0.51c0,0.17,0,0.17,0,0.17
		c0.17,0.17,0.17,0.17,0.17,0.51c0.85,4.39,1.01,5.07,3.04,6.08c0.85,0.34,2.7,0.67,4.56,0.67c1.35,0,3.55-0.34,5.23-1.18
		c2.36-1.35,3.37-5.91,3.37-6.08c0,0,0.17-0.67,1.18-0.67h0.16c1.01,0,1.19,0.51,1.19,0.67c0,0,1.01,4.73,3.55,5.91
		c1.69,0.84,3.89,1.01,5.4,1.01c1.86,0,3.55-0.34,4.4-0.84c2.02-1.01,2.19-1.69,2.86-6.08c0-0.34,0-0.51,0.18-0.67
		c0,0,0,0,0.16-0.17c0-0.17,0.17-0.17,0.17-0.34l1.85-0.51c1.7,10.47-3.04,19.75-9.95,26C109.52,119.48,111.55,124.2,112.05,126.06z
		"/>
</g>
<g>
	<path class="st0" d="M173.14,87.13L173.14,87.13c0,0-1.6-4.32-1.43-7.36c0,0-16.97,10.24-23.21,10.08c0,0,11.37-5.44,12.97-9.61
		c-5.28,3.84-16.81,9.61-20.66,9.45c0,0,5.13-3.04,6.09-5.6c-12.49,3.04-11.84,12.8-12.49,22.41c0,0-2.24-10.88-3.04-13.28
		c-5.12-17.29,7.2-31.21,24.17-31.38c20.48-0.32,29.93,14.25,22.88,32.5c-1.12,3.2-4.32,14.24-4.32,14.24
		C174.58,101.38,176.02,94.01,173.14,87.13L173.14,87.13z"/>
	<path class="st0" d="M139.2,126.82L139.2,126.82c-23.59,13.16-36.32,6.74-37.66,34.86c-0.08,1.65-0.12,38.42-0.12,40.31h52.98h0.49
		h52.01c0-1.82-0.04-38.51-0.12-40.1c-1.32-27.18-13.91-21.77-37.66-35.08c-4.16,3.84-9.28,6.56-14.72,6.56
		C148.81,133.39,143.53,130.67,139.2,126.82L139.2,126.82z"/>
	<g class="st2">
		<path class="st1" d="M172.5,95.45c-0.32-0.16-0.47-0.32-0.79-0.32H158.1c-0.17,0-0.49,0.16-0.81,0.32
			c-0.15,0.16-0.15,0.48-0.15,0.8c0,0.32,0,0.48,0,0.96h-3.2c0.15-0.48,0.15-0.64,0.15-0.96c0-0.32,0-0.64-0.32-0.8
			c-0.15-0.16-0.48-0.32-0.8-0.32h-13.44c-0.32,0-0.64,0.16-0.79,0.32c-0.17,0.16-0.32,0.48-0.32,0.8c0.15,1.61,0.79,7.2,2.88,8.65
			c1.28,1.12,3.84,1.28,4.96,1.28c1.11,0,3.68-0.16,5.12-1.28c1.28-0.8,1.92-3.52,2.25-5.76h3.84c0.47,2.24,1.11,4.96,2.4,5.76
			c1.43,1.12,3.99,1.28,5.12,1.28c0.96,0,3.52-0.16,4.96-1.28c1.92-1.44,2.72-7.04,2.72-8.65C172.66,95.93,172.66,95.61,172.5,95.45
			z M150.09,103.29c-0.64,0.48-1.92,0.81-3.84,0.81c-1.92,0-3.2-0.32-3.68-0.81c-0.79-0.48-1.45-3.36-1.92-6.08h11.2
			C151.53,99.94,150.73,102.82,150.09,103.29z M168.66,103.29c-0.49,0.48-1.76,0.81-3.68,0.81c-2.08,0-3.37-0.32-3.84-0.81
			c-0.8-0.48-1.44-3.36-1.93-6.08h11.37C170.09,99.94,169.45,102.82,168.66,103.29z"/>
	</g>
</g>
</svg>
