<?xml version="1.0" encoding="utf-8"?>
<!-- Generator: Adobe Illustrator 23.0.0, SVG Export Plug-In . SVG Version: 6.00 Build 0)  -->
<svg version="1.1" id="Camada_1" xmlns="http://www.w3.org/2000/svg" xmlns:xlink="http://www.w3.org/1999/xlink" x="0px" y="0px"
	 viewBox="0 0 200 200" style="enable-background:new 0 0 200 200;" xml:space="preserve">
<style type="text/css">
	.st0{fill:none;}
	.st1{fill:#E39429;}
</style>
<path class="st0" d="M15.1,15.1h169.8v169.8H15.1V15.1z"/>
<path class="st1" d="M147.7,66.2h-23.8V54.3c0-6.6-5.3-11.9-11.9-11.9H88.1c-6.6,0-11.9,5.3-11.9,11.9v11.9H52.3
	c-6.6,0-11.9,5.3-11.9,11.9l-0.1,65.6c0,6.6,5.3,11.9,11.9,11.9h95.4c6.6,0,11.9-5.3,11.9-11.9V78.1
	C159.6,71.5,154.3,66.2,147.7,66.2z M111.9,66.2H88.1V54.3h23.8V66.2z"/>
</svg>
