<?xml version="1.0" encoding="utf-8"?>
<!-- Generator: Adobe Illustrator 24.0.2, SVG Export Plug-In . SVG Version: 6.00 Build 0)  -->
<svg version="1.1" id="Camada_1" xmlns="http://www.w3.org/2000/svg" xmlns:xlink="http://www.w3.org/1999/xlink" x="0px" y="0px"
	 viewBox="0 0 925.96 925.96" style="enable-background:new 0 0 925.96 925.96;" xml:space="preserve">
<style type="text/css">
	.st0{fill:#53B725;}
	.st1{fill:#F2D60F;}
	.st2{fill:#BF2F08;}
</style>
<g id="Grupo_488" transform="translate(1013.928 210.75)">
	<path id="Caminho_327" class="st2 bg" d="M-161.09,252.23c0,215.31-174.54,389.85-389.85,389.85S-940.8,467.54-940.8,252.23
		c0-215.31,174.54-389.85,389.85-389.85l0,0c215.3-0.01,389.84,174.52,389.85,389.81C-161.09,252.2-161.09,252.22-161.09,252.23z"/>
	<g id="Grupo_480" class="rosto" transform="translate(10.127 17.947)">
		<g id="Grupo_476">
			<g id="Grupo_475">
				<g id="Grupo_474">
					<path id="Caminho_328" d="M-670.69,255.96c0,31.37-17.93,56.82-40.04,56.82s-40.02-25.46-40.02-56.82s17.93-56.82,40.02-56.82
						C-688.63,199.14-670.69,224.58-670.69,255.96z"/>
				</g>
			</g>
		</g>
		<g id="Grupo_479" transform="translate(15.143)">
			<g id="Grupo_478">
				<g id="Grupo_477">
					<path id="Caminho_329" d="M-386.54,255.96c0,31.37-17.91,56.82-40.04,56.82s-40.02-25.46-40.02-56.82s17.93-56.82,40.02-56.82
						C-404.48,199.14-386.54,224.58-386.54,255.96z"/>
				</g>
			</g>
		</g>
	</g>
	<g id="Grupo_485" class="rosto" transform="translate(9.311 13.585)">
		<g id="Grupo_482">
			<g id="Grupo_481">
				<path id="Caminho_330" d="M-646.25,222.97c-4.88-0.01-9.17-3.23-10.53-7.91c-15.29-42.72-54.28-72.46-99.53-75.9
					c-5.94-1.25-9.74-7.08-8.49-13.01c1.09-5.16,5.69-8.83,10.96-8.73c54.01,4.48,100.32,40.35,118.15,91.53
					c1.7,5.82-1.64,11.92-7.45,13.64C-644.16,222.87-645.21,223-646.25,222.97z"/>
			</g>
		</g>
		<g id="Grupo_484" transform="translate(14.209 0)">
			<g id="Grupo_483">
				<path id="Caminho_331" d="M-488.45,222.95c-1.05,0.01-2.1-0.14-3.1-0.43c-5.81-1.71-9.14-7.8-7.44-13.61
					c0-0.01,0-0.02,0.01-0.02c17.82-51.18,64.12-87.06,118.13-91.53c6.07-0.12,11.08,4.71,11.2,10.78c0.1,5.28-3.56,9.88-8.73,10.96
					c-45.25,3.44-84.24,33.17-99.53,75.9C-479.26,219.69-483.56,222.94-488.45,222.95z"/>
			</g>
		</g>
	</g>
	<g id="Grupo_487" class="rosto" transform="translate(14.857 26.825)">
		<g id="Grupo_486">
			<path id="Caminho_332" d="M-487.32,430.99c-4.48,0-8.78-1.69-12.06-4.74c-17.25-15.59-39.53-24.47-62.77-25.02
				c-25.7-1.5-50.92,7.47-69.91,24.86c-7.62,6.2-18.83,5.04-25.02-2.58c-5.52-6.79-5.28-16.6,0.57-23.11
				c51.55-46.26,129.65-46.31,181.28-0.14c7.12,6.77,7.4,18.03,0.63,25.15c-3.31,3.48-7.9,5.48-12.7,5.53L-487.32,430.99z"/>
		</g>
	</g>
</g>
</svg>
