<?xml version="1.0" encoding="utf-8"?>
<!-- Generator: Adobe Illustrator 24.0.2, SVG Export Plug-In . SVG Version: 6.00 Build 0)  -->
<svg version="1.1" id="Camada_1" xmlns="http://www.w3.org/2000/svg" xmlns:xlink="http://www.w3.org/1999/xlink" x="0px" y="0px"
	 viewBox="0 0 925.96 925.96" style="enable-background:new 0 0 925.96 925.96;" xml:space="preserve">
<style type="text/css">
	.st0{fill:#53B725;}
	.st1{fill:#F2D60F;}
	.st2{fill:#BF2F08;}
</style>
<g id="Grupo_493_2_" transform="translate(1013.874 156.24)">
	<ellipse id="Elipse_24_2_" class="st1 bg" cx="-550.89" cy="306.74" rx="389.85" ry="387.7"/>
	<g id="Grupo_489_2_" class="rosto" transform="translate(9.759 23.782)">
		<path id="Caminho_333_2_" d="M-382.77,403.22h-355.76c-10.47,0-18.96-8.49-18.96-18.96c0-10.47,8.49-18.96,18.96-18.96h355.76
			c10.47,0,18.96,8.49,18.96,18.96C-363.81,394.73-372.3,403.22-382.77,403.22z"/>
	</g>
	<g id="Grupo_492_2_" class="rosto" transform="translate(9.403 14.207)">
		<g id="Grupo_490_2_" transform="translate(16.477)">
			<path id="Caminho_334_2_" d="M-372.8,226.56c0.12,22.73-18.21,41.25-40.93,41.37c-22.72,0.12-41.24-18.21-41.36-40.93
				s18.21-41.25,40.93-41.37c0.07,0,0.14,0,0.22,0C-391.29,185.57-372.87,203.9-372.8,226.56z"/>
		</g>
		<g id="Grupo_491_2_">
			<path id="Caminho_335_2_" d="M-681.97,226.56c0.12,22.73-18.21,41.25-40.93,41.37c-22.72,0.12-41.24-18.21-41.36-40.93
				c-0.12-22.73,18.21-41.25,40.93-41.37c0.07,0,0.14,0,0.22,0C-700.45,185.57-682.03,203.9-681.97,226.56z"/>
		</g>
	</g>
</g>
</svg>
