<?xml version="1.0" encoding="utf-8"?>
<!-- Generator: Adobe Illustrator 24.0.2, SVG Export Plug-In . SVG Version: 6.00 Build 0)  -->
<svg version="1.1" id="Camada_1" xmlns="http://www.w3.org/2000/svg" xmlns:xlink="http://www.w3.org/1999/xlink" x="0px" y="0px"
	 viewBox="0 0 925.96 925.96" style="enable-background:new 0 0 925.96 925.96;" xml:space="preserve">
<style type="text/css">
	.st0{fill:#53B725;}
	.st1{fill:#F2D60F;}
	.st2{fill:#BF2F08;}
</style>
<g id="Grupo_536" transform="translate(-1012.426 -95.306)">
	<g id="Grupo_473" transform="translate(1012.426 95.306)">
		<circle id="Elipse_23" class="st0 bg" cx="462.98" cy="462.98" r="389.85"/>
		<g id="Grupo_469" class="rosto" transform="translate(10.689 17.182)">
			<g id="Grupo_466" transform="translate(18.6)">
				<g id="Grupo_465">
					<path id="Caminho_324" d="M659.61,395.53c2.87,1.79,6.65,0.91,8.44-1.96c0.59-0.94,0.91-2.03,0.93-3.14v-0.12
						c0.11-28.43-22.85-51.58-51.29-51.69c-28.44-0.11-51.58,22.85-51.69,51.29c0,0.13,0,0.27,0,0.4v0.12
						c0.06,3.38,2.84,6.08,6.23,6.03c1.11-0.02,2.2-0.34,3.14-0.93c25.81-15.92,58.4-15.92,84.22,0H659.61z"/>
				</g>
			</g>
			<g id="Grupo_468">
				<g id="Grupo_467">
					<path id="Caminho_325" d="M310.62,395.53c2.87,1.79,6.65,0.91,8.44-1.96c0.59-0.94,0.91-2.03,0.93-3.14v-0.12
						c0-28.45-23.06-51.51-51.51-51.51c-28.45,0-51.51,23.06-51.51,51.51v0.12c0.06,3.38,2.84,6.08,6.23,6.03
						c1.11-0.02,2.2-0.34,3.14-0.93C252.18,379.6,284.79,379.6,310.62,395.53z"/>
				</g>
			</g>
		</g>
		<g id="Grupo_472" class="rosto" transform="translate(13.432 26.406)">
			<g id="Grupo_471">
				<g id="Grupo_470">
					<path id="Caminho_326" d="M451.67,614.15c-65.6-0.13-128.78-24.81-177.11-69.18c-7.71-7.17-8.15-19.23-0.99-26.94
						c7.17-7.71,19.23-8.15,26.94-0.99c83.95,77.29,212.68,78.82,298.44,3.54c8.11-6.73,20.13-5.61,26.86,2.5
						c6.43,7.75,5.73,19.16-1.6,26.06C576.56,591.16,515.19,614.28,451.67,614.15z"/>
				</g>
			</g>
		</g>
	</g>
</g>
</svg>
